<?xml version="1.0" encoding="utf-8"?>
<!-- Generator: Adobe Illustrator 21.1.0, SVG Export Plug-In . SVG Version: 6.00 Build 0)  -->
<svg version="1.1" id="Layer_1" xmlns="http://www.w3.org/2000/svg" xmlns:xlink="http://www.w3.org/1999/xlink" x="0px" y="0px"
	 viewBox="0 0 283.5 283.5" style="enable-background:new 0 0 283.5 283.5;" xml:space="preserve">
<style type="text/css">
	.st0{fill:#E0632D;}
	.st1{fill:#424143;}
	.st2{fill:#FFFFFF;}
	.st3{fill:#FBDA73;}
	.st4{fill:#2A83C6;}
	.st5{fill:#E5804E;}
</style>
<g id="XMLID_160_">
	<path id="XMLID_608_" class="st0" d="M221.8,29.1H46.9c-1.6,0-2.8,1.3-2.8,2.8v181.2c0,1,0.8,1.7,1.7,1.7h175.9V29.1z"/>
	<path class="st1" d="M221.8,219.3H54.5c-8.2,0-14.8-6.6-14.8-14.8V45.9c0-11.7,9.5-21.2,21.2-21.2h55.4v8.8H60.9
		c-6.8,0-12.4,5.5-12.4,12.4v158.6c0,3.3,2.7,6,6,6h167.3V219.3z"/>
	<path id="XMLID_605_" class="st2" d="M225.2,29.1H60.9c10.7,0,16.8,8.6,16.8,16.8l-0.4,183.4c0,5.7,4.6,10.4,10.4,10.4h163.4
		c-8.7,0-16.1-7.5-16.1-16.1V38.9C235,33.5,230.6,29.1,225.2,29.1z"/>
	<path class="st1" d="M135.5,244.1H87.7c-4,0-7.7-1.5-10.5-4.3c-2.8-2.8-4.3-6.5-4.3-10.5l0.4-183.4c0-6-4.3-12.4-12.4-12.4v-8.8
		h98.1v8.8H78.2c2.6,3.7,3.9,8.1,3.9,12.4l-0.4,183.4c0,1.6,0.6,3.1,1.7,4.2c1.1,1.1,2.6,1.7,4.2,1.7h47.8V244.1z"/>
	<rect x="166.8" y="24.7" class="st1" width="27.5" height="8.8"/>
	<path class="st1" d="M251.2,244.1H182v-8.8h52.4c-2.4-3.3-3.8-7.4-3.8-11.7V38.9c0-3-2.4-5.4-5.4-5.4h-19.9v-8.8h19.9
		c7.9,0,14.3,6.4,14.3,14.3v184.6c0,6.2,5.5,11.7,11.7,11.7V244.1z"/>
	<rect x="101.8" y="73.3" class="st1" width="108.3" height="8.8"/>
	<rect x="101.8" y="90.3" class="st1" width="108.3" height="8.8"/>
	<rect x="101.8" y="107.3" class="st1" width="108.3" height="8.8"/>
	<rect x="101.8" y="124.3" class="st1" width="108.3" height="8.8"/>
	<rect x="101.8" y="141.3" class="st1" width="108.3" height="8.8"/>
	<polygon id="XMLID_539_" class="st0" points="159,209.1 146.2,209.1 146.2,249 159,243.8 171.7,249 171.7,209.1 	"/>
	<path class="st1" d="M176.1,255.5l-17.2-7l-17.2,7v-50.8h34.3V255.5z M150.6,213.6v28.8l8.3-3.4l8.3,3.4v-28.8H150.6z"/>
	<g>
		<path id="XMLID_1_" class="st3" d="M191,197c0,4.1-3.8,7.5-5.3,11.1c-1.5,3.7-1.3,8.8-4.1,11.6c-2.8,2.8-7.9,2.5-11.6,4.1
			c-3.6,1.5-7,5.3-11.1,5.3c-4.1,0-7.5-3.8-11.1-5.3c-3.7-1.5-8.8-1.3-11.6-4.1c-2.8-2.8-2.5-7.9-4.1-11.6c-1.5-3.6-5.3-7-5.3-11.1
			s3.8-7.5,5.3-11.1c1.5-3.7,1.3-8.8,4.1-11.6s7.9-2.5,11.6-4.1c3.6-1.5,7-5.3,11.1-5.3c4.1,0,7.5,3.8,11.1,5.3
			c3.7,1.5,8.8,1.3,11.6,4.1c2.8,2.8,2.5,7.9,4.1,11.6C187.2,189.5,191,192.9,191,197z"/>
		<path class="st4" d="M158.9,233.5c-4,0-7.1-2.1-9.7-3.8c-1.1-0.8-2.2-1.5-3.1-1.9c-1-0.4-2.3-0.7-3.7-1c-3.1-0.6-6.6-1.4-9.3-4.1
			s-3.4-6.2-4.1-9.3c-0.3-1.4-0.6-2.7-1-3.7c-0.4-0.9-1.1-2-1.9-3.1c-1.7-2.5-3.8-5.7-3.8-9.7c0-4,2.1-7.1,3.8-9.7
			c0.8-1.1,1.5-2.2,1.9-3.1c0.4-1,0.7-2.3,1-3.7c0.6-3.1,1.4-6.6,4.1-9.3c2.7-2.7,6.2-3.4,9.3-4.1c1.4-0.3,2.7-0.6,3.7-1
			c0.9-0.4,2-1.1,3.1-1.9c2.5-1.7,5.7-3.8,9.7-3.8s7.1,2.1,9.7,3.8c1.1,0.8,2.2,1.5,3.1,1.9c1,0.4,2.3,0.7,3.7,1
			c3.1,0.6,6.6,1.4,9.3,4.1c2.7,2.7,3.4,6.2,4.1,9.3c0.3,1.4,0.6,2.7,1,3.7c0.4,0.9,1.1,2,1.9,3.1c1.7,2.5,3.8,5.7,3.8,9.7
			c0,4-2.1,7.1-3.8,9.7c-0.8,1.1-1.5,2.2-1.9,3.1c-0.4,1-0.7,2.3-1,3.7c-0.6,3.1-1.4,6.6-4.1,9.3s-6.2,3.4-9.3,4.1
			c-1.4,0.3-2.7,0.6-3.7,1c-0.9,0.4-2,1.1-3.1,1.9C166.1,231.4,162.9,233.5,158.9,233.5z M158.9,169.3c-1.3,0-3,1.1-4.7,2.3
			c-1.4,1-2.9,2-4.6,2.7c-1.8,0.7-3.6,1.1-5.3,1.5c-2,0.4-4,0.8-4.8,1.7c-0.8,0.8-1.3,2.9-1.7,4.8c-0.4,1.7-0.7,3.5-1.5,5.3
			c-0.7,1.7-1.7,3.2-2.7,4.6c-1.2,1.8-2.3,3.5-2.3,4.8c0,1.3,1.1,3,2.3,4.8c1,1.4,2,2.9,2.7,4.6c0.7,1.8,1.1,3.6,1.5,5.3
			c0.4,2,0.8,4,1.7,4.8c0.8,0.8,2.9,1.3,4.8,1.7c1.7,0.4,3.5,0.7,5.3,1.5c1.7,0.7,3.2,1.7,4.6,2.7c1.8,1.2,3.5,2.3,4.7,2.3
			c1.3,0,3-1.1,4.8-2.3c1.4-1,2.9-2,4.6-2.7c1.8-0.7,3.6-1.1,5.3-1.5c2-0.4,4-0.8,4.8-1.7s1.3-2.9,1.7-4.8c0.4-1.7,0.7-3.5,1.5-5.3
			c0.7-1.7,1.7-3.2,2.7-4.6c1.2-1.8,2.3-3.5,2.3-4.8c0-1.3-1.1-3-2.3-4.8c-1-1.4-2-2.9-2.7-4.6c-0.7-1.8-1.1-3.6-1.5-5.3
			c-0.4-2-0.8-4-1.7-4.8c-0.8-0.8-2.9-1.3-4.9-1.7c-1.7-0.4-3.5-0.7-5.3-1.5c-1.7-0.7-3.2-1.7-4.6-2.7
			C161.9,170.5,160.2,169.3,158.9,169.3z"/>
	</g>
	<path class="st1" d="M158.9,233.5c-4,0-7.1-2.1-9.7-3.8c-1.1-0.8-2.2-1.5-3.1-1.9c-1-0.4-2.3-0.7-3.7-1c-3.1-0.6-6.6-1.4-9.3-4.1
		s-3.4-6.2-4.1-9.3c-0.3-1.4-0.6-2.7-1-3.7c-0.4-0.9-1.1-2-1.9-3.1c-1.7-2.5-3.8-5.7-3.8-9.7c0-4,2.1-7.1,3.8-9.7
		c0.8-1.1,1.5-2.2,1.9-3.1c0.4-1,0.7-2.3,1-3.7c0.6-3.1,1.4-6.6,4.1-9.3c2.7-2.7,6.2-3.4,9.3-4.1c1.4-0.3,2.7-0.6,3.7-1
		c0.9-0.4,2-1.1,3.1-1.9c2.5-1.7,5.7-3.8,9.7-3.8s7.1,2.1,9.7,3.8c1.1,0.8,2.2,1.5,3.1,1.9c1,0.4,2.3,0.7,3.7,1
		c3.1,0.6,6.6,1.4,9.3,4.1c2.7,2.7,3.4,6.2,4.1,9.3c0.3,1.4,0.6,2.7,1,3.7c0.4,0.9,1.1,2,1.9,3.1c1.7,2.5,3.8,5.7,3.8,9.7
		c0,4-2.1,7.1-3.8,9.7c-0.8,1.1-1.5,2.2-1.9,3.1c-0.4,1-0.7,2.3-1,3.7c-0.6,3.1-1.4,6.6-4.1,9.3s-6.2,3.4-9.3,4.1
		c-1.4,0.3-2.7,0.6-3.7,1c-0.9,0.4-2,1.1-3.1,1.9C166.1,231.4,162.9,233.5,158.9,233.5z M158.9,169.3c-1.3,0-3,1.1-4.7,2.3
		c-1.4,1-2.9,2-4.6,2.7c-1.8,0.7-3.6,1.1-5.3,1.5c-2,0.4-4,0.8-4.8,1.7c-0.8,0.8-1.3,2.9-1.7,4.8c-0.4,1.7-0.7,3.5-1.5,5.3
		c-0.7,1.7-1.7,3.2-2.7,4.6c-1.2,1.8-2.3,3.5-2.3,4.8c0,1.3,1.1,3,2.3,4.8c1,1.4,2,2.9,2.7,4.6c0.7,1.8,1.1,3.6,1.5,5.3
		c0.4,2,0.8,4,1.7,4.8c0.8,0.8,2.9,1.3,4.8,1.7c1.7,0.4,3.5,0.7,5.3,1.5c1.7,0.7,3.2,1.7,4.6,2.7c1.8,1.2,3.5,2.3,4.7,2.3
		c1.3,0,3-1.1,4.8-2.3c1.4-1,2.9-2,4.6-2.7c1.8-0.7,3.6-1.1,5.3-1.5c2-0.4,4-0.8,4.8-1.7s1.3-2.9,1.7-4.8c0.4-1.7,0.7-3.5,1.5-5.3
		c0.7-1.7,1.7-3.2,2.7-4.6c1.2-1.8,2.3-3.5,2.3-4.8c0-1.3-1.1-3-2.3-4.8c-1-1.4-2-2.9-2.7-4.6c-0.7-1.8-1.1-3.6-1.5-5.3
		c-0.4-2-0.8-4-1.7-4.8c-0.8-0.8-2.9-1.3-4.9-1.7c-1.7-0.4-3.5-0.7-5.3-1.5c-1.7-0.7-3.2-1.7-4.6-2.7
		C161.9,170.5,160.2,169.3,158.9,169.3z"/>
</g>
<g id="XMLID_857_">
	<path id="XMLID_852_" class="st2" d="M536.2,43.7L494,85.9v147.4c0,6.7,5.4,12.1,12.1,12.1h126c6.7,0,12.1-5.4,12.1-12.1V55.7
		c0-6.7-5.4-12.1-12.1-12.1H536.2z"/>
	<polygon id="XMLID_878_" class="st0" points="536.2,85.9 536.2,43.7 494,85.9 	"/>
	<path class="st1" d="M532,90.3h-38v-8.8h38l-0.2-37.8h8.8v38C540.7,86.4,536.8,90.3,532,90.3z"/>
	<path class="st1" d="M574,249.8h-68.4c-8.8,0-16-7.2-16-16V84.1l44.8-44.8h98.3c8.8,0,16,7.2,16,16v79.9h-8.8V55.2
		c0-3.9-3.2-7.1-7.1-7.1h-94.6l-39.6,39.6v146.1c0,3.9,3.2,7.1,7.1,7.1H574V249.8z"/>
	<rect x="514.3" y="143.3" class="st1" width="81.2" height="8.8"/>
	<rect x="514.3" y="117.5" class="st1" width="81.2" height="8.8"/>
	<rect x="514.3" y="94" class="st1" width="81.2" height="8.8"/>
	<rect x="552.4" y="66.8" class="st1" width="43" height="8.8"/>
	<rect x="514.3" y="167.3" class="st1" width="81.2" height="8.8"/>
	<rect x="514.3" y="191.2" class="st1" width="81.2" height="8.8"/>
	<rect x="514.3" y="215.2" class="st1" width="68.8" height="8.8"/>
</g>
<path class="st1" d="M687.7,253.8h-87c-4.2,0-7.9-2.2-10-5.8c-2.1-3.6-2.1-7.9,0-11.5l43.5-75.4c2.1-3.6,5.8-5.8,10-5.8
	c4.2,0,7.9,2.2,10,5.8l43.5,75.4c2.1,3.6,2.1,7.9,0,11.5C695.6,251.6,691.9,253.8,687.7,253.8z M644.2,164.2c-0.5,0-1.6,0.1-2.3,1.4
	l-43.5,75.4c-0.7,1.2-0.2,2.3,0,2.7c0.2,0.4,0.9,1.4,2.3,1.4h87c1.4,0,2.1-0.9,2.3-1.4c0.2-0.4,0.7-1.5,0-2.7l-43.5-75.4
	C645.8,164.3,644.7,164.2,644.2,164.2z"/>
<g>
	<path id="XMLID_2_" class="st0" d="M650.4,163.3l43.5,75.4c2.7,4.7-0.7,10.7-6.2,10.7h-87c-5.5,0-8.9-5.9-6.2-10.7l43.5-75.4
		C640.8,158.6,647.6,158.6,650.4,163.3z"/>
	<path class="st1" d="M687.7,253.8h-87c-4.2,0-7.9-2.2-10-5.8c-2.1-3.6-2.1-7.9,0-11.5l43.5-75.4c2.1-3.6,5.8-5.8,10-5.8
		c4.2,0,7.9,2.2,10,5.8l43.5,75.4c2.1,3.6,2.1,7.9,0,11.5C695.6,251.6,691.9,253.8,687.7,253.8z M644.2,164.2
		c-0.5,0-1.6,0.1-2.3,1.4l-43.5,75.4c-0.7,1.2-0.2,2.3,0,2.7c0.2,0.4,0.9,1.4,2.3,1.4h87c1.4,0,2.1-0.9,2.3-1.4
		c0.2-0.4,0.7-1.5,0-2.7l-43.5-75.4C645.8,164.3,644.7,164.2,644.2,164.2z"/>
</g>
<rect x="639.8" y="182.8" class="st1" width="8.8" height="32.2"/>
<rect x="639.8" y="223.8" class="st1" width="8.8" height="12.5"/>
<g id="XMLID_662_">
	<path id="XMLID_526_" class="st2" d="M1100.6,216.6v-9.5c0-4.5-3.6-8.1-8.1-8.1l-12.6-0.1c-1.5-6.6-4.1-12.7-7.6-18.2l8.9-8.9
		c3.2-3.2,3.2-8.4,0-11.5l-6.7-6.7c-3.2-3.2-8.4-3.2-11.5,0l-9,8.9c-5.5-3.5-11.6-6.1-18.2-7.6v-12.6c0-4.5-3.7-8.2-8.2-8.2h-9.4
		c-4.5,0-8.2,3.7-8.2,8.2v12.6c-6.5,1.5-12.5,4-17.9,7.4l-8.9-9c-3.2-3.2-8.4-3.3-11.6-0.1l-6.7,6.6c-3.2,3.2-3.2,8.3-0.1,11.5
		l8.9,9c-3.5,5.5-6.1,11.6-7.6,18.2l-12.6-0.1c-4.5,0-8.2,3.6-8.2,8.2l-0.1,9.4H997c0-14.3,11.6-30.3,25.9-30.3
		c14.3,0,25.9,16,25.9,30.3L1100.6,216.6z"/>
	<path class="st1" d="M991.2,257.4h-9.5v-8.8h9.5c2,0,3.7-1.7,3.7-3.7l0.1-16.2l3.4-0.8c6-1.4,11.7-3.7,16.8-7l3-1.9l11.4,11.4
		c0.7,0.7,1.7,1.1,2.7,1.1l0,0c1,0,1.9-0.4,2.6-1.1l6.7-6.7c1.5-1.5,1.5-3.8,0-5.3l-11.4-11.5l1.9-3c3.3-5.1,5.6-10.8,7-16.8
		l0.8-3.4h16.2c2.1,0,3.7-1.7,3.7-3.8v-9.4c0-2.1-1.7-3.8-3.7-3.8h-16.2l-0.8-3.5c-1.3-5.8-3.6-11.4-6.8-16.6l-1.8-3l11.5-11.4
		c0.7-0.7,1.1-1.7,1.1-2.7c0-1-0.4-1.9-1.1-2.6l-6.7-6.8c-0.7-0.7-1.6-1.1-2.6-1.1c0,0,0,0,0,0c-1,0-1.9,0.4-2.6,1.1l-11.5,11.4
		l-3-1.9c-5.2-3.3-10.8-5.7-16.8-7l-3.4-0.8l0.1-16.2c0-1-0.4-1.9-1.1-2.6c-0.7-0.7-1.7-1.1-2.7-1.1l-9.5-0.1l0.1-8.8l9.4,0.1
		c3.4,0,6.5,1.3,8.9,3.7c2.4,2.4,3.7,5.6,3.6,8.9l0,9.2c4.6,1.3,8.9,3.2,13.1,5.5l6.5-6.5c2.4-2.3,5.5-3.6,8.8-3.6c0,0,0,0,0.1,0
		c3.4,0,6.5,1.3,8.9,3.7l6.6,6.7c2.3,2.3,3.7,5.5,3.7,8.8c0,3.4-1.3,6.6-3.7,9l-6.5,6.5c2.2,4.1,4,8.4,5.3,12.8h9.2
		c6.9,0,12.6,5.7,12.6,12.6v9.4c0,7-5.7,12.6-12.6,12.6h-9.2c-1.3,4.6-3.1,8.9-5.4,13.1l6.5,6.5c4.9,4.9,4.9,12.9,0,17.8l-6.7,6.7
		c-2.4,2.4-5.5,3.7-8.9,3.7h0c-3.4,0-6.5-1.3-8.9-3.7l-6.5-6.5c-4.1,2.3-8.5,4.1-13.1,5.4l0,9.2
		C1003.7,251.8,998.1,257.4,991.2,257.4z M986.6,205.7v-8.8c11.8,0,21.4-9.6,21.4-21.5c0-11.9-9.6-21.5-21.4-21.5V145
		c16.7,0,30.3,13.6,30.3,30.4C1016.8,192.1,1003.3,205.7,986.6,205.7z"/>
	<path id="XMLID_331_" class="st0" d="M1136.7,85.6l-10.2-3.3c0.5-5.7,0-11.3-1.4-16.7l9.5-4.9c3.4-1.7,4.8-5.9,3-9.3l-3.7-7.1
		c-1.7-3.4-5.9-4.8-9.3-3l-9.6,4.9c-3.5-4.2-7.8-7.9-12.7-10.8l3.3-10.2c1.2-3.6-0.8-7.6-4.5-8.7l-7.6-2.5c-3.6-1.2-7.6,0.8-8.7,4.5
		l-3.3,10.2c-5.6-0.5-11.1,0-16.4,1.3l-4.8-9.6c-1.7-3.4-5.9-4.8-9.3-3.1l-7.2,3.6c-3.4,1.7-4.8,5.9-3.1,9.3l4.8,9.6
		c-4.3,3.5-8,7.8-10.9,12.7l-10.2-3.3c-3.6-1.2-7.5,0.8-8.7,4.5l-2.5,7.6c-1.2,3.6,0.8,7.5,4.4,8.7l10.2,3.3
		c-0.5,5.7-0.1,11.3,1.3,16.6l-9.6,4.9c-3.4,1.7-4.8,5.9-3,9.3l3.6,7.1c1.7,3.4,5.9,4.8,9.3,3.1l9.6-4.8c3.5,4.2,7.8,8,12.7,10.9
		l-3.3,10.2c-1.2,3.6,0.8,7.6,4.4,8.7l7.6,2.5c3.6,1.2,7.5-0.8,8.7-4.4l3.3-10.2c5.7,0.5,11.3,0,16.7-1.3l4.9,9.6
		c1.7,3.4,5.9,4.8,9.4,3l7.1-3.6c3.4-1.7,4.8-5.9,3-9.3l-4.8-9.5c4.2-3.5,7.9-7.8,10.9-12.7l10.2,3.3c3.6,1.2,7.5-0.8,8.7-4.4
		l2.5-7.6C1142.3,90.7,1140.3,86.8,1136.7,85.6z M1070.5,98.7c-11.6-3.7-17.9-16.1-14.2-27.7c3.7-11.5,16.1-17.9,27.7-14.1
		c11.5,3.7,17.9,16.1,14.2,27.6C1094.4,96.1,1082,102.4,1070.5,98.7z"/>
	<path class="st1" d="M1062.8,146.4c-1.2,0-2.4-0.2-3.5-0.6l-7.6-2.5c-2.9-0.9-5.2-2.9-6.6-5.6c-1.4-2.7-1.6-5.8-0.7-8.7l2.3-6.9
		c-3.1-2.1-5.9-4.5-8.5-7.3l-6.5,3.3c-2.7,1.4-5.8,1.6-8.6,0.7c-2.9-0.9-5.2-3-6.6-5.7l-3.6-7.1c-1.4-2.7-1.6-5.8-0.7-8.7
		c0.9-2.9,2.9-5.2,5.6-6.6l6.5-3.3c-0.7-3.6-1-7.4-0.9-11.1l-6.9-2.3c-6-2-9.2-8.4-7.2-14.3l2.5-7.6c0.9-2.9,3-5.2,5.7-6.6
		c2.7-1.4,5.8-1.6,8.7-0.6l6.9,2.3c2.1-3.1,4.6-5.9,7.3-8.5l-3.3-6.5c-1.4-2.7-1.6-5.8-0.7-8.6c0.9-2.9,3-5.2,5.7-6.6l7.2-3.6
		c2.6-1.4,5.7-1.6,8.6-0.7c2.9,0.9,5.3,3,6.7,5.7l3.3,6.5c3.6-0.6,7.2-0.9,10.8-0.8l2.2-6.9c0.9-2.9,2.9-5.2,5.6-6.6
		c2.7-1.4,5.8-1.6,8.7-0.7l7.6,2.5c2.9,0.9,5.2,2.9,6.6,5.6c1.4,2.7,1.6,5.8,0.7,8.7l-2.2,6.9c3.1,2.1,5.9,4.5,8.5,7.2l6.5-3.3
		c5.6-2.8,12.4-0.6,15.3,5l3.7,7.1c1.4,2.7,1.6,5.8,0.7,8.6c-0.9,2.9-2.9,5.2-5.7,6.6l-6.5,3.3c0.7,3.7,1,7.4,0.9,11.1l6.9,2.3
		c5.9,1.9,9.2,8.3,7.3,14.2l-2.5,7.6c-1.9,5.9-8.4,9.2-14.3,7.3l-6.9-2.3c-2.1,3.1-4.5,5.9-7.3,8.5l3.3,6.5c1.4,2.6,1.6,5.7,0.7,8.6
		c-0.9,2.9-3,5.3-5.7,6.6l-7.1,3.6c-5.6,2.8-12.5,0.6-15.3-4.9l-3.3-6.5c-3.7,0.7-7.4,1-11.1,0.9l-2.3,7c-0.9,2.9-2.9,5.2-5.6,6.6
		C1066.3,146,1064.6,146.4,1062.8,146.4z M1040.3,103.8l2.3,2.7c3.3,4,7.2,7.3,11.6,9.9l3,1.8l-4.4,13.5c-0.2,0.6-0.2,1.3,0.1,1.9
		c0.3,0.6,0.8,1,1.4,1.2l7.6,2.5c0.6,0.2,1.3,0.2,1.9-0.1c0.6-0.3,1-0.8,1.2-1.4l4.4-13.6l3.5,0.3c5.1,0.5,10.2,0.1,15.2-1.2
		l3.4-0.9l6.5,12.7c0.6,1.2,2.2,1.7,3.4,1.1l7.1-3.6c0.6-0.3,1.1-0.8,1.3-1.5c0.1-0.4,0.2-1.1-0.2-1.9l-6.4-12.7l2.7-2.3
		c4-3.3,7.3-7.2,9.9-11.6l1.8-3l13.5,4.4c1.3,0.4,2.7-0.3,3.2-1.6l2.5-7.6c0.4-1.3-0.3-2.7-1.6-3.1l0,0l-13.5-4.4l0.3-3.5
		c0.5-5.1,0-10.2-1.2-15.2l-0.9-3.4l12.7-6.5c0.6-0.3,1.1-0.8,1.3-1.5c0.2-0.6,0.1-1.3-0.1-1.9l-3.7-7.2c-0.6-1.2-2.1-1.7-3.4-1.1
		l-12.7,6.5l-2.3-2.7c-3.2-3.9-7.1-7.2-11.6-9.9l-3-1.8l4.4-13.5c0.2-0.6,0.1-1.3-0.2-1.9c-0.3-0.6-0.8-1-1.5-1.2l-7.6-2.5
		c-0.6-0.2-1.3-0.2-1.9,0.2c-0.6,0.3-1,0.8-1.2,1.5l-4.4,13.6l-3.5-0.3c-4.9-0.5-10-0.1-14.9,1.2l-3.4,0.8l-6.4-12.7
		c-0.3-0.6-0.8-1.1-1.5-1.3c-0.4-0.1-1.1-0.2-1.9,0.1l-7.2,3.6c-0.6,0.3-1,0.8-1.2,1.5c-0.1,0.4-0.3,1.1,0.1,1.9l6.4,12.7l-2.7,2.2
		c-3.9,3.3-7.3,7.1-9.9,11.5l-1.8,3l-13.5-4.4c-0.7-0.2-1.3-0.2-1.9,0.1c-0.6,0.3-1,0.8-1.3,1.5l-2.5,7.6c-0.4,1.3,0.3,2.7,1.6,3.2
		l13.5,4.4l-0.3,3.5c-0.5,5.1-0.1,10.2,1.2,15.1l0.9,3.4l-12.8,6.5c-0.6,0.3-1,0.8-1.2,1.4c-0.2,0.6-0.2,1.3,0.1,1.9l3.6,7.1
		c0.3,0.6,0.8,1.1,1.5,1.3c0.6,0.2,1.3,0.1,1.9-0.1L1040.3,103.8z M1077.2,104.2c-2.7,0-5.4-0.4-8.1-1.3
		c-6.7-2.2-12.2-6.8-15.4-13.1c-3.2-6.3-3.8-13.4-1.6-20.2c2.2-6.7,6.8-12.2,13.1-15.4s13.4-3.8,20.1-1.6
		c13.9,4.5,21.5,19.4,17,33.2C1098.8,97.1,1088.4,104.2,1077.2,104.2z M1071.9,94.5c9.2,3,19.1-2.1,22.1-11.3
		c1.4-4.5,1.1-9.2-1.1-13.4c-2.1-4.2-5.8-7.3-10.2-8.7c-4.5-1.4-9.2-1.1-13.4,1.1c-4.2,2.1-7.3,5.8-8.7,10.2
		c-1.4,4.5-1.1,9.2,1.1,13.4C1063.7,90,1067.4,93.1,1071.9,94.5L1071.9,94.5z"/>
</g>
<g id="XMLID_93_">
	<g id="XMLID_88_">
		<path id="XMLID_77_" class="st3" d="M986.7,255.4h-46c-0.8,0-1.4-0.6-1.4-1.4V35c0-0.8,0.6-1.4,1.4-1.4h46c0.8,0,1.4,0.6,1.4,1.4
			v219C988.2,254.8,987.5,255.4,986.7,255.4z"/>
		<path class="st1" d="M979.9,259.8h-32.2c-7,0-12.7-5.7-12.7-12.7V41.9c0-7,5.7-12.7,12.7-12.7h32.2c7,0,12.7,5.7,12.7,12.7v205.2
			C992.6,254.1,986.9,259.8,979.9,259.8z M947.7,38c-2.1,0-3.9,1.7-3.9,3.9v205.2c0,2.1,1.7,3.9,3.9,3.9h32.2c2.1,0,3.9-1.7,3.9-3.9
			V41.9c0-2.1-1.7-3.9-3.9-3.9H947.7z"/>
		<rect x="939.4" y="54.1" class="st1" width="29.8" height="8.8"/>
		<rect x="939.4" y="75.1" class="st1" width="14.9" height="8.8"/>
		<rect x="939.4" y="96.1" class="st1" width="14.9" height="8.8"/>
		<rect x="939.4" y="117" class="st1" width="14.9" height="8.8"/>
		<rect x="939.4" y="138" class="st1" width="29.8" height="8.8"/>
		<rect x="939.4" y="159" class="st1" width="14.9" height="8.8"/>
		<rect x="939.4" y="180" class="st1" width="14.9" height="8.8"/>
		<rect x="939.4" y="200.9" class="st1" width="14.9" height="8.8"/>
		<rect x="939.4" y="221.9" class="st1" width="29.8" height="8.8"/>
	</g>
	<g id="XMLID_90_">
		<path id="XMLID_263_" class="st2" d="M918.2,255.4h-12.8c-1,0-1.7-0.8-1.7-1.8V68.8c0-0.3,0.1-0.5,0.2-0.7l6.4-13.9
			c0.6-1.4,2.6-1.4,3.2,0l6.4,13.9c0.1,0.2,0.2,0.5,0.2,0.7v184.9C920,254.6,919.2,255.4,918.2,255.4z"/>
		<rect id="XMLID_270_" x="903.6" y="74.7" class="st0" width="16.3" height="163"/>
		<path class="st1" d="M924.4,259.8h-25.2V67.5l7.6-16.5c0.9-1.9,2.8-3.2,4.9-3.2c0,0,0,0,0,0c2.1,0,4.1,1.2,5,3.2l7.6,16.5V259.8z
			 M908.1,251h7.5V69.4l-3.7-8.1l-3.7,8.1V251z M914.9,54.6L914.9,54.6C914.9,54.6,914.9,54.6,914.9,54.6z"/>
		<rect x="903.1" y="70.3" class="st1" width="16.9" height="8.8"/>
		<rect x="902.4" y="233.3" class="st1" width="18.8" height="8.8"/>
	</g>
</g>
<path id="XMLID_117_" class="st2" d="M1448.1,199.1h-20.9v-29h20.1l7.7,18.8C1457,193.8,1453.4,199.1,1448.1,199.1z"/>
<path class="st1" d="M1448.1,203.6h-25.3v-37.9h27.5l8.8,21.6c1.5,3.6,1.1,7.8-1.1,11.1C1455.8,201.6,1452.1,203.6,1448.1,203.6z
	 M1431.7,194.7h16.5c1.4,0,2.2-0.9,2.5-1.3c0.3-0.4,0.8-1.5,0.3-2.8l-6.5-16.1h-12.7V194.7z"/>
<path id="XMLID_113_" class="st3" d="M1445.2,253.7h-24.9c-3.2,0-6-2.1-6.8-5.2l-19.2-73.5h39.4l18.3,70
	C1453.1,249.3,1449.8,253.7,1445.2,253.7z"/>
<path class="st1" d="M1445.2,258.1h-24.9c-5.2,0-9.7-3.5-11-8.5l-20.6-79.1h48.5l19.1,73.3c0.9,3.4,0.2,7-2,9.9
	C1452,256.5,1448.7,258.1,1445.2,258.1z M1400,179.3l17.7,68c0.3,1.1,1.3,1.9,2.5,1.9h24.9c1.1,0,1.7-0.6,2-1
	c0.3-0.4,0.7-1.2,0.5-2.2l-17.4-66.7H1400z"/>
<path id="XMLID_111_" class="st2" d="M1580.3,207.3l-118.8-30.5V92.6l118.8-30.5c5.4-1.4,10.7,2.7,10.7,8.3V199
	C1591,204.6,1585.7,208.7,1580.3,207.3z"/>
<circle id="XMLID_110_" class="st2" cx="1373.3" cy="134.7" r="26.9"/>
<path class="st1" d="M1373.3,166c-17.3,0-31.3-14-31.3-31.3s14-31.3,31.3-31.3s31.3,14,31.3,31.3S1390.6,166,1373.3,166z
	 M1373.3,112.3c-12.4,0-22.5,10.1-22.5,22.5s10.1,22.5,22.5,22.5c12.4,0,22.5-10.1,22.5-22.5S1385.7,112.3,1373.3,112.3z"/>
<path class="st1" d="M1583.9,212.4c-1,0-1.9-0.1-2.9-0.4l-123.9-31.8V89.2l56.2-14.4l2.2,8.6L1465.9,96v77.3l117.2,30.1
	c1.1,0.3,2-0.2,2.3-0.5c0.4-0.3,1.1-1,1.1-2.1V68.5c0-1.2-0.7-1.8-1.1-2.1c-0.4-0.3-1.2-0.8-2.3-0.5l-23.9,6.2l-2.2-8.6l23.9-6.2
	c3.5-0.9,7.1-0.1,10,2.1c2.9,2.2,4.5,5.5,4.5,9.1v132.3c0,3.6-1.6,6.9-4.5,9.1C1588.9,211.6,1586.4,212.4,1583.9,212.4z"/>
<rect x="1526" y="69.4" transform="matrix(0.9686 -0.2487 0.2487 0.9686 29.838 383.8932)" class="st1" width="17.1" height="8.8"/>
<rect id="XMLID_107_" x="1372.5" y="92.6" class="st5" width="92.2" height="84.2"/>
<rect id="XMLID_108_" x="1372.5" y="142.2" class="st0" width="92.2" height="34.6"/>
<path class="st1" d="M1469.1,181.2h-86c-8.3,0-15-6.7-15-15v-63c0-8.3,6.7-15,15-15h86V181.2z M1383.1,97c-3.4,0-6.2,2.8-6.2,6.2v63
	c0,3.4,2.8,6.2,6.2,6.2h77.1V97H1383.1z"/>
</svg>
