<?xml version="1.0" encoding="utf-8"?>
<!-- Generator: Adobe Illustrator 21.1.0, SVG Export Plug-In . SVG Version: 6.00 Build 0)  -->
<svg version="1.1" id="Layer_1" xmlns="http://www.w3.org/2000/svg" xmlns:xlink="http://www.w3.org/1999/xlink" x="0px" y="0px"
	 viewBox="0 0 283.5 283.5" style="enable-background:new 0 0 283.5 283.5;" xml:space="preserve">
<style type="text/css">
	.st0{fill:#E0632D;}
	.st1{fill:#424143;}
	.st2{fill:#FFFFFF;}
	.st3{fill:#FBDA73;}
	.st4{fill:#2A83C6;}
	.st5{fill:#E5804E;}
</style>
<g id="XMLID_160_">
	<path id="XMLID_608_" class="st0" d="M-228.9,29.1h-174.9c-1.6,0-2.8,1.3-2.8,2.8v181.2c0,1,0.8,1.7,1.7,1.7h175.9V29.1z"/>
	<path class="st1" d="M-228.9,219.3h-167.3c-8.2,0-14.8-6.6-14.8-14.8V45.9c0-11.7,9.5-21.2,21.2-21.2h55.4v8.8h-55.4
		c-6.8,0-12.4,5.5-12.4,12.4v158.6c0,3.3,2.7,6,6,6h167.3V219.3z"/>
	<path id="XMLID_605_" class="st2" d="M-225.5,29.1h-164.3c10.7,0,16.8,8.6,16.8,16.8l-0.4,183.4c0,5.7,4.6,10.4,10.4,10.4h163.4
		c-8.7,0-16.1-7.5-16.1-16.1V38.9C-215.6,33.5-220.1,29.1-225.5,29.1z"/>
	<path class="st1" d="M-315.2,244.1H-363c-4,0-7.7-1.5-10.5-4.3c-2.8-2.8-4.3-6.5-4.3-10.5l0.4-183.4c0-6-4.3-12.4-12.4-12.4v-8.8
		h98.1v8.8h-80.7c2.6,3.7,3.9,8.1,3.9,12.4l-0.4,183.4c0,1.6,0.6,3.1,1.7,4.2c1.1,1.1,2.6,1.7,4.2,1.7h47.8V244.1z"/>
	<rect x="-283.9" y="24.7" class="st1" width="27.5" height="8.8"/>
	<path class="st1" d="M-199.5,244.1h-69.1v-8.8h52.4c-2.4-3.3-3.8-7.4-3.8-11.7V38.9c0-3-2.4-5.4-5.4-5.4h-19.9v-8.8h19.9
		c7.9,0,14.3,6.4,14.3,14.3v184.6c0,6.2,5.5,11.7,11.7,11.7V244.1z"/>
	<rect x="-348.9" y="73.3" class="st1" width="108.3" height="8.8"/>
	<rect x="-348.9" y="90.3" class="st1" width="108.3" height="8.8"/>
	<rect x="-348.9" y="107.3" class="st1" width="108.3" height="8.8"/>
	<rect x="-348.9" y="124.3" class="st1" width="108.3" height="8.8"/>
	<rect x="-348.9" y="141.3" class="st1" width="108.3" height="8.8"/>
	<polygon id="XMLID_539_" class="st0" points="-291.7,209.1 -304.5,209.1 -304.5,249 -291.7,243.8 -279,249 -279,209.1 	"/>
	<path class="st1" d="M-274.5,255.5l-17.2-7l-17.2,7v-50.8h34.3V255.5z M-300,213.6v28.8l8.3-3.4l8.3,3.4v-28.8H-300z"/>
	<g>
		<path id="XMLID_1_" class="st3" d="M-259.6,197c0,4.1-3.8,7.5-5.3,11.1c-1.5,3.7-1.3,8.8-4.1,11.6c-2.8,2.8-7.9,2.5-11.6,4.1
			c-3.6,1.5-7,5.3-11.1,5.3c-4.1,0-7.5-3.8-11.1-5.3c-3.7-1.5-8.8-1.3-11.6-4.1c-2.8-2.8-2.5-7.9-4.1-11.6c-1.5-3.6-5.3-7-5.3-11.1
			s3.8-7.5,5.3-11.1c1.5-3.7,1.3-8.8,4.1-11.6s7.9-2.5,11.6-4.1c3.6-1.5,7-5.3,11.1-5.3c4.1,0,7.5,3.8,11.1,5.3
			c3.7,1.5,8.8,1.3,11.6,4.1c2.8,2.8,2.5,7.9,4.1,11.6C-263.4,189.5-259.6,192.9-259.6,197z"/>
		<path class="st4" d="M-291.7,233.5c-4,0-7.1-2.1-9.7-3.8c-1.1-0.8-2.2-1.5-3.1-1.9c-1-0.4-2.3-0.7-3.7-1c-3.1-0.6-6.6-1.4-9.3-4.1
			c-2.7-2.7-3.4-6.2-4.1-9.3c-0.3-1.4-0.6-2.7-1-3.7c-0.4-0.9-1.1-2-1.9-3.1c-1.7-2.5-3.8-5.7-3.8-9.7c0-4,2.1-7.1,3.8-9.7
			c0.8-1.1,1.5-2.2,1.9-3.1c0.4-1,0.7-2.3,1-3.7c0.6-3.1,1.4-6.6,4.1-9.3c2.7-2.7,6.2-3.4,9.3-4.1c1.4-0.3,2.7-0.6,3.7-1
			c0.9-0.4,2-1.1,3.1-1.9c2.5-1.7,5.7-3.8,9.7-3.8s7.1,2.1,9.7,3.8c1.1,0.8,2.2,1.5,3.1,1.9c1,0.4,2.3,0.7,3.7,1
			c3.1,0.6,6.6,1.4,9.3,4.1c2.7,2.7,3.4,6.2,4.1,9.3c0.3,1.4,0.6,2.7,1,3.7c0.4,0.9,1.1,2,1.9,3.1c1.7,2.5,3.8,5.7,3.8,9.7
			c0,4-2.1,7.1-3.8,9.7c-0.8,1.1-1.5,2.2-1.9,3.1c-0.4,1-0.7,2.3-1,3.7c-0.6,3.1-1.4,6.6-4.1,9.3c-2.7,2.7-6.2,3.4-9.3,4.1
			c-1.4,0.3-2.7,0.6-3.7,1c-0.9,0.4-2,1.1-3.1,1.9C-284.6,231.4-287.7,233.5-291.7,233.5z M-291.7,169.3c-1.3,0-3,1.1-4.7,2.3
			c-1.4,1-2.9,2-4.6,2.7c-1.8,0.7-3.6,1.1-5.3,1.5c-2,0.4-4,0.8-4.8,1.7c-0.8,0.8-1.3,2.9-1.7,4.8c-0.4,1.7-0.7,3.5-1.5,5.3
			c-0.7,1.7-1.7,3.2-2.7,4.6c-1.2,1.8-2.3,3.5-2.3,4.8c0,1.3,1.1,3,2.3,4.8c1,1.4,2,2.9,2.7,4.6c0.7,1.8,1.1,3.6,1.5,5.3
			c0.4,2,0.8,4,1.7,4.8c0.8,0.8,2.9,1.3,4.8,1.7c1.7,0.4,3.5,0.7,5.3,1.5c1.7,0.7,3.2,1.7,4.6,2.7c1.8,1.2,3.5,2.3,4.7,2.3
			c1.3,0,3-1.1,4.8-2.3c1.4-1,2.9-2,4.6-2.7c1.8-0.7,3.6-1.1,5.3-1.5c2-0.4,4-0.8,4.8-1.7s1.3-2.9,1.7-4.8c0.4-1.7,0.7-3.5,1.5-5.3
			c0.7-1.7,1.7-3.2,2.7-4.6c1.2-1.8,2.3-3.5,2.3-4.8c0-1.3-1.1-3-2.3-4.8c-1-1.4-2-2.9-2.7-4.6c-0.7-1.8-1.1-3.6-1.5-5.3
			c-0.4-2-0.8-4-1.7-4.8c-0.8-0.8-2.9-1.3-4.9-1.7c-1.7-0.4-3.5-0.7-5.3-1.5c-1.7-0.7-3.2-1.7-4.6-2.7
			C-288.7,170.5-290.4,169.3-291.7,169.3z"/>
	</g>
	<path class="st1" d="M-291.7,233.5c-4,0-7.1-2.1-9.7-3.8c-1.1-0.8-2.2-1.5-3.1-1.9c-1-0.4-2.3-0.7-3.7-1c-3.1-0.6-6.6-1.4-9.3-4.1
		c-2.7-2.7-3.4-6.2-4.1-9.3c-0.3-1.4-0.6-2.7-1-3.7c-0.4-0.9-1.1-2-1.9-3.1c-1.7-2.5-3.8-5.7-3.8-9.7c0-4,2.1-7.1,3.8-9.7
		c0.8-1.1,1.5-2.2,1.9-3.1c0.4-1,0.7-2.3,1-3.7c0.6-3.1,1.4-6.6,4.1-9.3c2.7-2.7,6.2-3.4,9.3-4.1c1.4-0.3,2.7-0.6,3.7-1
		c0.9-0.4,2-1.1,3.1-1.9c2.5-1.7,5.7-3.8,9.7-3.8s7.1,2.1,9.7,3.8c1.1,0.8,2.2,1.5,3.1,1.9c1,0.4,2.3,0.7,3.7,1
		c3.1,0.6,6.6,1.4,9.3,4.1c2.7,2.7,3.4,6.2,4.1,9.3c0.3,1.4,0.6,2.7,1,3.7c0.4,0.9,1.1,2,1.9,3.1c1.7,2.5,3.8,5.7,3.8,9.7
		c0,4-2.1,7.1-3.8,9.7c-0.8,1.1-1.5,2.2-1.9,3.1c-0.4,1-0.7,2.3-1,3.7c-0.6,3.1-1.4,6.6-4.1,9.3c-2.7,2.7-6.2,3.4-9.3,4.1
		c-1.4,0.3-2.7,0.6-3.7,1c-0.9,0.4-2,1.1-3.1,1.9C-284.6,231.4-287.7,233.5-291.7,233.5z M-291.7,169.3c-1.3,0-3,1.1-4.7,2.3
		c-1.4,1-2.9,2-4.6,2.7c-1.8,0.7-3.6,1.1-5.3,1.5c-2,0.4-4,0.8-4.8,1.7c-0.8,0.8-1.3,2.9-1.7,4.8c-0.4,1.7-0.7,3.5-1.5,5.3
		c-0.7,1.7-1.7,3.2-2.7,4.6c-1.2,1.8-2.3,3.5-2.3,4.8c0,1.3,1.1,3,2.3,4.8c1,1.4,2,2.9,2.7,4.6c0.7,1.8,1.1,3.6,1.5,5.3
		c0.4,2,0.8,4,1.7,4.8c0.8,0.8,2.9,1.3,4.8,1.7c1.7,0.4,3.5,0.7,5.3,1.5c1.7,0.7,3.2,1.7,4.6,2.7c1.8,1.2,3.5,2.3,4.7,2.3
		c1.3,0,3-1.1,4.8-2.3c1.4-1,2.9-2,4.6-2.7c1.8-0.7,3.6-1.1,5.3-1.5c2-0.4,4-0.8,4.8-1.7s1.3-2.9,1.7-4.8c0.4-1.7,0.7-3.5,1.5-5.3
		c0.7-1.7,1.7-3.2,2.7-4.6c1.2-1.8,2.3-3.5,2.3-4.8c0-1.3-1.1-3-2.3-4.8c-1-1.4-2-2.9-2.7-4.6c-0.7-1.8-1.1-3.6-1.5-5.3
		c-0.4-2-0.8-4-1.7-4.8c-0.8-0.8-2.9-1.3-4.9-1.7c-1.7-0.4-3.5-0.7-5.3-1.5c-1.7-0.7-3.2-1.7-4.6-2.7
		C-288.7,170.5-290.4,169.3-291.7,169.3z"/>
</g>
<g id="XMLID_857_">
	<path id="XMLID_852_" class="st2" d="M85.6,43.7L43.4,85.9v147.4c0,6.7,5.4,12.1,12.1,12.1h126c6.7,0,12.1-5.4,12.1-12.1V55.7
		c0-6.7-5.4-12.1-12.1-12.1H85.6z"/>
	<polygon id="XMLID_878_" class="st0" points="85.6,85.9 85.6,43.7 43.4,85.9 	"/>
	<path class="st1" d="M81.4,90.3h-38v-8.8h38l-0.2-37.8H90v38C90,86.4,86.1,90.3,81.4,90.3z"/>
	<path class="st1" d="M123.3,249.8H54.9c-8.8,0-16-7.2-16-16V84.1l44.8-44.8H182c8.8,0,16,7.2,16,16v79.9h-8.8V55.2
		c0-3.9-3.2-7.1-7.1-7.1H87.4L47.8,87.7v146.1c0,3.9,3.2,7.1,7.1,7.1h68.4V249.8z"/>
	<rect x="63.6" y="143.3" class="st1" width="81.2" height="8.8"/>
	<rect x="63.6" y="117.5" class="st1" width="81.2" height="8.8"/>
	<rect x="63.6" y="94" class="st1" width="81.2" height="8.8"/>
	<rect x="101.8" y="66.8" class="st1" width="43" height="8.8"/>
	<rect x="63.6" y="167.3" class="st1" width="81.2" height="8.8"/>
	<rect x="63.6" y="191.2" class="st1" width="81.2" height="8.8"/>
	<rect x="63.6" y="215.2" class="st1" width="68.8" height="8.8"/>
</g>
<path class="st1" d="M237.1,253.8h-87c-4.2,0-7.9-2.2-10-5.8c-2.1-3.6-2.1-7.9,0-11.5l43.5-75.4c2.1-3.6,5.8-5.8,10-5.8
	c4.2,0,7.9,2.2,10,5.8l43.5,75.4c2.1,3.6,2.1,7.9,0,11.5C245,251.6,241.2,253.8,237.1,253.8z M193.5,164.2c-0.5,0-1.6,0.1-2.3,1.4
	l-43.5,75.4c-0.7,1.2-0.2,2.3,0,2.7c0.2,0.4,0.9,1.4,2.3,1.4h87c1.4,0,2.1-0.9,2.3-1.4c0.2-0.4,0.7-1.5,0-2.7l-43.5-75.4
	C195.2,164.3,194,164.2,193.5,164.2z"/>
<g>
	<path id="XMLID_2_" class="st0" d="M199.7,163.3l43.5,75.4c2.7,4.7-0.7,10.7-6.2,10.7h-87c-5.5,0-8.9-5.9-6.2-10.7l43.5-75.4
		C190.1,158.6,197,158.6,199.7,163.3z"/>
	<path class="st1" d="M237.1,253.8h-87c-4.2,0-7.9-2.2-10-5.8c-2.1-3.6-2.1-7.9,0-11.5l43.5-75.4c2.1-3.6,5.8-5.8,10-5.8
		c4.2,0,7.9,2.2,10,5.8l43.5,75.4c2.1,3.6,2.1,7.9,0,11.5C245,251.6,241.2,253.8,237.1,253.8z M193.5,164.2c-0.5,0-1.6,0.1-2.3,1.4
		l-43.5,75.4c-0.7,1.2-0.2,2.3,0,2.7c0.2,0.4,0.9,1.4,2.3,1.4h87c1.4,0,2.1-0.9,2.3-1.4c0.2-0.4,0.7-1.5,0-2.7l-43.5-75.4
		C195.2,164.3,194,164.2,193.5,164.2z"/>
</g>
<rect x="189.1" y="182.8" class="st1" width="8.8" height="32.2"/>
<rect x="189.1" y="223.8" class="st1" width="8.8" height="12.5"/>
<g id="XMLID_662_">
	<path id="XMLID_526_" class="st2" d="M649.9,216.6v-9.5c0-4.5-3.6-8.1-8.1-8.1l-12.6-0.1c-1.5-6.6-4.1-12.7-7.6-18.2l8.9-8.9
		c3.2-3.2,3.2-8.4,0-11.5l-6.7-6.7c-3.2-3.2-8.4-3.2-11.5,0l-9,8.9c-5.5-3.5-11.6-6.1-18.2-7.6v-12.6c0-4.5-3.7-8.2-8.2-8.2h-9.4
		c-4.5,0-8.2,3.7-8.2,8.2v12.6c-6.5,1.5-12.5,4-17.9,7.4l-8.9-9c-3.2-3.2-8.4-3.3-11.6-0.1l-6.7,6.6c-3.2,3.2-3.2,8.3-0.1,11.5
		l8.9,9c-3.5,5.5-6.1,11.6-7.6,18.2l-12.6-0.1c-4.5,0-8.2,3.6-8.2,8.2l-0.1,9.4h51.7c0-14.3,11.6-30.3,25.9-30.3
		c14.3,0,25.9,16,25.9,30.3L649.9,216.6z"/>
	<path class="st1" d="M540.5,257.4H531v-8.8h9.5c2,0,3.7-1.7,3.7-3.7l0.1-16.2l3.4-0.8c6-1.4,11.7-3.7,16.8-7l3-1.9l11.4,11.4
		c0.7,0.7,1.7,1.1,2.7,1.1l0,0c1,0,1.9-0.4,2.6-1.1l6.7-6.7c1.5-1.5,1.5-3.8,0-5.3l-11.4-11.5l1.9-3c3.3-5.1,5.6-10.8,7-16.8
		l0.8-3.4h16.2c2.1,0,3.7-1.7,3.7-3.8v-9.4c0-2.1-1.7-3.8-3.7-3.8h-16.2l-0.8-3.5c-1.3-5.8-3.6-11.4-6.8-16.6l-1.8-3l11.5-11.4
		c0.7-0.7,1.1-1.7,1.1-2.7c0-1-0.4-1.9-1.1-2.6l-6.7-6.8c-0.7-0.7-1.6-1.1-2.6-1.1c0,0,0,0,0,0c-1,0-1.9,0.4-2.6,1.1l-11.5,11.4
		l-3-1.9c-5.2-3.3-10.8-5.7-16.8-7l-3.4-0.8l0.1-16.2c0-1-0.4-1.9-1.1-2.6c-0.7-0.7-1.7-1.1-2.7-1.1l-9.5-0.1l0.1-8.8l9.4,0.1
		c3.4,0,6.5,1.3,8.9,3.7c2.4,2.4,3.7,5.6,3.6,8.9l0,9.2c4.6,1.3,8.9,3.2,13.1,5.5l6.5-6.5c2.4-2.3,5.5-3.6,8.8-3.6c0,0,0,0,0.1,0
		c3.4,0,6.5,1.3,8.9,3.7l6.6,6.7c2.3,2.3,3.7,5.5,3.7,8.8c0,3.4-1.3,6.6-3.7,9l-6.5,6.5c2.2,4.1,4,8.4,5.3,12.8h9.2
		c6.9,0,12.6,5.7,12.6,12.6v9.4c0,7-5.7,12.6-12.6,12.6h-9.2c-1.3,4.6-3.1,8.9-5.4,13.1l6.5,6.5c4.9,4.9,4.9,12.9,0,17.8l-6.7,6.7
		c-2.4,2.4-5.5,3.7-8.9,3.7h0c-3.4,0-6.5-1.3-8.9-3.7l-6.5-6.5c-4.1,2.3-8.5,4.1-13.1,5.4l0,9.2C553,251.8,547.4,257.4,540.5,257.4z
		 M535.9,205.7v-8.8c11.8,0,21.4-9.6,21.4-21.5c0-11.9-9.6-21.5-21.4-21.5V145c16.7,0,30.3,13.6,30.3,30.4
		C566.2,192.1,552.6,205.7,535.9,205.7z"/>
	<path id="XMLID_331_" class="st0" d="M686,85.6l-10.2-3.3c0.5-5.7,0-11.3-1.4-16.7l9.5-4.9c3.4-1.7,4.8-5.9,3-9.3l-3.7-7.1
		c-1.7-3.4-5.9-4.8-9.3-3l-9.6,4.9c-3.5-4.2-7.8-7.9-12.7-10.8l3.3-10.2c1.2-3.6-0.8-7.6-4.5-8.7l-7.6-2.5c-3.6-1.2-7.6,0.8-8.7,4.5
		L631,28.6c-5.6-0.5-11.1,0-16.4,1.3l-4.8-9.6c-1.7-3.4-5.9-4.8-9.3-3.1l-7.2,3.6c-3.4,1.7-4.8,5.9-3.1,9.3l4.8,9.6
		c-4.3,3.5-8,7.8-10.9,12.7L574,49c-3.6-1.2-7.5,0.8-8.7,4.5l-2.5,7.6c-1.2,3.6,0.8,7.5,4.4,8.7l10.2,3.3
		c-0.5,5.7-0.1,11.3,1.3,16.6l-9.6,4.9c-3.4,1.7-4.8,5.9-3,9.3l3.6,7.1c1.7,3.4,5.9,4.8,9.3,3.1l9.6-4.8c3.5,4.2,7.8,8,12.7,10.9
		l-3.3,10.2c-1.2,3.6,0.8,7.6,4.4,8.7l7.6,2.5c3.6,1.2,7.5-0.8,8.7-4.4L622,127c5.7,0.5,11.3,0,16.7-1.3l4.9,9.6
		c1.7,3.4,5.9,4.8,9.4,3l7.1-3.6c3.4-1.7,4.8-5.9,3-9.3l-4.8-9.5c4.2-3.5,7.9-7.8,10.9-12.7l10.2,3.3c3.6,1.2,7.5-0.8,8.7-4.4
		l2.5-7.6C691.6,90.7,689.6,86.8,686,85.6z M619.8,98.7C608.3,95,601.9,82.6,605.7,71c3.7-11.5,16.1-17.9,27.7-14.1
		c11.5,3.7,17.9,16.1,14.2,27.6C643.8,96.1,631.4,102.4,619.8,98.7z"/>
	<path class="st1" d="M612.1,146.4c-1.2,0-2.4-0.2-3.5-0.6l-7.6-2.5c-2.9-0.9-5.2-2.9-6.6-5.6c-1.4-2.7-1.6-5.8-0.7-8.7l2.3-6.9
		c-3.1-2.1-5.9-4.5-8.5-7.3l-6.5,3.3c-2.7,1.4-5.8,1.6-8.6,0.7c-2.9-0.9-5.2-3-6.6-5.7l-3.6-7.1c-1.4-2.7-1.6-5.8-0.7-8.7
		c0.9-2.9,2.9-5.2,5.6-6.6l6.5-3.3c-0.7-3.6-1-7.4-0.9-11.1l-6.9-2.3c-6-2-9.2-8.4-7.2-14.3l2.5-7.6c0.9-2.9,3-5.2,5.7-6.6
		c2.7-1.4,5.8-1.6,8.7-0.6l6.9,2.3c2.1-3.1,4.6-5.9,7.3-8.5l-3.3-6.5c-1.4-2.7-1.6-5.8-0.7-8.6c0.9-2.9,3-5.2,5.7-6.6l7.2-3.6
		c2.6-1.4,5.7-1.6,8.6-0.7c2.9,0.9,5.3,3,6.7,5.7l3.3,6.5c3.6-0.6,7.2-0.9,10.8-0.8l2.2-6.9c0.9-2.9,2.9-5.2,5.6-6.6
		c2.7-1.4,5.8-1.6,8.7-0.7l7.6,2.5c2.9,0.9,5.2,2.9,6.6,5.6c1.4,2.7,1.6,5.8,0.7,8.7l-2.2,6.9c3.1,2.1,5.9,4.5,8.5,7.2l6.5-3.3
		c5.6-2.8,12.4-0.6,15.3,5l3.7,7.1c1.4,2.7,1.6,5.8,0.7,8.6c-0.9,2.9-2.9,5.2-5.7,6.6l-6.5,3.3c0.7,3.7,1,7.4,0.9,11.1l6.9,2.3
		c5.9,1.9,9.2,8.3,7.3,14.2l-2.5,7.6c-1.9,5.9-8.4,9.2-14.3,7.3l-6.9-2.3c-2.1,3.1-4.5,5.9-7.3,8.5l3.3,6.5c1.4,2.6,1.6,5.7,0.7,8.6
		c-0.9,2.9-3,5.3-5.7,6.6l-7.1,3.6c-5.6,2.8-12.5,0.6-15.3-4.9l-3.3-6.5c-3.7,0.7-7.4,1-11.1,0.9l-2.3,7c-0.9,2.9-2.9,5.2-5.6,6.6
		C615.6,146,613.9,146.4,612.1,146.4z M589.7,103.8l2.3,2.7c3.3,4,7.2,7.3,11.6,9.9l3,1.8l-4.4,13.5c-0.2,0.6-0.2,1.3,0.1,1.9
		c0.3,0.6,0.8,1,1.4,1.2l7.6,2.5c0.6,0.2,1.3,0.2,1.9-0.1c0.6-0.3,1-0.8,1.2-1.4l4.4-13.6l3.5,0.3c5.1,0.5,10.2,0.1,15.2-1.2
		l3.4-0.9l6.5,12.7c0.6,1.2,2.2,1.7,3.4,1.1l7.1-3.6c0.6-0.3,1.1-0.8,1.3-1.5c0.1-0.4,0.2-1.1-0.2-1.9l-6.4-12.7l2.7-2.3
		c4-3.3,7.3-7.2,9.9-11.6l1.8-3l13.5,4.4c1.3,0.4,2.7-0.3,3.2-1.6l2.5-7.6c0.4-1.3-0.3-2.7-1.6-3.1l0,0l-13.5-4.4l0.3-3.5
		c0.5-5.1,0-10.2-1.2-15.2l-0.9-3.4l12.7-6.5c0.6-0.3,1.1-0.8,1.3-1.5c0.2-0.6,0.1-1.3-0.1-1.9l-3.7-7.2c-0.6-1.2-2.1-1.7-3.4-1.1
		l-12.7,6.5l-2.3-2.7c-3.2-3.9-7.1-7.2-11.6-9.9l-3-1.8l4.4-13.5c0.2-0.6,0.1-1.3-0.2-1.9c-0.3-0.6-0.8-1-1.5-1.2l-7.6-2.5
		c-0.6-0.2-1.3-0.2-1.9,0.2c-0.6,0.3-1,0.8-1.2,1.5l-4.4,13.6l-3.5-0.3c-4.9-0.5-10-0.1-14.9,1.2l-3.4,0.8l-6.4-12.7
		c-0.3-0.6-0.8-1.1-1.5-1.3c-0.4-0.1-1.1-0.2-1.9,0.1l-7.2,3.6c-0.6,0.3-1,0.8-1.2,1.5c-0.1,0.4-0.3,1.1,0.1,1.9l6.4,12.7l-2.7,2.2
		c-3.9,3.3-7.3,7.1-9.9,11.5l-1.8,3l-13.5-4.4c-0.7-0.2-1.3-0.2-1.9,0.1c-0.6,0.3-1,0.8-1.3,1.5l-2.5,7.6c-0.4,1.3,0.3,2.7,1.6,3.2
		l13.5,4.4l-0.3,3.5c-0.5,5.1-0.1,10.2,1.2,15.1l0.9,3.4l-12.8,6.5c-0.6,0.3-1,0.8-1.2,1.4c-0.2,0.6-0.2,1.3,0.1,1.9l3.6,7.1
		c0.3,0.6,0.8,1.1,1.5,1.3c0.6,0.2,1.3,0.1,1.9-0.1L589.7,103.8z M626.6,104.2c-2.7,0-5.4-0.4-8.1-1.3c-6.7-2.2-12.2-6.8-15.4-13.1
		c-3.2-6.3-3.8-13.4-1.6-20.2c2.2-6.7,6.8-12.2,13.1-15.4s13.4-3.8,20.1-1.6c13.9,4.5,21.5,19.4,17,33.2
		C648.1,97.1,637.7,104.2,626.6,104.2z M621.2,94.5c9.2,3,19.1-2.1,22.1-11.3c1.4-4.5,1.1-9.2-1.1-13.4c-2.1-4.2-5.8-7.3-10.2-8.7
		c-4.5-1.4-9.2-1.1-13.4,1.1c-4.2,2.1-7.3,5.8-8.7,10.2c-1.4,4.5-1.1,9.2,1.1,13.4C613.1,90,616.7,93.1,621.2,94.5L621.2,94.5z"/>
</g>
<g id="XMLID_93_">
	<g id="XMLID_88_">
		<path id="XMLID_77_" class="st3" d="M536.1,255.4h-46c-0.8,0-1.4-0.6-1.4-1.4V35c0-0.8,0.6-1.4,1.4-1.4h46c0.8,0,1.4,0.6,1.4,1.4
			v219C537.5,254.8,536.9,255.4,536.1,255.4z"/>
		<path class="st1" d="M529.2,259.8H497c-7,0-12.7-5.7-12.7-12.7V41.9c0-7,5.7-12.7,12.7-12.7h32.2c7,0,12.7,5.7,12.7,12.7v205.2
			C541.9,254.1,536.2,259.8,529.2,259.8z M497,38c-2.1,0-3.9,1.7-3.9,3.9v205.2c0,2.1,1.7,3.9,3.9,3.9h32.2c2.1,0,3.9-1.7,3.9-3.9
			V41.9c0-2.1-1.7-3.9-3.9-3.9H497z"/>
		<rect x="488.7" y="54.1" class="st1" width="29.8" height="8.8"/>
		<rect x="488.7" y="75.1" class="st1" width="14.9" height="8.8"/>
		<rect x="488.7" y="96.1" class="st1" width="14.9" height="8.8"/>
		<rect x="488.7" y="117" class="st1" width="14.9" height="8.8"/>
		<rect x="488.7" y="138" class="st1" width="29.8" height="8.8"/>
		<rect x="488.7" y="159" class="st1" width="14.9" height="8.8"/>
		<rect x="488.7" y="180" class="st1" width="14.9" height="8.8"/>
		<rect x="488.7" y="200.9" class="st1" width="14.9" height="8.8"/>
		<rect x="488.7" y="221.9" class="st1" width="29.8" height="8.8"/>
	</g>
	<g id="XMLID_90_">
		<path id="XMLID_263_" class="st2" d="M467.6,255.4h-12.8c-1,0-1.7-0.8-1.7-1.8V68.8c0-0.3,0.1-0.5,0.2-0.7l6.4-13.9
			c0.6-1.4,2.6-1.4,3.2,0l6.4,13.9c0.1,0.2,0.2,0.5,0.2,0.7v184.9C469.3,254.6,468.5,255.4,467.6,255.4z"/>
		<rect id="XMLID_270_" x="453" y="74.7" class="st0" width="16.3" height="163"/>
		<path class="st1" d="M473.7,259.8h-25.2V67.5l7.6-16.5c0.9-1.9,2.8-3.2,4.9-3.2c0,0,0,0,0,0c2.1,0,4.1,1.2,5,3.2l7.6,16.5V259.8z
			 M457.4,251h7.5V69.4l-3.7-8.1l-3.7,8.1V251z M464.2,54.6L464.2,54.6C464.2,54.6,464.2,54.6,464.2,54.6z"/>
		<rect x="452.4" y="70.3" class="st1" width="16.9" height="8.8"/>
		<rect x="451.8" y="233.3" class="st1" width="18.8" height="8.8"/>
	</g>
</g>
<path id="XMLID_117_" class="st2" d="M997.5,199.1h-20.9v-29h20.1l7.7,18.8C1006.3,193.8,1002.7,199.1,997.5,199.1z"/>
<path class="st1" d="M997.5,203.6h-25.3v-37.9h27.5l8.8,21.6c1.5,3.6,1.1,7.8-1.1,11.1C1005.1,201.6,1001.4,203.6,997.5,203.6z
	 M981,194.7h16.5c1.4,0,2.2-0.9,2.5-1.3c0.3-0.4,0.8-1.5,0.3-2.8l-6.5-16.1H981V194.7z"/>
<path id="XMLID_113_" class="st3" d="M994.5,253.7h-24.9c-3.2,0-6-2.1-6.8-5.2l-19.2-73.5H983l18.3,70
	C1002.4,249.3,999.1,253.7,994.5,253.7z"/>
<path class="st1" d="M994.5,258.1h-24.9c-5.2,0-9.7-3.5-11-8.5l-20.6-79.1h48.5l19.1,73.3c0.9,3.4,0.2,7-2,9.9
	C1001.4,256.5,998.1,258.1,994.5,258.1z M949.4,179.3l17.7,68c0.3,1.1,1.3,1.9,2.5,1.9h24.9c1.1,0,1.7-0.6,2-1
	c0.3-0.4,0.7-1.2,0.5-2.2l-17.4-66.7H949.4z"/>
<path id="XMLID_111_" class="st2" d="M1129.6,207.3l-118.8-30.5V92.6l118.8-30.5c5.4-1.4,10.7,2.7,10.7,8.3V199
	C1140.3,204.6,1135,208.7,1129.6,207.3z"/>
<circle id="XMLID_110_" class="st2" cx="922.7" cy="134.7" r="26.9"/>
<path class="st1" d="M922.7,166c-17.3,0-31.3-14-31.3-31.3s14-31.3,31.3-31.3c17.3,0,31.3,14,31.3,31.3S939.9,166,922.7,166z
	 M922.7,112.3c-12.4,0-22.5,10.1-22.5,22.5s10.1,22.5,22.5,22.5s22.5-10.1,22.5-22.5S935.1,112.3,922.7,112.3z"/>
<path class="st1" d="M1133.2,212.4c-1,0-1.9-0.1-2.9-0.4l-123.9-31.8V89.2l56.2-14.4l2.2,8.6L1015.3,96v77.3l117.2,30.1
	c1.1,0.3,2-0.2,2.3-0.5c0.4-0.3,1.1-1,1.1-2.1V68.5c0-1.2-0.7-1.8-1.1-2.1c-0.4-0.3-1.2-0.8-2.3-0.5l-23.9,6.2l-2.2-8.6l23.9-6.2
	c3.5-0.9,7.1-0.1,10,2.1c2.9,2.2,4.5,5.5,4.5,9.1v132.3c0,3.6-1.6,6.9-4.5,9.1C1138.2,211.6,1135.7,212.4,1133.2,212.4z"/>
<rect x="1075.3" y="69.4" transform="matrix(0.9686 -0.2487 0.2487 0.9686 15.6833 271.8316)" class="st1" width="17.1" height="8.8"/>
<rect id="XMLID_107_" x="921.8" y="92.6" class="st5" width="92.2" height="84.2"/>
<rect id="XMLID_108_" x="921.8" y="142.2" class="st0" width="92.2" height="34.6"/>
<path class="st1" d="M1018.4,181.2h-86c-8.3,0-15-6.7-15-15v-63c0-8.3,6.7-15,15-15h86V181.2z M932.4,97c-3.4,0-6.2,2.8-6.2,6.2v63
	c0,3.4,2.8,6.2,6.2,6.2h77.1V97H932.4z"/>
</svg>
