<?xml version="1.0" encoding="utf-8"?>
<!-- Generator: Adobe Illustrator 21.1.0, SVG Export Plug-In . SVG Version: 6.00 Build 0)  -->
<svg version="1.1" id="Layer_1" xmlns="http://www.w3.org/2000/svg" xmlns:xlink="http://www.w3.org/1999/xlink" x="0px" y="0px"
	 viewBox="0 0 432 432" style="enable-background:new 0 0 432 432;" xml:space="preserve">
<style type="text/css">
	.st0{fill:#BEBDBF;}
</style>
<g>
	<g>
		<path class="st0" d="M43.2,310.8c-0.6-0.6-0.9-1.4-0.9-2.4v-49.6c0-0.9,0.3-1.7,0.9-2.3c0.6-0.6,1.4-0.9,2.4-0.9h18.7
			c5.8,0,10.4,1.4,13.6,4.3c3.2,2.8,4.9,6.9,4.9,12.1s-1.6,9.3-4.9,12.2c-3.3,2.9-7.8,4.3-13.6,4.3H48.8v19.9c0,1-0.3,1.8-0.9,2.4
			c-0.6,0.6-1.4,0.9-2.4,0.9C44.6,311.7,43.8,311.4,43.2,310.8z M63.8,283.1c8.5,0,12.7-3.7,12.7-11.1c0-7.3-4.2-11-12.7-11H48.8
			v22.1H63.8z"/>
		<path class="st0" d="M97.5,309.4c-2.8-1.6-4.9-4-6.4-7c-1.5-3-2.3-6.5-2.3-10.5c0-4,0.8-7.5,2.3-10.5c1.5-3,3.6-5.4,6.4-7
			c2.8-1.6,6-2.4,9.6-2.4s6.8,0.8,9.6,2.4c2.8,1.6,4.9,4,6.4,7c1.5,3,2.3,6.5,2.3,10.5c0,4-0.8,7.5-2.3,10.5c-1.5,3-3.6,5.4-6.4,7
			c-2.8,1.6-6,2.4-9.6,2.4S100.2,311,97.5,309.4z M115.8,302.8c2-2.5,3-6.1,3-10.9c0-4.7-1-8.3-3.1-10.9c-2.1-2.6-5-3.8-8.7-3.8
			c-3.7,0-6.6,1.3-8.7,3.8c-2.1,2.6-3.1,6.2-3.1,10.9c0,4.7,1,8.4,3,10.9c2,2.5,4.9,3.8,8.7,3.8S113.8,305.3,115.8,302.8z"/>
		<path class="st0" d="M135.9,310.9c-0.6-0.6-0.9-1.3-0.9-2.3v-50.2c0-1,0.3-1.8,0.9-2.3c0.6-0.6,1.4-0.8,2.3-0.8
			c0.9,0,1.6,0.3,2.3,0.8c0.6,0.6,0.9,1.3,0.9,2.3v50.2c0,1-0.3,1.8-0.9,2.3c-0.6,0.6-1.4,0.8-2.3,0.8
			C137.2,311.7,136.5,311.4,135.9,310.9z"/>
		<path class="st0" d="M183.8,272.1c0.8,0,1.5,0.3,2.1,0.8c0.6,0.5,0.9,1.2,0.9,2c0,0.5-0.1,0.9-0.3,1.3L164.3,324
			c-0.3,0.6-0.6,1-1.1,1.3c-0.5,0.3-1,0.5-1.5,0.5c-0.8,0-1.5-0.3-2.1-0.8c-0.6-0.5-0.9-1.1-0.9-1.9c0-0.4,0.1-0.8,0.3-1.3l5.5-11.9
			l-15.6-33.8c-0.2-0.4-0.3-0.8-0.3-1.2c0-0.8,0.4-1.5,1.1-2.1c0.7-0.6,1.5-0.9,2.3-0.9c0.5,0,1,0.2,1.5,0.5
			c0.5,0.3,0.9,0.8,1.1,1.3l13.2,29.6L181,274C181.6,272.7,182.5,272.1,183.8,272.1z"/>
		<path class="st0" d="M241.7,256.9c1.1,1.1,1.7,2.6,1.7,4.4v44.3c0,1.8-0.6,3.3-1.7,4.5c-1.1,1.1-2.6,1.7-4.4,1.7
			c-1.8,0-3.3-0.6-4.4-1.7c-1.1-1.1-1.6-2.6-1.6-4.5v-17.7h-25.7v17.7c0,1.8-0.6,3.3-1.7,4.5c-1.1,1.1-2.6,1.7-4.3,1.7
			c-1.8,0-3.3-0.6-4.4-1.7c-1.1-1.1-1.7-2.6-1.7-4.5v-44.3c0-1.8,0.6-3.3,1.7-4.4c1.1-1.1,2.6-1.7,4.4-1.7c1.8,0,3.3,0.6,4.4,1.7
			c1.1,1.1,1.6,2.6,1.6,4.4v16.8h25.7v-16.8c0-1.8,0.5-3.3,1.6-4.4c1.1-1.1,2.5-1.7,4.4-1.7C239.1,255.2,240.6,255.8,241.7,256.9z"
			/>
		<path class="st0" d="M255.9,309.8c-1-1-1.5-2.4-1.5-4.3v-44.2c0-1.8,0.5-3.3,1.5-4.3c1-1,2.4-1.5,4.3-1.5h28
			c3.9,0,5.8,1.6,5.8,4.7c0,3.2-1.9,4.8-5.8,4.8h-21.7v13h20.1c3.9,0,5.8,1.6,5.8,4.8c0,3.2-1.9,4.7-5.8,4.7h-20.1v14h21.7
			c3.9,0,5.8,1.6,5.8,4.8c0,3.2-1.9,4.7-5.8,4.7h-28C258.3,311.3,256.9,310.8,255.9,309.8z"/>
		<path class="st0" d="M353,306.3c0,1.5-0.6,2.7-1.8,3.8c-1.2,1-2.5,1.5-4.1,1.5c-1,0-1.9-0.3-2.8-0.8c-0.9-0.6-1.6-1.4-2.1-2.5
			L338,299h-26.8l-4.2,9.3c-0.5,1.1-1.1,1.9-2,2.5s-1.8,0.8-2.9,0.8c-1.5,0-2.9-0.5-4.1-1.5c-1.2-1-1.8-2.3-1.8-3.8
			c0-0.7,0.2-1.6,0.6-2.5l21.3-44.8c0.6-1.3,1.4-2.2,2.6-2.9c1.2-0.7,2.4-1,3.7-1c1.4,0,2.6,0.3,3.8,1c1.2,0.7,2.1,1.6,2.7,2.8
			l21.3,44.8C352.8,304.7,353,305.6,353,306.3z M315.5,289.6h18.4l-9.2-20.5L315.5,289.6z"/>
		<path class="st0" d="M367.2,310c-1.1-1.1-1.7-2.6-1.7-4.4v-40h-12.8c-3.9,0-5.8-1.7-5.8-5.1c0-3.3,1.9-5,5.8-5h37.9
			c3.9,0,5.8,1.7,5.8,5c0,3.4-1.9,5.1-5.8,5.1h-12.8v40c0,1.8-0.6,3.3-1.7,4.4c-1.1,1.1-2.6,1.7-4.5,1.7
			C369.9,311.7,368.4,311.1,367.2,310z"/>
	</g>
	<g>
		<path class="st0" d="M50.9,361.2c-0.3-0.3-0.5-0.7-0.5-1.3V343c0-0.6,0.2-1,0.5-1.3c0.3-0.3,0.8-0.5,1.3-0.5H58
			c3.3,0,5.9,0.9,7.8,2.7c1.8,1.8,2.8,4.3,2.8,7.5c0,3.2-0.9,5.8-2.8,7.6c-1.8,1.8-4.4,2.7-7.8,2.7h-5.7
			C51.7,361.6,51.3,361.5,50.9,361.2z M57.8,358.6c4.7,0,7-2.4,7-7.2c0-4.8-2.3-7.2-7-7.2h-3.6v14.4H57.8z"/>
		<path class="st0" d="M72.2,344.1c-0.4-0.4-0.6-0.8-0.6-1.4s0.2-1,0.6-1.4c0.4-0.3,0.9-0.5,1.6-0.5c0.6,0,1.2,0.2,1.6,0.5
			c0.4,0.3,0.6,0.8,0.6,1.4s-0.2,1-0.6,1.4c-0.4,0.4-0.9,0.5-1.6,0.5C73.2,344.6,72.6,344.4,72.2,344.1z M72.5,361.4
			c-0.3-0.3-0.5-0.7-0.5-1.3v-11.2c0-0.6,0.2-1,0.5-1.3c0.3-0.3,0.8-0.4,1.3-0.4s1,0.1,1.3,0.4c0.3,0.3,0.5,0.7,0.5,1.3v11.2
			c0,0.6-0.2,1-0.5,1.3c-0.3,0.3-0.8,0.4-1.3,0.4S72.9,361.7,72.5,361.4z"/>
		<path class="st0" d="M79.4,360.6c-0.6-0.4-0.9-0.9-0.9-1.6c0-0.4,0.1-0.7,0.3-0.9c0.2-0.2,0.5-0.4,0.8-0.4c0.3,0,0.8,0.2,1.4,0.5
			c0.6,0.3,1.2,0.5,1.7,0.7c0.5,0.2,1.2,0.2,2,0.2c0.8,0,1.4-0.1,1.9-0.4c0.5-0.3,0.7-0.6,0.7-1.1c0-0.3-0.1-0.6-0.3-0.8
			c-0.2-0.2-0.5-0.4-1-0.5c-0.5-0.2-1.2-0.4-2.2-0.6c-1.7-0.3-3-0.8-3.7-1.5c-0.7-0.6-1.1-1.5-1.1-2.6c0-0.8,0.3-1.6,0.8-2.3
			c0.5-0.7,1.2-1.2,2.1-1.6s1.9-0.6,3-0.6c0.8,0,1.6,0.1,2.3,0.3s1.4,0.5,2,0.9c0.6,0.4,0.9,0.9,0.9,1.5c0,0.4-0.1,0.7-0.3,1
			c-0.2,0.3-0.5,0.4-0.8,0.4c-0.2,0-0.4,0-0.6-0.1c-0.2-0.1-0.5-0.2-0.8-0.4c-0.6-0.3-1-0.5-1.4-0.7c-0.4-0.1-0.9-0.2-1.5-0.2
			c-0.7,0-1.3,0.1-1.7,0.4c-0.4,0.3-0.6,0.7-0.6,1.2c0,0.5,0.2,0.9,0.6,1.1c0.4,0.3,1.2,0.5,2.5,0.8c1.3,0.3,2.3,0.6,3,0.9
			c0.7,0.3,1.3,0.8,1.6,1.3c0.3,0.5,0.5,1.2,0.5,2c0,1.3-0.5,2.4-1.6,3.2s-2.5,1.2-4.4,1.2C82.4,361.9,80.7,361.5,79.4,360.6z"/>
		<path class="st0" d="M93.7,344.1c-0.4-0.4-0.6-0.8-0.6-1.4s0.2-1,0.6-1.4c0.4-0.3,0.9-0.5,1.6-0.5c0.6,0,1.2,0.2,1.6,0.5
			c0.4,0.3,0.6,0.8,0.6,1.4s-0.2,1-0.6,1.4c-0.4,0.4-0.9,0.5-1.6,0.5C94.6,344.6,94.1,344.4,93.7,344.1z M94,361.4
			c-0.3-0.3-0.5-0.7-0.5-1.3v-11.2c0-0.6,0.2-1,0.5-1.3c0.3-0.3,0.8-0.4,1.3-0.4s1,0.1,1.3,0.4c0.3,0.3,0.5,0.7,0.5,1.3v11.2
			c0,0.6-0.2,1-0.5,1.3c-0.3,0.3-0.8,0.4-1.3,0.4S94.3,361.7,94,361.4z"/>
		<path class="st0" d="M112.8,348.6c0.8,1,1.2,2.4,1.2,4.4v7.1c0,0.5-0.2,1-0.5,1.3s-0.8,0.5-1.3,0.5c-0.6,0-1-0.2-1.3-0.5
			c-0.3-0.3-0.5-0.7-0.5-1.3v-6.9c0-1.1-0.2-1.9-0.6-2.4c-0.4-0.5-1.1-0.8-2-0.8c-1,0-1.9,0.3-2.5,1c-0.6,0.7-0.9,1.5-0.9,2.6v6.5
			c0,0.5-0.2,1-0.5,1.3c-0.3,0.3-0.8,0.5-1.3,0.5c-0.6,0-1-0.2-1.3-0.5c-0.3-0.3-0.5-0.7-0.5-1.3v-11.2c0-0.5,0.2-0.9,0.5-1.2
			c0.3-0.3,0.8-0.5,1.3-0.5c0.5,0,0.9,0.1,1.2,0.4c0.3,0.3,0.5,0.7,0.5,1.2v0.8c0.5-0.8,1.1-1.4,1.9-1.8c0.8-0.4,1.7-0.6,2.8-0.6
			C110.8,347.1,112,347.6,112.8,348.6z"/>
		<path class="st0" d="M123,344.7c-0.4,0.5-0.6,1.2-0.6,2.1v0.7h2.5c1.1,0,1.6,0.5,1.6,1.4c0,0.9-0.5,1.4-1.6,1.4h-2.5v9.9
			c0,0.6-0.2,1-0.5,1.3s-0.8,0.4-1.3,0.4c-0.5,0-1-0.1-1.3-0.4s-0.5-0.7-0.5-1.3v-9.9h-1.5c-1.1,0-1.6-0.5-1.6-1.4
			c0-0.9,0.5-1.4,1.6-1.4h1.5v-0.2c0-1.8,0.5-3.2,1.4-4.3s2.3-1.6,4-1.8l0.8-0.1c0.8-0.1,1.3,0,1.6,0.2c0.3,0.2,0.5,0.6,0.5,1
			c0,0.8-0.5,1.3-1.4,1.4l-0.8,0.1C124.1,344,123.4,344.2,123,344.7z"/>
		<path class="st0" d="M140,358.1c0.2,0.3,0.3,0.6,0.3,1c0,0.6-0.4,1.1-1.1,1.5c-0.7,0.4-1.4,0.7-2.2,0.9s-1.6,0.3-2.4,0.3
			c-2.3,0-4.1-0.7-5.4-2c-1.3-1.3-2-3.1-2-5.4c0-1.5,0.3-2.7,0.9-3.9c0.6-1.1,1.4-2,2.5-2.6c1.1-0.6,2.2-0.9,3.6-0.9
			c1.3,0,2.4,0.3,3.3,0.8c0.9,0.6,1.7,1.4,2.2,2.4c0.5,1,0.8,2.2,0.8,3.6c0,0.8-0.4,1.2-1.1,1.2h-8.6c0.1,1.3,0.5,2.3,1.1,2.9
			c0.6,0.6,1.6,0.9,2.8,0.9c0.6,0,1.2-0.1,1.6-0.2c0.5-0.2,1-0.4,1.6-0.6c0.6-0.3,1-0.5,1.3-0.5C139.6,357.8,139.8,357.9,140,358.1z
			 M131.9,350.6c-0.6,0.6-0.9,1.5-1.1,2.7h6.6c0-1.2-0.3-2.1-0.9-2.7c-0.5-0.6-1.3-0.9-2.3-0.9C133.2,349.7,132.4,350,131.9,350.6z"
			/>
		<path class="st0" d="M146,361c-1.1-0.6-1.9-1.5-2.5-2.6c-0.6-1.1-0.9-2.4-0.9-3.9c0-1.5,0.3-2.8,0.9-3.9s1.5-2,2.6-2.6
			c1.1-0.6,2.4-0.9,3.8-0.9c0.8,0,1.5,0.1,2.3,0.3c0.8,0.2,1.4,0.5,2,0.9c0.6,0.4,0.9,0.9,0.9,1.5c0,0.4-0.1,0.8-0.3,1
			s-0.5,0.4-0.8,0.4c-0.2,0-0.4,0-0.7-0.1c-0.2-0.1-0.5-0.2-0.7-0.3c-0.4-0.3-0.8-0.4-1.2-0.6c-0.4-0.1-0.8-0.2-1.3-0.2
			c-1.2,0-2.1,0.4-2.8,1.2c-0.6,0.8-1,1.9-1,3.4c0,1.5,0.3,2.6,1,3.3c0.6,0.8,1.6,1.2,2.8,1.2c0.5,0,0.9-0.1,1.3-0.2
			c0.4-0.1,0.8-0.3,1.3-0.6c0.3-0.2,0.5-0.3,0.8-0.4c0.2-0.1,0.4-0.1,0.6-0.1c0.3,0,0.6,0.1,0.8,0.4c0.2,0.3,0.3,0.6,0.3,1
			c0,0.3-0.1,0.6-0.2,0.9c-0.1,0.2-0.4,0.5-0.7,0.7c-0.6,0.4-1.3,0.7-2.1,0.9s-1.6,0.3-2.4,0.3C148.3,361.9,147.1,361.6,146,361z"/>
		<path class="st0" d="M166.5,360.4c0,0.5-0.2,0.8-0.6,1.1c-0.4,0.2-0.9,0.3-1.6,0.3l-0.8-0.1c-3.2-0.2-4.9-2-4.9-5.2v-6.3h-1.5
			c-0.5,0-0.9-0.1-1.2-0.3c-0.3-0.2-0.4-0.6-0.4-1c0-0.4,0.1-0.8,0.4-1c0.3-0.2,0.7-0.3,1.2-0.3h1.5v-2.7c0-0.5,0.2-0.9,0.5-1.2
			s0.8-0.5,1.3-0.5c0.5,0,1,0.2,1.3,0.5c0.3,0.3,0.5,0.7,0.5,1.2v2.7h2.5c0.5,0,0.9,0.1,1.2,0.3c0.3,0.2,0.4,0.6,0.4,1
			c0,0.4-0.1,0.8-0.4,1c-0.3,0.2-0.7,0.3-1.2,0.3h-2.5v6.6c0,1.4,0.7,2.2,2,2.3l0.8,0.1C166,359.2,166.5,359.6,166.5,360.4z"/>
		<path class="st0" d="M178.9,348.6c1,1,1.4,2.5,1.4,4.5v7.1c0,0.5-0.2,0.9-0.5,1.2c-0.3,0.3-0.7,0.4-1.3,0.4
			c-0.5,0-0.9-0.2-1.2-0.5c-0.3-0.3-0.5-0.7-0.5-1.2v-0.6c-0.3,0.8-0.8,1.3-1.6,1.8c-0.7,0.4-1.5,0.6-2.5,0.6
			c-0.9,0-1.8-0.2-2.6-0.6c-0.8-0.4-1.4-0.9-1.8-1.6c-0.4-0.7-0.7-1.4-0.7-2.3c0-1,0.3-1.9,0.8-2.5c0.5-0.6,1.4-1,2.6-1.3
			c1.2-0.3,2.9-0.4,5-0.4h0.7v-0.7c0-0.9-0.2-1.6-0.6-2.1c-0.4-0.4-1.1-0.7-2-0.7c-0.6,0-1.1,0.1-1.7,0.2s-1.3,0.4-2.1,0.7
			c-0.5,0.3-0.9,0.4-1.1,0.4c-0.3,0-0.6-0.1-0.9-0.4c-0.2-0.3-0.3-0.6-0.3-1c0-0.3,0.1-0.6,0.2-0.9c0.2-0.2,0.4-0.5,0.8-0.7
			c0.7-0.4,1.5-0.7,2.4-0.9c0.9-0.2,1.9-0.3,2.8-0.3C176.5,347.1,177.9,347.6,178.9,348.6z M176,358.3c0.6-0.6,0.9-1.5,0.9-2.5v-0.6
			h-0.5c-1.3,0-2.3,0.1-3,0.2c-0.7,0.1-1.2,0.3-1.5,0.6c-0.3,0.3-0.5,0.7-0.5,1.2c0,0.6,0.2,1.1,0.7,1.5c0.4,0.4,1,0.6,1.6,0.6
			C174.6,359.3,175.4,358.9,176,358.3z"/>
		<path class="st0" d="M196,348.6c0.8,1,1.2,2.4,1.2,4.4v7.1c0,0.5-0.2,1-0.5,1.3s-0.8,0.5-1.3,0.5c-0.6,0-1-0.2-1.3-0.5
			c-0.3-0.3-0.5-0.7-0.5-1.3v-6.9c0-1.1-0.2-1.9-0.6-2.4c-0.4-0.5-1.1-0.8-2-0.8c-1,0-1.9,0.3-2.5,1c-0.6,0.7-0.9,1.5-0.9,2.6v6.5
			c0,0.5-0.2,1-0.5,1.3c-0.3,0.3-0.8,0.5-1.3,0.5c-0.6,0-1-0.2-1.3-0.5c-0.3-0.3-0.5-0.7-0.5-1.3v-11.2c0-0.5,0.2-0.9,0.5-1.2
			c0.3-0.3,0.8-0.5,1.3-0.5c0.5,0,0.9,0.1,1.2,0.4c0.3,0.3,0.5,0.7,0.5,1.2v0.8c0.5-0.8,1.1-1.4,1.9-1.8c0.8-0.4,1.7-0.6,2.8-0.6
			C194,347.1,195.2,347.6,196,348.6z"/>
		<path class="st0" d="M209.8,360.4c0,0.5-0.2,0.8-0.6,1.1c-0.4,0.2-0.9,0.3-1.6,0.3l-0.8-0.1c-3.2-0.2-4.9-2-4.9-5.2v-6.3h-1.5
			c-0.5,0-0.9-0.1-1.2-0.3c-0.3-0.2-0.4-0.6-0.4-1c0-0.4,0.1-0.8,0.4-1c0.3-0.2,0.7-0.3,1.2-0.3h1.5v-2.7c0-0.5,0.2-0.9,0.5-1.2
			s0.8-0.5,1.3-0.5c0.5,0,1,0.2,1.3,0.5c0.3,0.3,0.5,0.7,0.5,1.2v2.7h2.5c0.5,0,0.9,0.1,1.2,0.3c0.3,0.2,0.4,0.6,0.4,1
			c0,0.4-0.1,0.8-0.4,1c-0.3,0.2-0.7,0.3-1.2,0.3h-2.5v6.6c0,1.4,0.7,2.2,2,2.3l0.8,0.1C209.3,359.2,209.8,359.6,209.8,360.4z"/>
		<path class="st0" d="M231,348c0.9,0.6,1.7,1.5,2.2,2.6c0.5,1.1,0.8,2.4,0.8,3.9c0,1.5-0.3,2.8-0.8,3.9c-0.5,1.1-1.3,2-2.2,2.6
			c-1,0.6-2,0.9-3.3,0.9c-1,0-1.9-0.2-2.7-0.7c-0.8-0.4-1.4-1.1-1.8-1.9v0.7c0,0.5-0.2,0.9-0.5,1.2c-0.3,0.3-0.8,0.5-1.3,0.5
			s-1-0.2-1.3-0.5c-0.3-0.3-0.5-0.7-0.5-1.2v-17.3c0-0.5,0.2-0.9,0.5-1.2c0.3-0.3,0.8-0.5,1.3-0.5c0.5,0,1,0.1,1.3,0.4
			s0.5,0.7,0.5,1.2v6.8c0.4-0.8,1-1.4,1.8-1.8c0.8-0.4,1.7-0.6,2.7-0.6C228.9,347.1,230,347.4,231,348z M229.4,357.8
			c0.6-0.8,1-2,1-3.4c0-1.5-0.3-2.6-0.9-3.3c-0.6-0.8-1.5-1.2-2.7-1.2c-1.2,0-2.1,0.4-2.7,1.2c-0.6,0.8-0.9,1.9-0.9,3.4
			c0,1.5,0.3,2.6,0.9,3.4c0.6,0.8,1.5,1.2,2.7,1.2C227.9,359.1,228.8,358.7,229.4,357.8z"/>
		<path class="st0" d="M247.2,347.5c0.3-0.2,0.5-0.2,0.9-0.2c0.4,0,0.8,0.2,1.2,0.5c0.4,0.3,0.5,0.7,0.5,1.1c0,0.2-0.1,0.4-0.2,0.7
			l-7.9,16.6c-0.3,0.7-0.8,1-1.5,1c-0.4,0-0.8-0.1-1.2-0.4s-0.5-0.6-0.5-1.1c0-0.2,0.1-0.5,0.2-0.7l2-4.1l-5.4-11.2
			c-0.1-0.2-0.1-0.4-0.1-0.7c0-0.4,0.2-0.8,0.6-1.1s0.8-0.5,1.3-0.5c0.3,0,0.6,0.1,0.9,0.2c0.3,0.2,0.5,0.4,0.6,0.8l4.1,9l4-8.9
			C246.8,347.9,247,347.6,247.2,347.5z"/>
		<path class="st0" d="M260.7,361.3c-0.3-0.3-0.5-0.8-0.5-1.4v-17c0-0.6,0.2-1,0.5-1.3c0.3-0.3,0.8-0.5,1.3-0.5h7.1
			c2.2,0,3.9,0.5,5.1,1.6c1.2,1.1,1.8,2.6,1.8,4.6s-0.6,3.5-1.8,4.6c-1.2,1.1-2.9,1.7-5.1,1.7h-5.2v6.2c0,0.6-0.2,1-0.5,1.4
			c-0.3,0.3-0.8,0.5-1.4,0.5C261.5,361.8,261,361.7,260.7,361.3z M268.6,350.8c2.6,0,3.9-1.1,3.9-3.4c0-2.2-1.3-3.4-3.9-3.4h-4.7
			v6.7H268.6z"/>
		<path class="st0" d="M281.1,361c-1.1-0.6-1.9-1.5-2.5-2.6s-0.9-2.4-0.9-3.9c0-1.5,0.3-2.8,0.9-3.9c0.6-1.1,1.4-2,2.5-2.6
			c1.1-0.6,2.4-0.9,3.8-0.9c1.4,0,2.7,0.3,3.8,0.9c1.1,0.6,1.9,1.5,2.5,2.6c0.6,1.1,0.9,2.4,0.9,3.9c0,1.5-0.3,2.8-0.9,3.9
			s-1.4,2-2.5,2.6c-1.1,0.6-2.4,0.9-3.8,0.9C283.5,361.9,282.2,361.6,281.1,361z M287.6,357.9c0.6-0.8,0.9-1.9,0.9-3.4
			c0-1.5-0.3-2.6-0.9-3.4c-0.6-0.8-1.5-1.2-2.7-1.2s-2.1,0.4-2.7,1.2c-0.6,0.8-0.9,1.9-0.9,3.4c0,1.5,0.3,2.6,0.9,3.4
			c0.6,0.8,1.5,1.2,2.7,1.2C286.1,359.1,287,358.7,287.6,357.9z"/>
		<path class="st0" d="M295.6,361.4c-0.3-0.3-0.5-0.7-0.5-1.3v-17.3c0-0.6,0.2-1,0.5-1.3s0.8-0.4,1.3-0.4c0.5,0,1,0.1,1.3,0.4
			s0.5,0.7,0.5,1.3v17.3c0,0.6-0.2,1-0.5,1.3s-0.8,0.4-1.3,0.4C296.4,361.8,296,361.7,295.6,361.4z"/>
		<path class="st0" d="M313,347.5c0.3-0.2,0.5-0.2,0.9-0.2c0.4,0,0.8,0.2,1.2,0.5c0.4,0.3,0.5,0.7,0.5,1.1c0,0.2-0.1,0.4-0.2,0.7
			l-7.9,16.6c-0.3,0.7-0.8,1-1.5,1c-0.4,0-0.8-0.1-1.2-0.4s-0.5-0.6-0.5-1.1c0-0.2,0.1-0.5,0.2-0.7l2-4.1l-5.4-11.2
			c-0.1-0.2-0.1-0.4-0.1-0.7c0-0.4,0.2-0.8,0.6-1.1s0.8-0.5,1.3-0.5c0.3,0,0.6,0.1,0.9,0.2c0.3,0.2,0.5,0.4,0.6,0.8l4.1,9l4-8.9
			C312.5,347.9,312.8,347.6,313,347.5z"/>
		<path class="st0" d="M335.4,341.6c0.3,0.3,0.5,0.8,0.5,1.3v17c0,0.6-0.2,1-0.5,1.4c-0.3,0.3-0.8,0.5-1.3,0.5c-0.6,0-1-0.2-1.3-0.5
			c-0.3-0.3-0.5-0.8-0.5-1.4v-7.2h-10.5v7.2c0,0.6-0.2,1-0.5,1.4c-0.3,0.3-0.8,0.5-1.3,0.5c-0.5,0-1-0.2-1.3-0.5
			c-0.3-0.3-0.5-0.8-0.5-1.4v-17c0-0.6,0.2-1,0.5-1.3c0.3-0.3,0.8-0.5,1.3-0.5s1,0.2,1.3,0.5c0.3,0.3,0.5,0.8,0.5,1.3v6.8h10.5v-6.8
			c0-0.6,0.2-1,0.5-1.3c0.3-0.3,0.8-0.5,1.3-0.5S335.1,341.2,335.4,341.6z"/>
		<path class="st0" d="M359.8,341.6c0.3,0.3,0.5,0.8,0.5,1.3v17.2c0,0.5-0.2,1-0.5,1.3s-0.7,0.5-1.2,0.5s-0.9-0.2-1.2-0.5
			s-0.4-0.7-0.4-1.3v-11.9l-4.9,9.3c-0.2,0.4-0.5,0.7-0.8,0.9c-0.3,0.2-0.6,0.3-1,0.3c-0.4,0-0.7-0.1-1-0.3c-0.3-0.2-0.5-0.5-0.8-1
			l-5-9.2v11.8c0,0.5-0.2,0.9-0.5,1.3c-0.3,0.3-0.7,0.5-1.2,0.5s-0.9-0.2-1.2-0.5c-0.3-0.3-0.4-0.7-0.4-1.3v-17.2
			c0-0.6,0.2-1,0.5-1.3c0.3-0.3,0.7-0.5,1.3-0.5c0.8,0,1.3,0.4,1.8,1.2l6.4,12.3l6.4-12.3c0.4-0.8,1-1.2,1.7-1.2
			C359,341.1,359.4,341.2,359.8,341.6z"/>
		<path class="st0" d="M381.3,351c0.3,0.3,0.4,0.6,0.4,1v6.2c0,0.9-0.1,1.5-0.3,1.9c-0.2,0.4-0.7,0.7-1.4,0.9
			c-0.8,0.3-1.7,0.5-2.7,0.6c-1,0.2-2,0.2-3,0.2c-2.1,0-3.9-0.4-5.5-1.2c-1.5-0.8-2.7-2-3.6-3.6c-0.8-1.6-1.2-3.5-1.2-5.6
			c0-2.1,0.4-4,1.2-5.6c0.8-1.6,2-2.8,3.5-3.6s3.3-1.3,5.3-1.3c2.7,0,5,0.7,6.7,2.2c0.2,0.2,0.4,0.4,0.5,0.6
			c0.1,0.2,0.2,0.5,0.2,0.8c0,0.4-0.1,0.8-0.3,1.1s-0.5,0.4-0.8,0.4c-0.2,0-0.4,0-0.6-0.1c-0.2-0.1-0.4-0.2-0.6-0.3
			c-0.9-0.6-1.6-1-2.4-1.3c-0.7-0.2-1.6-0.4-2.5-0.4c-2.1,0-3.7,0.6-4.8,1.9c-1.1,1.2-1.6,3.1-1.6,5.6c0,5,2.2,7.5,6.6,7.5
			c1.3,0,2.6-0.2,3.9-0.6v-5.1h-3.3c-0.5,0-0.8-0.1-1.1-0.3c-0.3-0.2-0.4-0.6-0.4-1c0-0.4,0.1-0.8,0.4-1c0.3-0.2,0.6-0.3,1.1-0.3
			h5.1C380.7,350.6,381.1,350.7,381.3,351z"/>
	</g>
	<path class="st0" d="M260.6,135.9h-5c0-21.9-17.8-39.6-39.6-39.6s-39.6,17.8-39.6,39.6h-5c0-24.6,20-44.6,44.6-44.6
		S260.6,111.3,260.6,135.9z"/>
	<rect x="213.4" y="62.4" class="st0" width="5" height="20.4"/>
	
		<rect x="227.4" y="73.9" transform="matrix(0.3436 -0.9391 0.9391 0.3436 84.1734 273.2633)" class="st0" width="20.4" height="5"/>
	<rect x="246.3" y="84.9" transform="matrix(0.6441 -0.765 0.765 0.6441 24.4447 227.3212)" class="st0" width="20.4" height="5"/>
	
		<rect x="260.5" y="102.1" transform="matrix(0.8703 -0.4926 0.4926 0.8703 -16.3804 146.9272)" class="st0" width="20.4" height="5"/>
	
		<rect x="267.9" y="122.8" transform="matrix(0.9865 -0.1637 0.1637 0.9865 -16.757 47.2033)" class="st0" width="20.4" height="5"/>
	
		<rect x="151.4" y="114.2" transform="matrix(0.1773 -0.9842 0.9842 0.1773 4.1569 253.8309)" class="st0" width="5" height="20.4"/>
	<rect x="159" y="93.7" transform="matrix(0.5032 -0.8642 0.8642 0.5032 -9.5674 191.14)" class="st0" width="5" height="20.4"/>
	
		<rect x="173.4" y="76.7" transform="matrix(0.7729 -0.6346 0.6346 0.7729 -15.1838 131.3764)" class="st0" width="5" height="20.4"/>
	
		<rect x="192.6" y="65.9" transform="matrix(0.9438 -0.3304 0.3304 0.9438 -14.1954 68.7397)" class="st0" width="5" height="20.4"/>
	<path class="st0" d="M254.3,169.6H136.2c-8.5,0-15.5-6.1-15.5-13.5s6.9-13.5,15.5-13.5h172.3v5H136.2c-5.8,0-10.5,3.8-10.5,8.5
		s4.7,8.5,10.5,8.5h118.1V169.6z"/>
	<path class="st0" d="M308.5,213.6H136.2c-8.5,0-15.5-6.1-15.5-13.5s6.9-13.5,15.5-13.5h127.4v5H136.2c-5.8,0-10.5,3.8-10.5,8.5
		s4.7,8.5,10.5,8.5h172.3V213.6z"/>
	<path class="st0" d="M295.6,191.6H178.3v-5h117.3c5.8,0,10.5-3.8,10.5-8.5s-4.7-8.5-10.5-8.5h-138v-5h138c8.5,0,15.5,6.1,15.5,13.5
		S304.1,191.6,295.6,191.6z"/>
</g>
</svg>
