<?xml version="1.0" encoding="utf-8"?>
<!-- Generator: Adobe Illustrator 21.1.0, SVG Export Plug-In . SVG Version: 6.00 Build 0)  -->
<svg version="1.1" id="Layer_1" xmlns="http://www.w3.org/2000/svg" xmlns:xlink="http://www.w3.org/1999/xlink" x="0px" y="0px"
	 viewBox="0 0 500 500" style="enable-background:new 0 0 500 500;" xml:space="preserve">
<style type="text/css">
	.st0{fill:#232323;}
</style>
<g>
	<path class="st0" d="M153.8,238.3c0,9.1-5.9,14.3-16.3,14.3h-12.3v14.1h-2.5v-42.2h14.9C147.9,224.4,153.8,229.5,153.8,238.3z
		 M151.4,238.3c0-7.4-5.1-11.5-13.9-11.5h-12.3v23.2h12.3C146.3,250.1,151.4,245.9,151.4,238.3z"/>
	<path class="st0" d="M189.5,250.8c0,9.3-6.5,15.8-15.5,15.8c-8.9,0-15.5-6.5-15.5-15.8c0-9.2,6.6-15.8,15.5-15.8
		C183,235.1,189.5,241.6,189.5,250.8z M160.9,250.8c0,8,5.5,13.5,13.1,13.5c7.6,0,13.1-5.5,13.1-13.5c0-7.9-5.4-13.4-13.1-13.4
		C166.4,237.5,160.9,243,160.9,250.8z"/>
	<path class="st0" d="M201.5,221.8v44.8H199v-44.8H201.5z"/>
	<path class="st0" d="M213.4,278.4c-2.3,0-4.4-0.6-6-1.8l1.1-2.2c1.4,1,3,1.5,4.8,1.5c2.8,0,5.3-2,6.8-5.7l1.5-3.6l-13-31.5h2.7
		l11.6,28.5l11.3-28.5h2.7l-14.6,36C220.2,275.9,217.1,278.4,213.4,278.4z"/>
	<path class="st0" d="M250.9,224.3V242h19.2v-17.6h9.5v42.3h-9.5v-16.7h-19.2v16.7h-9.5v-42.3H250.9z"/>
	<path class="st0" d="M299.6,224.3l12.3,25.9l12.3-25.9h10.6v42.3h-8.6v-28.5L315,262.3h-6.2l-11.2-24.2v28.5h-8.6v-42.3H299.6z"/>
	<path class="st0" d="M372.6,245.3h8.3v16.3c-4.5,3.3-11.3,5.5-17.2,5.5c-12.8,0-22.5-9.3-22.5-21.6c0-12.2,9.9-21.5,23.1-21.5
		c6.3,0,12.7,2.4,17,6.2l-5.4,6.8c-3.1-2.9-7.5-4.7-11.6-4.7c-7.5,0-13.3,5.7-13.3,13.2c0,7.5,5.9,13.2,13.4,13.2
		c2.5,0,5.6-0.9,8.3-2.3V245.3z"/>
</g>
</svg>
