<?xml version="1.0" encoding="utf-8"?>
<!-- Generator: Adobe Illustrator 21.1.0, SVG Export Plug-In . SVG Version: 6.00 Build 0)  -->
<svg version="1.1" id="Livello_1" xmlns="http://www.w3.org/2000/svg" xmlns:xlink="http://www.w3.org/1999/xlink" x="0px" y="0px"
	 viewBox="0 0 841.9 595.3" style="enable-background:new 0 0 841.9 595.3;" xml:space="preserve">
<style type="text/css">
	.st0{fill:#00517D;}
	.st1{clip-path:url(#SVGID_2_);fill:#00517D;}
	.st2{clip-path:url(#SVGID_2_);fill:#FFCC00;}
</style>
<g>
	<polygon class="st0" points="129.9,390.4 105.8,390.4 68,290.5 95.1,290.5 118.2,361.3 118.8,361.3 141.8,290.5 168.5,290.5 	"/>
	<g>
		<defs>
			<rect id="SVGID_1_" x="68" y="202.2" width="705.9" height="190.8"/>
		</defs>
		<clipPath id="SVGID_2_">
			<use xlink:href="#SVGID_1_"  style="overflow:visible;"/>
		</clipPath>
		<path class="st1" d="M224.6,393c-31.2,0-54.3-21.4-54.3-53c0-32,23.1-52.2,54.3-52.2c31.3,0,54.5,20.2,54.5,52.2
			C279.1,371.6,255.9,393,224.6,393 M224.6,309.5c-16.9,0-28.5,13-28.5,30.5c0,18.1,11.7,31,28.5,31c16.8,0,28.6-13,28.6-31
			C253.3,322.5,241.5,309.5,224.6,309.5"/>
		<path class="st1" d="M332.3,390.4H295v-99.9h36.1c28.4,0,57.1,11.8,57.1,49.7C388.3,375.3,359.8,390.4,332.3,390.4 M330.6,311.1
			h-12v58.4H330c17.2,0,33.2-7.1,33.2-29.3C363.2,317.7,347.2,311.1,330.6,311.1"/>
		<path class="st1" d="M453.9,393c-31.2,0-54.3-21.4-54.3-53c0-32,23.1-52.2,54.3-52.2c31.3,0,54.5,20.2,54.5,52.2
			C508.3,371.6,485.2,393,453.9,393 M453.9,309.5c-16.9,0-28.5,13-28.5,30.5c0,18.1,11.7,31,28.5,31c16.8,0,28.6-13,28.6-31
			C482.5,322.5,470.8,309.5,453.9,309.5"/>
		<polygon class="st1" points="521.4,390.4 521.4,290.5 545.7,290.5 545.7,369.3 584.3,369.3 584.3,390.4 		"/>
		<polygon class="st1" points="598.5,390.4 598.5,290.5 665.6,290.5 665.6,310.9 621.8,310.9 621.8,329.7 663.2,329.7 663.2,349 
			621.8,349 621.8,369.8 668.2,369.8 668.2,390.4 		"/>
		<polygon class="st1" points="735.5,348 735.5,390.4 711.4,390.4 711.4,348 673.8,290.5 703,290.5 724.4,327.4 745.7,290.5 
			773.9,290.5 		"/>
		<path class="st2" d="M262.9,266c0-5.3,4.3-9.6,9.6-9.6c5.3,0,9.6,4.3,9.6,9.6c0,5.3-4.3,9.6-9.6,9.6
			C267.2,275.6,262.9,271.3,262.9,266"/>
		<path class="st2" d="M236,241.2c0-7.9,6.4-14.4,14.4-14.4c7.9,0,14.4,6.4,14.4,14.4c0,7.9-6.4,14.4-14.4,14.4
			C242.4,255.6,236,249.1,236,241.2"/>
		<path class="st1" d="M269.5,221.7c0-10.7,8.7-19.5,19.5-19.5c10.7,0,19.5,8.7,19.5,19.5c0,10.8-8.7,19.5-19.5,19.5
			C278.2,241.2,269.5,232.5,269.5,221.7"/>
	</g>
</g>
</svg>
