<?xml version="1.0" encoding="utf-8"?>
<!-- Generator: Adobe Illustrator 21.1.0, SVG Export Plug-In . SVG Version: 6.00 Build 0)  -->
<svg version="1.1" id="Livello_1" xmlns="http://www.w3.org/2000/svg" xmlns:xlink="http://www.w3.org/1999/xlink" x="0px" y="0px"
	 viewBox="0 0 841.9 595.3" style="enable-background:new 0 0 841.9 595.3;" xml:space="preserve">
<style type="text/css">
	.st0{fill:#1951A0;}
</style>
<g>
	<g>
		<g>
			<path class="st0" d="M253.5,374.4l-9.6,21l-14.7-20.9v0.1l-14.3,20.6l-10.2-20.6l-22.4,0.1l30.8,60.4l16.9-24.6l15.6,24.6
				l30.3-60.8L253.5,374.4z M279.4,374.3l-20.7,59.8h23l1.7-7.5h16.4l2,7.5h23l-21.3-59.8H279.4z M287.2,412.5l4-18.2h0.8
				c0.4,2.5,0.8,5.2,1.4,7.7l2.5,10.6H287.2z M449.5,410.8v-0.5c8.1-2.7,11.6-6.5,11.6-15.5c0-15.1-11.4-20.8-24.9-20.8H410v59.8
				h21.2v-19.2h0.4l9.5,19.2h25l-13-19.4C452,412.6,450.7,411.6,449.5,410.8z M432.8,400.4h-1.5v-10.2h1.7c3.7,0,7,0.6,7,5.2
				C439.9,399.9,436.3,400.4,432.8,400.4z M463.9,394.2h12v39.9h21.7v-39.9h12v-19.9h-45.6V394.2z M534.4,412.3h16.7V396h-16.7v-5
				h18.3v-17h-40.1v59.8h41.7v-16.3h-19.9V412.3z M590,392.2c4.9,0,9.3,2.8,12.7,6l-0.6-22.8c-4.6-1.6-9.7-2.5-14.6-2.5
				c-17.5,0-31.2,14-31.2,31.4c0,17.1,13.3,30.3,30.3,30.3c3.9,0,12-0.7,15.4-2.4l0.6-22.4c-3.5,3.4-7.4,5.6-12.4,5.6
				c-6.5,0-12.1-5.1-12.1-11.7C578.2,397.4,583.5,392.2,590,392.2z M638.6,374v20.1h-13.3V374h-20.9v59.8h20.9V413h13.3v20.8h20.9
				V374H638.6z M316.1,394.2h12v39.9h21.7v-39.9h12v-19.9h-45.6V394.2z M388.3,412.3H405V396h-16.7v-5h18.3v-17h-40.1v59.8h41.7
				v-16.3h-19.9V412.3z"/>
		</g>
	</g>
</g>
<g>
	<path class="st0" d="M425.6,348l-27-38l-26,38l-109-179.2h1.3h51.9l55.1,89.6l27-40.1l27.3,41.4l19-39.9h99.6V348h-49l0.3-100.6
		v-11.7v-13.5L425.6,348z"/>
	<path class="st0" d="M578.3,216.7H356.1v-4.4h222.2V216.7z"/>
	<path class="st0" d="M578.3,210H356.1v-6.3h222.2V210z"/>
	<path class="st0" d="M578.3,201.2H356.1V194h222.2V201.2z"/>
	<path class="st0" d="M578.3,191.1H356.1v-8.6h222.2V191.1z"/>
	<path class="st0" d="M578.3,179.6H356.1v-10.9h222.2V179.6z"/>
</g>
</svg>
