<?xml version="1.0" encoding="utf-8"?>
<!-- Generator: Adobe Illustrator 21.1.0, SVG Export Plug-In . SVG Version: 6.00 Build 0)  -->
<svg version="1.1" xmlns="http://www.w3.org/2000/svg" xmlns:xlink="http://www.w3.org/1999/xlink" x="0px" y="0px"
	 viewBox="0 0 700 350" style="enable-background:new 0 0 700 350;" xml:space="preserve">
<style type="text/css">
	.st0{display:none;}
	.st1{display:inline;}
	.st2{fill:#00527F;}
	.st3{fill:#FFCB05;}
	.st4{fill:#232323;}
</style>
<g id="Layer_1" class="st0">
	<g class="st1">
		<polygon class="st2" points="87,258.8 65.2,258.8 31.1,168.5 55.5,168.5 76.5,232.5 77,232.5 97.7,168.5 121.8,168.5 		"/>
		<path class="st2" d="M172.6,261.2c-28.2,0-49.1-19.4-49.1-47.9c0-28.9,20.9-47.2,49.1-47.2c28.3,0,49.2,18.2,49.2,47.2
			C221.8,241.8,200.9,261.2,172.6,261.2 M172.6,185.7c-15.3,0-25.8,11.7-25.8,27.5c0,16.3,10.6,28,25.8,28c15.2,0,25.9-11.7,25.9-28
			C198.5,197.5,187.9,185.7,172.6,185.7"/>
		<path class="st2" d="M269.9,258.8h-33.7v-90.3h32.6c25.6,0,51.6,10.7,51.6,44.9C320.5,245.1,294.7,258.8,269.9,258.8 M268.3,187.1
			h-10.8v52.8h10.3c15.6,0,30-6.4,30-26.5C297.8,193.1,283.4,187.1,268.3,187.1"/>
		<path class="st2" d="M379.8,261.2c-28.2,0-49.1-19.4-49.1-47.9c0-28.9,20.9-47.2,49.1-47.2c28.3,0,49.2,18.2,49.2,47.2
			C429,241.8,408.1,261.2,379.8,261.2 M379.8,185.7c-15.3,0-25.8,11.7-25.8,27.5c0,16.3,10.6,28,25.8,28c15.2,0,25.9-11.7,25.9-28
			C405.6,197.5,395,185.7,379.8,185.7"/>
		<polygon class="st2" points="440.8,258.8 440.8,168.5 462.7,168.5 462.7,239.8 497.7,239.8 497.7,258.8 		"/>
		<polygon class="st2" points="510.4,258.8 510.4,168.5 571.1,168.5 571.1,187 531.5,187 531.5,204 568.9,204 568.9,221.4 
			531.5,221.4 531.5,240.2 573.4,240.2 573.4,258.8 		"/>
		<polygon class="st2" points="634.3,220.5 634.3,258.8 612.5,258.8 612.5,220.5 578.5,168.5 604.9,168.5 624.2,201.9 643.4,168.5 
			668.9,168.5 		"/>
		<path class="st3" d="M207.2,146.4c0-4.8,3.9-8.7,8.7-8.7c4.8,0,8.7,3.9,8.7,8.7c0,4.8-3.9,8.7-8.7,8.7
			C211,155,207.2,151.2,207.2,146.4"/>
		<path class="st3" d="M182.9,124c0-7.2,5.8-13,13-13c7.2,0,13,5.8,13,13c0,7.2-5.8,13-13,13C188.7,137,182.9,131.2,182.9,124"/>
		<path class="st2" d="M213.2,106.4c0-9.7,7.9-17.6,17.6-17.6c9.7,0,17.6,7.9,17.6,17.6c0,9.7-7.9,17.6-17.6,17.6
			C221,124,213.2,116.1,213.2,106.4"/>
	</g>
</g>
<g id="Layer_2">
	<g>
		<path class="st4" d="M95.6,144.5c0,23.5-15.2,36.9-42.1,36.9H21.6v36.5H15V108.5h38.5C80.4,108.5,95.6,121.6,95.6,144.5z
			 M89.4,144.6c0-19.3-13.2-29.7-36-29.7H21.6V175h31.8C76.2,175,89.4,164.2,89.4,144.6z"/>
		<path class="st4" d="M188.2,177c0,24.1-16.9,41-40.2,41c-23.2,0-40.2-16.9-40.2-41c0-24,17.1-40.9,40.2-40.9
			C171.3,136.2,188.2,153.1,188.2,177z M114.1,177c0,20.7,14.2,34.9,33.8,34.9c19.7,0,33.8-14.2,33.8-34.9
			c0-20.4-14.1-34.6-33.8-34.6C128.4,142.4,114.1,156.7,114.1,177z"/>
		<path class="st4" d="M219.3,101.7v116.2h-6.6V101.7H219.3z"/>
		<path class="st4" d="M250.2,248.4c-5.9,0-11.3-1.6-15.5-4.7l2.8-5.6c3.6,2.5,7.8,3.8,12.4,3.8c7.4,0,13.6-5.2,17.5-14.7l3.8-9.2
			l-33.7-81.6h6.9l30.1,73.9l29.3-73.9h6.9l-37.9,93.3C267.7,241.9,259.7,248.4,250.2,248.4z"/>
		<path class="st4" d="M347.2,108.3V154h49.6v-45.7h24.7v109.6h-24.7v-43.2h-49.6v43.2h-24.7V108.3H347.2z"/>
		<path class="st4" d="M473.4,108.3l31.9,67l31.8-67h27.6v109.6h-22.2V144l-29.1,62.8h-16.1L468.1,144v73.9h-22.4V108.3H473.4z"/>
		<path class="st4" d="M662.5,162.6H684v42.1c-11.6,8.5-29.3,14.2-44.5,14.2c-33.2,0-58.4-24.1-58.4-55.9
			c0-31.6,25.7-55.6,59.8-55.6c16.3,0,32.9,6.3,44,16L671,141.2c-8.1-7.5-19.4-12.2-30.1-12.2c-19.4,0-34.4,14.9-34.4,34.1
			c0,19.4,15.2,34.3,34.6,34.3c6.6,0,14.4-2.3,21.4-5.9V162.6z"/>
	</g>
</g>
</svg>
