<?xml version="1.0" encoding="utf-8"?>
<!-- Generator: Adobe Illustrator 21.1.0, SVG Export Plug-In . SVG Version: 6.00 Build 0)  -->
<svg version="1.1" id="Layer_1" xmlns="http://www.w3.org/2000/svg" xmlns:xlink="http://www.w3.org/1999/xlink" x="0px" y="0px"
	 viewBox="0 0 700 350" style="enable-background:new 0 0 700 350;" xml:space="preserve">
<polygon points="87,258.8 65.2,258.8 31.1,168.5 55.5,168.5 76.5,232.5 77,232.5 97.7,168.5 121.8,168.5 "/>
<path d="M172.6,166.1c-28.2,0-49.1,18.3-49.1,47.2c0,28.5,20.9,47.9,49.1,47.9c28.3,0,49.2-19.4,49.2-47.9
	C221.8,184.3,200.9,166.1,172.6,166.1z M172.6,241.2c-15.2,0-25.8-11.7-25.8-28c0-15.8,10.5-27.5,25.8-27.5
	c15.3,0,25.9,11.8,25.9,27.5C198.5,229.5,187.8,241.2,172.6,241.2z"/>
<path d="M268.8,168.5h-32.6v90.3h33.7c24.8,0,50.6-13.7,50.5-45.4C320.4,179.2,294.4,168.5,268.8,168.5z M267.8,239.9h-10.3v-52.8
	h10.8c15.1,0,29.5,6,29.5,26.3C297.8,233.5,283.4,239.9,267.8,239.9z"/>
<path d="M379.8,166.1c-28.2,0-49.1,18.3-49.1,47.2c0,28.5,20.9,47.9,49.1,47.9c28.3,0,49.2-19.4,49.2-47.9
	C429,184.3,408.1,166.1,379.8,166.1z M379.8,241.2c-15.2,0-25.8-11.7-25.8-28c0-15.8,10.5-27.5,25.8-27.5
	c15.2,0,25.8,11.8,25.9,27.5C405.7,229.5,395,241.2,379.8,241.2z"/>
<polygon points="440.8,258.8 440.8,168.5 462.7,168.5 462.7,239.8 497.7,239.8 497.7,258.8 "/>
<polygon points="510.4,258.8 510.4,168.5 571.1,168.5 571.1,187 531.5,187 531.5,204 568.9,204 568.9,221.4 531.5,221.4 
	531.5,240.2 573.4,240.2 573.4,258.8 "/>
<polygon points="634.3,220.5 634.3,258.8 612.5,258.8 612.5,220.5 578.5,168.5 604.9,168.5 624.2,201.9 643.4,168.5 668.9,168.5 "/>
<path d="M207.2,146.4c0-4.8,3.9-8.7,8.7-8.7s8.7,3.9,8.7,8.7s-3.9,8.7-8.7,8.7C211,155,207.2,151.2,207.2,146.4"/>
<path d="M182.9,124c0-7.2,5.8-13,13-13s13,5.8,13,13s-5.8,13-13,13S182.9,131.2,182.9,124"/>
<path d="M213.2,106.4c0-9.7,7.9-17.6,17.6-17.6c9.7,0,17.6,7.9,17.6,17.6s-7.9,17.6-17.6,17.6C221,124,213.2,116.1,213.2,106.4"/>
</svg>
