<?xml version="1.0" encoding="utf-8"?>
<!-- Generator: Adobe Illustrator 21.1.0, SVG Export Plug-In . SVG Version: 6.00 Build 0)  -->
<svg version="1.1" xmlns="http://www.w3.org/2000/svg" xmlns:xlink="http://www.w3.org/1999/xlink" x="0px" y="0px"
	 viewBox="0 0 700 350" style="enable-background:new 0 0 700 350;" xml:space="preserve">
<style type="text/css">
	.st0{display:none;}
	.st1{display:inline;}
	.st2{fill:#00527F;}
	.st3{fill:#FFCB05;}
	.st4{fill:#1C53A0;}
</style>
<g id="Layer_1" class="st0">
	<g class="st1">
		<polygon class="st2" points="87,258.8 65.2,258.8 31.1,168.5 55.5,168.5 76.5,232.5 77,232.5 97.7,168.5 121.8,168.5 		"/>
		<path class="st2" d="M172.6,261.2c-28.2,0-49.1-19.4-49.1-47.9c0-28.9,20.9-47.2,49.1-47.2c28.3,0,49.2,18.2,49.2,47.2
			C221.8,241.8,200.9,261.2,172.6,261.2 M172.6,185.7c-15.3,0-25.8,11.7-25.8,27.5c0,16.3,10.6,28,25.8,28c15.2,0,25.9-11.7,25.9-28
			C198.5,197.5,187.9,185.7,172.6,185.7"/>
		<path class="st2" d="M269.9,258.8h-33.7v-90.3h32.6c25.6,0,51.6,10.7,51.6,44.9C320.5,245.1,294.7,258.8,269.9,258.8 M268.3,187.1
			h-10.8v52.8h10.3c15.6,0,30-6.4,30-26.5C297.8,193.1,283.4,187.1,268.3,187.1"/>
		<path class="st2" d="M379.8,261.2c-28.2,0-49.1-19.4-49.1-47.9c0-28.9,20.9-47.2,49.1-47.2c28.3,0,49.2,18.2,49.2,47.2
			C429,241.8,408.1,261.2,379.8,261.2 M379.8,185.7c-15.3,0-25.8,11.7-25.8,27.5c0,16.3,10.6,28,25.8,28c15.2,0,25.9-11.7,25.9-28
			C405.6,197.5,395,185.7,379.8,185.7"/>
		<polygon class="st2" points="440.8,258.8 440.8,168.5 462.7,168.5 462.7,239.8 497.7,239.8 497.7,258.8 		"/>
		<polygon class="st2" points="510.4,258.8 510.4,168.5 571.1,168.5 571.1,187 531.5,187 531.5,204 568.9,204 568.9,221.4 
			531.5,221.4 531.5,240.2 573.4,240.2 573.4,258.8 		"/>
		<polygon class="st2" points="634.3,220.5 634.3,258.8 612.5,258.8 612.5,220.5 578.5,168.5 604.9,168.5 624.2,201.9 643.4,168.5 
			668.9,168.5 		"/>
		<path class="st3" d="M207.2,146.4c0-4.8,3.9-8.7,8.7-8.7c4.8,0,8.7,3.9,8.7,8.7c0,4.8-3.9,8.7-8.7,8.7
			C211,155,207.2,151.2,207.2,146.4"/>
		<path class="st3" d="M182.9,124c0-7.2,5.8-13,13-13c7.2,0,13,5.8,13,13c0,7.2-5.8,13-13,13C188.7,137,182.9,131.2,182.9,124"/>
		<path class="st2" d="M213.2,106.4c0-9.7,7.9-17.6,17.6-17.6c9.7,0,17.6,7.9,17.6,17.6c0,9.7-7.9,17.6-17.6,17.6
			C221,124,213.2,116.1,213.2,106.4"/>
	</g>
</g>
<g id="Layer_2">
	<g>
		<g>
			<g>
				<path class="st4" d="M142,264.9L130.1,291l-18.3-26v0.1l-17.8,25.6l-12.7-25.6l-27.8,0.1l38.2,75l21-30.5l19.4,30.5l37.6-75.5
					L142,264.9z M174.2,264.8L148.5,339h28.6l2.1-9.3h20.4l2.5,9.3h28.6l-26.4-74.3H174.2z M183.9,312.2l5-22.6h1
					c0.5,3.1,1,6.5,1.7,9.6l3.1,13.2h-10.8V312.2z M385.4,310.1v-0.6c10.1-3.4,14.4-8.1,14.4-19.2c0-18.7-14.2-25.8-30.9-25.8h-32.5
					v74.3h26.3v-23.8h0.5l11.8,23.8h31l-16.1-24.1C388.5,312.4,386.9,311.1,385.4,310.1z M364.7,297.2h-1.9v-12.7h2.1
					c4.6,0,8.7,0.7,8.7,6.5C373.5,296.6,369,297.2,364.7,297.2z M403.3,289.5h14.9V339h26.9v-49.5H460v-24.7h-56.6v24.7H403.3z
					 M490.8,312h20.7v-20.2h-20.7v-6.2h22.7v-21.1h-49.8v74.3h51.8v-20.2h-24.7V312z M559.9,287c6.1,0,11.5,3.5,15.8,7.5l-0.7-28.3
					c-5.7-2-12-3.1-18.1-3.1c-21.7,0-38.7,17.4-38.7,39c0,21.2,16.5,37.6,37.6,37.6c4.8,0,14.9-0.9,19.1-3l0.7-27.8
					c-4.3,4.2-9.2,7-15.4,7c-8.1,0-15-6.3-15-14.5C545.2,293.5,551.8,287,559.9,287z M620.2,264.4v25h-16.5v-25h-26v74.3h26v-25.8
					h16.5v25.8h26v-74.3H620.2z M219.8,289.5h14.9V339h26.9v-49.5h14.9v-24.7h-56.6v24.7H219.8z M309.4,312h20.7v-20.2h-20.7v-6.2
					h22.7v-21.1h-49.8v74.3h51.8v-20.2h-24.7V312z"/>
			</g>
		</g>
	</g>
	<g>
		<path class="st4" d="M355.7,232.1L322.2,185l-32.3,47.2L154.6,9.6h1.6h64.4l68.4,111.3l33.5-49.8l33.9,51.4L380.1,73h123.7v159.2
			h-60.8l0.4-124.9V92.7V75.9L355.7,232.1z"/>
		<path class="st4" d="M545.3,69.1H269.4v-5.5h275.9V69.1z"/>
		<path class="st4" d="M545.3,60.8H269.4V53h275.9V60.8z"/>
		<path class="st4" d="M545.3,49.9H269.4v-8.9h275.9V49.9z"/>
		<path class="st4" d="M545.3,37.3H269.4V26.6h275.9V37.3z"/>
		<path class="st4" d="M545.3,23H269.4V9.5h275.9V23z"/>
	</g>
</g>
</svg>
