<?xml version="1.0" encoding="utf-8"?>
<!-- Generator: Adobe Illustrator 21.1.0, SVG Export Plug-In . SVG Version: 6.00 Build 0)  -->
<svg version="1.1" id="Layer_1" xmlns="http://www.w3.org/2000/svg" xmlns:xlink="http://www.w3.org/1999/xlink" x="0px" y="0px"
	 viewBox="0 0 432 432" style="enable-background:new 0 0 432 432;" xml:space="preserve">
<style type="text/css">
	.st0{enable-background:new    ;}
	.st1{fill:#0E1131;}
</style>
<g class="st0">
	<path class="st1" d="M55.4,238.5c-0.4-0.4-0.7-1.1-0.7-1.9v-51.1c0-0.7,0.2-1.3,0.8-1.7c0.5-0.5,1.1-0.7,1.9-0.7h18.5
		c5.8,0,10.3,1.4,13.5,4.2c3.2,2.8,4.8,6.7,4.8,11.8c0,5.2-1.6,9.2-4.8,12c-3.2,2.8-7.7,4.2-13.4,4.2H59.6v21.3
		c0,0.8-0.2,1.4-0.7,1.9c-0.4,0.4-1,0.7-1.8,0.7C56.4,239.2,55.8,239,55.4,238.5z M75.5,211.2c9.1,0,13.7-4,13.7-12
		c0-7.9-4.6-11.8-13.7-11.8H59.6v23.9H75.5z"/>
	<path class="st1" d="M109,236.9c-2.7-1.6-4.7-4-6.2-7c-1.5-3-2.2-6.5-2.2-10.5c0-4,0.7-7.5,2.2-10.5c1.5-3,3.5-5.3,6.2-7
		c2.7-1.6,5.8-2.4,9.3-2.4c3.5,0,6.6,0.8,9.2,2.4c2.7,1.6,4.8,3.9,6.2,7c1.4,3,2.2,6.5,2.2,10.5c0,4-0.7,7.5-2.2,10.5
		c-1.4,3-3.5,5.3-6.2,7c-2.7,1.6-5.8,2.4-9.2,2.4C114.8,239.4,111.7,238.5,109,236.9z M127.6,231.1c2.2-2.7,3.3-6.6,3.3-11.6
		c0-4.9-1.1-8.8-3.4-11.6c-2.2-2.8-5.3-4.1-9.3-4.1c-4,0-7.1,1.4-9.3,4.1c-2.2,2.8-3.3,6.6-3.3,11.6c0,5.1,1.1,8.9,3.2,11.6
		c2.2,2.7,5.3,4,9.3,4C122.3,235.1,125.4,233.8,127.6,231.1z"/>
	<path class="st1" d="M146.8,238.6c-0.4-0.4-0.7-1-0.7-1.8v-51.6c0-0.8,0.2-1.4,0.7-1.8c0.4-0.4,1-0.6,1.8-0.6
		c0.7,0,1.3,0.2,1.7,0.6c0.4,0.4,0.7,1,0.7,1.8v51.6c0,0.8-0.2,1.4-0.7,1.8c-0.4,0.4-1,0.6-1.7,0.6
		C147.8,239.2,147.2,239,146.8,238.6z"/>
	<path class="st1" d="M193.8,199.7c0.6,0,1.1,0.2,1.6,0.6c0.5,0.4,0.7,0.9,0.7,1.5c0,0.4-0.1,0.7-0.2,1l-22.4,49.1
		c-0.4,0.9-1.1,1.3-2.1,1.3c-0.6,0-1.1-0.2-1.5-0.6c-0.4-0.4-0.7-0.8-0.7-1.4c0-0.3,0.1-0.6,0.2-0.9l5.6-12.2l-16.2-35.2
		c-0.2-0.3-0.2-0.6-0.2-0.9c0-0.6,0.3-1.2,0.8-1.6c0.6-0.4,1.1-0.7,1.8-0.7c1,0,1.7,0.5,2.1,1.4l14.2,31.9l14.2-31.8
		C192.2,200.2,192.9,199.7,193.8,199.7z"/>
</g>
<g class="st0">
	<path class="st1" d="M252.5,184.4c1.1,1.1,1.7,2.6,1.7,4.4v44.3c0,1.8-0.6,3.3-1.7,4.5c-1.1,1.1-2.6,1.7-4.4,1.7
		c-1.8,0-3.3-0.6-4.4-1.7c-1.1-1.1-1.6-2.6-1.6-4.5v-17.7h-25.7v17.7c0,1.8-0.6,3.3-1.7,4.5c-1.1,1.1-2.6,1.7-4.3,1.7
		c-1.8,0-3.3-0.6-4.4-1.7c-1.1-1.1-1.7-2.6-1.7-4.5v-44.3c0-1.8,0.6-3.3,1.7-4.4c1.1-1.1,2.6-1.7,4.4-1.7c1.8,0,3.3,0.6,4.4,1.7
		c1.1,1.1,1.6,2.6,1.6,4.4v16.8H242v-16.8c0-1.8,0.5-3.3,1.6-4.4c1.1-1.1,2.5-1.7,4.4-1.7C249.9,182.7,251.4,183.3,252.5,184.4z"/>
	<path class="st1" d="M318.9,184.4c1.1,1.1,1.6,2.6,1.6,4.4v44.9c0,1.7-0.5,3.1-1.5,4.1c-1,1-2.3,1.5-4,1.5c-1.6,0-2.9-0.5-3.9-1.5
		c-1-1-1.5-2.4-1.5-4.1v-27.9l-11.2,21.1c-0.7,1.4-1.5,2.4-2.4,3s-1.9,0.9-3.1,0.9c-1.2,0-2.2-0.3-3.1-0.9c-0.9-0.6-1.7-1.6-2.4-3
		l-11.2-20.7v27.5c0,1.7-0.5,3-1.5,4.1c-1,1-2.3,1.5-3.9,1.5c-1.6,0-2.9-0.5-3.9-1.5c-1-1-1.5-2.4-1.5-4.1v-44.9
		c0-1.8,0.5-3.3,1.6-4.4c1.1-1.1,2.5-1.7,4.2-1.7c2.5,0,4.5,1.3,5.8,4l16,30.4l16-30.4c1.4-2.7,3.3-4,5.7-4
		C316.4,182.7,317.8,183.3,318.9,184.4z"/>
	<path class="st1" d="M378.3,209.3c0.9,0.8,1.3,1.9,1.3,3.4v15.4c0,2.1-0.2,3.7-0.5,4.9c-0.3,1.2-0.9,2.1-1.8,2.8
		c-0.8,0.7-2.1,1.3-3.8,1.7c-2.1,0.6-4.4,1.1-7.1,1.5c-2.7,0.4-5.2,0.6-7.5,0.6c-5.9,0-11-1.1-15.3-3.4s-7.6-5.6-10-9.9
		c-2.3-4.3-3.5-9.4-3.5-15.3c0-5.8,1.1-10.8,3.4-15.1c2.3-4.3,5.6-7.6,9.8-9.9c4.3-2.3,9.2-3.5,14.9-3.5c7.3,0,13.4,1.9,18.2,5.7
		c0.8,0.6,1.3,1.3,1.7,1.9c0.3,0.6,0.5,1.4,0.5,2.4c0,1.4-0.4,2.5-1.1,3.5c-0.8,1-1.7,1.5-2.7,1.5c-0.7,0-1.3-0.1-1.9-0.3
		c-0.6-0.2-1.2-0.6-2-1c-2.2-1.4-4.2-2.3-6.1-2.9c-1.8-0.6-3.9-0.9-6.1-0.9c-10.7,0-16.1,6.2-16.1,18.7c0,6.4,1.4,11.2,4.2,14.4
		c2.8,3.2,7,4.7,12.6,4.7c3.1,0,6.1-0.4,9.1-1.2v-12.2h-7.3c-1.5,0-2.7-0.4-3.6-1.1c-0.8-0.7-1.3-1.8-1.3-3.2c0-1.4,0.4-2.4,1.3-3.2
		c0.8-0.7,2-1.1,3.6-1.1h13.5C376.2,208.1,377.4,208.5,378.3,209.3z"/>
</g>
</svg>
