<svg version="1.1" id="poly-air" xmlns="http://www.w3.org/2000/svg" xmlns:xlink="http://www.w3.org/1999/xlink" x="0px" y="0px"
	 viewBox="0 0 432 432" style="enable-background:new 0 0 432 432;" xml:space="preserve">
<g>
	<g>
		<path class="st0" d="M78.5,304.8c-0.6-0.6-0.9-1.4-0.9-2.4v-49.6c0-0.9,0.3-1.7,0.9-2.3c0.6-0.6,1.4-0.9,2.4-0.9h18.7
			c5.8,0,10.4,1.4,13.6,4.3c3.2,2.8,4.9,6.9,4.9,12.1s-1.6,9.3-4.9,12.2c-3.3,2.9-7.8,4.3-13.6,4.3H84.1v19.9c0,1-0.3,1.8-0.9,2.4
			c-0.6,0.6-1.4,0.9-2.4,0.9C79.8,305.7,79,305.4,78.5,304.8z M99,277.1c8.5,0,12.7-3.7,12.7-11.1c0-7.3-4.2-11-12.7-11H84.1v22.1
			H99z"/>
		<path class="st0" d="M132.7,303.4c-2.8-1.6-4.9-4-6.4-7c-1.5-3-2.3-6.5-2.3-10.5c0-4,0.8-7.5,2.3-10.5c1.5-3,3.6-5.4,6.4-7
			c2.8-1.6,6-2.4,9.6-2.4s6.8,0.8,9.6,2.4c2.8,1.6,4.9,4,6.4,7c1.5,3,2.3,6.5,2.3,10.5c0,4-0.8,7.5-2.3,10.5c-1.5,3-3.6,5.4-6.4,7
			c-2.8,1.6-6,2.4-9.6,2.4S135.5,305.1,132.7,303.4z M151,296.8c2-2.5,3-6.1,3-10.9c0-4.7-1-8.3-3.1-10.9c-2.1-2.6-5-3.8-8.7-3.8
			c-3.7,0-6.6,1.3-8.7,3.8c-2.1,2.6-3.1,6.2-3.1,10.9c0,4.7,1,8.4,3,10.9c2,2.5,4.9,3.8,8.7,3.8S149,299.3,151,296.8z"/>
		<path class="st0" d="M171.1,304.9c-0.6-0.6-0.9-1.3-0.9-2.3v-50.2c0-1,0.3-1.8,0.9-2.3c0.6-0.6,1.4-0.8,2.3-0.8
			c0.9,0,1.6,0.3,2.3,0.8c0.6,0.6,0.9,1.3,0.9,2.3v50.2c0,1-0.3,1.8-0.9,2.3c-0.6,0.6-1.4,0.8-2.3,0.8
			C172.5,305.7,171.7,305.4,171.1,304.9z"/>
		<path class="st0" d="M219,266.1c0.8,0,1.5,0.3,2.1,0.8c0.6,0.5,0.9,1.2,0.9,2c0,0.5-0.1,0.9-0.3,1.3L199.6,318
			c-0.3,0.6-0.6,1-1.1,1.3c-0.5,0.3-1,0.5-1.5,0.5c-0.8,0-1.5-0.3-2.1-0.8c-0.6-0.5-0.9-1.1-0.9-1.9c0-0.4,0.1-0.8,0.3-1.3l5.5-11.9
			l-15.6-33.8c-0.2-0.4-0.3-0.8-0.3-1.2c0-0.8,0.4-1.5,1.1-2.1c0.7-0.6,1.5-0.9,2.3-0.9c0.5,0,1,0.2,1.5,0.5
			c0.5,0.3,0.9,0.8,1.1,1.3l13.2,29.6l13.2-29.5C216.8,266.8,217.7,266.1,219,266.1z"/>
		<path class="st0" d="M281.3,300.3c0,1.5-0.6,2.7-1.8,3.8c-1.2,1-2.5,1.5-4.1,1.5c-1,0-1.9-0.3-2.8-0.8c-0.9-0.6-1.6-1.4-2.1-2.5
			l-4.2-9.3h-26.8l-4.2,9.3c-0.5,1.1-1.1,1.9-2,2.5c-0.9,0.6-1.8,0.8-2.9,0.8c-1.5,0-2.9-0.5-4.1-1.5c-1.2-1-1.8-2.3-1.8-3.8
			c0-0.7,0.2-1.6,0.6-2.5l21.3-44.8c0.6-1.3,1.4-2.2,2.6-2.9c1.2-0.7,2.4-1,3.7-1c1.4,0,2.6,0.3,3.8,1c1.2,0.7,2.1,1.6,2.7,2.8
			l21.3,44.8C281,298.8,281.3,299.6,281.3,300.3z M243.7,283.7h18.4l-9.2-20.5L243.7,283.7z"/>
		<path class="st0" d="M289.7,304.1c-1.1-1.1-1.7-2.6-1.7-4.5v-44.3c0-1.8,0.6-3.3,1.7-4.4c1.1-1.1,2.6-1.7,4.5-1.7s3.4,0.6,4.5,1.7
			c1.1,1.1,1.7,2.6,1.7,4.4v44.3c0,1.9-0.6,3.4-1.7,4.5c-1.1,1.1-2.6,1.7-4.5,1.7S290.8,305.2,289.7,304.1z"/>
		<path class="st0" d="M358.3,300.9c0,1.5-0.6,2.7-1.8,3.6c-1.2,0.9-2.6,1.4-4.1,1.4c-1,0-2-0.2-2.9-0.7c-0.9-0.5-1.7-1.2-2.4-2.2
			l-10.4-15.5c-0.9-1.4-1.8-2.4-2.8-3c-1-0.6-2.3-0.9-3.8-0.9h-6.4v16c0,1.9-0.5,3.4-1.6,4.5c-1.1,1.1-2.5,1.7-4.4,1.7
			c-1.9,0-3.4-0.6-4.5-1.7c-1.1-1.1-1.7-2.6-1.7-4.5v-44.2c0-1.8,0.5-3.3,1.5-4.3c1-1,2.4-1.5,4.3-1.5H337c6.5,0,11.5,1.4,14.8,4.3
			c3.3,2.9,5,7,5,12.4c0,4.3-1.2,7.8-3.6,10.7s-5.7,4.7-10,5.6c1.6,0.3,3,0.9,4.2,1.9c1.2,0.9,2.4,2.3,3.6,4l6,9
			C357.9,298.7,358.3,299.8,358.3,300.9z M342.9,272.5c1.6-1.2,2.4-3.2,2.4-5.8c0-2.7-0.8-4.6-2.4-5.8c-1.6-1.2-4.1-1.8-7.7-1.8
			h-11.8v15.3h11.8C338.7,274.4,341.3,273.7,342.9,272.5z"/>
	</g>
	<g>
		<g>
			<path class="st0" d="M214.3,116.4l6.2-36c0.2-1.2,0.9-2.3,2-3c1-0.7,2.3-1,3.5-0.8l15,2.7c2.5,0.5,4.2,2.9,3.8,5.5l-0.1,0.5
				l-21,32.4l-1.1,0.1c-0.7,0.1-1.3,0.1-1.8,0.1L214.3,116.4z M225.3,81.6l-6.1,33.3l20.2-30.8L225.3,81.6z"/>
			<path class="st0" d="M225.9,119.9l28.9-24.2c1-0.8,2.2-1.2,3.4-1.1c1.3,0.1,2.4,0.7,3.2,1.7l9.8,11.7c0.8,1,1.2,2.2,1.1,3.4
				s-0.7,2.4-1.7,3.2l-0.4,0.3l-37.6,11.6l-1-0.6c-0.6-0.4-1.1-0.8-1.5-1.1L225.9,119.9z M257.8,99.7l-26,21.8l35.2-10.8L257.8,99.7
				z"/>
			<path class="st0" d="M271.2,153.8l-34.9-14.2l-0.4-1.1c-0.2-0.7-0.4-1.3-0.5-1.8l0.1-7.4l36-0.3c0,0,0,0,0,0
				c2.6,0,4.7,2.1,4.7,4.7l0.1,15.3c0,2.6-2.1,4.7-4.7,4.7L271.2,153.8z M237.4,134.4l34,14.1l-0.1-14.3L237.4,134.4z"/>
			<path class="st0" d="M232.3,146.7l3.3-3.6l27.6,22.4c2,1.6,2.3,4.6,0.7,6.6l-9.6,11.9c-0.8,1-1.9,1.6-3.2,1.7c-0.2,0-0.3,0-0.5,0
				c-1.1,0-2.1-0.4-2.9-1l-0.4-0.3l-17.7-33.2L232.3,146.7z M233.4,147.8l17.3,32.5l9-11.1L233.4,147.8z"/>
			<path class="st0" d="M213.7,196.9c-2.2,0-4.2-1.6-4.6-3.8l-0.1-0.5l7.5-36.1l3.1-0.3c0.6-0.4,3.8-0.6,4.2-0.8l2.9-0.9l6.7,33.7
				c0.5,2.5-1.2,5-3.7,5.5l-15,3C214.3,196.9,214,196.9,213.7,196.9z M221.7,155.8l-7.5,36l14.1-2.8L221.7,155.8z"/>
			<path class="st0" d="M191.8,189.4c-0.8,0-1.5-0.2-2.2-0.6l-13.5-7.2c-1.1-0.6-1.9-1.6-2.3-2.8c-0.4-1.2-0.2-2.5,0.4-3.6l0.2-0.4
				l27.9-22.5l1.2,1.2c0.7,0.1,1.3,0.3,1.8,0.4l7,2.4L196,186.9c-0.6,1.1-1.6,1.9-2.8,2.3C192.7,189.3,192.3,189.4,191.8,189.4z
				 M179.1,177.5l12.6,6.8l16-29.9L179.1,177.5z"/>
			<path class="st0" d="M165.9,161.7c-1.9,0-3.7-1.1-4.4-3l-5.6-14.2c-0.9-2.4,0.3-5.1,2.7-6.1l0.5-0.2l35.7,0.9l0.7,0.9
				c0.5,0.6,0.8,1.1,1.1,1.5l2.6,7.5l-31.6,12.4C167.1,161.6,166.5,161.7,165.9,161.7z M160.9,143.2l5.2,13.4l31.6-12.4L160.9,143.2
				z"/>
			<path class="st0" d="M195,134.9l-32.5-10.7c-2.5-0.8-3.8-3.5-3-5.9l4.8-14.5c0.4-1.2,1.2-2.2,2.3-2.7c1.1-0.6,2.4-0.7,3.6-0.3
				l0.5,0.2l28.2,24.4l0,1.1c0,0.7-0.1,1.3-0.1,1.8L195,134.9z M164.3,119.6l32.2,10.6L168.8,106L164.3,119.6z"/>
			<path class="st0" d="M201.2,122.5l-19-30.2c-0.7-1.1-0.9-2.3-0.6-3.5c0.3-1.2,1-2.3,2.1-2.9l12.9-8.1c2.2-1.4,5.1-0.7,6.5,1.5
				l0.3,0.4l6.1,37.6l-0.7,0.9c-0.5,0.6-0.9,1-1.3,1.3L201.2,122.5z M186.6,89.9l18,28.7l-5.9-36.3L186.6,89.9z"/>
		</g>
		<g>
			<path class="st0" d="M216,160.2c-12.9,0-23.4-10.5-23.4-23.4c0-12.9,10.5-23.4,23.4-23.4c12.9,0,23.4,10.5,23.4,23.4
				C239.4,149.7,228.9,160.2,216,160.2z M216,118.3c-10.2,0-18.4,8.3-18.4,18.4c0,10.2,8.3,18.4,18.4,18.4
				c10.2,0,18.4-8.3,18.4-18.4C234.4,126.6,226.2,118.3,216,118.3z"/>
		</g>
		<path class="st0" d="M216,142.1c-2.9,0-5.3-2.4-5.3-5.3c0-2.9,2.4-5.3,5.3-5.3s5.3,2.4,5.3,5.3C221.3,139.7,218.9,142.1,216,142.1
			z M216,134.4c-1.3,0-2.3,1-2.3,2.3c0,1.3,1,2.3,2.3,2.3s2.3-1,2.3-2.3C218.3,135.5,217.3,134.4,216,134.4z"/>
	</g>
	<g>
		<path class="st0" d="M171.3,205.2c-2.4-0.8-4.7-1.7-6.9-2.8c-2.2-1.1-4.5-2.3-6.6-3.5c-2.1-1.3-4.2-2.7-6.2-4.3
			c-2-1.6-3.9-3.2-5.7-5c-3.6-3.6-7.3-7.5-9.2-12.4c-2-4.9-2.7-10.3-1.6-15.4c0-0.2,0.2-0.3,0.4-0.2c0.1,0,0.2,0.1,0.2,0.2l0,0
			c2.2,4.7,4.1,8.9,6.4,12.8l3.4,6c1.1,2,2.4,4,3.9,5.8c3,3.7,6.4,7,10.1,10.1c3.7,3.1,7.8,5.9,12,8.2l0,0c0.1,0.1,0.2,0.3,0.1,0.4
			C171.6,205.2,171.4,205.2,171.3,205.2z"/>
		<path class="st0" d="M131.3,186c-1.4-2.1-2.6-4.2-3.7-6.5c-1.1-2.2-2.1-4.5-3-6.9c-0.9-2.3-1.6-4.8-2.3-7.2
			c-0.6-2.5-1.1-5-1.4-7.5c-0.6-5-1.2-10.4,0.4-15.5c1.4-5,4.2-9.8,8.2-13.1c0.1-0.1,0.3-0.1,0.4,0c0.1,0.1,0.1,0.2,0.1,0.3l0,0
			c-1.1,5-2.2,9.5-2.8,14.1l-1,6.8c-0.3,2.3-0.6,4.6-0.5,7c0.1,4.7,0.7,9.5,1.8,14.2c1,4.7,2.5,9.4,4.4,13.9l0,0
			c0.1,0.2,0,0.3-0.2,0.4C131.5,186.1,131.3,186.1,131.3,186z"/>
		<path class="st0" d="M260.8,68.4c2.4,0.8,4.7,1.7,6.9,2.8c2.2,1.1,4.5,2.3,6.6,3.6c2.1,1.3,4.2,2.7,6.2,4.3c2,1.6,3.9,3.2,5.7,5
			c3.6,3.6,7.3,7.5,9.2,12.4c2,4.9,2.7,10.3,1.6,15.4c0,0.2-0.2,0.3-0.4,0.2c-0.1,0-0.2-0.1-0.2-0.2l0,0c-2.2-4.7-4.1-8.9-6.4-12.8
			l-3.4-6c-1.1-2-2.4-4-3.9-5.8c-3-3.7-6.4-7-10.1-10.1c-3.7-3.1-7.7-5.9-12-8.3l0,0c-0.1-0.1-0.2-0.3-0.1-0.4
			C260.5,68.4,260.6,68.3,260.8,68.4z"/>
		<path class="st0" d="M300.8,87.6c1.4,2.1,2.6,4.2,3.7,6.5c1.1,2.2,2.1,4.5,3,6.9c0.9,2.4,1.6,4.8,2.3,7.2c0.6,2.5,1.1,5,1.4,7.5
			c0.6,5,1.2,10.4-0.4,15.5c-1.4,5-4.2,9.8-8.2,13.1c-0.1,0.1-0.3,0.1-0.4,0c-0.1-0.1-0.1-0.2-0.1-0.3l0,0c1.1-5,2.2-9.5,2.8-14.1
			l1-6.8c0.3-2.3,0.6-4.6,0.5-7c-0.1-4.7-0.7-9.5-1.8-14.2c-1-4.7-2.5-9.4-4.4-13.9l0,0c-0.1-0.2,0-0.3,0.2-0.4
			C300.6,87.4,300.7,87.5,300.8,87.6z"/>
	</g>
	<g>
		<path class="st0" d="M50.9,355.2c-0.3-0.3-0.5-0.7-0.5-1.3V337c0-0.6,0.2-1,0.5-1.3c0.3-0.3,0.8-0.5,1.3-0.5H58
			c3.3,0,5.9,0.9,7.8,2.7c1.8,1.8,2.8,4.3,2.8,7.5c0,3.2-0.9,5.8-2.8,7.6c-1.8,1.8-4.4,2.7-7.8,2.7h-5.7
			C51.7,355.7,51.3,355.5,50.9,355.2z M57.8,352.6c4.7,0,7-2.4,7-7.2c0-4.8-2.3-7.2-7-7.2h-3.6v14.4H57.8z"/>
		<path class="st0" d="M72.2,338.1c-0.4-0.4-0.6-0.8-0.6-1.4s0.2-1,0.6-1.4c0.4-0.3,0.9-0.5,1.6-0.5c0.6,0,1.2,0.2,1.6,0.5
			c0.4,0.3,0.6,0.8,0.6,1.4s-0.2,1-0.6,1.4c-0.4,0.4-0.9,0.5-1.6,0.5C73.2,338.6,72.6,338.5,72.2,338.1z M72.5,355.4
			c-0.3-0.3-0.5-0.7-0.5-1.3v-11.2c0-0.6,0.2-1,0.5-1.3c0.3-0.3,0.8-0.4,1.3-0.4s1,0.1,1.3,0.4c0.3,0.3,0.5,0.7,0.5,1.3v11.2
			c0,0.6-0.2,1-0.5,1.3c-0.3,0.3-0.8,0.4-1.3,0.4S72.9,355.7,72.5,355.4z"/>
		<path class="st0" d="M79.4,354.7c-0.6-0.4-0.9-0.9-0.9-1.6c0-0.4,0.1-0.7,0.3-0.9c0.2-0.2,0.5-0.4,0.8-0.4c0.3,0,0.8,0.2,1.4,0.5
			c0.6,0.3,1.2,0.5,1.7,0.7c0.5,0.2,1.2,0.2,2,0.2c0.8,0,1.4-0.1,1.9-0.4c0.5-0.3,0.7-0.6,0.7-1.1c0-0.3-0.1-0.6-0.3-0.8
			c-0.2-0.2-0.5-0.4-1-0.5c-0.5-0.2-1.2-0.4-2.2-0.6c-1.7-0.3-3-0.8-3.7-1.5c-0.7-0.6-1.1-1.5-1.1-2.6c0-0.8,0.3-1.6,0.8-2.3
			c0.5-0.7,1.2-1.2,2.1-1.6s1.9-0.6,3-0.6c0.8,0,1.6,0.1,2.3,0.3s1.4,0.5,2,0.9c0.6,0.4,0.9,0.9,0.9,1.5c0,0.4-0.1,0.7-0.3,1
			c-0.2,0.3-0.5,0.4-0.8,0.4c-0.2,0-0.4,0-0.6-0.1c-0.2-0.1-0.5-0.2-0.8-0.4c-0.6-0.3-1-0.5-1.4-0.7c-0.4-0.1-0.9-0.2-1.5-0.2
			c-0.7,0-1.3,0.1-1.7,0.4c-0.4,0.3-0.6,0.7-0.6,1.2c0,0.5,0.2,0.9,0.6,1.1c0.4,0.3,1.2,0.5,2.5,0.8c1.3,0.3,2.3,0.6,3,0.9
			c0.7,0.3,1.3,0.8,1.6,1.3c0.3,0.5,0.5,1.2,0.5,2c0,1.3-0.5,2.4-1.6,3.2s-2.5,1.2-4.4,1.2C82.4,355.9,80.7,355.5,79.4,354.7z"/>
		<path class="st0" d="M93.7,338.1c-0.4-0.4-0.6-0.8-0.6-1.4s0.2-1,0.6-1.4c0.4-0.3,0.9-0.5,1.6-0.5c0.6,0,1.2,0.2,1.6,0.5
			c0.4,0.3,0.6,0.8,0.6,1.4s-0.2,1-0.6,1.4c-0.4,0.4-0.9,0.5-1.6,0.5C94.6,338.6,94.1,338.5,93.7,338.1z M94,355.4
			c-0.3-0.3-0.5-0.7-0.5-1.3v-11.2c0-0.6,0.2-1,0.5-1.3c0.3-0.3,0.8-0.4,1.3-0.4s1,0.1,1.3,0.4c0.3,0.3,0.5,0.7,0.5,1.3v11.2
			c0,0.6-0.2,1-0.5,1.3c-0.3,0.3-0.8,0.4-1.3,0.4S94.3,355.7,94,355.4z"/>
		<path class="st0" d="M112.8,342.6c0.8,1,1.2,2.4,1.2,4.4v7.1c0,0.5-0.2,1-0.5,1.3s-0.8,0.5-1.3,0.5c-0.6,0-1-0.2-1.3-0.5
			c-0.3-0.3-0.5-0.7-0.5-1.3v-6.9c0-1.1-0.2-1.9-0.6-2.4c-0.4-0.5-1.1-0.8-2-0.8c-1,0-1.9,0.3-2.5,1c-0.6,0.7-0.9,1.5-0.9,2.6v6.5
			c0,0.5-0.2,1-0.5,1.3c-0.3,0.3-0.8,0.5-1.3,0.5c-0.6,0-1-0.2-1.3-0.5c-0.3-0.3-0.5-0.7-0.5-1.3v-11.2c0-0.5,0.2-0.9,0.5-1.2
			c0.3-0.3,0.8-0.5,1.3-0.5c0.5,0,0.9,0.1,1.2,0.4c0.3,0.3,0.5,0.7,0.5,1.2v0.8c0.5-0.8,1.1-1.4,1.9-1.8c0.8-0.4,1.7-0.6,2.8-0.6
			C110.8,341.2,112,341.6,112.8,342.6z"/>
		<path class="st0" d="M123,338.7c-0.4,0.5-0.6,1.2-0.6,2.1v0.7h2.5c1.1,0,1.6,0.5,1.6,1.4c0,0.9-0.5,1.4-1.6,1.4h-2.5v9.9
			c0,0.6-0.2,1-0.5,1.3s-0.8,0.4-1.3,0.4c-0.5,0-1-0.1-1.3-0.4s-0.5-0.7-0.5-1.3v-9.9h-1.5c-1.1,0-1.6-0.5-1.6-1.4
			c0-0.9,0.5-1.4,1.6-1.4h1.5v-0.2c0-1.8,0.5-3.2,1.4-4.3s2.3-1.6,4-1.8l0.8-0.1c0.8-0.1,1.3,0,1.6,0.2c0.3,0.2,0.5,0.6,0.5,1
			c0,0.8-0.5,1.3-1.4,1.4l-0.8,0.1C124.1,338,123.4,338.3,123,338.7z"/>
		<path class="st0" d="M140,352.2c0.2,0.3,0.3,0.6,0.3,1c0,0.6-0.4,1.1-1.1,1.5c-0.7,0.4-1.4,0.7-2.2,0.9s-1.6,0.3-2.4,0.3
			c-2.3,0-4.1-0.7-5.4-2c-1.3-1.3-2-3.1-2-5.4c0-1.5,0.3-2.7,0.9-3.9c0.6-1.1,1.4-2,2.5-2.6c1.1-0.6,2.2-0.9,3.6-0.9
			c1.3,0,2.4,0.3,3.3,0.8c0.9,0.6,1.7,1.4,2.2,2.4c0.5,1,0.8,2.2,0.8,3.6c0,0.8-0.4,1.2-1.1,1.2h-8.6c0.1,1.3,0.5,2.3,1.1,2.9
			c0.6,0.6,1.6,0.9,2.8,0.9c0.6,0,1.2-0.1,1.6-0.2c0.5-0.2,1-0.4,1.6-0.6c0.6-0.3,1-0.5,1.3-0.5C139.6,351.8,139.8,351.9,140,352.2z
			 M131.9,344.6c-0.6,0.6-0.9,1.5-1.1,2.7h6.6c0-1.2-0.3-2.1-0.9-2.7c-0.5-0.6-1.3-0.9-2.3-0.9C133.2,343.7,132.4,344,131.9,344.6z"
			/>
		<path class="st0" d="M146,355c-1.1-0.6-1.9-1.5-2.5-2.6c-0.6-1.1-0.9-2.4-0.9-3.9c0-1.5,0.3-2.8,0.9-3.9s1.5-2,2.6-2.6
			c1.1-0.6,2.4-0.9,3.8-0.9c0.8,0,1.5,0.1,2.3,0.3c0.8,0.2,1.4,0.5,2,0.9c0.6,0.4,0.9,0.9,0.9,1.5c0,0.4-0.1,0.8-0.3,1
			s-0.5,0.4-0.8,0.4c-0.2,0-0.4,0-0.7-0.1c-0.2-0.1-0.5-0.2-0.7-0.3c-0.4-0.3-0.8-0.4-1.2-0.6c-0.4-0.1-0.8-0.2-1.3-0.2
			c-1.2,0-2.1,0.4-2.8,1.2c-0.6,0.8-1,1.9-1,3.4c0,1.5,0.3,2.6,1,3.3c0.6,0.8,1.6,1.2,2.8,1.2c0.5,0,0.9-0.1,1.3-0.2
			c0.4-0.1,0.8-0.3,1.3-0.6c0.3-0.2,0.5-0.3,0.8-0.4c0.2-0.1,0.4-0.1,0.6-0.1c0.3,0,0.6,0.1,0.8,0.4c0.2,0.3,0.3,0.6,0.3,1
			c0,0.3-0.1,0.6-0.2,0.9c-0.1,0.2-0.4,0.5-0.7,0.7c-0.6,0.4-1.3,0.7-2.1,0.9s-1.6,0.3-2.4,0.3C148.3,355.9,147.1,355.6,146,355z"/>
		<path class="st0" d="M166.5,354.5c0,0.5-0.2,0.8-0.6,1.1c-0.4,0.2-0.9,0.3-1.6,0.3l-0.8-0.1c-3.2-0.2-4.9-2-4.9-5.2v-6.3h-1.5
			c-0.5,0-0.9-0.1-1.2-0.3c-0.3-0.2-0.4-0.6-0.4-1c0-0.4,0.1-0.8,0.4-1c0.3-0.2,0.7-0.3,1.2-0.3h1.5v-2.7c0-0.5,0.2-0.9,0.5-1.2
			s0.8-0.5,1.3-0.5c0.5,0,1,0.2,1.3,0.5c0.3,0.3,0.5,0.7,0.5,1.2v2.7h2.5c0.5,0,0.9,0.1,1.2,0.3c0.3,0.2,0.4,0.6,0.4,1
			c0,0.4-0.1,0.8-0.4,1c-0.3,0.2-0.7,0.3-1.2,0.3h-2.5v6.6c0,1.4,0.7,2.2,2,2.3l0.8,0.1C166,353.2,166.5,353.7,166.5,354.5z"/>
		<path class="st0" d="M178.9,342.6c1,1,1.4,2.5,1.4,4.5v7.1c0,0.5-0.2,0.9-0.5,1.2c-0.3,0.3-0.7,0.4-1.3,0.4
			c-0.5,0-0.9-0.2-1.2-0.5c-0.3-0.3-0.5-0.7-0.5-1.2v-0.6c-0.3,0.8-0.8,1.3-1.6,1.8c-0.7,0.4-1.5,0.6-2.5,0.6
			c-0.9,0-1.8-0.2-2.6-0.6c-0.8-0.4-1.4-0.9-1.8-1.6c-0.4-0.7-0.7-1.4-0.7-2.3c0-1,0.3-1.9,0.8-2.5c0.5-0.6,1.4-1,2.6-1.3
			c1.2-0.3,2.9-0.4,5-0.4h0.7v-0.7c0-0.9-0.2-1.6-0.6-2.1c-0.4-0.4-1.1-0.7-2-0.7c-0.6,0-1.1,0.1-1.7,0.2s-1.3,0.4-2.1,0.7
			c-0.5,0.3-0.9,0.4-1.1,0.4c-0.3,0-0.6-0.1-0.9-0.4c-0.2-0.3-0.3-0.6-0.3-1c0-0.3,0.1-0.6,0.2-0.9c0.2-0.2,0.4-0.5,0.8-0.7
			c0.7-0.4,1.5-0.7,2.4-0.9c0.9-0.2,1.9-0.3,2.8-0.3C176.5,341.2,177.9,341.6,178.9,342.6z M176,352.3c0.6-0.6,0.9-1.5,0.9-2.5v-0.6
			h-0.5c-1.3,0-2.3,0.1-3,0.2c-0.7,0.1-1.2,0.3-1.5,0.6c-0.3,0.3-0.5,0.7-0.5,1.2c0,0.6,0.2,1.1,0.7,1.5c0.4,0.4,1,0.6,1.6,0.6
			C174.6,353.3,175.4,353,176,352.3z"/>
		<path class="st0" d="M196,342.6c0.8,1,1.2,2.4,1.2,4.4v7.1c0,0.5-0.2,1-0.5,1.3s-0.8,0.5-1.3,0.5c-0.6,0-1-0.2-1.3-0.5
			c-0.3-0.3-0.5-0.7-0.5-1.3v-6.9c0-1.1-0.2-1.9-0.6-2.4c-0.4-0.5-1.1-0.8-2-0.8c-1,0-1.9,0.3-2.5,1c-0.6,0.7-0.9,1.5-0.9,2.6v6.5
			c0,0.5-0.2,1-0.5,1.3c-0.3,0.3-0.8,0.5-1.3,0.5c-0.6,0-1-0.2-1.3-0.5c-0.3-0.3-0.5-0.7-0.5-1.3v-11.2c0-0.5,0.2-0.9,0.5-1.2
			c0.3-0.3,0.8-0.5,1.3-0.5c0.5,0,0.9,0.1,1.2,0.4c0.3,0.3,0.5,0.7,0.5,1.2v0.8c0.5-0.8,1.1-1.4,1.9-1.8c0.8-0.4,1.7-0.6,2.8-0.6
			C194,341.2,195.2,341.6,196,342.6z"/>
		<path class="st0" d="M209.8,354.5c0,0.5-0.2,0.8-0.6,1.1c-0.4,0.2-0.9,0.3-1.6,0.3l-0.8-0.1c-3.2-0.2-4.9-2-4.9-5.2v-6.3h-1.5
			c-0.5,0-0.9-0.1-1.2-0.3c-0.3-0.2-0.4-0.6-0.4-1c0-0.4,0.1-0.8,0.4-1c0.3-0.2,0.7-0.3,1.2-0.3h1.5v-2.7c0-0.5,0.2-0.9,0.5-1.2
			s0.8-0.5,1.3-0.5c0.5,0,1,0.2,1.3,0.5c0.3,0.3,0.5,0.7,0.5,1.2v2.7h2.5c0.5,0,0.9,0.1,1.2,0.3c0.3,0.2,0.4,0.6,0.4,1
			c0,0.4-0.1,0.8-0.4,1c-0.3,0.2-0.7,0.3-1.2,0.3h-2.5v6.6c0,1.4,0.7,2.2,2,2.3l0.8,0.1C209.3,353.2,209.8,353.7,209.8,354.5z"/>
		<path class="st0" d="M231,342.1c0.9,0.6,1.7,1.5,2.2,2.6c0.5,1.1,0.8,2.4,0.8,3.9c0,1.5-0.3,2.8-0.8,3.9c-0.5,1.1-1.3,2-2.2,2.6
			c-1,0.6-2,0.9-3.3,0.9c-1,0-1.9-0.2-2.7-0.7c-0.8-0.4-1.4-1.1-1.8-1.9v0.7c0,0.5-0.2,0.9-0.5,1.2c-0.3,0.3-0.8,0.5-1.3,0.5
			s-1-0.2-1.3-0.5c-0.3-0.3-0.5-0.7-0.5-1.2v-17.3c0-0.5,0.2-0.9,0.5-1.2c0.3-0.3,0.8-0.5,1.3-0.5c0.5,0,1,0.1,1.3,0.4
			s0.5,0.7,0.5,1.2v6.8c0.4-0.8,1-1.4,1.8-1.8c0.8-0.4,1.7-0.6,2.7-0.6C228.9,341.2,230,341.5,231,342.1z M229.4,351.9
			c0.6-0.8,1-2,1-3.4c0-1.5-0.3-2.6-0.9-3.3c-0.6-0.8-1.5-1.2-2.7-1.2c-1.2,0-2.1,0.4-2.7,1.2c-0.6,0.8-0.9,1.9-0.9,3.4
			c0,1.5,0.3,2.6,0.9,3.4c0.6,0.8,1.5,1.2,2.7,1.2C227.9,353.1,228.8,352.7,229.4,351.9z"/>
		<path class="st0" d="M247.2,341.5c0.3-0.2,0.5-0.2,0.9-0.2c0.4,0,0.8,0.2,1.2,0.5c0.4,0.3,0.5,0.7,0.5,1.1c0,0.2-0.1,0.4-0.2,0.7
			l-7.9,16.6c-0.3,0.7-0.8,1-1.5,1c-0.4,0-0.8-0.1-1.2-0.4s-0.5-0.6-0.5-1.1c0-0.2,0.1-0.5,0.2-0.7l2-4.1l-5.4-11.2
			c-0.1-0.2-0.1-0.4-0.1-0.7c0-0.4,0.2-0.8,0.6-1.1s0.8-0.5,1.3-0.5c0.3,0,0.6,0.1,0.9,0.2c0.3,0.2,0.5,0.4,0.6,0.8l4.1,9l4-8.9
			C246.8,341.9,247,341.7,247.2,341.5z"/>
		<path class="st0" d="M260.7,355.4c-0.3-0.3-0.5-0.8-0.5-1.4v-17c0-0.6,0.2-1,0.5-1.3c0.3-0.3,0.8-0.5,1.3-0.5h7.1
			c2.2,0,3.9,0.5,5.1,1.6c1.2,1.1,1.8,2.6,1.8,4.6s-0.6,3.5-1.8,4.6c-1.2,1.1-2.9,1.7-5.1,1.7h-5.2v6.2c0,0.6-0.2,1-0.5,1.4
			c-0.3,0.3-0.8,0.5-1.4,0.5C261.5,355.9,261,355.7,260.7,355.4z M268.6,344.9c2.6,0,3.9-1.1,3.9-3.4c0-2.2-1.3-3.4-3.9-3.4h-4.7
			v6.7H268.6z"/>
		<path class="st0" d="M281.1,355c-1.1-0.6-1.9-1.5-2.5-2.6s-0.9-2.4-0.9-3.9c0-1.5,0.3-2.8,0.9-3.9c0.6-1.1,1.4-2,2.5-2.6
			c1.1-0.6,2.4-0.9,3.8-0.9c1.4,0,2.7,0.3,3.8,0.9c1.1,0.6,1.9,1.5,2.5,2.6c0.6,1.1,0.9,2.4,0.9,3.9c0,1.5-0.3,2.8-0.9,3.9
			s-1.4,2-2.5,2.6c-1.1,0.6-2.4,0.9-3.8,0.9C283.5,355.9,282.2,355.6,281.1,355z M287.6,351.9c0.6-0.8,0.9-1.9,0.9-3.4
			c0-1.5-0.3-2.6-0.9-3.4c-0.6-0.8-1.5-1.2-2.7-1.2s-2.1,0.4-2.7,1.2c-0.6,0.8-0.9,1.9-0.9,3.4c0,1.5,0.3,2.6,0.9,3.4
			c0.6,0.8,1.5,1.2,2.7,1.2C286.1,353.1,287,352.7,287.6,351.9z"/>
		<path class="st0" d="M295.6,355.4c-0.3-0.3-0.5-0.7-0.5-1.3v-17.3c0-0.6,0.2-1,0.5-1.3s0.8-0.4,1.3-0.4c0.5,0,1,0.1,1.3,0.4
			s0.5,0.7,0.5,1.3v17.3c0,0.6-0.2,1-0.5,1.3s-0.8,0.4-1.3,0.4C296.4,355.9,296,355.7,295.6,355.4z"/>
		<path class="st0" d="M313,341.5c0.3-0.2,0.5-0.2,0.9-0.2c0.4,0,0.8,0.2,1.2,0.5c0.4,0.3,0.5,0.7,0.5,1.1c0,0.2-0.1,0.4-0.2,0.7
			l-7.9,16.6c-0.3,0.7-0.8,1-1.5,1c-0.4,0-0.8-0.1-1.2-0.4s-0.5-0.6-0.5-1.1c0-0.2,0.1-0.5,0.2-0.7l2-4.1l-5.4-11.2
			c-0.1-0.2-0.1-0.4-0.1-0.7c0-0.4,0.2-0.8,0.6-1.1s0.8-0.5,1.3-0.5c0.3,0,0.6,0.1,0.9,0.2c0.3,0.2,0.5,0.4,0.6,0.8l4.1,9l4-8.9
			C312.5,341.9,312.8,341.7,313,341.5z"/>
		<path class="st0" d="M335.4,335.6c0.3,0.3,0.5,0.8,0.5,1.3v17c0,0.6-0.2,1-0.5,1.4c-0.3,0.3-0.8,0.5-1.3,0.5c-0.6,0-1-0.2-1.3-0.5
			c-0.3-0.3-0.5-0.8-0.5-1.4v-7.2h-10.5v7.2c0,0.6-0.2,1-0.5,1.4c-0.3,0.3-0.8,0.5-1.3,0.5c-0.5,0-1-0.2-1.3-0.5
			c-0.3-0.3-0.5-0.8-0.5-1.4v-17c0-0.6,0.2-1,0.5-1.3c0.3-0.3,0.8-0.5,1.3-0.5s1,0.2,1.3,0.5c0.3,0.3,0.5,0.8,0.5,1.3v6.8h10.5V337
			c0-0.6,0.2-1,0.5-1.3c0.3-0.3,0.8-0.5,1.3-0.5S335.1,335.3,335.4,335.6z"/>
		<path class="st0" d="M359.8,335.6c0.3,0.3,0.5,0.8,0.5,1.3v17.2c0,0.5-0.2,1-0.5,1.3s-0.7,0.5-1.2,0.5s-0.9-0.2-1.2-0.5
			s-0.4-0.7-0.4-1.3v-11.9l-4.9,9.3c-0.2,0.4-0.5,0.7-0.8,0.9c-0.3,0.2-0.6,0.3-1,0.3c-0.4,0-0.7-0.1-1-0.3c-0.3-0.2-0.5-0.5-0.8-1
			l-5-9.2v11.8c0,0.5-0.2,0.9-0.5,1.3c-0.3,0.3-0.7,0.5-1.2,0.5s-0.9-0.2-1.2-0.5c-0.3-0.3-0.4-0.7-0.4-1.3V337c0-0.6,0.2-1,0.5-1.3
			c0.3-0.3,0.7-0.5,1.3-0.5c0.8,0,1.3,0.4,1.8,1.2l6.4,12.3l6.4-12.3c0.4-0.8,1-1.2,1.7-1.2C359,335.1,359.4,335.3,359.8,335.6z"/>
		<path class="st0" d="M381.3,345c0.3,0.3,0.4,0.6,0.4,1v6.2c0,0.9-0.1,1.5-0.3,1.9c-0.2,0.4-0.7,0.7-1.4,0.9
			c-0.8,0.3-1.7,0.5-2.7,0.6c-1,0.2-2,0.2-3,0.2c-2.1,0-3.9-0.4-5.5-1.2c-1.5-0.8-2.7-2-3.6-3.6c-0.8-1.6-1.2-3.5-1.2-5.6
			c0-2.1,0.4-4,1.2-5.6c0.8-1.6,2-2.8,3.5-3.6s3.3-1.3,5.3-1.3c2.7,0,5,0.7,6.7,2.2c0.2,0.2,0.4,0.4,0.5,0.6
			c0.1,0.2,0.2,0.5,0.2,0.8c0,0.4-0.1,0.8-0.3,1.1s-0.5,0.4-0.8,0.4c-0.2,0-0.4,0-0.6-0.1c-0.2-0.1-0.4-0.2-0.6-0.3
			c-0.9-0.6-1.6-1-2.4-1.3c-0.7-0.2-1.6-0.4-2.5-0.4c-2.1,0-3.7,0.6-4.8,1.9c-1.1,1.2-1.6,3.1-1.6,5.6c0,5,2.2,7.5,6.6,7.5
			c1.3,0,2.6-0.2,3.9-0.6v-5.1h-3.3c-0.5,0-0.8-0.1-1.1-0.3c-0.3-0.2-0.4-0.6-0.4-1c0-0.4,0.1-0.8,0.4-1c0.3-0.2,0.6-0.3,1.1-0.3
			h5.1C380.7,344.6,381.1,344.8,381.3,345z"/>
	</g>
</g>
</svg>
