<?xml version="1.0" encoding="utf-8"?>
<!-- Generator: Adobe Illustrator 21.1.0, SVG Export Plug-In . SVG Version: 6.00 Build 0)  -->
<svg version="1.1" id="Layer_1" xmlns="http://www.w3.org/2000/svg" xmlns:xlink="http://www.w3.org/1999/xlink" x="0px" y="0px"
	 viewBox="0 0 432 432" style="enable-background:new 0 0 432 432;" xml:space="preserve">
<style type="text/css">
	.st0{fill:#BEBDBF;}
</style>
<g>
	<g>
		<path class="st0" d="M35.6,300.5c-0.6-0.6-0.9-1.4-0.9-2.4v-49.6c0-0.9,0.3-1.7,0.9-2.3c0.6-0.6,1.4-0.9,2.4-0.9h18.7
			c5.8,0,10.4,1.4,13.6,4.3c3.2,2.8,4.9,6.9,4.9,12.1s-1.6,9.3-4.9,12.2c-3.3,2.9-7.8,4.3-13.6,4.3H41.2v19.9c0,1-0.3,1.8-0.9,2.4
			c-0.6,0.6-1.4,0.9-2.4,0.9C36.9,301.4,36.2,301.1,35.6,300.5z M56.1,272.8c8.5,0,12.7-3.7,12.7-11.1c0-7.3-4.2-11-12.7-11H41.2
			v22.1H56.1z"/>
		<path class="st0" d="M89.8,299.1c-2.8-1.6-4.9-4-6.4-7c-1.5-3-2.3-6.5-2.3-10.5c0-4,0.8-7.5,2.3-10.5c1.5-3,3.6-5.4,6.4-7
			c2.8-1.6,6-2.4,9.6-2.4s6.8,0.8,9.6,2.4c2.8,1.6,4.9,4,6.4,7c1.5,3,2.3,6.5,2.3,10.5c0,4-0.8,7.5-2.3,10.5c-1.5,3-3.6,5.4-6.4,7
			c-2.8,1.6-6,2.4-9.6,2.4S92.6,300.8,89.8,299.1z M108.1,292.5c2-2.5,3-6.1,3-10.9c0-4.7-1-8.3-3.1-10.9c-2.1-2.6-5-3.8-8.7-3.8
			c-3.7,0-6.6,1.3-8.7,3.8c-2.1,2.6-3.1,6.2-3.1,10.9c0,4.7,1,8.4,3,10.9c2,2.5,4.9,3.8,8.7,3.8S106.1,295,108.1,292.5z"/>
		<path class="st0" d="M128.2,300.6c-0.6-0.6-0.9-1.3-0.9-2.3v-50.2c0-1,0.3-1.8,0.9-2.3c0.6-0.6,1.4-0.8,2.3-0.8
			c0.9,0,1.6,0.3,2.3,0.8c0.6,0.6,0.9,1.3,0.9,2.3v50.2c0,1-0.3,1.8-0.9,2.3c-0.6,0.6-1.4,0.8-2.3,0.8
			C129.6,301.4,128.8,301.1,128.2,300.6z"/>
		<path class="st0" d="M176.1,261.8c0.8,0,1.5,0.3,2.1,0.8c0.6,0.5,0.9,1.2,0.9,2c0,0.5-0.1,0.9-0.3,1.3l-22.2,47.9
			c-0.3,0.6-0.6,1-1.1,1.3c-0.5,0.3-1,0.5-1.5,0.5c-0.8,0-1.5-0.3-2.1-0.8c-0.6-0.5-0.9-1.1-0.9-1.9c0-0.4,0.1-0.8,0.3-1.3l5.5-11.9
			l-15.6-33.8c-0.2-0.4-0.3-0.8-0.3-1.2c0-0.8,0.4-1.5,1.1-2.1c0.7-0.6,1.5-0.9,2.3-0.9c0.5,0,1,0.2,1.5,0.5
			c0.5,0.3,0.9,0.8,1.1,1.3l13.2,29.6l13.2-29.5C173.9,262.5,174.8,261.8,176.1,261.8z"/>
		<path class="st0" d="M257,245.8c1-0.7,2.1-1,3.3-1c1.5,0,2.8,0.5,3.9,1.4c1.1,0.9,1.6,2.2,1.6,3.9c0,0.8-0.2,1.7-0.5,2.6l-16.4,45
			c-0.5,1.3-1.3,2.3-2.5,3c-1.2,0.7-2.5,1.1-3.9,1.1s-2.7-0.4-3.9-1.1s-2-1.7-2.4-3l-11.8-33.3l-12.1,33.3c-0.5,1.3-1.3,2.3-2.4,3
			c-1.2,0.7-2.4,1.1-3.9,1.1c-1.4,0-2.6-0.4-3.8-1.1s-2-1.7-2.5-3l-16.4-45c-0.3-0.9-0.5-1.7-0.5-2.5c0-1.6,0.6-2.9,1.7-3.9
			c1.2-1,2.5-1.5,4.1-1.5c1.3,0,2.4,0.3,3.4,1c1,0.7,1.8,1.6,2.3,2.9l12.2,35l12.6-34.8c0.5-1.3,1.2-2.2,2.3-2.9c1-0.7,2.1-1,3.3-1
			c1.2,0,2.3,0.3,3.3,1c1,0.7,1.7,1.7,2.2,3l12.1,35.4l12.6-35.6C255.3,247.4,256.1,246.4,257,245.8z"/>
		<path class="st0" d="M275.4,299.5c-1-1-1.5-2.4-1.5-4.3v-44.2c0-1.8,0.5-3.3,1.5-4.3c1-1,2.4-1.5,4.3-1.5h28
			c3.9,0,5.8,1.6,5.8,4.7c0,3.2-1.9,4.8-5.8,4.8h-21.7v13h20.1c3.9,0,5.8,1.6,5.8,4.8c0,3.2-1.9,4.7-5.8,4.7h-20.1v14h21.7
			c3.9,0,5.8,1.6,5.8,4.8c0,3.2-1.9,4.7-5.8,4.7h-28C277.8,301,276.4,300.5,275.4,299.5z"/>
		<path class="st0" d="M322.3,299.5c-1-1-1.5-2.4-1.5-4.3V251c0-1.8,0.6-3.3,1.7-4.4c1.1-1.1,2.6-1.7,4.5-1.7c1.9,0,3.4,0.6,4.5,1.7
			c1.1,1.1,1.7,2.6,1.7,4.4v40h20.2c3.8,0,5.8,1.7,5.8,5.1c0,3.3-1.9,5-5.8,5h-26.8C324.7,301,323.3,300.5,322.3,299.5z"/>
		<path class="st0" d="M366.7,299.5c-1-1-1.5-2.4-1.5-4.3V251c0-1.8,0.6-3.3,1.7-4.4c1.1-1.1,2.6-1.7,4.5-1.7c1.9,0,3.4,0.6,4.5,1.7
			c1.1,1.1,1.7,2.6,1.7,4.4v40h20.2c3.8,0,5.8,1.7,5.8,5.1c0,3.3-1.9,5-5.8,5H371C369.1,301,367.7,300.5,366.7,299.5z"/>
	</g>
	<g>
		<path class="st0" d="M312.2,189.5c-0.5-0.5-1.1-1.1-1.8-1.7c-5.7-5.6-15.1-13.8-30.4,1.4l0,0c-10.8,10-15.3,5.8-21.5,0l-0.1-0.1
			l-0.8-0.8c-5.6-5.5-14.8-14.6-30.1,0.1l0,0c-11.3,11-15.9,6.7-22.3,0.8l-0.1-0.1l-0.8-0.8c-5.6-5.5-14.8-14.6-30.1,0.1l0,0
			c-11.3,11-15.9,6.7-22.3,0.8l0,0l-0.6-0.6c-3.2-3.3-7.6-7.6-13.8-8c-0.1,0-0.2,0-0.3,0c-0.2,0-0.4,0-0.5,0c0,0,0,0,0,0
			c-0.1,0-0.1,0-0.2,0c-0.1,0-0.2,0-0.2,0c-0.2,0-0.5,0-0.7,0c-0.1,0-0.3,0-0.4,0c-0.2,0-0.4,0-0.7,0.1c-0.1,0-0.3,0-0.4,0.1
			c-0.2,0-0.5,0.1-0.7,0.1c-0.1,0-0.2,0-0.3,0.1c-0.3,0.1-0.6,0.2-0.9,0.3c0,0-0.1,0-0.1,0c-2.9,0.9-5.8,2.7-8.9,5.3
			c-0.1,0.1-0.1,0.1-0.2,0.2c-0.4,0.3-0.7,0.6-1.1,1c0,0,0,0,0,0l0,0c0,0-0.1,0.1-0.1,0.1c-0.1,0.1-0.1,0.1-0.2,0.2
			c-0.2,0.2-0.4,0.4-0.7,0.6c-0.3,0.3-0.6,0.6-0.9,0.8c-5.1,4.9-6,5.8-13.5,5.8v5c9.5,0,11.5-2,17-7.2c0.1-0.1,0.2-0.2,0.3-0.3l0,0
			c0.2-0.2,0.4-0.4,0.6-0.6c0.2-0.2,0.5-0.5,0.7-0.7c0.1-0.1,0.1-0.1,0.2-0.2c0.1-0.1,0.3-0.2,0.4-0.4c0.2-0.2,0.5-0.4,0.7-0.6
			c0,0,0,0,0,0c2.9-2.4,5.6-4,8.1-4.5c5.6-1.2,9.4,2.5,13.1,6.2l0.5,0.5l0,0l0.5,0.5c3.7,3.4,7.9,7.4,13.6,7.4c4.1,0,8.9-2,14.8-7.5
			l0,0c12.3-12.3,18.2-6.5,23.9-0.9l0.5,0.5l0,0l0.4,0.3l0,0l0,0l0.1,0.1c3.7,3.4,7.9,7.4,13.6,7.4c4.1,0,8.9-2,14.8-7.5l0,0
			c12.3-12.3,18.2-6.5,23.9-0.9l0.5,0.5l0,0l0.5,0.5c3.7,3.4,7.9,7.4,13.6,7.4c4.1,0,8.8-2,14.8-7.5l0,0
			c11.9-11.9,17.8-6.9,23.3-1.4l0,0c0,0,0.1,0.1,0.1,0.1c0.2,0.2,0.3,0.3,0.5,0.5l0.5,0.4c0.3,0.3,0.5,0.5,0.8,0.7
			c5.5,5.2,7.5,7.2,17,7.2v-5C318.2,195.3,317.3,194.4,312.2,189.5z"/>
		<path class="st0" d="M216,183.7c-22.5,0-33.3-17.6-35.9-26.9c-3.4-12.1-0.7-24.4,8.7-39.8l0,0c7.1-11.5,25.1-40.9,25.1-40.9
			l2.1-3.5l2.1,3.5c0,0,18,29.4,25.1,40.9c9.4,15.4,12.1,27.6,8.7,39.8C249.3,166.1,238.5,183.7,216,183.7z M216,82.2
			c-5,8.1-17.4,28.3-22.9,37.4l0,0c-8.6,14.1-11.1,25.1-8.1,35.8c0.3,1,6.8,23.2,31.1,23.2c24.3,0,30.8-22.3,31.1-23.2
			c3-10.7,0.5-21.7-8.1-35.8C233.4,110.5,221,90.3,216,82.2z"/>
		<g>
			<path class="st0" d="M312.2,134.5c-0.5-0.5-1.1-1.1-1.8-1.7c-5.7-5.6-15.1-13.8-30.4,1.4l0,0c-10.8,10-15.3,5.8-21.5,0l-0.1-0.1
				l-0.8-0.8c-2.4-2.3-5.4-5.3-9.3-6.9c1.2,2.7,2.2,5.2,3,7.8c1,0.8,1.9,1.8,2.8,2.7l0.5,0.5l0,0l0.5,0.5c3.7,3.4,7.9,7.4,13.6,7.4
				c4.1,0,8.8-2,14.8-7.5l0,0c11.9-11.9,17.8-6.9,23.3-1.4l0,0c0,0,0.1,0.1,0.1,0.1c0.2,0.2,0.3,0.3,0.5,0.5l0.5,0.4
				c0.3,0.3,0.5,0.5,0.8,0.7c5.5,5.2,7.5,7.2,17,7.2v-5C318.2,140.2,317.3,139.4,312.2,134.5z"/>
			<path class="st0" d="M183.5,126.9c-2.8,1.2-6,3.3-9.4,6.6l0,0c-11.3,11-15.9,6.7-22.3,0.8l0,0l-0.6-0.6c-3.2-3.3-7.6-7.6-13.8-8
				c-0.1,0-0.2,0-0.3,0c-0.2,0-0.4,0-0.5,0c0,0,0,0,0,0c-0.1,0-0.1,0-0.2,0c-0.1,0-0.2,0-0.2,0c-0.2,0-0.5,0-0.7,0
				c-0.1,0-0.3,0-0.4,0c-0.2,0-0.4,0-0.7,0.1c-0.1,0-0.3,0-0.4,0.1c-0.2,0-0.5,0.1-0.7,0.1c-0.1,0-0.2,0-0.3,0.1
				c-0.3,0.1-0.6,0.2-0.9,0.3c0,0-0.1,0-0.1,0c-2.9,0.9-5.8,2.7-8.9,5.3c-0.1,0.1-0.1,0.1-0.2,0.2c-0.4,0.3-0.7,0.6-1.1,1
				c0,0,0,0,0,0l0,0c0,0-0.1,0.1-0.1,0.1c-0.1,0.1-0.1,0.1-0.2,0.2c-0.2,0.2-0.4,0.4-0.7,0.6c-0.3,0.3-0.6,0.6-0.9,0.8
				c-5.1,4.9-6,5.8-13.5,5.8v5c9.5,0,11.5-2,17-7.2c0.1-0.1,0.2-0.2,0.3-0.3l0,0c0.2-0.2,0.4-0.4,0.6-0.6c0.2-0.2,0.5-0.5,0.7-0.7
				c0.1-0.1,0.1-0.1,0.2-0.2c0.1-0.1,0.3-0.2,0.4-0.4c0.2-0.2,0.5-0.4,0.7-0.6c0,0,0,0,0,0c2.9-2.4,5.6-4,8.1-4.5
				c5.6-1.2,9.4,2.5,13.1,6.2l0.5,0.5l0,0l0.5,0.5c3.7,3.4,7.9,7.4,13.6,7.4c4.1,0,8.9-2,14.8-7.5l0,0c1.3-1.3,2.6-2.4,3.7-3.3
				C181.4,132,182.3,129.5,183.5,126.9z"/>
		</g>
		<g>
			<path class="st0" d="M312.2,162.1c-0.5-0.5-1.1-1.1-1.8-1.7c-5.7-5.6-15.1-13.8-30.4,1.4l0,0c-10.8,10-15.3,5.8-21.5,0l-0.1-0.1
				l-0.8-0.8c-1.6-1.5-3.4-3.4-5.6-4.9c-0.1,0.2-0.1,0.4-0.2,0.7c-0.4,1.3-0.9,2.7-1.6,4.3c1.3,1.1,2.6,2.3,3.8,3.5l0.5,0.5l0,0
				l0.5,0.5c3.7,3.4,7.9,7.4,13.6,7.4c4.1,0,8.8-2,14.8-7.5l0,0c11.9-11.9,17.8-6.9,23.3-1.4l0,0c0,0,0.1,0.1,0.1,0.1
				c0.2,0.2,0.3,0.3,0.5,0.5l0.5,0.4c0.3,0.3,0.5,0.5,0.8,0.7c5.5,5.2,7.5,7.2,17,7.2v-5C318.2,167.9,317.3,167,312.2,162.1z"/>
			<path class="st0" d="M180.1,156.8c0-0.1-0.1-0.3-0.1-0.4c-1.9,1.2-3.8,2.7-5.9,4.7l0,0c-11.3,11-15.9,6.7-22.3,0.8l0,0l-0.6-0.6
				c-3.2-3.3-7.6-7.6-13.8-8c-0.1,0-0.2,0-0.3,0c-0.2,0-0.4,0-0.5,0c0,0,0,0,0,0c-0.1,0-0.1,0-0.2,0c-0.1,0-0.2,0-0.2,0
				c-0.2,0-0.5,0-0.7,0c-0.1,0-0.3,0-0.4,0c-0.2,0-0.4,0-0.7,0.1c-0.1,0-0.3,0-0.4,0.1c-0.2,0-0.5,0.1-0.7,0.1c-0.1,0-0.2,0-0.3,0.1
				c-0.3,0.1-0.6,0.2-0.9,0.3c0,0-0.1,0-0.1,0c-2.9,0.9-5.8,2.7-8.9,5.3c-0.1,0.1-0.1,0.1-0.2,0.2c-0.4,0.3-0.7,0.6-1.1,1
				c0,0,0,0,0,0l0,0c0,0-0.1,0.1-0.1,0.1c-0.1,0.1-0.1,0.1-0.2,0.2c-0.2,0.2-0.4,0.4-0.7,0.6c-0.3,0.3-0.6,0.6-0.9,0.8
				c-5.1,4.9-6,5.8-13.5,5.8v5c9.5,0,11.5-2,17-7.2c0.1-0.1,0.2-0.2,0.3-0.3l0,0c0.2-0.2,0.4-0.4,0.6-0.6c0.2-0.2,0.5-0.5,0.7-0.7
				c0.1-0.1,0.1-0.1,0.2-0.2c0.1-0.1,0.3-0.2,0.4-0.4c0.2-0.2,0.5-0.4,0.7-0.6c0,0,0,0,0,0c2.9-2.4,5.6-4,8.1-4.5
				c5.6-1.2,9.4,2.5,13.1,6.2l0.5,0.5l0,0l0.5,0.5c3.7,3.4,7.9,7.4,13.6,7.4c4.1,0,8.9-2,14.8-7.5l0,0c1.7-1.7,3.4-3.1,4.9-4.2
				C181,159.6,180.5,158.1,180.1,156.8z"/>
		</g>
		<g>
			<path class="st0" d="M212,167.6C212,167.6,212,167.6,212,167.6c-12.7-0.2-18.6-11.5-19.9-17.4c-0.3-1.3,0.5-2.7,1.9-3
				c1.3-0.3,2.7,0.5,3,1.9c0.1,0.5,3.2,13.3,15.1,13.5c1.4,0,2.5,1.2,2.5,2.5C214.5,166.5,213.4,167.6,212,167.6z"/>
		</g>
	</g>
	<g>
		<path class="st0" d="M50.9,350.9c-0.3-0.3-0.5-0.7-0.5-1.3v-16.9c0-0.6,0.2-1,0.5-1.3c0.3-0.3,0.8-0.5,1.3-0.5H58
			c3.3,0,5.9,0.9,7.8,2.7c1.8,1.8,2.8,4.3,2.8,7.5c0,3.2-0.9,5.8-2.8,7.6c-1.8,1.8-4.4,2.7-7.8,2.7h-5.7
			C51.7,351.4,51.3,351.2,50.9,350.9z M57.8,348.3c4.7,0,7-2.4,7-7.2c0-4.8-2.3-7.2-7-7.2h-3.6v14.4H57.8z"/>
		<path class="st0" d="M72.2,333.8c-0.4-0.4-0.6-0.8-0.6-1.4s0.2-1,0.6-1.4c0.4-0.3,0.9-0.5,1.6-0.5c0.6,0,1.2,0.2,1.6,0.5
			c0.4,0.3,0.6,0.8,0.6,1.4s-0.2,1-0.6,1.4c-0.4,0.4-0.9,0.5-1.6,0.5C73.2,334.3,72.6,334.1,72.2,333.8z M72.5,351.1
			c-0.3-0.3-0.5-0.7-0.5-1.3v-11.2c0-0.6,0.2-1,0.5-1.3c0.3-0.3,0.8-0.4,1.3-0.4s1,0.1,1.3,0.4c0.3,0.3,0.5,0.7,0.5,1.3v11.2
			c0,0.6-0.2,1-0.5,1.3c-0.3,0.3-0.8,0.4-1.3,0.4S72.9,351.4,72.5,351.1z"/>
		<path class="st0" d="M79.4,350.4c-0.6-0.4-0.9-0.9-0.9-1.6c0-0.4,0.1-0.7,0.3-0.9c0.2-0.2,0.5-0.4,0.8-0.4c0.3,0,0.8,0.2,1.4,0.5
			c0.6,0.3,1.2,0.5,1.7,0.7c0.5,0.2,1.2,0.2,2,0.2c0.8,0,1.4-0.1,1.9-0.4c0.5-0.3,0.7-0.6,0.7-1.1c0-0.3-0.1-0.6-0.3-0.8
			c-0.2-0.2-0.5-0.4-1-0.5c-0.5-0.2-1.2-0.4-2.2-0.6c-1.7-0.3-3-0.8-3.7-1.5c-0.7-0.6-1.1-1.5-1.1-2.6c0-0.8,0.3-1.6,0.8-2.3
			c0.5-0.7,1.2-1.2,2.1-1.6s1.9-0.6,3-0.6c0.8,0,1.6,0.1,2.3,0.3s1.4,0.5,2,0.9c0.6,0.4,0.9,0.9,0.9,1.5c0,0.4-0.1,0.7-0.3,1
			c-0.2,0.3-0.5,0.4-0.8,0.4c-0.2,0-0.4,0-0.6-0.1c-0.2-0.1-0.5-0.2-0.8-0.4c-0.6-0.3-1-0.5-1.4-0.7c-0.4-0.1-0.9-0.2-1.5-0.2
			c-0.7,0-1.3,0.1-1.7,0.4c-0.4,0.3-0.6,0.7-0.6,1.2c0,0.5,0.2,0.9,0.6,1.1c0.4,0.3,1.2,0.5,2.5,0.8c1.3,0.3,2.3,0.6,3,0.9
			c0.7,0.3,1.3,0.8,1.6,1.3c0.3,0.5,0.5,1.2,0.5,2c0,1.3-0.5,2.4-1.6,3.2s-2.5,1.2-4.4,1.2C82.4,351.6,80.7,351.2,79.4,350.4z"/>
		<path class="st0" d="M93.7,333.8c-0.4-0.4-0.6-0.8-0.6-1.4s0.2-1,0.6-1.4c0.4-0.3,0.9-0.5,1.6-0.5c0.6,0,1.2,0.2,1.6,0.5
			c0.4,0.3,0.6,0.8,0.6,1.4s-0.2,1-0.6,1.4c-0.4,0.4-0.9,0.5-1.6,0.5C94.6,334.3,94.1,334.1,93.7,333.8z M94,351.1
			c-0.3-0.3-0.5-0.7-0.5-1.3v-11.2c0-0.6,0.2-1,0.5-1.3c0.3-0.3,0.8-0.4,1.3-0.4s1,0.1,1.3,0.4c0.3,0.3,0.5,0.7,0.5,1.3v11.2
			c0,0.6-0.2,1-0.5,1.3c-0.3,0.3-0.8,0.4-1.3,0.4S94.3,351.4,94,351.1z"/>
		<path class="st0" d="M112.8,338.3c0.8,1,1.2,2.4,1.2,4.4v7.1c0,0.5-0.2,1-0.5,1.3s-0.8,0.5-1.3,0.5c-0.6,0-1-0.2-1.3-0.5
			c-0.3-0.3-0.5-0.7-0.5-1.3v-6.9c0-1.1-0.2-1.9-0.6-2.4c-0.4-0.5-1.1-0.8-2-0.8c-1,0-1.9,0.3-2.5,1c-0.6,0.7-0.9,1.5-0.9,2.6v6.5
			c0,0.5-0.2,1-0.5,1.3c-0.3,0.3-0.8,0.5-1.3,0.5c-0.6,0-1-0.2-1.3-0.5c-0.3-0.3-0.5-0.7-0.5-1.3v-11.2c0-0.5,0.2-0.9,0.5-1.2
			c0.3-0.3,0.8-0.5,1.3-0.5c0.5,0,0.9,0.1,1.2,0.4c0.3,0.3,0.5,0.7,0.5,1.2v0.8c0.5-0.8,1.1-1.4,1.9-1.8c0.8-0.4,1.7-0.6,2.8-0.6
			C110.8,336.8,112,337.3,112.8,338.3z"/>
		<path class="st0" d="M123,334.4c-0.4,0.5-0.6,1.2-0.6,2.1v0.7h2.5c1.1,0,1.6,0.5,1.6,1.4c0,0.9-0.5,1.4-1.6,1.4h-2.5v9.9
			c0,0.6-0.2,1-0.5,1.3s-0.8,0.4-1.3,0.4c-0.5,0-1-0.1-1.3-0.4s-0.5-0.7-0.5-1.3v-9.9h-1.5c-1.1,0-1.6-0.5-1.6-1.4
			c0-0.9,0.5-1.4,1.6-1.4h1.5V337c0-1.8,0.5-3.2,1.4-4.3s2.3-1.6,4-1.8l0.8-0.1c0.8-0.1,1.3,0,1.6,0.2c0.3,0.2,0.5,0.6,0.5,1
			c0,0.8-0.5,1.3-1.4,1.4l-0.8,0.1C124.1,333.7,123.4,334,123,334.4z"/>
		<path class="st0" d="M140,347.9c0.2,0.3,0.3,0.6,0.3,1c0,0.6-0.4,1.1-1.1,1.5c-0.7,0.4-1.4,0.7-2.2,0.9s-1.6,0.3-2.4,0.3
			c-2.3,0-4.1-0.7-5.4-2c-1.3-1.3-2-3.1-2-5.4c0-1.5,0.3-2.7,0.9-3.9c0.6-1.1,1.4-2,2.5-2.6c1.1-0.6,2.2-0.9,3.6-0.9
			c1.3,0,2.4,0.3,3.3,0.8c0.9,0.6,1.7,1.4,2.2,2.4c0.5,1,0.8,2.2,0.8,3.6c0,0.8-0.4,1.2-1.1,1.2h-8.6c0.1,1.3,0.5,2.3,1.1,2.9
			c0.6,0.6,1.6,0.9,2.8,0.9c0.6,0,1.2-0.1,1.6-0.2c0.5-0.2,1-0.4,1.6-0.6c0.6-0.3,1-0.5,1.3-0.5C139.6,347.5,139.8,347.6,140,347.9z
			 M131.9,340.3c-0.6,0.6-0.9,1.5-1.1,2.7h6.6c0-1.2-0.3-2.1-0.9-2.7c-0.5-0.6-1.3-0.9-2.3-0.9C133.2,339.4,132.4,339.7,131.9,340.3
			z"/>
		<path class="st0" d="M146,350.7c-1.1-0.6-1.9-1.5-2.5-2.6c-0.6-1.1-0.9-2.4-0.9-3.9c0-1.5,0.3-2.8,0.9-3.9s1.5-2,2.6-2.6
			c1.1-0.6,2.4-0.9,3.8-0.9c0.8,0,1.5,0.1,2.3,0.3c0.8,0.2,1.4,0.5,2,0.9c0.6,0.4,0.9,0.9,0.9,1.5c0,0.4-0.1,0.8-0.3,1
			s-0.5,0.4-0.8,0.4c-0.2,0-0.4,0-0.7-0.1c-0.2-0.1-0.5-0.2-0.7-0.3c-0.4-0.3-0.8-0.4-1.2-0.6c-0.4-0.1-0.8-0.2-1.3-0.2
			c-1.2,0-2.1,0.4-2.8,1.2c-0.6,0.8-1,1.9-1,3.4c0,1.5,0.3,2.6,1,3.3c0.6,0.8,1.6,1.2,2.8,1.2c0.5,0,0.9-0.1,1.3-0.2
			c0.4-0.1,0.8-0.3,1.3-0.6c0.3-0.2,0.5-0.3,0.8-0.4c0.2-0.1,0.4-0.1,0.6-0.1c0.3,0,0.6,0.1,0.8,0.4c0.2,0.3,0.3,0.6,0.3,1
			c0,0.3-0.1,0.6-0.2,0.9c-0.1,0.2-0.4,0.5-0.7,0.7c-0.6,0.4-1.3,0.7-2.1,0.9s-1.6,0.3-2.4,0.3C148.3,351.6,147.1,351.3,146,350.7z"
			/>
		<path class="st0" d="M166.5,350.2c0,0.5-0.2,0.8-0.6,1.1c-0.4,0.2-0.9,0.3-1.6,0.3l-0.8-0.1c-3.2-0.2-4.9-2-4.9-5.2v-6.3h-1.5
			c-0.5,0-0.9-0.1-1.2-0.3c-0.3-0.2-0.4-0.6-0.4-1c0-0.4,0.1-0.8,0.4-1c0.3-0.2,0.7-0.3,1.2-0.3h1.5v-2.7c0-0.5,0.2-0.9,0.5-1.2
			s0.8-0.5,1.3-0.5c0.5,0,1,0.2,1.3,0.5c0.3,0.3,0.5,0.7,0.5,1.2v2.7h2.5c0.5,0,0.9,0.1,1.2,0.3c0.3,0.2,0.4,0.6,0.4,1
			c0,0.4-0.1,0.8-0.4,1c-0.3,0.2-0.7,0.3-1.2,0.3h-2.5v6.6c0,1.4,0.7,2.2,2,2.3l0.8,0.1C166,348.9,166.5,349.3,166.5,350.2z"/>
		<path class="st0" d="M178.9,338.3c1,1,1.4,2.5,1.4,4.5v7.1c0,0.5-0.2,0.9-0.5,1.2c-0.3,0.3-0.7,0.4-1.3,0.4
			c-0.5,0-0.9-0.2-1.2-0.5c-0.3-0.3-0.5-0.7-0.5-1.2v-0.6c-0.3,0.8-0.8,1.3-1.6,1.8c-0.7,0.4-1.5,0.6-2.5,0.6
			c-0.9,0-1.8-0.2-2.6-0.6c-0.8-0.4-1.4-0.9-1.8-1.6c-0.4-0.7-0.7-1.4-0.7-2.3c0-1,0.3-1.9,0.8-2.5c0.5-0.6,1.4-1,2.6-1.3
			c1.2-0.3,2.9-0.4,5-0.4h0.7v-0.7c0-0.9-0.2-1.6-0.6-2.1c-0.4-0.4-1.1-0.7-2-0.7c-0.6,0-1.1,0.1-1.7,0.2s-1.3,0.4-2.1,0.7
			c-0.5,0.3-0.9,0.4-1.1,0.4c-0.3,0-0.6-0.1-0.9-0.4c-0.2-0.3-0.3-0.6-0.3-1c0-0.3,0.1-0.6,0.2-0.9c0.2-0.2,0.4-0.5,0.8-0.7
			c0.7-0.4,1.5-0.7,2.4-0.9c0.9-0.2,1.9-0.3,2.8-0.3C176.5,336.8,177.9,337.3,178.9,338.3z M176,348c0.6-0.6,0.9-1.5,0.9-2.5v-0.6
			h-0.5c-1.3,0-2.3,0.1-3,0.2c-0.7,0.1-1.2,0.3-1.5,0.6c-0.3,0.3-0.5,0.7-0.5,1.2c0,0.6,0.2,1.1,0.7,1.5c0.4,0.4,1,0.6,1.6,0.6
			C174.6,349,175.4,348.7,176,348z"/>
		<path class="st0" d="M196,338.3c0.8,1,1.2,2.4,1.2,4.4v7.1c0,0.5-0.2,1-0.5,1.3s-0.8,0.5-1.3,0.5c-0.6,0-1-0.2-1.3-0.5
			c-0.3-0.3-0.5-0.7-0.5-1.3v-6.9c0-1.1-0.2-1.9-0.6-2.4c-0.4-0.5-1.1-0.8-2-0.8c-1,0-1.9,0.3-2.5,1c-0.6,0.7-0.9,1.5-0.9,2.6v6.5
			c0,0.5-0.2,1-0.5,1.3c-0.3,0.3-0.8,0.5-1.3,0.5c-0.6,0-1-0.2-1.3-0.5c-0.3-0.3-0.5-0.7-0.5-1.3v-11.2c0-0.5,0.2-0.9,0.5-1.2
			c0.3-0.3,0.8-0.5,1.3-0.5c0.5,0,0.9,0.1,1.2,0.4c0.3,0.3,0.5,0.7,0.5,1.2v0.8c0.5-0.8,1.1-1.4,1.9-1.8c0.8-0.4,1.7-0.6,2.8-0.6
			C194,336.8,195.2,337.3,196,338.3z"/>
		<path class="st0" d="M209.8,350.2c0,0.5-0.2,0.8-0.6,1.1c-0.4,0.2-0.9,0.3-1.6,0.3l-0.8-0.1c-3.2-0.2-4.9-2-4.9-5.2v-6.3h-1.5
			c-0.5,0-0.9-0.1-1.2-0.3c-0.3-0.2-0.4-0.6-0.4-1c0-0.4,0.1-0.8,0.4-1c0.3-0.2,0.7-0.3,1.2-0.3h1.5v-2.7c0-0.5,0.2-0.9,0.5-1.2
			s0.8-0.5,1.3-0.5c0.5,0,1,0.2,1.3,0.5c0.3,0.3,0.5,0.7,0.5,1.2v2.7h2.5c0.5,0,0.9,0.1,1.2,0.3c0.3,0.2,0.4,0.6,0.4,1
			c0,0.4-0.1,0.8-0.4,1c-0.3,0.2-0.7,0.3-1.2,0.3h-2.5v6.6c0,1.4,0.7,2.2,2,2.3l0.8,0.1C209.3,348.9,209.8,349.3,209.8,350.2z"/>
		<path class="st0" d="M231,337.7c0.9,0.6,1.7,1.5,2.2,2.6c0.5,1.1,0.8,2.4,0.8,3.9c0,1.5-0.3,2.8-0.8,3.9c-0.5,1.1-1.3,2-2.2,2.6
			c-1,0.6-2,0.9-3.3,0.9c-1,0-1.9-0.2-2.7-0.7c-0.8-0.4-1.4-1.1-1.8-1.9v0.7c0,0.5-0.2,0.9-0.5,1.2c-0.3,0.3-0.8,0.5-1.3,0.5
			c-0.5,0-1-0.2-1.3-0.5c-0.3-0.3-0.5-0.7-0.5-1.2v-17.3c0-0.5,0.2-0.9,0.5-1.2c0.3-0.3,0.8-0.5,1.3-0.5s1,0.1,1.3,0.4
			c0.3,0.3,0.5,0.7,0.5,1.2v6.8c0.4-0.8,1-1.4,1.8-1.8s1.7-0.6,2.7-0.6C228.9,336.8,230,337.1,231,337.7z M229.4,347.6
			c0.6-0.8,1-2,1-3.4c0-1.5-0.3-2.6-0.9-3.3c-0.6-0.8-1.5-1.2-2.7-1.2s-2.1,0.4-2.7,1.2c-0.6,0.8-0.9,1.9-0.9,3.4
			c0,1.5,0.3,2.6,0.9,3.4s1.5,1.2,2.7,1.2C227.9,348.8,228.8,348.4,229.4,347.6z"/>
		<path class="st0" d="M247.2,337.2c0.3-0.2,0.5-0.2,0.9-0.2c0.4,0,0.8,0.2,1.2,0.5s0.5,0.7,0.5,1.1c0,0.2-0.1,0.4-0.2,0.7
			l-7.9,16.6c-0.3,0.7-0.8,1-1.5,1c-0.4,0-0.8-0.1-1.2-0.4c-0.3-0.3-0.5-0.6-0.5-1.1c0-0.2,0.1-0.5,0.2-0.7l2-4.1l-5.4-11.2
			c-0.1-0.2-0.1-0.4-0.1-0.7c0-0.4,0.2-0.8,0.6-1.1s0.8-0.5,1.3-0.5c0.3,0,0.6,0.1,0.9,0.2c0.3,0.2,0.5,0.4,0.6,0.8l4.1,9l4-8.9
			C246.8,337.6,247,337.3,247.2,337.2z"/>
		<path class="st0" d="M260.7,351c-0.3-0.3-0.5-0.8-0.5-1.4v-17c0-0.6,0.2-1,0.5-1.3c0.3-0.3,0.8-0.5,1.3-0.5h7.1
			c2.2,0,3.9,0.5,5.1,1.6c1.2,1.1,1.8,2.6,1.8,4.6s-0.6,3.5-1.8,4.6c-1.2,1.1-2.9,1.7-5.1,1.7h-5.2v6.2c0,0.6-0.2,1-0.5,1.4
			c-0.3,0.3-0.8,0.5-1.4,0.5C261.5,351.6,261,351.4,260.7,351z M268.6,340.6c2.6,0,3.9-1.1,3.9-3.4c0-2.2-1.3-3.4-3.9-3.4h-4.7v6.7
			H268.6z"/>
		<path class="st0" d="M281.1,350.7c-1.1-0.6-1.9-1.5-2.5-2.6c-0.6-1.1-0.9-2.4-0.9-3.9c0-1.5,0.3-2.8,0.9-3.9
			c0.6-1.1,1.4-2,2.5-2.6c1.1-0.6,2.4-0.9,3.8-0.9s2.7,0.3,3.8,0.9s1.9,1.5,2.5,2.6c0.6,1.1,0.9,2.4,0.9,3.9c0,1.5-0.3,2.8-0.9,3.9
			c-0.6,1.1-1.4,2-2.5,2.6c-1.1,0.6-2.4,0.9-3.8,0.9S282.2,351.3,281.1,350.7z M287.6,347.6c0.6-0.8,0.9-1.9,0.9-3.4
			c0-1.5-0.3-2.6-0.9-3.4s-1.5-1.2-2.7-1.2s-2.1,0.4-2.7,1.2s-0.9,1.9-0.9,3.4c0,1.5,0.3,2.6,0.9,3.4c0.6,0.8,1.5,1.2,2.7,1.2
			C286.1,348.8,287,348.4,287.6,347.6z"/>
		<path class="st0" d="M295.6,351.1c-0.3-0.3-0.5-0.7-0.5-1.3v-17.3c0-0.6,0.2-1,0.5-1.3c0.3-0.3,0.8-0.4,1.3-0.4
			c0.5,0,1,0.1,1.3,0.4c0.3,0.3,0.5,0.7,0.5,1.3v17.3c0,0.6-0.2,1-0.5,1.3c-0.3,0.3-0.8,0.4-1.3,0.4
			C296.4,351.6,296,351.4,295.6,351.1z"/>
		<path class="st0" d="M313,337.2c0.3-0.2,0.5-0.2,0.9-0.2c0.4,0,0.8,0.2,1.2,0.5s0.5,0.7,0.5,1.1c0,0.2-0.1,0.4-0.2,0.7l-7.9,16.6
			c-0.3,0.7-0.8,1-1.5,1c-0.4,0-0.8-0.1-1.2-0.4c-0.3-0.3-0.5-0.6-0.5-1.1c0-0.2,0.1-0.5,0.2-0.7l2-4.1l-5.4-11.2
			c-0.1-0.2-0.1-0.4-0.1-0.7c0-0.4,0.2-0.8,0.6-1.1s0.8-0.5,1.3-0.5c0.3,0,0.6,0.1,0.9,0.2c0.3,0.2,0.5,0.4,0.6,0.8l4.1,9l4-8.9
			C312.5,337.6,312.8,337.3,313,337.2z"/>
		<path class="st0" d="M335.4,331.3c0.3,0.3,0.5,0.8,0.5,1.3v17c0,0.6-0.2,1-0.5,1.4c-0.3,0.3-0.8,0.5-1.3,0.5c-0.6,0-1-0.2-1.3-0.5
			c-0.3-0.3-0.5-0.8-0.5-1.4v-7.2h-10.5v7.2c0,0.6-0.2,1-0.5,1.4c-0.3,0.3-0.8,0.5-1.3,0.5c-0.5,0-1-0.2-1.3-0.5
			c-0.3-0.3-0.5-0.8-0.5-1.4v-17c0-0.6,0.2-1,0.5-1.3c0.3-0.3,0.8-0.5,1.3-0.5s1,0.2,1.3,0.5c0.3,0.3,0.5,0.8,0.5,1.3v6.8h10.5v-6.8
			c0-0.6,0.2-1,0.5-1.3c0.3-0.3,0.8-0.5,1.3-0.5C334.6,330.8,335.1,331,335.4,331.3z"/>
		<path class="st0" d="M359.8,331.3c0.3,0.3,0.5,0.8,0.5,1.3v17.2c0,0.5-0.2,1-0.5,1.3c-0.3,0.3-0.7,0.5-1.2,0.5
			c-0.5,0-0.9-0.2-1.2-0.5s-0.4-0.7-0.4-1.3v-11.9l-4.9,9.3c-0.2,0.4-0.5,0.7-0.8,0.9s-0.6,0.3-1,0.3s-0.7-0.1-1-0.3s-0.5-0.5-0.8-1
			l-5-9.2v11.8c0,0.5-0.1,0.9-0.4,1.3c-0.3,0.3-0.7,0.5-1.2,0.5c-0.5,0-0.9-0.2-1.2-0.5s-0.4-0.7-0.4-1.3v-17.2c0-0.6,0.2-1,0.5-1.3
			c0.3-0.3,0.7-0.5,1.3-0.5c0.8,0,1.3,0.4,1.8,1.2l6.4,12.3l6.4-12.3c0.4-0.8,1-1.2,1.7-1.2C359,330.8,359.4,331,359.8,331.3z"/>
		<path class="st0" d="M381.3,340.7c0.3,0.3,0.4,0.6,0.4,1v6.2c0,0.9-0.1,1.5-0.3,1.9s-0.7,0.7-1.4,0.9c-0.8,0.3-1.7,0.5-2.7,0.6
			c-1,0.2-2,0.2-3,0.2c-2.1,0-3.9-0.4-5.5-1.2c-1.5-0.8-2.7-2-3.6-3.6c-0.8-1.6-1.2-3.5-1.2-5.6c0-2.1,0.4-4,1.2-5.6
			c0.8-1.6,2-2.8,3.5-3.6s3.3-1.3,5.3-1.3c2.7,0,5,0.7,6.7,2.2c0.2,0.2,0.4,0.4,0.5,0.6c0.1,0.2,0.2,0.5,0.2,0.8
			c0,0.4-0.1,0.8-0.3,1.1c-0.2,0.3-0.5,0.4-0.8,0.4c-0.2,0-0.4,0-0.6-0.1c-0.2-0.1-0.4-0.2-0.6-0.3c-0.9-0.6-1.6-1-2.4-1.3
			c-0.7-0.2-1.6-0.4-2.5-0.4c-2.1,0-3.7,0.6-4.8,1.9c-1.1,1.2-1.6,3.1-1.6,5.6c0,5,2.2,7.5,6.6,7.5c1.3,0,2.6-0.2,3.9-0.6V343h-3.3
			c-0.5,0-0.8-0.1-1.1-0.3c-0.3-0.2-0.4-0.6-0.4-1c0-0.4,0.1-0.8,0.4-1c0.3-0.2,0.6-0.3,1.1-0.3h5.1
			C380.7,340.3,381.1,340.5,381.3,340.7z"/>
	</g>
	<path class="st0" d="M216,183.7c-22.5,0-33.3-17.6-35.9-26.9c-3.4-12.1-0.7-24.4,8.7-39.8l0,0c7.1-11.5,25.1-40.9,25.1-40.9
		l2.1-3.5l2.1,3.5c0,0,18,29.4,25.1,40.9c9.4,15.4,12.1,27.6,8.7,39.8C249.3,166.1,238.5,183.7,216,183.7z M216,82.2
		c-5,8.1-17.4,28.3-22.9,37.4l0,0c-8.6,14.1-11.1,25.1-8.1,35.8c0.3,1,6.8,23.2,31.1,23.2c24.3,0,30.8-22.3,31.1-23.2
		c3-10.7,0.5-21.7-8.1-35.8C233.4,110.5,221,90.3,216,82.2z"/>
</g>
</svg>
