<?xml version="1.0" encoding="utf-8"?>
<!-- Generator: Adobe Illustrator 21.1.0, SVG Export Plug-In . SVG Version: 6.00 Build 0)  -->
<svg version="1.1" id="Layer_2" xmlns="http://www.w3.org/2000/svg" xmlns:xlink="http://www.w3.org/1999/xlink" x="0px" y="0px"
	 viewBox="0 0 432 432" style="enable-background:new 0 0 432 432;" xml:space="preserve">
<style type="text/css">
	.st0{fill:#BEBDBF;}
	.st1{display:none;fill:#BEBDBF;}
</style>
<g>
	<path class="st0" d="M314.8,141.4h-10.6v5h10.6c2.2,0,4,1.8,4,4V183c0,2.2-1.8,4-4,4h-10.6v5h10.6c5,0,9-4,9-9v-32.6
		C323.8,145.5,319.8,141.4,314.8,141.4z"/>
	<g>
		<path class="st0" d="M186.9,187h-28.7v5h33.2C189.8,190.5,188.2,188.8,186.9,187z"/>
		<path class="st0" d="M245.1,187c-1.4,1.8-2.9,3.5-4.5,5h33.2v-5H245.1z"/>
	</g>
	<path class="st0" d="M244,111.3h-56c-3.5,0-6.4-2.9-6.4-6.4v-5.1c0-3.5,2.9-6.4,6.4-6.4h56c3.5,0,6.4,2.9,6.4,6.4v5.1
		C250.4,108.4,247.5,111.3,244,111.3z M188,98.4c-0.7,0-1.4,0.6-1.4,1.4v5.1c0,0.7,0.6,1.4,1.4,1.4h56c0.7,0,1.4-0.6,1.4-1.4v-5.1
		c0-0.7-0.6-1.4-1.4-1.4H188z"/>
	<g>
		<path class="st0" d="M148.4,204.5h-10.7c-5.4,0-9.9-4.4-9.9-9.9v-55.9c0-5.4,4.4-9.9,9.9-9.9h10.7c5.4,0,9.9,4.4,9.9,9.9v55.9
			C158.2,200.1,153.8,204.5,148.4,204.5z M137.6,133.9c-2.7,0-4.9,2.2-4.9,4.9v55.9c0,2.7,2.2,4.9,4.9,4.9h10.7
			c2.7,0,4.9-2.2,4.9-4.9v-55.9c0-2.7-2.2-4.9-4.9-4.9H137.6z"/>
		<path class="st0" d="M294.4,204.5h-10.7c-5.4,0-9.9-4.4-9.9-9.9v-55.9c0-5.4,4.4-9.9,9.9-9.9h10.7c5.4,0,9.9,4.4,9.9,9.9v55.9
			C304.3,200.1,299.8,204.5,294.4,204.5z M283.6,133.9c-2.7,0-4.9,2.2-4.9,4.9v55.9c0,2.7,2.2,4.9,4.9,4.9h10.7
			c2.7,0,4.9-2.2,4.9-4.9v-55.9c0-2.7-2.2-4.9-4.9-4.9H283.6z"/>
	</g>
	<g>
		<path class="st0" d="M59.6,303.2c-0.6-0.6-0.9-1.4-0.9-2.4v-49.6c0-0.9,0.3-1.7,0.9-2.3c0.6-0.6,1.4-0.9,2.4-0.9h18.7
			c5.8,0,10.4,1.4,13.6,4.3c3.2,2.8,4.9,6.9,4.9,12.1s-1.6,9.3-4.9,12.2c-3.3,2.9-7.8,4.3-13.6,4.3H65.2v19.9c0,1-0.3,1.8-0.9,2.4
			c-0.6,0.6-1.4,0.9-2.4,0.9C61,304.1,60.2,303.8,59.6,303.2z M80.2,275.5c8.5,0,12.7-3.7,12.7-11.1c0-7.3-4.2-11-12.7-11H65.2v22.1
			H80.2z"/>
		<path class="st0" d="M113.9,301.9c-2.8-1.6-4.9-4-6.4-7c-1.5-3-2.3-6.5-2.3-10.5c0-4,0.8-7.5,2.3-10.5c1.5-3,3.6-5.4,6.4-7
			c2.8-1.6,6-2.4,9.6-2.4s6.8,0.8,9.6,2.4c2.8,1.6,4.9,4,6.4,7c1.5,3,2.3,6.5,2.3,10.5c0,4-0.8,7.5-2.3,10.5c-1.5,3-3.6,5.4-6.4,7
			c-2.8,1.6-6,2.4-9.6,2.4S116.6,303.5,113.9,301.9z M132.2,295.3c2-2.5,3-6.1,3-10.9c0-4.7-1-8.3-3.1-10.9c-2.1-2.6-5-3.8-8.7-3.8
			c-3.7,0-6.6,1.3-8.7,3.8c-2.1,2.6-3.1,6.2-3.1,10.9c0,4.7,1,8.4,3,10.9c2,2.5,4.9,3.8,8.7,3.8S130.2,297.8,132.2,295.3z"/>
		<path class="st0" d="M152.3,303.3c-0.6-0.6-0.9-1.3-0.9-2.3v-50.2c0-1,0.3-1.8,0.9-2.3c0.6-0.6,1.4-0.8,2.3-0.8
			c0.9,0,1.6,0.3,2.3,0.8c0.6,0.6,0.9,1.3,0.9,2.3V301c0,1-0.3,1.8-0.9,2.3c-0.6,0.6-1.4,0.8-2.3,0.8
			C153.6,304.1,152.9,303.9,152.3,303.3z"/>
		<path class="st0" d="M200.2,264.6c0.8,0,1.5,0.3,2.1,0.8c0.6,0.5,0.9,1.2,0.9,2c0,0.5-0.1,0.9-0.3,1.3l-22.2,47.9
			c-0.3,0.6-0.6,1-1.1,1.3c-0.5,0.3-1,0.5-1.5,0.5c-0.8,0-1.5-0.3-2.1-0.8c-0.6-0.5-0.9-1.1-0.9-1.9c0-0.4,0.1-0.8,0.3-1.3l5.5-11.9
			l-15.6-33.8c-0.2-0.4-0.3-0.8-0.3-1.2c0-0.8,0.4-1.5,1.1-2.1c0.7-0.6,1.5-0.9,2.3-0.9c0.5,0,1,0.2,1.5,0.5
			c0.5,0.3,0.9,0.8,1.1,1.3l13.2,29.6l13.2-29.5C198,265.2,198.9,264.6,200.2,264.6z"/>
		<path class="st0" d="M211.5,302.6c-1.1-1.1-1.7-2.6-1.7-4.5v-44.2c0-1.8,0.5-3.3,1.5-4.3c1-1,2.4-1.5,4.3-1.5h19.8
			c6.1,0,10.8,1.5,14.1,4.6c3.4,3.1,5.1,7.3,5.1,12.8c0,5.5-1.7,9.7-5.1,12.8c-3.4,3.1-8.1,4.6-14.1,4.6h-13.3v15.2
			c0,1.9-0.6,3.4-1.7,4.5c-1.1,1.1-2.6,1.7-4.5,1.7C214.1,304.2,212.6,303.7,211.5,302.6z M233.9,273.5c6.2,0,9.2-2.7,9.2-8
			c0-5.4-3.1-8.1-9.2-8.1h-11.7v16H233.9z"/>
		<path class="st0" d="M264.3,302.6c-1.1-1.1-1.7-2.6-1.7-4.5v-44.3c0-1.8,0.6-3.3,1.7-4.4c1.1-1.1,2.6-1.7,4.5-1.7
			c1.9,0,3.4,0.6,4.5,1.7c1.1,1.1,1.7,2.6,1.7,4.4v44.3c0,1.9-0.6,3.4-1.7,4.5c-1.1,1.1-2.6,1.7-4.5,1.7
			C266.9,304.2,265.4,303.7,264.3,302.6z"/>
		<path class="st0" d="M287.7,302.6c-1.1-1.1-1.7-2.6-1.7-4.5v-44.2c0-1.8,0.5-3.3,1.5-4.3c1-1,2.4-1.5,4.3-1.5h19.8
			c6.1,0,10.8,1.5,14.1,4.6c3.4,3.1,5.1,7.3,5.1,12.8c0,5.5-1.7,9.7-5.1,12.8c-3.4,3.1-8.1,4.6-14.1,4.6h-13.3v15.2
			c0,1.9-0.6,3.4-1.7,4.5c-1.1,1.1-2.6,1.7-4.5,1.7C290.3,304.2,288.8,303.7,287.7,302.6z M310,273.5c6.2,0,9.2-2.7,9.2-8
			c0-5.4-3.1-8.1-9.2-8.1h-11.7v16H310z"/>
		<path class="st0" d="M340.3,302.2c-1-1-1.5-2.4-1.5-4.3v-44.2c0-1.8,0.5-3.3,1.5-4.3c1-1,2.4-1.5,4.3-1.5h28
			c3.9,0,5.8,1.6,5.8,4.7c0,3.2-1.9,4.8-5.8,4.8h-21.7v13H371c3.9,0,5.8,1.6,5.8,4.8c0,3.2-1.9,4.7-5.8,4.7h-20.1v14h21.7
			c3.9,0,5.8,1.6,5.8,4.8c0,3.2-1.9,4.7-5.8,4.7h-28C342.7,303.7,341.3,303.2,340.3,302.2z"/>
	</g>
	<path class="st0" d="M216,201.6c-20,0-36.4-16.3-36.4-36.4s16.3-36.4,36.4-36.4s36.4,16.3,36.4,36.4S236,201.6,216,201.6z
		 M216,133.9c-17.3,0-31.4,14.1-31.4,31.4s14.1,31.4,31.4,31.4s31.4-14.1,31.4-31.4S233.3,133.9,216,133.9z"/>
	<g>
		<path class="st0" d="M195.3,135.4v-23.7h41.5v23.7c1.8,1.2,3.5,2.6,5,4.2v-32.9h-51.5v32.9C191.8,138.1,193.5,136.7,195.3,135.4z"
			/>
	</g>
	<g>
		<path class="st0" d="M188.6,141.4h-30.4v5h26.7C186,144.7,187.2,143,188.6,141.4z"/>
		<path class="st0" d="M243.4,141.4c1.4,1.6,2.6,3.2,3.7,5h26.7v-5H243.4z"/>
	</g>
	<g>
		<g>
			<circle class="st0" cx="216" cy="187.2" r="0.9"/>
			<path class="st0" d="M216,190.6c-1.9,0-3.4-1.5-3.4-3.4s1.5-3.4,3.4-3.4s3.4,1.5,3.4,3.4S217.9,190.6,216,190.6z M216,185.6
				c-0.9,0-1.6,0.7-1.6,1.6s0.7,1.6,1.6,1.6c0.9,0,1.6-0.7,1.6-1.6S216.9,185.6,216,185.6z"/>
		</g>
		<g>
			<circle class="st0" cx="216" cy="143.4" r="0.9"/>
			<path class="st0" d="M216,146.8c-1.9,0-3.4-1.5-3.4-3.4c0-1.9,1.5-3.4,3.4-3.4s3.4,1.5,3.4,3.4
				C219.4,145.3,217.9,146.8,216,146.8z M216,141.8c-0.9,0-1.6,0.7-1.6,1.6s0.7,1.6,1.6,1.6c0.9,0,1.6-0.7,1.6-1.6
				S216.9,141.8,216,141.8z"/>
		</g>
	</g>
	<g>
		<g>
			<circle class="st0" cx="194.1" cy="165.3" r="0.9"/>
			<path class="st0" d="M194.1,168.7c-1.9,0-3.4-1.5-3.4-3.4s1.5-3.4,3.4-3.4s3.4,1.5,3.4,3.4S196,168.7,194.1,168.7z M194.1,163.7
				c-0.9,0-1.6,0.7-1.6,1.6s0.7,1.6,1.6,1.6s1.6-0.7,1.6-1.6S195,163.7,194.1,163.7z"/>
		</g>
		<g>
			<circle class="st0" cx="237.9" cy="165.3" r="0.9"/>
			<path class="st0" d="M237.9,168.7c-1.9,0-3.4-1.5-3.4-3.4s1.5-3.4,3.4-3.4s3.4,1.5,3.4,3.4S239.8,168.7,237.9,168.7z
				 M237.9,163.7c-0.9,0-1.6,0.7-1.6,1.6s0.7,1.6,1.6,1.6s1.6-0.7,1.6-1.6S238.8,163.7,237.9,163.7z"/>
		</g>
	</g>
	<g>
		<g>
			
				<ellipse transform="matrix(0.7071 -0.7071 0.7071 0.7071 -69.0876 194.7266)" class="st0" cx="200.5" cy="180.8" rx="0.9" ry="0.9"/>
			<path class="st0" d="M200.5,184.2c-0.9,0-1.8-0.3-2.4-1c-1.3-1.3-1.3-3.5,0-4.9c1.3-1.3,3.5-1.3,4.9,0c1.3,1.3,1.3,3.5,0,4.9
				C202.3,183.9,201.4,184.2,200.5,184.2z M200.5,179.2c-0.4,0-0.8,0.2-1.1,0.5c-0.6,0.6-0.6,1.6,0,2.2c0.6,0.6,1.6,0.6,2.2,0
				c0.6-0.6,0.6-1.6,0-2.2C201.3,179.3,200.9,179.2,200.5,179.2z"/>
		</g>
		<g>
			
				<ellipse transform="matrix(0.7071 -0.7071 0.7071 0.7071 -38.1115 207.5573)" class="st0" cx="231.5" cy="149.8" rx="0.9" ry="0.9"/>
			<path class="st0" d="M231.5,153.2c-0.9,0-1.8-0.3-2.4-1c-0.6-0.6-1-1.5-1-2.4c0-0.9,0.4-1.8,1-2.4c1.3-1.3,3.5-1.3,4.9,0
				c1.3,1.3,1.3,3.5,0,4.9l0,0C233.2,152.9,232.4,153.2,231.5,153.2z M230.4,148.7c-0.6,0.6-0.6,1.6,0,2.2c0.6,0.6,1.6,0.6,2.2,0
				c0.3-0.3,0.5-0.7,0.5-1.1s-0.2-0.8-0.5-1.1C232,148.1,231,148.1,230.4,148.7l1.8,1.8L230.4,148.7z"/>
		</g>
	</g>
	<g>
		<g>
			
				<ellipse transform="matrix(0.7071 -0.7071 0.7071 0.7071 -47.1842 185.6539)" class="st0" cx="200.5" cy="149.8" rx="0.9" ry="0.9"/>
			<path class="st0" d="M200.5,153.2c-0.9,0-1.8-0.3-2.4-1c-0.6-0.6-1-1.5-1-2.4c0-0.9,0.4-1.8,1-2.4c1.3-1.3,3.5-1.3,4.9,0
				c0.6,0.6,1,1.5,1,2.4c0,0.9-0.4,1.8-1,2.4C202.3,152.9,201.4,153.2,200.5,153.2z M199.4,150.9c0.6,0.6,1.6,0.6,2.2,0
				c0.3-0.3,0.5-0.7,0.5-1.1s-0.2-0.8-0.5-1.1l0,0c-0.6-0.6-1.6-0.6-2.2,0c-0.3,0.3-0.5,0.7-0.5,1.1S199.1,150.6,199.4,150.9
				C199.4,150.9,199.4,150.9,199.4,150.9l0.4-0.5L199.4,150.9z"/>
		</g>
		<g>
			
				<ellipse transform="matrix(0.7071 -0.7071 0.7071 0.7071 -60.0149 216.6299)" class="st0" cx="231.5" cy="180.8" rx="0.9" ry="0.9"/>
			<path class="st0" d="M231.5,184.2c-0.9,0-1.8-0.3-2.4-1l0,0c-1.3-1.3-1.3-3.5,0-4.9c1.3-1.3,3.5-1.3,4.9,0c1.3,1.3,1.3,3.5,0,4.9
				C233.2,183.9,232.4,184.2,231.5,184.2z M231.5,179.2c-0.4,0-0.8,0.2-1.1,0.5c-0.6,0.6-0.6,1.6,0,2.2c0.6,0.6,1.6,0.6,2.2,0
				c0.6-0.6,0.6-1.6,0-2.2l-1.8,1.8l1.8-1.8C232.3,179.3,231.9,179.2,231.5,179.2z"/>
		</g>
	</g>
	<g>
		<polygon class="st0" points="221.5,94.4 213.2,95.2 237,79.4 243.1,80.2 		"/>
		<polygon class="st0" points="210.6,94.5 188.9,80.2 195.8,79.9 218.8,95.2 		"/>
	</g>
	<polygon class="st0" points="218,95.2 214,95.2 214,80 218,80.5 	"/>
	<path class="st0" d="M259.7,83.9h-87.5c-3.6,0-6.4-2.9-6.4-6.4v-3.6c0-3.6,2.9-6.4,6.4-6.4h87.5c3.6,0,6.4,2.9,6.4,6.4v3.6
		C266.2,81,263.3,83.9,259.7,83.9z M172.3,72.4c-0.8,0-1.4,0.7-1.4,1.4v3.6c0,0.8,0.7,1.4,1.4,1.4h87.5c0.8,0,1.4-0.7,1.4-1.4v-3.6
		c0-0.8-0.7-1.4-1.4-1.4H172.3z"/>
	<g>
		<path class="st0" d="M50.9,353.6c-0.3-0.3-0.5-0.7-0.5-1.3v-16.9c0-0.6,0.2-1,0.5-1.3c0.3-0.3,0.8-0.5,1.3-0.5H58
			c3.3,0,5.9,0.9,7.8,2.7c1.8,1.8,2.8,4.3,2.8,7.5c0,3.2-0.9,5.8-2.8,7.6c-1.8,1.8-4.4,2.7-7.8,2.7h-5.7
			C51.7,354.1,51.3,354,50.9,353.6z M57.8,351.1c4.7,0,7-2.4,7-7.2c0-4.8-2.3-7.2-7-7.2h-3.6v14.4H57.8z"/>
		<path class="st0" d="M72.2,336.5c-0.4-0.4-0.6-0.8-0.6-1.4s0.2-1,0.6-1.4c0.4-0.3,0.9-0.5,1.6-0.5c0.6,0,1.2,0.2,1.6,0.5
			c0.4,0.3,0.6,0.8,0.6,1.4s-0.2,1-0.6,1.4c-0.4,0.4-0.9,0.5-1.6,0.5C73.2,337.1,72.6,336.9,72.2,336.5z M72.5,353.8
			c-0.3-0.3-0.5-0.7-0.5-1.3v-11.2c0-0.6,0.2-1,0.5-1.3c0.3-0.3,0.8-0.4,1.3-0.4s1,0.1,1.3,0.4c0.3,0.3,0.5,0.7,0.5,1.3v11.2
			c0,0.6-0.2,1-0.5,1.3c-0.3,0.3-0.8,0.4-1.3,0.4S72.9,354.1,72.5,353.8z"/>
		<path class="st0" d="M79.4,353.1c-0.6-0.4-0.9-0.9-0.9-1.6c0-0.4,0.1-0.7,0.3-0.9c0.2-0.2,0.5-0.4,0.8-0.4c0.3,0,0.8,0.2,1.4,0.5
			c0.6,0.3,1.2,0.5,1.7,0.7c0.5,0.2,1.2,0.2,2,0.2c0.8,0,1.4-0.1,1.9-0.4c0.5-0.3,0.7-0.6,0.7-1.1c0-0.3-0.1-0.6-0.3-0.8
			c-0.2-0.2-0.5-0.4-1-0.5c-0.5-0.2-1.2-0.4-2.2-0.6c-1.7-0.3-3-0.8-3.7-1.5c-0.7-0.6-1.1-1.5-1.1-2.6c0-0.8,0.3-1.6,0.8-2.3
			c0.5-0.7,1.2-1.2,2.1-1.6s1.9-0.6,3-0.6c0.8,0,1.6,0.1,2.3,0.3s1.4,0.5,2,0.9c0.6,0.4,0.9,0.9,0.9,1.5c0,0.4-0.1,0.7-0.3,1
			c-0.2,0.3-0.5,0.4-0.8,0.4c-0.2,0-0.4,0-0.6-0.1c-0.2-0.1-0.5-0.2-0.8-0.4c-0.6-0.3-1-0.5-1.4-0.7c-0.4-0.1-0.9-0.2-1.5-0.2
			c-0.7,0-1.3,0.1-1.7,0.4c-0.4,0.3-0.6,0.7-0.6,1.2c0,0.5,0.2,0.9,0.6,1.1c0.4,0.3,1.2,0.5,2.5,0.8c1.3,0.3,2.3,0.6,3,0.9
			c0.7,0.3,1.3,0.8,1.6,1.3c0.3,0.5,0.5,1.2,0.5,2c0,1.3-0.5,2.4-1.6,3.2s-2.5,1.2-4.4,1.2C82.4,354.3,80.7,353.9,79.4,353.1z"/>
		<path class="st0" d="M93.7,336.5c-0.4-0.4-0.6-0.8-0.6-1.4s0.2-1,0.6-1.4c0.4-0.3,0.9-0.5,1.6-0.5c0.6,0,1.2,0.2,1.6,0.5
			c0.4,0.3,0.6,0.8,0.6,1.4s-0.2,1-0.6,1.4c-0.4,0.4-0.9,0.5-1.6,0.5C94.6,337.1,94.1,336.9,93.7,336.5z M94,353.8
			c-0.3-0.3-0.5-0.7-0.5-1.3v-11.2c0-0.6,0.2-1,0.5-1.3c0.3-0.3,0.8-0.4,1.3-0.4s1,0.1,1.3,0.4c0.3,0.3,0.5,0.7,0.5,1.3v11.2
			c0,0.6-0.2,1-0.5,1.3c-0.3,0.3-0.8,0.4-1.3,0.4S94.3,354.1,94,353.8z"/>
		<path class="st0" d="M112.8,341c0.8,1,1.2,2.4,1.2,4.4v7.1c0,0.5-0.2,1-0.5,1.3s-0.8,0.5-1.3,0.5c-0.6,0-1-0.2-1.3-0.5
			c-0.3-0.3-0.5-0.7-0.5-1.3v-6.9c0-1.1-0.2-1.9-0.6-2.4c-0.4-0.5-1.1-0.8-2-0.8c-1,0-1.9,0.3-2.5,1c-0.6,0.7-0.9,1.5-0.9,2.6v6.5
			c0,0.5-0.2,1-0.5,1.3c-0.3,0.3-0.8,0.5-1.3,0.5c-0.6,0-1-0.2-1.3-0.5c-0.3-0.3-0.5-0.7-0.5-1.3v-11.2c0-0.5,0.2-0.9,0.5-1.2
			c0.3-0.3,0.8-0.5,1.3-0.5c0.5,0,0.9,0.1,1.2,0.4c0.3,0.3,0.5,0.7,0.5,1.2v0.8c0.5-0.8,1.1-1.4,1.9-1.8c0.8-0.4,1.7-0.6,2.8-0.6
			C110.8,339.6,112,340.1,112.8,341z"/>
		<path class="st0" d="M123,337.2c-0.4,0.5-0.6,1.2-0.6,2.1v0.7h2.5c1.1,0,1.6,0.5,1.6,1.4c0,0.9-0.5,1.4-1.6,1.4h-2.5v9.9
			c0,0.6-0.2,1-0.5,1.3s-0.8,0.4-1.3,0.4c-0.5,0-1-0.1-1.3-0.4s-0.5-0.7-0.5-1.3v-9.9h-1.5c-1.1,0-1.6-0.5-1.6-1.4
			c0-0.9,0.5-1.4,1.6-1.4h1.5v-0.2c0-1.8,0.5-3.2,1.4-4.3s2.3-1.6,4-1.8l0.8-0.1c0.8-0.1,1.3,0,1.6,0.2c0.3,0.2,0.5,0.6,0.5,1
			c0,0.8-0.5,1.3-1.4,1.4l-0.8,0.1C124.1,336.4,123.4,336.7,123,337.2z"/>
		<path class="st0" d="M140,350.6c0.2,0.3,0.3,0.6,0.3,1c0,0.6-0.4,1.1-1.1,1.5c-0.7,0.4-1.4,0.7-2.2,0.9s-1.6,0.3-2.4,0.3
			c-2.3,0-4.1-0.7-5.4-2c-1.3-1.3-2-3.1-2-5.4c0-1.5,0.3-2.7,0.9-3.9c0.6-1.1,1.4-2,2.5-2.6c1.1-0.6,2.2-0.9,3.6-0.9
			c1.3,0,2.4,0.3,3.3,0.8c0.9,0.6,1.7,1.4,2.2,2.4c0.5,1,0.8,2.2,0.8,3.6c0,0.8-0.4,1.2-1.1,1.2h-8.6c0.1,1.3,0.5,2.3,1.1,2.9
			c0.6,0.6,1.6,0.9,2.8,0.9c0.6,0,1.2-0.1,1.6-0.2c0.5-0.2,1-0.4,1.6-0.6c0.6-0.3,1-0.5,1.3-0.5C139.6,350.2,139.8,350.3,140,350.6z
			 M131.9,343.1c-0.6,0.6-0.9,1.5-1.1,2.7h6.6c0-1.2-0.3-2.1-0.9-2.7c-0.5-0.6-1.3-0.9-2.3-0.9C133.2,342.1,132.4,342.4,131.9,343.1
			z"/>
		<path class="st0" d="M146,353.4c-1.1-0.6-1.9-1.5-2.5-2.6c-0.6-1.1-0.9-2.4-0.9-3.9c0-1.5,0.3-2.8,0.9-3.9s1.5-2,2.6-2.6
			c1.1-0.6,2.4-0.9,3.8-0.9c0.8,0,1.5,0.1,2.3,0.3c0.8,0.2,1.4,0.5,2,0.9c0.6,0.4,0.9,0.9,0.9,1.5c0,0.4-0.1,0.8-0.3,1
			s-0.5,0.4-0.8,0.4c-0.2,0-0.4,0-0.7-0.1c-0.2-0.1-0.5-0.2-0.7-0.3c-0.4-0.3-0.8-0.4-1.2-0.6c-0.4-0.1-0.8-0.2-1.3-0.2
			c-1.2,0-2.1,0.4-2.8,1.2c-0.6,0.8-1,1.9-1,3.4c0,1.5,0.3,2.6,1,3.3c0.6,0.8,1.6,1.2,2.8,1.2c0.5,0,0.9-0.1,1.3-0.2
			c0.4-0.1,0.8-0.3,1.3-0.6c0.3-0.2,0.5-0.3,0.8-0.4c0.2-0.1,0.4-0.1,0.6-0.1c0.3,0,0.6,0.1,0.8,0.4c0.2,0.3,0.3,0.6,0.3,1
			c0,0.3-0.1,0.6-0.2,0.9c-0.1,0.2-0.4,0.5-0.7,0.7c-0.6,0.4-1.3,0.7-2.1,0.9s-1.6,0.3-2.4,0.3C148.3,354.3,147.1,354,146,353.4z"/>
		<path class="st0" d="M166.5,352.9c0,0.5-0.2,0.8-0.6,1.1c-0.4,0.2-0.9,0.3-1.6,0.3l-0.8-0.1c-3.2-0.2-4.9-2-4.9-5.2v-6.3h-1.5
			c-0.5,0-0.9-0.1-1.2-0.3c-0.3-0.2-0.4-0.6-0.4-1c0-0.4,0.1-0.8,0.4-1c0.3-0.2,0.7-0.3,1.2-0.3h1.5v-2.7c0-0.5,0.2-0.9,0.5-1.2
			s0.8-0.5,1.3-0.5c0.5,0,1,0.2,1.3,0.5c0.3,0.3,0.5,0.7,0.5,1.2v2.7h2.5c0.5,0,0.9,0.1,1.2,0.3c0.3,0.2,0.4,0.6,0.4,1
			c0,0.4-0.1,0.8-0.4,1c-0.3,0.2-0.7,0.3-1.2,0.3h-2.5v6.6c0,1.4,0.7,2.2,2,2.3l0.8,0.1C166,351.6,166.5,352.1,166.5,352.9z"/>
		<path class="st0" d="M178.9,341c1,1,1.4,2.5,1.4,4.5v7.1c0,0.5-0.2,0.9-0.5,1.2c-0.3,0.3-0.7,0.4-1.3,0.4c-0.5,0-0.9-0.2-1.2-0.5
			c-0.3-0.3-0.5-0.7-0.5-1.2v-0.6c-0.3,0.8-0.8,1.3-1.6,1.8c-0.7,0.4-1.5,0.6-2.5,0.6c-0.9,0-1.8-0.2-2.6-0.6
			c-0.8-0.4-1.4-0.9-1.8-1.6c-0.4-0.7-0.7-1.4-0.7-2.3c0-1,0.3-1.9,0.8-2.5c0.5-0.6,1.4-1,2.6-1.3c1.2-0.3,2.9-0.4,5-0.4h0.7v-0.7
			c0-0.9-0.2-1.6-0.6-2.1c-0.4-0.4-1.1-0.7-2-0.7c-0.6,0-1.1,0.1-1.7,0.2s-1.3,0.4-2.1,0.7c-0.5,0.3-0.9,0.4-1.1,0.4
			c-0.3,0-0.6-0.1-0.9-0.4c-0.2-0.3-0.3-0.6-0.3-1c0-0.3,0.1-0.6,0.2-0.9c0.2-0.2,0.4-0.5,0.8-0.7c0.7-0.4,1.5-0.7,2.4-0.9
			c0.9-0.2,1.9-0.3,2.8-0.3C176.5,339.6,177.9,340.1,178.9,341z M176,350.8c0.6-0.6,0.9-1.5,0.9-2.5v-0.6h-0.5c-1.3,0-2.3,0.1-3,0.2
			c-0.7,0.1-1.2,0.3-1.5,0.6c-0.3,0.3-0.5,0.7-0.5,1.2c0,0.6,0.2,1.1,0.7,1.5c0.4,0.4,1,0.6,1.6,0.6
			C174.6,351.7,175.4,351.4,176,350.8z"/>
		<path class="st0" d="M196,341c0.8,1,1.2,2.4,1.2,4.4v7.1c0,0.5-0.2,1-0.5,1.3s-0.8,0.5-1.3,0.5c-0.6,0-1-0.2-1.3-0.5
			c-0.3-0.3-0.5-0.7-0.5-1.3v-6.9c0-1.1-0.2-1.9-0.6-2.4c-0.4-0.5-1.1-0.8-2-0.8c-1,0-1.9,0.3-2.5,1c-0.6,0.7-0.9,1.5-0.9,2.6v6.5
			c0,0.5-0.2,1-0.5,1.3c-0.3,0.3-0.8,0.5-1.3,0.5c-0.6,0-1-0.2-1.3-0.5c-0.3-0.3-0.5-0.7-0.5-1.3v-11.2c0-0.5,0.2-0.9,0.5-1.2
			c0.3-0.3,0.8-0.5,1.3-0.5c0.5,0,0.9,0.1,1.2,0.4c0.3,0.3,0.5,0.7,0.5,1.2v0.8c0.5-0.8,1.1-1.4,1.9-1.8c0.8-0.4,1.7-0.6,2.8-0.6
			C194,339.6,195.2,340.1,196,341z"/>
		<path class="st0" d="M209.8,352.9c0,0.5-0.2,0.8-0.6,1.1c-0.4,0.2-0.9,0.3-1.6,0.3l-0.8-0.1c-3.2-0.2-4.9-2-4.9-5.2v-6.3h-1.5
			c-0.5,0-0.9-0.1-1.2-0.3c-0.3-0.2-0.4-0.6-0.4-1c0-0.4,0.1-0.8,0.4-1c0.3-0.2,0.7-0.3,1.2-0.3h1.5v-2.7c0-0.5,0.2-0.9,0.5-1.2
			s0.8-0.5,1.3-0.5c0.5,0,1,0.2,1.3,0.5c0.3,0.3,0.5,0.7,0.5,1.2v2.7h2.5c0.5,0,0.9,0.1,1.2,0.3c0.3,0.2,0.4,0.6,0.4,1
			c0,0.4-0.1,0.8-0.4,1c-0.3,0.2-0.7,0.3-1.2,0.3h-2.5v6.6c0,1.4,0.7,2.2,2,2.3l0.8,0.1C209.3,351.6,209.8,352.1,209.8,352.9z"/>
		<path class="st0" d="M231,340.5c0.9,0.6,1.7,1.5,2.2,2.6c0.5,1.1,0.8,2.4,0.8,3.9c0,1.5-0.3,2.8-0.8,3.9c-0.5,1.1-1.3,2-2.2,2.6
			c-1,0.6-2,0.9-3.3,0.9c-1,0-1.9-0.2-2.7-0.7c-0.8-0.4-1.4-1.1-1.8-1.9v0.7c0,0.5-0.2,0.9-0.5,1.2c-0.3,0.3-0.8,0.5-1.3,0.5
			s-1-0.2-1.3-0.5c-0.3-0.3-0.5-0.7-0.5-1.2v-17.3c0-0.5,0.2-0.9,0.5-1.2c0.3-0.3,0.8-0.5,1.3-0.5c0.5,0,1,0.1,1.3,0.4
			s0.5,0.7,0.5,1.2v6.8c0.4-0.8,1-1.4,1.8-1.8c0.8-0.4,1.7-0.6,2.7-0.6C228.9,339.6,230,339.9,231,340.5z M229.4,350.3
			c0.6-0.8,1-2,1-3.4c0-1.5-0.3-2.6-0.9-3.3c-0.6-0.8-1.5-1.2-2.7-1.2c-1.2,0-2.1,0.4-2.7,1.2c-0.6,0.8-0.9,1.9-0.9,3.4
			c0,1.5,0.3,2.6,0.9,3.4c0.6,0.8,1.5,1.2,2.7,1.2C227.9,351.5,228.8,351.1,229.4,350.3z"/>
		<path class="st0" d="M247.2,339.9c0.3-0.2,0.5-0.2,0.9-0.2c0.4,0,0.8,0.2,1.2,0.5c0.4,0.3,0.5,0.7,0.5,1.1c0,0.2-0.1,0.4-0.2,0.7
			l-7.9,16.6c-0.3,0.7-0.8,1-1.5,1c-0.4,0-0.8-0.1-1.2-0.4s-0.5-0.6-0.5-1.1c0-0.2,0.1-0.5,0.2-0.7l2-4.1l-5.4-11.2
			c-0.1-0.2-0.1-0.4-0.1-0.7c0-0.4,0.2-0.8,0.6-1.1s0.8-0.5,1.3-0.5c0.3,0,0.6,0.1,0.9,0.2c0.3,0.2,0.5,0.4,0.6,0.8l4.1,9l4-8.9
			C246.8,340.3,247,340.1,247.2,339.9z"/>
		<path class="st0" d="M260.7,353.8c-0.3-0.3-0.5-0.8-0.5-1.4v-17c0-0.6,0.2-1,0.5-1.3c0.3-0.3,0.8-0.5,1.3-0.5h7.1
			c2.2,0,3.9,0.5,5.1,1.6c1.2,1.1,1.8,2.6,1.8,4.6s-0.6,3.5-1.8,4.6c-1.2,1.1-2.9,1.7-5.1,1.7h-5.2v6.2c0,0.6-0.2,1-0.5,1.4
			c-0.3,0.3-0.8,0.5-1.4,0.5C261.5,354.3,261,354.1,260.7,353.8z M268.6,343.3c2.6,0,3.9-1.1,3.9-3.4c0-2.2-1.3-3.4-3.9-3.4h-4.7
			v6.7H268.6z"/>
		<path class="st0" d="M281.1,353.4c-1.1-0.6-1.9-1.5-2.5-2.6s-0.9-2.4-0.9-3.9c0-1.5,0.3-2.8,0.9-3.9c0.6-1.1,1.4-2,2.5-2.6
			c1.1-0.6,2.4-0.9,3.8-0.9c1.4,0,2.7,0.3,3.8,0.9c1.1,0.6,1.9,1.5,2.5,2.6c0.6,1.1,0.9,2.4,0.9,3.9c0,1.5-0.3,2.8-0.9,3.9
			s-1.4,2-2.5,2.6c-1.1,0.6-2.4,0.9-3.8,0.9C283.5,354.3,282.2,354,281.1,353.4z M287.6,350.4c0.6-0.8,0.9-1.9,0.9-3.4
			c0-1.5-0.3-2.6-0.9-3.4c-0.6-0.8-1.5-1.2-2.7-1.2s-2.1,0.4-2.7,1.2c-0.6,0.8-0.9,1.9-0.9,3.4c0,1.5,0.3,2.6,0.9,3.4
			c0.6,0.8,1.5,1.2,2.7,1.2C286.1,351.5,287,351.1,287.6,350.4z"/>
		<path class="st0" d="M295.6,353.8c-0.3-0.3-0.5-0.7-0.5-1.3v-17.3c0-0.6,0.2-1,0.5-1.3s0.8-0.4,1.3-0.4c0.5,0,1,0.1,1.3,0.4
			s0.5,0.7,0.5,1.3v17.3c0,0.6-0.2,1-0.5,1.3s-0.8,0.4-1.3,0.4C296.4,354.3,296,354.1,295.6,353.8z"/>
		<path class="st0" d="M313,339.9c0.3-0.2,0.5-0.2,0.9-0.2c0.4,0,0.8,0.2,1.2,0.5c0.4,0.3,0.5,0.7,0.5,1.1c0,0.2-0.1,0.4-0.2,0.7
			l-7.9,16.6c-0.3,0.7-0.8,1-1.5,1c-0.4,0-0.8-0.1-1.2-0.4s-0.5-0.6-0.5-1.1c0-0.2,0.1-0.5,0.2-0.7l2-4.1l-5.4-11.2
			c-0.1-0.2-0.1-0.4-0.1-0.7c0-0.4,0.2-0.8,0.6-1.1s0.8-0.5,1.3-0.5c0.3,0,0.6,0.1,0.9,0.2c0.3,0.2,0.5,0.4,0.6,0.8l4.1,9l4-8.9
			C312.5,340.3,312.8,340.1,313,339.9z"/>
		<path class="st0" d="M335.4,334c0.3,0.3,0.5,0.8,0.5,1.3v17c0,0.6-0.2,1-0.5,1.4c-0.3,0.3-0.8,0.5-1.3,0.5c-0.6,0-1-0.2-1.3-0.5
			c-0.3-0.3-0.5-0.8-0.5-1.4v-7.2h-10.5v7.2c0,0.6-0.2,1-0.5,1.4c-0.3,0.3-0.8,0.5-1.3,0.5c-0.5,0-1-0.2-1.3-0.5
			c-0.3-0.3-0.5-0.8-0.5-1.4v-17c0-0.6,0.2-1,0.5-1.3c0.3-0.3,0.8-0.5,1.3-0.5s1,0.2,1.3,0.5c0.3,0.3,0.5,0.8,0.5,1.3v6.8h10.5v-6.8
			c0-0.6,0.2-1,0.5-1.3c0.3-0.3,0.8-0.5,1.3-0.5S335.1,333.7,335.4,334z"/>
		<path class="st0" d="M359.8,334c0.3,0.3,0.5,0.8,0.5,1.3v17.2c0,0.5-0.2,1-0.5,1.3s-0.7,0.5-1.2,0.5s-0.9-0.2-1.2-0.5
			s-0.4-0.7-0.4-1.3v-11.9l-4.9,9.3c-0.2,0.4-0.5,0.7-0.8,0.9c-0.3,0.2-0.6,0.3-1,0.3c-0.4,0-0.7-0.1-1-0.3c-0.3-0.2-0.5-0.5-0.8-1
			l-5-9.2v11.8c0,0.5-0.2,0.9-0.5,1.3c-0.3,0.3-0.7,0.5-1.2,0.5s-0.9-0.2-1.2-0.5c-0.3-0.3-0.4-0.7-0.4-1.3v-17.2
			c0-0.6,0.2-1,0.5-1.3c0.3-0.3,0.7-0.5,1.3-0.5c0.8,0,1.3,0.4,1.8,1.2l6.4,12.3l6.4-12.3c0.4-0.8,1-1.2,1.7-1.2
			C359,333.5,359.4,333.7,359.8,334z"/>
		<path class="st0" d="M381.3,343.5c0.3,0.3,0.4,0.6,0.4,1v6.2c0,0.9-0.1,1.5-0.3,1.9c-0.2,0.4-0.7,0.7-1.4,0.9
			c-0.8,0.3-1.7,0.5-2.7,0.6c-1,0.2-2,0.2-3,0.2c-2.1,0-3.9-0.4-5.5-1.2c-1.5-0.8-2.7-2-3.6-3.6c-0.8-1.6-1.2-3.5-1.2-5.6
			c0-2.1,0.4-4,1.2-5.6c0.8-1.6,2-2.8,3.5-3.6s3.3-1.3,5.3-1.3c2.7,0,5,0.7,6.7,2.2c0.2,0.2,0.4,0.4,0.5,0.6
			c0.1,0.2,0.2,0.5,0.2,0.8c0,0.4-0.1,0.8-0.3,1.1s-0.5,0.4-0.8,0.4c-0.2,0-0.4,0-0.6-0.1c-0.2-0.1-0.4-0.2-0.6-0.3
			c-0.9-0.6-1.6-1-2.4-1.3c-0.7-0.2-1.6-0.4-2.5-0.4c-2.1,0-3.7,0.6-4.8,1.9c-1.1,1.2-1.6,3.1-1.6,5.6c0,5,2.2,7.5,6.6,7.5
			c1.3,0,2.6-0.2,3.9-0.6v-5.1h-3.3c-0.5,0-0.8-0.1-1.1-0.3c-0.3-0.2-0.4-0.6-0.4-1c0-0.4,0.1-0.8,0.4-1c0.3-0.2,0.6-0.3,1.1-0.3
			h5.1C380.7,343.1,381.1,343.2,381.3,343.5z"/>
	</g>
	<g>
		<path class="st1" d="M314.8,141.4H158.2v5h156.6c2.2,0,4,1.8,4,4V183c0,2.2-1.8,4-4,4H158.2v5h156.6c5,0,9-4,9-9v-32.6
			C323.8,145.5,319.8,141.4,314.8,141.4z"/>
		<path class="st0" d="M127.7,187h-10.6c-2.2,0-4-1.8-4-4v-32.6c0-2.2,1.8-4,4-4h10.6v-5h-10.6c-5,0-9,4-9,9V183c0,5,4,9,9,9h10.6
			V187z"/>
	</g>
</g>
</svg>
