<?xml version="1.0" encoding="iso-8859-1"?>
<!-- Generator: Adobe Illustrator 21.0.0, SVG Export Plug-In . SVG Version: 6.00 Build 0)  -->
<svg version="1.1" xmlns="http://www.w3.org/2000/svg" xmlns:xlink="http://www.w3.org/1999/xlink" x="0px" y="0px"
	 viewBox="0 0 44 44" style="enable-background:new 0 0 44 44;" xml:space="preserve">
<g id="home">
</g>
<g id="buy">
</g>
<g id="search">
</g>
<g id="home_x5F_sale">
</g>
<g id="mortgage">
</g>
<g id="building">
</g>
<g id="contract">
</g>
<g id="home_x5F_key">
</g>
<g id="ruler">
</g>
<g id="trowel">
</g>
<g id="truck">
</g>
<g id="wheelbarrow">
</g>
<g id="cone">
</g>
<g id="barrier">
	<g>
		<path d="M11.447,39.658C10.936,38.636,9.907,38,8.764,38H7v-4c0-0.553-0.447-1-1-1s-1,0.447-1,1v4H3.237
			c-1.144,0-2.172,0.636-2.684,1.658l-0.447,0.895c-0.247,0.494-0.047,1.095,0.447,1.342c0.495,0.246,1.094,0.047,1.342-0.447
			l0.447-0.895C2.512,40.212,2.855,40,3.237,40h5.527c0.382,0,0.725,0.212,0.895,0.553l0.447,0.895
			C10.281,41.798,10.634,42,11.001,42c0.15,0,0.303-0.034,0.446-0.105c0.494-0.247,0.694-0.848,0.447-1.342L11.447,39.658z"/>
		<path d="M38,23c0.553,0,1-0.447,1-1v-3h4c0.553,0,1-0.447,1-1v-8c0-0.553-0.447-1-1-1h-4V7.816C40.161,7.402,41,6.302,41,5
			c0-1.654-1.346-3-3-3c-1.654,0-3,1.346-3,3c0,1.302,0.838,2.402,2,2.816V9H7V7.816C8.162,7.402,9,6.302,9,5c0-1.654-1.346-3-3-3
			S3,3.346,3,5c0,1.302,0.838,2.402,2,2.816V9H1c-0.553,0-1,0.447-1,1v8c0,0.553,0.447,1,1,1h1c0.266,0,0.52-0.105,0.707-0.293
			L10.414,11h5.172l-6,6H6c-0.553,0-1,0.447-1,1v3H1c-0.553,0-1,0.447-1,1v8c0,0.553,0.447,1,1,1H34c0.266,0,0.52-0.105,0.707-0.293
			L42,23.414V29h-4c-0.553,0-1,0.447-1,1v8h-1.764c-1.144,0-2.172,0.636-2.684,1.658l-0.447,0.895
			c-0.247,0.494-0.047,1.095,0.447,1.342c0.494,0.246,1.095,0.047,1.342-0.447l0.447-0.895C34.512,40.212,34.854,40,35.236,40h5.527
			c0.382,0,0.725,0.212,0.895,0.553l0.447,0.895C42.281,41.798,42.633,42,43.001,42c0.15,0,0.303-0.034,0.446-0.105
			c0.494-0.247,0.694-0.848,0.447-1.342l-0.447-0.895C42.935,38.636,41.907,38,40.763,38H39v-7h4c0.553,0,1-0.447,1-1v-8
			c0-0.553-0.447-1-1-1h-1c-0.266,0-0.52,0.105-0.707,0.293L33.586,29h-5.172l6-6H38z M38,4c0.552,0,1,0.448,1,1s-0.448,1-1,1
			c-0.552,0-1-0.448-1-1S37.448,4,38,4z M6,4c0.552,0,1,0.448,1,1S6.552,6,6,6S5,5.552,5,5S5.449,4,6,4z M2,16.586V11h5.586
			L2,16.586z M20.414,17l6-6h5.172l-6,6H20.414z M34.414,11h5.172l-6,6h-5.172L34.414,11z M18.414,11h5.172l-6,6h-5.172L18.414,11z
			 M7,19h27c0.266,0,0.52-0.105,0.707-0.293L42,11.414V17h-4c-0.553,0-1,0.447-1,1v3H7V19z M12.414,29l6-6h5.172l-6,6H12.414z
			 M4.414,29l6-6h5.172l-6,6H4.414z M7.586,23L2,28.586V23H7.586z M25.586,29h-5.172l6-6h5.172L25.586,29z"/>
	</g>
</g>
<g id="bulldozer">
</g>
<g id="floor_x5F_plan">
</g>
<g id="crane">
</g>
<g id="demolition_x5F_crane">
</g>
<g id="crane_x5F_hook">
</g>
<g id="roller">
</g>
</svg>
