<?xml version="1.0" encoding="iso-8859-1"?>
<!-- Generator: Adobe Illustrator 21.0.0, SVG Export Plug-In . SVG Version: 6.00 Build 0)  -->
<svg version="1.1" xmlns="http://www.w3.org/2000/svg" xmlns:xlink="http://www.w3.org/1999/xlink" x="0px" y="0px"
	 viewBox="0 0 44 44" style="enable-background:new 0 0 44 44;" xml:space="preserve">
<g id="home">
</g>
<g id="buy">
</g>
<g id="search">
</g>
<g id="home_x5F_sale">
</g>
<g id="mortgage">
</g>
<g id="building">
	<g>
		<path d="M9,9c-0.552,0-1,0.448-1,1v10c0,0.552,0.448,1,1,1h6c0.552,0,1-0.448,1-1V10c0-0.552-0.448-1-1-1H9z M10,11h4v3h-4V11z
			 M10,19v-3h4v3H10z"/>
		<path d="M26,20V10c0-0.552-0.448-1-1-1h-6c-0.552,0-1,0.448-1,1v10c0,0.552,0.448,1,1,1h6C25.552,21,26,20.552,26,20z M20,11h4v3
			h-4V11z M20,19v-3h4v3H20z"/>
		<path d="M35,21c0.552,0,1-0.448,1-1V10c0-0.552-0.448-1-1-1h-6c-0.552,0-1,0.448-1,1v10c0,0.552,0.448,1,1,1H35z M30,19v-3h4v3H30
			z M30,11h4v3h-4V11z"/>
		<path d="M41,0H3C2.448,0,2,0.448,2,1v4c0,0.552,0.448,1,1,1h1v37c0,0.552,0.448,1,1,1h34c0.552,0,1-0.448,1-1V9
			c0-0.552-0.448-1-1-1s-1,0.448-1,1v33H19V28c0.552,0,1-0.448,1-1s-0.448-1-1-1h-1H9H8c-0.552,0-1,0.448-1,1s0.448,1,1,1v14H6V5
			c0-0.552-0.448-1-1-1H4V2h36v2H9C8.447,4,8,4.448,8,5s0.448,1,1,1h32c0.552,0,1-0.448,1-1V1C42,0.448,41.552,0,41,0z M10,28h7v6
			h-1c-0.552,0-1,0.448-1,1s0.448,1,1,1h1v6h-7V28z"/>
		<path d="M22,38h1h12h1c0.552,0,1-0.448,1-1s-0.448-1-1-1v-9c0-0.552-0.448-1-1-1H23c-0.552,0-1,0.448-1,1v9c-0.552,0-1,0.448-1,1
			S21.448,38,22,38z M34,28v8h-4v-8H34z M24,28h4v8h-4V28z"/>
	</g>
</g>
<g id="contract">
</g>
<g id="home_x5F_key">
</g>
<g id="ruler">
</g>
<g id="trowel">
</g>
<g id="truck">
</g>
<g id="wheelbarrow">
</g>
<g id="cone">
</g>
<g id="barrier">
</g>
<g id="bulldozer">
</g>
<g id="floor_x5F_plan">
</g>
<g id="crane">
</g>
<g id="demolition_x5F_crane">
</g>
<g id="crane_x5F_hook">
</g>
<g id="roller">
</g>
</svg>
