<?xml version="1.0" encoding="iso-8859-1"?>
<!-- Generator: Adobe Illustrator 21.0.0, SVG Export Plug-In . SVG Version: 6.00 Build 0)  -->
<svg version="1.1" xmlns="http://www.w3.org/2000/svg" xmlns:xlink="http://www.w3.org/1999/xlink" x="0px" y="0px"
	 viewBox="0 0 44 44" style="enable-background:new 0 0 44 44;" xml:space="preserve">
<g id="home">
</g>
<g id="buy">
</g>
<g id="search">
</g>
<g id="home_x5F_sale">
</g>
<g id="mortgage">
</g>
<g id="building">
</g>
<g id="contract">
</g>
<g id="home_x5F_key">
</g>
<g id="ruler">
</g>
<g id="trowel">
</g>
<g id="truck">
</g>
<g id="wheelbarrow">
</g>
<g id="cone">
</g>
<g id="barrier">
</g>
<g id="bulldozer">
	<g>
		<circle cx="26" cy="31" r="1"/>
		<circle cx="22" cy="31" r="1"/>
		<circle cx="18" cy="31" r="1"/>
		<circle cx="14" cy="31" r="1"/>
		<circle cx="10" cy="31" r="1"/>
		<circle cx="6" cy="31" r="1"/>
		<path d="M1.725,23.962C1.817,23.987,1.91,24,2,24c0.435,0,0.835-0.286,0.961-0.726L4.754,17h4.01c0.381,0,0.724,0.212,0.894,0.553
			l1.447,2.895C11.275,20.786,11.621,21,12,21h5c0.552,0,1-0.447,1-1V10c0-1.654-1.346-3-3-3H9c-1.654,0-3,1.346-3,3v2
			c0,0.553,0.448,1,1,1s1-0.447,1-1v-2c0-0.552,0.449-1,1-1h6c0.551,0,1,0.448,1,1v9h-3.382l-1.171-2.342
			C10.936,15.636,9.908,15,8.764,15H4c-0.446,0-0.839,0.296-0.961,0.726l-2,7C0.887,23.256,1.194,23.81,1.725,23.962z"/>
		<path d="M43.949,36.252c0.018-0.068,0.038-0.133,0.041-0.205C43.991,36.031,44,36.017,44,36c0-0.052-0.022-0.098-0.03-0.148
			c-0.008-0.05,0-0.1-0.016-0.15L39.85,22.564C39.183,20.433,37.234,19,35,19c-0.552,0-1,0.447-1,1v1h-4v-5c0-0.553-0.448-1-1-1h-8
			c-0.552,0-1,0.447-1,1s0.448,1,1,1h7v10h0.021c0,0.304,0.12,0.604,0.381,0.801C29.417,28.565,30,29.731,30,31c0,2.206-1.794,4-4,4
			H6c-2.206,0-4-1.794-4-4s1.794-4,4-4h19c0.552,0,1-0.447,1-1s-0.448-1-1-1H6c-3.309,0-6,2.691-6,6s2.691,6,6,6h20
			c3.309,0,6-2.691,6-6c0-1.506-0.554-2.909-1.537-4H35c0.552,0,1-0.447,1-1v-4.835c0.911,0.31,1.64,1.036,1.94,1.996L41.64,35H41
			c-1.565,0-3.061-0.748-4-2.001c-0.645-0.858-1-1.924-1-2.999c0-0.553-0.448-1-1-1s-1,0.447-1,1c0,1.506,0.498,2.997,1.4,4.199
			C36.715,35.953,38.809,37,41,37h2c0.001,0,0.001,0,0.002,0c0.098,0,0.198-0.015,0.297-0.046c0.016-0.005,0.026-0.017,0.041-0.023
			c0.068-0.025,0.126-0.064,0.187-0.102c0.051-0.032,0.103-0.059,0.146-0.099c0.048-0.044,0.082-0.098,0.12-0.15
			c0.037-0.051,0.078-0.098,0.105-0.155C43.923,36.371,43.933,36.311,43.949,36.252z M34,23v2h-4v-2H34z"/>
		<path d="M26,18h-5c-0.552,0-1,0.447-1,1s0.448,1,1,1h5c0.552,0,1-0.447,1-1S26.552,18,26,18z"/>
	</g>
</g>
<g id="floor_x5F_plan">
</g>
<g id="crane">
</g>
<g id="demolition_x5F_crane">
</g>
<g id="crane_x5F_hook">
</g>
<g id="roller">
</g>
</svg>
