<?xml version="1.0" encoding="iso-8859-1"?>
<!-- Generator: Adobe Illustrator 21.0.0, SVG Export Plug-In . SVG Version: 6.00 Build 0)  -->
<svg version="1.1" xmlns="http://www.w3.org/2000/svg" xmlns:xlink="http://www.w3.org/1999/xlink" x="0px" y="0px"
	 viewBox="0 0 44 44" style="enable-background:new 0 0 44 44;" xml:space="preserve">
<g id="home">
</g>
<g id="buy">
</g>
<g id="search">
</g>
<g id="home_x5F_sale">
</g>
<g id="mortgage">
</g>
<g id="building">
</g>
<g id="contract">
</g>
<g id="home_x5F_key">
</g>
<g id="ruler">
</g>
<g id="trowel">
</g>
<g id="truck">
</g>
<g id="wheelbarrow">
</g>
<g id="cone">
	<g>
		<path d="M11.903,27.967C11.988,27.989,12.074,28,12.158,28c0.443,0,0.849-0.297,0.966-0.745L15.56,18H25c0.553,0,1-0.447,1-1
			s-0.447-1-1-1h-8.914l3.488-13.254C19.69,2.307,20.088,2,20.542,2h2.916c0.454,0,0.852,0.307,0.967,0.746l1.187,4.509
			c0.141,0.534,0.688,0.852,1.222,0.712c0.534-0.141,0.853-0.688,0.712-1.222l-1.187-4.509C26.013,0.92,24.82,0,23.458,0h-2.916
			c-1.362,0-2.555,0.92-2.902,2.236l-6.449,24.509C11.05,27.279,11.369,27.826,11.903,27.967z"/>
		<path d="M39,38H13c-0.552,0-1,0.447-1,1s0.448,1,1,1h26c0.552,0,1,0.448,1,1v1H4v-1c0-0.552,0.449-1,1-1h4
			c0.454,0,0.852-0.307,0.967-0.745L11.876,32H29c0.553,0,1-0.447,1-1s-0.447-1-1-1H11.105c-0.454,0-0.852,0.307-0.967,0.745
			L8.229,38H5c-1.654,0-3,1.346-3,3v2c0,0.553,0.448,1,1,1h38c0.553,0,1-0.447,1-1v-2C42,39.346,40.654,38,39,38z"/>
		<path d="M19,11c0,0.553,0.448,1,1,1h6.861l3.158,12H17c-0.552,0-1,0.447-1,1s0.448,1,1,1h13.545l2.435,9.255
			C33.099,35.703,33.503,36,33.946,36c0.085,0,0.17-0.011,0.256-0.033c0.534-0.141,0.853-0.688,0.712-1.222l-6.315-24
			C28.483,10.307,28.086,10,27.632,10H20C19.448,10,19,10.447,19,11z"/>
	</g>
</g>
<g id="barrier">
</g>
<g id="bulldozer">
</g>
<g id="floor_x5F_plan">
</g>
<g id="crane">
</g>
<g id="demolition_x5F_crane">
</g>
<g id="crane_x5F_hook">
</g>
<g id="roller">
</g>
</svg>
