<?xml version="1.0" encoding="iso-8859-1"?>
<!-- Generator: Adobe Illustrator 21.0.0, SVG Export Plug-In . SVG Version: 6.00 Build 0)  -->
<svg version="1.1" xmlns="http://www.w3.org/2000/svg" xmlns:xlink="http://www.w3.org/1999/xlink" x="0px" y="0px"
	 viewBox="0 0 44 44" style="enable-background:new 0 0 44 44;" xml:space="preserve">
<g id="home">
</g>
<g id="buy">
</g>
<g id="search">
</g>
<g id="home_x5F_sale">
</g>
<g id="mortgage">
</g>
<g id="building">
</g>
<g id="contract">
	<g>
		<path d="M22.64,10.232c-0.371-0.31-0.909-0.31-1.28,0l-6,5c-0.323,0.27-0.443,0.712-0.3,1.108C15.203,16.736,15.579,17,16,17v5
			c0,0.552,0.448,1,1,1h10c0.552,0,1-0.448,1-1v-5c0.421,0,0.797-0.264,0.94-0.66c0.143-0.396,0.023-0.839-0.3-1.108L22.64,10.232z
			 M21,21v-3h2v3H21z M26,16v5h-1v-4c0-0.552-0.448-1-1-1h-4c-0.552,0-1,0.448-1,1v4h-1v-5c0-0.112-0.019-0.22-0.053-0.321
			L22,12.302l4.053,3.377C26.019,15.78,26,15.888,26,16z"/>
		<path d="M26,27c0-0.552-0.448-1-1-1H11c-0.552,0-1,0.448-1,1s0.448,1,1,1h14C25.552,28,26,27.552,26,27z"/>
		<path d="M11,30c-0.552,0-1,0.448-1,1s0.448,1,1,1h9c0.552,0,1-0.448,1-1s-0.448-1-1-1H11z"/>
		<path d="M33,26h-4c-0.552,0-1,0.448-1,1s0.448,1,1,1h4c0.552,0,1-0.448,1-1S33.552,26,33,26z"/>
		<path d="M25.707,38.707l0.586-0.586c0.39-0.39,1.024-0.39,1.414,0l1,1C29.273,39.688,30.027,40,30.829,40H33c0.552,0,1-0.448,1-1
			s-0.448-1-1-1h-2.171c-0.267,0-0.519-0.104-0.708-0.293l-1-1c-1.17-1.17-3.072-1.17-4.242,0l-0.586,0.586
			c-0.391,0.391-0.391,1.023,0,1.414S25.316,39.098,25.707,38.707z"/>
		<path d="M24,32h3c0.552,0,1-0.448,1-1s-0.448-1-1-1h-3c-0.552,0-1,0.448-1,1S23.448,32,24,32z"/>
		<path d="M38,10h-7c-0.551,0-1-0.449-1-1V5c0-0.552-0.448-1-1-1s-1,0.448-1,1v4c0,1.654,1.346,3,3,3h6v29c0,0.551-0.449,1-1,1H8
			c-0.551,0-1-0.449-1-1V3c0-0.551,0.449-1,1-1h21.624l7.717,6.752c0.417,0.364,1.048,0.322,1.411-0.094
			c0.364-0.416,0.322-1.047-0.094-1.411l-8-7C30.476,0.088,30.242,0,30,0H8C6.346,0,5,1.346,5,3v38c0,1.654,1.346,3,3,3h28
			c1.654,0,3-1.346,3-3V11C39,10.448,38.552,10,38,10z"/>
	</g>
</g>
<g id="home_x5F_key">
</g>
<g id="ruler">
</g>
<g id="trowel">
</g>
<g id="truck">
</g>
<g id="wheelbarrow">
</g>
<g id="cone">
</g>
<g id="barrier">
</g>
<g id="bulldozer">
</g>
<g id="floor_x5F_plan">
</g>
<g id="crane">
</g>
<g id="demolition_x5F_crane">
</g>
<g id="crane_x5F_hook">
</g>
<g id="roller">
</g>
</svg>
