<?xml version="1.0" encoding="iso-8859-1"?>
<!-- Generator: Adobe Illustrator 21.0.0, SVG Export Plug-In . SVG Version: 6.00 Build 0)  -->
<svg version="1.1" xmlns="http://www.w3.org/2000/svg" xmlns:xlink="http://www.w3.org/1999/xlink" x="0px" y="0px"
	 viewBox="0 0 44 44" style="enable-background:new 0 0 44 44;" xml:space="preserve">
<g id="home">
</g>
<g id="buy">
</g>
<g id="search">
</g>
<g id="home_x5F_sale">
</g>
<g id="mortgage">
</g>
<g id="building">
</g>
<g id="contract">
</g>
<g id="home_x5F_key">
</g>
<g id="ruler">
</g>
<g id="trowel">
</g>
<g id="truck">
</g>
<g id="wheelbarrow">
</g>
<g id="cone">
</g>
<g id="barrier">
</g>
<g id="bulldozer">
</g>
<g id="floor_x5F_plan">
</g>
<g id="crane">
	<g>
		<path d="M20,42H6c-0.552,0-1,0.447-1,1c0,0.553,0.448,1,1,1h14c0.552,0,1-0.447,1-1C21,42.447,20.552,42,20,42z"/>
		<path d="M43,27.001c-0.552,0-1,0.447-1,1c0,1.103-0.897,2-2,2s-2-0.897-2-2c0-1.103,0.897-2,2-2c0.552,0,1-0.447,1-1v-6
			c0.552,0,1-0.447,1-1h1c0.393,0,0.749-0.229,0.911-0.587c0.162-0.357,0.1-0.776-0.158-1.071l-7-8
			C36.562,8.125,36.289,8.001,36,8.001H17.414L9.707,0.294C9.42,0.007,8.991-0.08,8.617,0.077C8.244,0.232,8,0.597,8,1.001v7H1
			c-0.552,0-1,0.447-1,1v8c0,0.13,0.027,0.26,0.077,0.382c0.101,0.245,0.296,0.44,0.541,0.541C0.74,17.974,0.87,18.001,1,18.001h7
			V40c0,0.553,0.448,1,1,1h1c0.265,0,0.52-0.105,0.707-0.293L16,35.414V40c0,0.553,0.448,1,1,1s1-0.447,1-1V18.001h20
			c0,0.553,0.448,1,1,1v5.127c-1.723,0.444-3,2.013-3,3.873c0,2.206,1.794,4,4,4s4-1.794,4-4C44,27.448,43.552,27.001,43,27.001z
			 M36.997,11.659c-0.07,0.042-0.144,0.075-0.204,0.135L34,14.587v-4.586h1.546L36.997,11.659z M16,32h-4.586L16,27.415V32z
			 M18,10.001h4.586L18,14.587V10.001z M16,16.001h-4.586L16,11.415V16.001z M10,14.587v-4.586h4.586L10,14.587z M8,16.001H3.414
			L8,11.415V16.001z M14.586,18.001L10,22.587v-4.586H14.586z M10,26.001h4.586L10,30.586V26.001z M16,24.001h-4.586L16,19.415
			V24.001z M24,11.415v4.586h-4.586L24,11.415z M26,10.001h4.586L26,14.587V10.001z M32,11.415v4.586h-4.586L32,11.415z
			 M14.586,8.001H10V3.415L14.586,8.001z M6.586,10.001L2,14.587v-4.586H6.586z M10,38.586V34h4.586L10,38.586z M35.414,16.001
			l2.793-2.793c0.028-0.028,0.039-0.064,0.063-0.095l2.527,2.887H35.414z"/>
		<path d="M1,22.001h4c0.552,0,1-0.447,1-1c0-0.553-0.448-1-1-1H1c-0.552,0-1,0.447-1,1C0,21.553,0.448,22.001,1,22.001z"/>
		<path d="M6,25.001c0-0.553-0.448-1-1-1H1c-0.552,0-1,0.447-1,1c0,0.553,0.448,1,1,1h4C5.552,26.001,6,25.553,6,25.001z"/>
	</g>
</g>
<g id="demolition_x5F_crane">
</g>
<g id="crane_x5F_hook">
</g>
<g id="roller">
</g>
</svg>
