<?xml version="1.0" encoding="iso-8859-1"?>
<!-- Generator: Adobe Illustrator 21.0.0, SVG Export Plug-In . SVG Version: 6.00 Build 0)  -->
<svg version="1.1" xmlns="http://www.w3.org/2000/svg" xmlns:xlink="http://www.w3.org/1999/xlink" x="0px" y="0px"
	 viewBox="0 0 44 44" style="enable-background:new 0 0 44 44;" xml:space="preserve">
<g id="home">
</g>
<g id="buy">
</g>
<g id="search">
</g>
<g id="home_x5F_sale">
</g>
<g id="mortgage">
</g>
<g id="building">
</g>
<g id="contract">
</g>
<g id="home_x5F_key">
</g>
<g id="ruler">
</g>
<g id="trowel">
</g>
<g id="truck">
</g>
<g id="wheelbarrow">
</g>
<g id="cone">
</g>
<g id="barrier">
</g>
<g id="bulldozer">
</g>
<g id="floor_x5F_plan">
</g>
<g id="crane">
</g>
<g id="demolition_x5F_crane">
</g>
<g id="crane_x5F_hook">
	<g>
		<path d="M26.512,32.385C25.551,31.632,25,30.582,25,29.506V28c0-0.552-0.447-1-1-1s-1,0.448-1,1v1.506
			c0,1.695,0.83,3.318,2.277,4.454c1.197,0.938,1.835,2.41,1.706,3.937c-0.175,2.062-1.849,3.81-3.894,4.066
			c-0.54,0.068-1.076,0.042-1.587-0.073c1.692-0.375,3.055-1.756,3.401-3.458c0.303-1.484-0.143-3.01-1.188-4.078
			c-0.099-0.102-0.213-0.195-0.348-0.287C21.885,33.062,21,31.162,21,28.986V28c0-0.552-0.447-1-1-1s-1,0.448-1,1v0.986
			c0,2.841,1.213,5.359,3.285,6.766c0.592,0.604,0.832,1.436,0.66,2.282c-0.19,0.934-0.976,1.72-1.909,1.912
			c-0.722,0.146-1.435-0.004-2.011-0.428c-0.571-0.419-0.939-1.061-1.011-1.759c-0.056-0.541-0.537-0.941-1.077-0.895
			c-0.543,0.045-0.95,0.516-0.916,1.06c0.112,1.778,0.965,3.45,2.34,4.588C19.537,43.485,20.98,44,22.494,44
			c0.279,0,0.562-0.018,0.846-0.053c3.009-0.378,5.379-2.852,5.636-5.882C29.162,35.864,28.24,33.74,26.512,32.385z"/>
		<path d="M31,0c-0.553,0-1,0.448-1,1v9.839l-1.596-4.787C27.995,4.824,26.852,4,25.559,4h-7.117c-1.293,0-2.437,0.824-2.846,2.051
			L14,10.837V1c0-0.552-0.447-1-1-1s-1,0.448-1,1v16.655c0,1.082,0.357,2.155,1.007,3.021L14.6,22.8c0.563,0.751,1.46,1.2,2.4,1.2
			c0,0.552,0.447,1,1,1h8c0.553,0,1-0.448,1-1c0.94,0,1.837-0.449,2.399-1.2l1.593-2.124C31.642,19.811,32,18.738,32,17.655V1
			C32,0.448,31.553,0,31,0z M29.393,19.476L27.799,21.6C27.612,21.85,27.313,22,27,22H17c-0.313,0-0.612-0.149-0.8-0.4l-1.593-2.124
			C14.216,18.954,14,18.307,14,17.655c0-0.326,0.053-0.649,0.155-0.959l3.337-10.011C17.629,6.275,18.011,6,18.441,6h7.117
			c0.431,0,0.812,0.275,0.949,0.684l3.336,10.01C29.947,17.006,30,17.329,30,17.655C30,18.307,29.784,18.954,29.393,19.476z"/>
		<path d="M25.707,10.293c-0.391-0.391-1.023-0.391-1.414,0l-8,8c-0.391,0.391-0.391,1.023,0,1.414C16.488,19.902,16.744,20,17,20
			s0.512-0.098,0.707-0.293l8-8C26.098,11.316,26.098,10.683,25.707,10.293z"/>
		<path d="M25.293,15.293l-4,4c-0.391,0.391-0.391,1.023,0,1.414C21.488,20.902,21.744,21,22,21s0.512-0.098,0.707-0.293l4-4
			c0.391-0.391,0.391-1.023,0-1.414S25.684,14.902,25.293,15.293z"/>
		<path d="M18,13c0.256,0,0.512-0.098,0.707-0.293l4-4c0.391-0.391,0.391-1.023,0-1.414s-1.023-0.391-1.414,0l-4,4
			c-0.391,0.391-0.391,1.023,0,1.414C17.488,12.902,17.744,13,18,13z"/>
	</g>
</g>
<g id="roller">
</g>
</svg>
