<?xml version="1.0" encoding="iso-8859-1"?>
<!-- Generator: Adobe Illustrator 21.0.0, SVG Export Plug-In . SVG Version: 6.00 Build 0)  -->
<svg version="1.1" xmlns="http://www.w3.org/2000/svg" xmlns:xlink="http://www.w3.org/1999/xlink" x="0px" y="0px"
	 viewBox="0 0 44 44" style="enable-background:new 0 0 44 44;" xml:space="preserve">
<g id="home">
</g>
<g id="buy">
</g>
<g id="search">
</g>
<g id="home_x5F_sale">
</g>
<g id="mortgage">
</g>
<g id="building">
</g>
<g id="contract">
</g>
<g id="home_x5F_key">
</g>
<g id="ruler">
</g>
<g id="trowel">
</g>
<g id="truck">
</g>
<g id="wheelbarrow">
</g>
<g id="cone">
</g>
<g id="barrier">
</g>
<g id="bulldozer">
</g>
<g id="floor_x5F_plan">
</g>
<g id="crane">
</g>
<g id="demolition_x5F_crane">
	<g>
		<circle cx="22" cy="36" r="1"/>
		<circle cx="18" cy="36" r="1"/>
		<circle cx="14" cy="36" r="1"/>
		<circle cx="10" cy="36" r="1"/>
		<circle cx="6" cy="36" r="1"/>
		<path d="M39.98,22.099C39.984,22.065,40,22.035,40,22V3c0-0.552-0.447-1-1-1h-6c-0.553,0-1,0.448-1,1s0.447,1,1,1h0.39
			l-11.904,7.143c-0.474,0.284-0.627,0.898-0.343,1.372C21.33,12.827,21.661,13,22.001,13c0.175,0,0.353-0.046,0.514-0.143
			L34.38,5.738l-8.551,15.785c-0.264,0.486-0.083,1.093,0.402,1.355C26.383,22.961,26.546,23,26.707,23
			c0.355,0,0.699-0.189,0.88-0.523L37.595,4H38v18c0,0.035,0.016,0.065,0.02,0.099C35.731,22.556,34,24.579,34,27
			c0,2.757,2.243,5,5,5s5-2.243,5-5C44,24.579,42.269,22.556,39.98,22.099z M39,30c-1.654,0-3-1.346-3-3s1.346-3,3-3s3,1.346,3,3
			S40.654,30,39,30z"/>
		<path d="M25.002,30.804L25,27c0,0-0.005-0.11-0.014-0.164l-1.722-10.329C23.023,15.055,21.779,14,20.306,14H14
			c-1.654,0-3,1.346-3,3v3c0,0.553,0.447,1,1,1s1-0.447,1-1v-3c0-0.552,0.448-1,1-1h6.306c0.491,0,0.906,0.352,0.986,0.835
			L22.819,26h-4.284l-1.109-1.664C16.868,23.499,15.935,23,14.93,23H4c-0.553,0-1,0.447-1,1v3c0,0.553,0.447,1,1,1s1-0.447,1-1v-2
			h9.93c0.335,0,0.646,0.166,0.832,0.445l1.406,2.109C17.354,27.833,17.666,28,18,28h5l0.002,3.417c0,0.397,0.235,0.757,0.599,0.916
			C25.059,32.971,26,34.41,26,36c0,2.206-1.794,4-4,4H6c-2.206,0-4-1.794-4-4s1.794-4,4-4h14c0.553,0,1-0.447,1-1s-0.447-1-1-1H6
			c-3.309,0-6,2.691-6,6s2.691,6,6,6h16c3.309,0,6-2.691,6-6C28,33.842,26.843,31.868,25.002,30.804z"/>
	</g>
</g>
<g id="crane_x5F_hook">
</g>
<g id="roller">
</g>
</svg>
