<?xml version="1.0" encoding="iso-8859-1"?>
<!-- Generator: Adobe Illustrator 21.0.0, SVG Export Plug-In . SVG Version: 6.00 Build 0)  -->
<svg version="1.1" xmlns="http://www.w3.org/2000/svg" xmlns:xlink="http://www.w3.org/1999/xlink" x="0px" y="0px"
	 viewBox="0 0 44 44" style="enable-background:new 0 0 44 44;" xml:space="preserve">
<g id="home">
</g>
<g id="buy">
</g>
<g id="search">
</g>
<g id="home_x5F_sale">
	<g>
		<circle cx="34" cy="14" r="1"/>
		<circle cx="34" cy="18" r="1"/>
		<circle cx="34" cy="22" r="1"/>
		<path d="M23.625,12.219c-0.365-0.292-0.884-0.292-1.249,0l-5,4c-0.332,0.265-0.459,0.711-0.319,1.112
			C17.197,17.732,17.575,18,18,18v5c0,0.552,0.448,1,1,1h8c0.553,0,1-0.448,1-1v-5c0.425,0,0.803-0.268,0.943-0.669
			s0.013-0.847-0.318-1.112L23.625,12.219z M26,17v5h-6v-5c0-0.1-0.015-0.195-0.042-0.286L23,14.281l3.042,2.433
			C26.015,16.805,26,16.9,26,17z"/>
		<path d="M42,4H9V3c0-1.654-1.346-3-3-3S3,1.346,3,3v39H2c-0.552,0-1,0.448-1,1s0.448,1,1,1h25c0.553,0,1-0.448,1-1s-0.447-1-1-1
			h-3.101c-0.465-2.279-2.484-4-4.899-4c-0.606,0-1.209,0.116-1.781,0.338C15.898,36.861,14.004,36,12,36
			c-3.519,0-6.432,2.613-6.92,6H5V3c0-0.551,0.449-1,1-1s1,0.449,1,1v31c0,0.552,0.448,1,1,1s1-0.448,1-1V6h8v2h-1
			c-1.654,0-3,1.346-3,3v14c0,1.654,1.346,3,3,3h22c1.654,0,3-1.346,3-3V11c0-1.654-1.346-3-3-3h-1V6h5c0.553,0,1-0.448,1-1
			S42.553,4,42,4z M12,38c1.639,0,3.176,0.807,4.112,2.16c0.301,0.434,0.887,0.561,1.341,0.286C17.939,40.15,18.46,40,19,40
			c1.302,0,2.402,0.839,2.816,2H7.101C7.566,39.721,9.586,38,12,38z M36,10h2c0.552,0,1,0.449,1,1v14c0,0.551-0.448,1-1,1H16
			c-0.551,0-1-0.449-1-1V11c0-0.551,0.449-1,1-1h16c0.553,0,1-0.448,1-1s-0.447-1-1-1H19V6h16v3C35,9.552,35.447,10,36,10z"/>
	</g>
</g>
<g id="mortgage">
</g>
<g id="building">
</g>
<g id="contract">
</g>
<g id="home_x5F_key">
</g>
<g id="ruler">
</g>
<g id="trowel">
</g>
<g id="truck">
</g>
<g id="wheelbarrow">
</g>
<g id="cone">
</g>
<g id="barrier">
</g>
<g id="bulldozer">
</g>
<g id="floor_x5F_plan">
</g>
<g id="crane">
</g>
<g id="demolition_x5F_crane">
</g>
<g id="crane_x5F_hook">
</g>
<g id="roller">
</g>
</svg>
