<?xml version="1.0" encoding="iso-8859-1"?>
<!-- Generator: Adobe Illustrator 21.0.0, SVG Export Plug-In . SVG Version: 6.00 Build 0)  -->
<svg version="1.1" xmlns="http://www.w3.org/2000/svg" xmlns:xlink="http://www.w3.org/1999/xlink" x="0px" y="0px"
	 viewBox="0 0 44 44" style="enable-background:new 0 0 44 44;" xml:space="preserve">
<g id="home">
	<g>
		<path d="M19,23H9c-0.552,0-1,0.448-1,1v17H6V18c0-0.552-0.448-1-1-1s-1,0.448-1,1v24c0,0.552,0.448,1,1,1h14c0.552,0,1-0.448,1-1
			V24C20,23.448,19.552,23,19,23z M10,25h8v16h-8V25z"/>
		<circle cx="16" cy="33" r="1"/>
		<path d="M27,13c0-2.757-2.243-5-5-5s-5,2.243-5,5s2.243,5,5,5S27,15.757,27,13z M22,10c1.302,0,2.402,0.839,2.816,2h-5.631
			C19.598,10.839,20.698,10,22,10z M19.184,14h5.631c-0.414,1.161-1.514,2-2.816,2S19.598,15.161,19.184,14z"/>
		<path d="M23,37h6h6c0.552,0,1-0.448,1-1V24c0-0.552-0.448-1-1-1H23c-0.552,0-1,0.448-1,1v12C22,36.552,22.448,37,23,37z M34,25v10
			h-4v-7c0-0.552-0.448-1-1-1s-1,0.448-1,1v7h-4V25H34z"/>
		<path d="M41.725,12.979l-2.762-1.795C38.975,11.122,39,11.065,39,11V3c0.552,0,1-0.448,1-1s-0.448-1-1-1h-1h-4h-1
			c-0.552,0-1,0.448-1,1s0.448,1,1,1v3c0,0.552,0.448,1,1,1s1-0.448,1-1V3h2v6.907L24.383,1.706c-1.423-0.924-3.342-0.924-4.766,0
			L2.275,12.979C0.851,13.905,0,15.472,0,17.171V18c0,0.552,0.448,1,1,1s1-0.448,1-1v-0.829c0-1.02,0.51-1.96,1.365-2.516
			L20.706,3.384c0.773-0.502,1.815-0.501,2.587,0l17.342,11.272c0.807,0.524,1.306,1.392,1.36,2.345H39c-0.552,0-1,0.448-1,1v23H23
			c-0.552,0-1,0.448-1,1s0.448,1,1,1h16c0.552,0,1-0.448,1-1V19h3c0.552,0,1-0.448,1-1v-0.829
			C44,15.472,43.149,13.905,41.725,12.979z"/>
	</g>
</g>
<g id="buy">
</g>
<g id="search">
</g>
<g id="home_x5F_sale">
</g>
<g id="mortgage">
</g>
<g id="building">
</g>
<g id="contract">
</g>
<g id="home_x5F_key">
</g>
<g id="ruler">
</g>
<g id="trowel">
</g>
<g id="truck">
</g>
<g id="wheelbarrow">
</g>
<g id="cone">
</g>
<g id="barrier">
</g>
<g id="bulldozer">
</g>
<g id="floor_x5F_plan">
</g>
<g id="crane">
</g>
<g id="demolition_x5F_crane">
</g>
<g id="crane_x5F_hook">
</g>
<g id="roller">
</g>
</svg>
