<?xml version="1.0" encoding="iso-8859-1"?>
<!-- Generator: Adobe Illustrator 21.0.0, SVG Export Plug-In . SVG Version: 6.00 Build 0)  -->
<svg version="1.1" xmlns="http://www.w3.org/2000/svg" xmlns:xlink="http://www.w3.org/1999/xlink" x="0px" y="0px"
	 viewBox="0 0 44 44" style="enable-background:new 0 0 44 44;" xml:space="preserve">
<g id="home">
</g>
<g id="buy">
</g>
<g id="search">
</g>
<g id="home_x5F_sale">
</g>
<g id="mortgage">
</g>
<g id="building">
</g>
<g id="contract">
</g>
<g id="home_x5F_key">
	<g>
		<path d="M19,23H9c-0.552,0-1,0.448-1,1v17H6V18c0-0.552-0.448-1-1-1s-1,0.448-1,1v24c0,0.552,0.448,1,1,1h14c0.552,0,1-0.448,1-1
			V24C20,23.448,19.552,23,19,23z M10,25h8v16h-8V25z"/>
		<path d="M23,23c-0.552,0-1,0.448-1,1v9c0,0.552,0.448,1,1,1s1-0.448,1-1v-8h2c0.552,0,1-0.448,1-1s-0.448-1-1-1H23z"/>
		<circle cx="16" cy="33" r="1"/>
		<path d="M22,8c-2.757,0-5,2.243-5,5s2.243,5,5,5s5-2.243,5-5S24.757,8,22,8z M22,10c1.302,0,2.402,0.839,2.816,2h-5.631
			C19.598,10.839,20.698,10,22,10z M22,16c-1.302,0-2.402-0.839-2.816-2h5.631C24.402,15.161,23.302,16,22,16z"/>
		<path d="M41.725,12.979l-2.762-1.795C38.975,11.122,39,11.065,39,11V3c0.552,0,1-0.448,1-1s-0.448-1-1-1h-1h-4h-1
			c-0.552,0-1,0.448-1,1s0.448,1,1,1v3c0,0.552,0.448,1,1,1s1-0.448,1-1V3h2v6.907L24.383,1.706c-1.423-0.924-3.342-0.924-4.766,0
			L2.275,12.979C0.851,13.905,0,15.472,0,17.171V18c0,0.552,0.448,1,1,1s1-0.448,1-1v-0.829c0-1.02,0.51-1.96,1.365-2.516
			L20.706,3.384c0.773-0.502,1.815-0.501,2.587,0l17.342,11.272c0.807,0.524,1.306,1.392,1.36,2.345H39c-0.552,0-1,0.448-1,1
			s0.448,1,1,1h4c0.552,0,1-0.448,1-1v-0.829C44,15.472,43.149,13.905,41.725,12.979z"/>
		<path d="M35.707,25.293c-0.391-0.391-1.023-0.391-1.414,0s-0.391,1.023,0,1.414l3,3C37.488,29.902,37.744,30,38,30
			s0.512-0.098,0.707-0.293c0.391-0.391,0.391-1.023,0-1.414L35.707,25.293z"/>
		<path d="M37.414,21c-1.289-1.29-3.539-1.29-4.828,0L30,23.586c-0.645,0.645-1,1.502-1,2.414s0.355,1.77,1,2.414L30.586,29
			l-9.293,9.293C21.105,38.48,21,38.735,21,39v3c0,0.552,0.448,1,1,1h3c0.265,0,0.52-0.105,0.707-0.293l1-1
			C26.895,41.52,27,41.265,27,41v-1h1c0.265,0,0.52-0.105,0.707-0.293l1-1C29.895,38.52,30,38.265,30,38v-1h1
			c0.265,0,0.52-0.105,0.707-0.293L35,33.414L35.586,34c1.289,1.29,3.539,1.29,4.828,0L43,31.414c0.645-0.645,1-1.502,1-2.414
			s-0.355-1.77-1-2.414L37.414,21z M41.586,30L39,32.586c-0.526,0.526-1.474,0.526-2,0l-1.293-1.293
			c-0.391-0.391-1.023-0.391-1.414,0L30.586,35H29c-0.552,0-1,0.448-1,1v1.586L27.586,38H26c-0.552,0-1,0.448-1,1v1.586L24.586,41
			H23v-1.586l9-9l0.293,0.293C32.488,30.902,32.744,31,33,31s0.512-0.098,0.707-0.293c0.391-0.391,0.391-1.023,0-1.414L31.414,27
			C31.151,26.737,31,26.372,31,26s0.151-0.737,0.414-1L34,22.414c0.526-0.526,1.474-0.526,2,0L41.586,28
			C41.849,28.263,42,28.628,42,29S41.849,29.737,41.586,30z"/>
		<path d="M39,38c-0.552,0-1,0.448-1,1v2h-8c-0.552,0-1,0.448-1,1s0.448,1,1,1h9c0.552,0,1-0.448,1-1v-3C40,38.448,39.552,38,39,38z
			"/>
	</g>
</g>
<g id="ruler">
</g>
<g id="trowel">
</g>
<g id="truck">
</g>
<g id="wheelbarrow">
</g>
<g id="cone">
</g>
<g id="barrier">
</g>
<g id="bulldozer">
</g>
<g id="floor_x5F_plan">
</g>
<g id="crane">
</g>
<g id="demolition_x5F_crane">
</g>
<g id="crane_x5F_hook">
</g>
<g id="roller">
</g>
</svg>
