<?xml version="1.0" encoding="utf-8"?>
<!-- Generator: Adobe Illustrator 21.1.0, SVG Export Plug-In . SVG Version: 6.00 Build 0)  -->
<svg version="1.1" id="Layer_1" xmlns="http://www.w3.org/2000/svg" xmlns:xlink="http://www.w3.org/1999/xlink" x="0px" y="0px"
	 viewBox="0 0 283.5 283.5" style="enable-background:new 0 0 283.5 283.5;" xml:space="preserve">
<style type="text/css">
	.st0{fill:#E0632D;}
	.st1{fill:#424143;}
	.st2{fill:#FFFFFF;}
	.st3{fill:#FBDA73;}
	.st4{fill:#2A83C6;}
	.st5{fill:#E5804E;}
</style>
<g id="XMLID_160_">
	<path id="XMLID_608_" class="st0" d="M-1102.9,29.1h-174.9c-1.6,0-2.8,1.3-2.8,2.8v181.2c0,1,0.8,1.7,1.7,1.7h175.9V29.1z"/>
	<path class="st1" d="M-1102.9,219.3h-167.3c-8.2,0-14.8-6.6-14.8-14.8V45.9c0-11.7,9.5-21.2,21.2-21.2h55.4v8.8h-55.4
		c-6.8,0-12.4,5.5-12.4,12.4v158.6c0,3.3,2.7,6,6,6h167.3V219.3z"/>
	<path id="XMLID_605_" class="st2" d="M-1099.5,29.1h-164.3c10.7,0,16.8,8.6,16.8,16.8l-0.4,183.4c0,5.7,4.6,10.4,10.4,10.4h163.4
		c-8.7,0-16.1-7.5-16.1-16.1V38.9C-1089.6,33.5-1094,29.1-1099.5,29.1z"/>
	<path class="st1" d="M-1189.2,244.1h-47.8c-4,0-7.7-1.5-10.5-4.3c-2.8-2.8-4.3-6.5-4.3-10.5l0.4-183.4c0-6-4.3-12.4-12.4-12.4v-8.8
		h98.1v8.8h-80.7c2.6,3.7,3.9,8.1,3.9,12.4l-0.4,183.4c0,1.6,0.6,3.1,1.7,4.2c1.1,1.1,2.6,1.7,4.2,1.7h47.8V244.1z"/>
	<rect x="-1157.9" y="24.7" class="st1" width="27.5" height="8.8"/>
	<path class="st1" d="M-1073.5,244.1h-69.1v-8.8h52.4c-2.4-3.3-3.8-7.4-3.8-11.7V38.9c0-3-2.4-5.4-5.4-5.4h-19.9v-8.8h19.9
		c7.9,0,14.3,6.4,14.3,14.3v184.6c0,6.2,5.5,11.7,11.7,11.7V244.1z"/>
	<rect x="-1222.9" y="73.3" class="st1" width="108.3" height="8.8"/>
	<rect x="-1222.9" y="90.3" class="st1" width="108.3" height="8.8"/>
	<rect x="-1222.9" y="107.3" class="st1" width="108.3" height="8.8"/>
	<rect x="-1222.9" y="124.3" class="st1" width="108.3" height="8.8"/>
	<rect x="-1222.9" y="141.3" class="st1" width="108.3" height="8.8"/>
	<polygon id="XMLID_539_" class="st0" points="-1165.7,209.1 -1178.4,209.1 -1178.4,249 -1165.7,243.8 -1152.9,249 -1152.9,209.1 	
		"/>
	<path class="st1" d="M-1148.5,255.5l-17.2-7l-17.2,7v-50.8h34.3V255.5z M-1174,213.6v28.8l8.3-3.4l8.3,3.4v-28.8H-1174z"/>
	<g>
		<path id="XMLID_1_" class="st3" d="M-1133.6,197c0,4.1-3.8,7.5-5.3,11.1c-1.5,3.7-1.3,8.8-4.1,11.6c-2.8,2.8-7.9,2.5-11.6,4.1
			c-3.6,1.5-7,5.3-11.1,5.3s-7.5-3.8-11.1-5.3c-3.7-1.5-8.8-1.3-11.6-4.1c-2.8-2.8-2.5-7.9-4.1-11.6c-1.5-3.6-5.3-7-5.3-11.1
			s3.8-7.5,5.3-11.1c1.5-3.7,1.3-8.8,4.1-11.6s7.9-2.5,11.6-4.1c3.6-1.5,7-5.3,11.1-5.3c4.1,0,7.5,3.8,11.1,5.3
			c3.7,1.5,8.8,1.3,11.6,4.1c2.8,2.8,2.5,7.9,4.1,11.6C-1137.4,189.5-1133.6,192.9-1133.6,197z"/>
		<path class="st4" d="M-1165.7,233.5c-4,0-7.1-2.1-9.7-3.8c-1.1-0.8-2.2-1.5-3.1-1.9c-1-0.4-2.3-0.7-3.7-1
			c-3.1-0.6-6.6-1.4-9.3-4.1s-3.4-6.2-4.1-9.3c-0.3-1.4-0.6-2.7-1-3.7c-0.4-0.9-1.1-2-1.9-3.1c-1.7-2.5-3.8-5.7-3.8-9.7
			c0-4,2.1-7.1,3.8-9.7c0.8-1.1,1.5-2.2,1.9-3.1c0.4-1,0.7-2.3,1-3.7c0.6-3.1,1.4-6.6,4.1-9.3c2.7-2.7,6.2-3.4,9.3-4.1
			c1.4-0.3,2.7-0.6,3.7-1c0.9-0.4,2-1.1,3.1-1.9c2.5-1.7,5.7-3.8,9.7-3.8s7.1,2.1,9.7,3.8c1.1,0.8,2.2,1.5,3.1,1.9
			c1,0.4,2.3,0.7,3.7,1c3.1,0.6,6.6,1.4,9.3,4.1c2.7,2.7,3.4,6.2,4.1,9.3c0.3,1.4,0.6,2.7,1,3.7c0.4,0.9,1.1,2,1.9,3.1
			c1.7,2.5,3.8,5.7,3.8,9.7c0,4-2.1,7.1-3.8,9.7c-0.8,1.1-1.5,2.2-1.9,3.1c-0.4,1-0.7,2.3-1,3.7c-0.6,3.1-1.4,6.6-4.1,9.3
			c-2.7,2.7-6.2,3.4-9.3,4.1c-1.4,0.3-2.7,0.6-3.7,1c-0.9,0.4-2,1.1-3.1,1.9C-1158.5,231.4-1161.7,233.5-1165.7,233.5z
			 M-1165.7,169.3c-1.3,0-3,1.1-4.7,2.3c-1.4,1-2.9,2-4.6,2.7c-1.8,0.7-3.6,1.1-5.3,1.5c-2,0.4-4,0.8-4.8,1.7
			c-0.8,0.8-1.3,2.9-1.7,4.8c-0.4,1.7-0.7,3.5-1.5,5.3c-0.7,1.7-1.7,3.2-2.7,4.6c-1.2,1.8-2.3,3.5-2.3,4.8c0,1.3,1.1,3,2.3,4.8
			c1,1.4,2,2.9,2.7,4.6c0.7,1.8,1.1,3.6,1.5,5.3c0.4,2,0.8,4,1.7,4.8c0.8,0.8,2.9,1.3,4.8,1.7c1.7,0.4,3.5,0.7,5.3,1.5
			c1.7,0.7,3.2,1.7,4.6,2.7c1.8,1.2,3.5,2.3,4.7,2.3c1.3,0,3-1.1,4.8-2.3c1.4-1,2.9-2,4.6-2.7c1.8-0.7,3.6-1.1,5.3-1.5
			c2-0.4,4-0.8,4.8-1.7s1.3-2.9,1.7-4.8c0.4-1.7,0.7-3.5,1.5-5.3c0.7-1.7,1.7-3.2,2.7-4.6c1.2-1.8,2.3-3.5,2.3-4.8
			c0-1.3-1.1-3-2.3-4.8c-1-1.4-2-2.9-2.7-4.6c-0.7-1.8-1.1-3.6-1.5-5.3c-0.4-2-0.8-4-1.7-4.8c-0.8-0.8-2.9-1.3-4.9-1.7
			c-1.7-0.4-3.5-0.7-5.3-1.5c-1.7-0.7-3.2-1.7-4.6-2.7C-1162.7,170.5-1164.4,169.3-1165.7,169.3z"/>
	</g>
	<path class="st1" d="M-1165.7,233.5c-4,0-7.1-2.1-9.7-3.8c-1.1-0.8-2.2-1.5-3.1-1.9c-1-0.4-2.3-0.7-3.7-1c-3.1-0.6-6.6-1.4-9.3-4.1
		s-3.4-6.2-4.1-9.3c-0.3-1.4-0.6-2.7-1-3.7c-0.4-0.9-1.1-2-1.9-3.1c-1.7-2.5-3.8-5.7-3.8-9.7c0-4,2.1-7.1,3.8-9.7
		c0.8-1.1,1.5-2.2,1.9-3.1c0.4-1,0.7-2.3,1-3.7c0.6-3.1,1.4-6.6,4.1-9.3c2.7-2.7,6.2-3.4,9.3-4.1c1.4-0.3,2.7-0.6,3.7-1
		c0.9-0.4,2-1.1,3.1-1.9c2.5-1.7,5.7-3.8,9.7-3.8s7.1,2.1,9.7,3.8c1.1,0.8,2.2,1.5,3.1,1.9c1,0.4,2.3,0.7,3.7,1
		c3.1,0.6,6.6,1.4,9.3,4.1c2.7,2.7,3.4,6.2,4.1,9.3c0.3,1.4,0.6,2.7,1,3.7c0.4,0.9,1.1,2,1.9,3.1c1.7,2.5,3.8,5.7,3.8,9.7
		c0,4-2.1,7.1-3.8,9.7c-0.8,1.1-1.5,2.2-1.9,3.1c-0.4,1-0.7,2.3-1,3.7c-0.6,3.1-1.4,6.6-4.1,9.3c-2.7,2.7-6.2,3.4-9.3,4.1
		c-1.4,0.3-2.7,0.6-3.7,1c-0.9,0.4-2,1.1-3.1,1.9C-1158.5,231.4-1161.7,233.5-1165.7,233.5z M-1165.7,169.3c-1.3,0-3,1.1-4.7,2.3
		c-1.4,1-2.9,2-4.6,2.7c-1.8,0.7-3.6,1.1-5.3,1.5c-2,0.4-4,0.8-4.8,1.7c-0.8,0.8-1.3,2.9-1.7,4.8c-0.4,1.7-0.7,3.5-1.5,5.3
		c-0.7,1.7-1.7,3.2-2.7,4.6c-1.2,1.8-2.3,3.5-2.3,4.8c0,1.3,1.1,3,2.3,4.8c1,1.4,2,2.9,2.7,4.6c0.7,1.8,1.1,3.6,1.5,5.3
		c0.4,2,0.8,4,1.7,4.8c0.8,0.8,2.9,1.3,4.8,1.7c1.7,0.4,3.5,0.7,5.3,1.5c1.7,0.7,3.2,1.7,4.6,2.7c1.8,1.2,3.5,2.3,4.7,2.3
		c1.3,0,3-1.1,4.8-2.3c1.4-1,2.9-2,4.6-2.7c1.8-0.7,3.6-1.1,5.3-1.5c2-0.4,4-0.8,4.8-1.7s1.3-2.9,1.7-4.8c0.4-1.7,0.7-3.5,1.5-5.3
		c0.7-1.7,1.7-3.2,2.7-4.6c1.2-1.8,2.3-3.5,2.3-4.8c0-1.3-1.1-3-2.3-4.8c-1-1.4-2-2.9-2.7-4.6c-0.7-1.8-1.1-3.6-1.5-5.3
		c-0.4-2-0.8-4-1.7-4.8c-0.8-0.8-2.9-1.3-4.9-1.7c-1.7-0.4-3.5-0.7-5.3-1.5c-1.7-0.7-3.2-1.7-4.6-2.7
		C-1162.7,170.5-1164.4,169.3-1165.7,169.3z"/>
</g>
<g id="XMLID_857_">
	<path id="XMLID_852_" class="st2" d="M-788.4,43.7l-42.2,42.2v147.4c0,6.7,5.4,12.1,12.1,12.1h126c6.7,0,12.1-5.4,12.1-12.1V55.7
		c0-6.7-5.4-12.1-12.1-12.1H-788.4z"/>
	<polygon id="XMLID_878_" class="st0" points="-788.4,85.9 -788.4,43.7 -830.6,85.9 	"/>
	<path class="st1" d="M-792.6,90.3h-38v-8.8h38l-0.2-37.8h8.8v38C-784,86.4-787.8,90.3-792.6,90.3z"/>
	<path class="st1" d="M-750.7,249.8h-68.4c-8.8,0-16-7.2-16-16V84.1l44.8-44.8h98.3c8.8,0,16,7.2,16,16v79.9h-8.8V55.2
		c0-3.9-3.2-7.1-7.1-7.1h-94.6l-39.6,39.6v146.1c0,3.9,3.2,7.1,7.1,7.1h68.4V249.8z"/>
	<rect x="-810.3" y="143.3" class="st1" width="81.2" height="8.8"/>
	<rect x="-810.3" y="117.5" class="st1" width="81.2" height="8.8"/>
	<rect x="-810.3" y="94" class="st1" width="81.2" height="8.8"/>
	<rect x="-772.2" y="66.8" class="st1" width="43" height="8.8"/>
	<rect x="-810.3" y="167.3" class="st1" width="81.2" height="8.8"/>
	<rect x="-810.3" y="191.2" class="st1" width="81.2" height="8.8"/>
	<rect x="-810.3" y="215.2" class="st1" width="68.8" height="8.8"/>
</g>
<path class="st1" d="M-636.9,253.8h-87c-4.2,0-7.9-2.2-10-5.8c-2.1-3.6-2.1-7.9,0-11.5l43.5-75.4c2.1-3.6,5.8-5.8,10-5.8
	s7.9,2.2,10,5.8l43.5,75.4c2.1,3.6,2.1,7.9,0,11.5C-629,251.6-632.7,253.8-636.9,253.8z M-680.4,164.2c-0.5,0-1.6,0.1-2.3,1.4
	l-43.5,75.4c-0.7,1.2-0.2,2.3,0,2.7c0.2,0.4,0.9,1.4,2.3,1.4h87c1.4,0,2.1-0.9,2.3-1.4c0.2-0.4,0.7-1.5,0-2.7l-43.5-75.4
	C-678.8,164.3-679.9,164.2-680.4,164.2z"/>
<g>
	<path id="XMLID_2_" class="st0" d="M-674.2,163.3l43.5,75.4c2.7,4.7-0.7,10.7-6.2,10.7h-87c-5.5,0-8.9-5.9-6.2-10.7l43.5-75.4
		C-683.8,158.6-677,158.6-674.2,163.3z"/>
	<path class="st1" d="M-636.9,253.8h-87c-4.2,0-7.9-2.2-10-5.8c-2.1-3.6-2.1-7.9,0-11.5l43.5-75.4c2.1-3.6,5.8-5.8,10-5.8
		s7.9,2.2,10,5.8l43.5,75.4c2.1,3.6,2.1,7.9,0,11.5C-629,251.6-632.7,253.8-636.9,253.8z M-680.4,164.2c-0.5,0-1.6,0.1-2.3,1.4
		l-43.5,75.4c-0.7,1.2-0.2,2.3,0,2.7c0.2,0.4,0.9,1.4,2.3,1.4h87c1.4,0,2.1-0.9,2.3-1.4c0.2-0.4,0.7-1.5,0-2.7l-43.5-75.4
		C-678.8,164.3-679.9,164.2-680.4,164.2z"/>
</g>
<rect x="-684.8" y="182.8" class="st1" width="8.8" height="32.2"/>
<rect x="-684.8" y="223.8" class="st1" width="8.8" height="12.5"/>
<g id="XMLID_662_">
	<path class="st1" d="M-333.5,257.4h-9.5v-8.8h9.5c2,0,3.7-1.7,3.7-3.7l0.1-16.2l3.4-0.8c6-1.4,11.7-3.7,16.8-7l3-1.9l11.4,11.4
		c0.7,0.7,1.7,1.1,2.7,1.1l0,0c1,0,1.9-0.4,2.6-1.1l6.7-6.7c1.5-1.5,1.5-3.8,0-5.3l-11.4-11.5l1.9-3c3.3-5.1,5.6-10.8,7-16.8
		l0.8-3.4h16.2c2.1,0,3.7-1.7,3.7-3.8v-9.4c0-2.1-1.7-3.8-3.7-3.8h-16.2l-0.8-3.5c-1.3-5.8-3.6-11.4-6.8-16.6l-1.8-3l11.5-11.4
		c0.7-0.7,1.1-1.7,1.1-2.7c0-1-0.4-1.9-1.1-2.6l-6.7-6.8c-0.7-0.7-1.6-1.1-2.6-1.1c0,0,0,0,0,0c-1,0-1.9,0.4-2.6,1.1l-11.5,11.4
		l-3-1.9c-5.2-3.3-10.8-5.7-16.8-7l-3.4-0.8l0.1-16.2c0-1-0.4-1.9-1.1-2.6c-0.7-0.7-1.7-1.1-2.7-1.1l-9.5-0.1l0.1-8.8l9.4,0.1
		c3.4,0,6.5,1.3,8.9,3.7c2.4,2.4,3.7,5.6,3.6,8.9l0,9.2c4.6,1.3,8.9,3.2,13.1,5.5l6.5-6.5c2.4-2.3,5.5-3.6,8.8-3.6c0,0,0,0,0.1,0
		c3.4,0,6.5,1.3,8.9,3.7l6.6,6.7c2.3,2.3,3.7,5.5,3.7,8.8c0,3.4-1.3,6.6-3.7,9l-6.5,6.5c2.2,4.1,4,8.4,5.3,12.8h9.2
		c6.9,0,12.6,5.7,12.6,12.6v9.4c0,7-5.7,12.6-12.6,12.6h-9.2c-1.3,4.6-3.1,8.9-5.4,13.1l6.5,6.5c4.9,4.9,4.9,12.9,0,17.8l-6.7,6.7
		c-2.4,2.4-5.5,3.7-8.9,3.7h0c-3.4,0-6.5-1.3-8.9-3.7l-6.5-6.5c-4.1,2.3-8.5,4.1-13.1,5.4l0,9.2
		C-320.9,251.8-326.5,257.4-333.5,257.4z M-338.1,205.7v-8.8c11.8,0,21.4-9.6,21.4-21.5c0-11.9-9.6-21.5-21.4-21.5V145
		c16.7,0,30.3,13.6,30.3,30.4C-307.8,192.1-321.4,205.7-338.1,205.7z"/>
	<path id="XMLID_331_" class="st0" d="M-188,85.6l-10.2-3.3c0.5-5.7,0-11.3-1.4-16.7l9.5-4.9c3.4-1.7,4.8-5.9,3-9.3l-3.7-7.1
		c-1.7-3.4-5.9-4.8-9.3-3l-9.6,4.9c-3.5-4.2-7.8-7.9-12.7-10.8l3.3-10.2c1.2-3.6-0.8-7.6-4.5-8.7l-7.6-2.5c-3.6-1.2-7.6,0.8-8.7,4.5
		l-3.3,10.2c-5.6-0.5-11.1,0-16.4,1.3l-4.8-9.6c-1.7-3.4-5.9-4.8-9.3-3.1l-7.2,3.6c-3.4,1.7-4.8,5.9-3.1,9.3l4.8,9.6
		c-4.3,3.5-8,7.8-10.9,12.7L-300,49c-3.6-1.2-7.5,0.8-8.7,4.5l-2.5,7.6c-1.2,3.6,0.8,7.5,4.4,8.7l10.2,3.3
		c-0.5,5.7-0.1,11.3,1.3,16.6l-9.6,4.9c-3.4,1.7-4.8,5.9-3,9.3l3.6,7.1c1.7,3.4,5.9,4.8,9.3,3.1l9.6-4.8c3.5,4.2,7.8,8,12.7,10.9
		l-3.3,10.2c-1.2,3.6,0.8,7.6,4.4,8.7l7.6,2.5c3.6,1.2,7.5-0.8,8.7-4.4l3.3-10.2c5.7,0.5,11.3,0,16.7-1.3l4.9,9.6
		c1.7,3.4,5.9,4.8,9.4,3l7.1-3.6c3.4-1.7,4.8-5.9,3-9.3l-4.8-9.5c4.2-3.5,7.9-7.8,10.9-12.7l10.2,3.3c3.6,1.2,7.5-0.8,8.7-4.4
		l2.5-7.6C-182.4,90.7-184.3,86.8-188,85.6z M-254.1,98.7C-265.7,95-272,82.6-268.3,71c3.7-11.5,16.1-17.9,27.7-14.1
		c11.5,3.7,17.9,16.1,14.2,27.6C-230.2,96.1-242.6,102.4-254.1,98.7z"/>
	<path class="st1" d="M-261.8,146.4c-1.2,0-2.4-0.2-3.5-0.6l-7.6-2.5c-2.9-0.9-5.2-2.9-6.6-5.6c-1.4-2.7-1.6-5.8-0.7-8.7l2.3-6.9
		c-3.1-2.1-5.9-4.5-8.5-7.3l-6.5,3.3c-2.7,1.4-5.8,1.6-8.6,0.7c-2.9-0.9-5.2-3-6.6-5.7l-3.6-7.1c-1.4-2.7-1.6-5.8-0.7-8.7
		c0.9-2.9,2.9-5.2,5.6-6.6l6.5-3.3c-0.7-3.6-1-7.4-0.9-11.1l-6.9-2.3c-6-2-9.2-8.4-7.2-14.3l2.5-7.6c0.9-2.9,3-5.2,5.7-6.6
		c2.7-1.4,5.8-1.6,8.7-0.6l6.9,2.3c2.1-3.1,4.6-5.9,7.3-8.5l-3.3-6.5c-1.4-2.7-1.6-5.8-0.7-8.6c0.9-2.9,3-5.2,5.7-6.6l7.2-3.6
		c2.6-1.4,5.7-1.6,8.6-0.7c2.9,0.9,5.3,3,6.7,5.7l3.3,6.5c3.6-0.6,7.2-0.9,10.8-0.8l2.2-6.9c0.9-2.9,2.9-5.2,5.6-6.6
		c2.7-1.4,5.8-1.6,8.7-0.7l7.6,2.5c2.9,0.9,5.2,2.9,6.6,5.6c1.4,2.7,1.6,5.8,0.7,8.7l-2.2,6.9c3.1,2.1,5.9,4.5,8.5,7.2l6.5-3.3
		c5.6-2.8,12.4-0.6,15.3,5l3.7,7.1c1.4,2.7,1.6,5.8,0.7,8.6c-0.9,2.9-2.9,5.2-5.7,6.6l-6.5,3.3c0.7,3.7,1,7.4,0.9,11.1l6.9,2.3
		c5.9,1.9,9.2,8.3,7.3,14.2l-2.5,7.6c-1.9,5.9-8.4,9.2-14.3,7.3l-6.9-2.3c-2.1,3.1-4.5,5.9-7.3,8.5l3.3,6.5c1.4,2.6,1.6,5.7,0.7,8.6
		c-0.9,2.9-3,5.3-5.7,6.6l-7.1,3.6c-5.6,2.8-12.5,0.6-15.3-4.9l-3.3-6.5c-3.7,0.7-7.4,1-11.1,0.9l-2.3,7c-0.9,2.9-2.9,5.2-5.6,6.6
		C-258.3,146-260.1,146.4-261.8,146.4z M-284.3,103.8l2.3,2.7c3.3,4,7.2,7.3,11.6,9.9l3,1.8l-4.4,13.5c-0.2,0.6-0.2,1.3,0.1,1.9
		c0.3,0.6,0.8,1,1.4,1.2l7.6,2.5c0.6,0.2,1.3,0.2,1.9-0.1c0.6-0.3,1-0.8,1.2-1.4l4.4-13.6l3.5,0.3c5.1,0.5,10.2,0.1,15.2-1.2
		l3.4-0.9l6.5,12.7c0.6,1.2,2.2,1.7,3.4,1.1l7.1-3.6c0.6-0.3,1.1-0.8,1.3-1.5c0.1-0.4,0.2-1.1-0.2-1.9l-6.4-12.7l2.7-2.3
		c4-3.3,7.3-7.2,9.9-11.6l1.8-3l13.5,4.4c1.3,0.4,2.7-0.3,3.2-1.6l2.5-7.6c0.4-1.3-0.3-2.7-1.6-3.1l0,0l-13.5-4.4l0.3-3.5
		c0.5-5.1,0-10.2-1.2-15.2l-0.9-3.4l12.7-6.5c0.6-0.3,1.1-0.8,1.3-1.5c0.2-0.6,0.1-1.3-0.1-1.9l-3.7-7.2c-0.6-1.2-2.1-1.7-3.4-1.1
		l-12.7,6.5l-2.3-2.7c-3.2-3.9-7.1-7.2-11.6-9.9l-3-1.8l4.4-13.5c0.2-0.6,0.1-1.3-0.2-1.9c-0.3-0.6-0.8-1-1.5-1.2l-7.6-2.5
		c-0.6-0.2-1.3-0.2-1.9,0.2c-0.6,0.3-1,0.8-1.2,1.5l-4.4,13.6l-3.5-0.3c-4.9-0.5-10-0.1-14.9,1.2l-3.4,0.8l-6.4-12.7
		c-0.3-0.6-0.8-1.1-1.5-1.3c-0.4-0.1-1.1-0.2-1.9,0.1l-7.2,3.6c-0.6,0.3-1,0.8-1.2,1.5c-0.1,0.4-0.3,1.1,0.1,1.9l6.4,12.7l-2.7,2.2
		c-3.9,3.3-7.3,7.1-9.9,11.5l-1.8,3l-13.5-4.4c-0.7-0.2-1.3-0.2-1.9,0.1c-0.6,0.3-1,0.8-1.3,1.5l-2.5,7.6c-0.4,1.3,0.3,2.7,1.6,3.2
		l13.5,4.4l-0.3,3.5c-0.5,5.1-0.1,10.2,1.2,15.1l0.9,3.4l-12.8,6.5c-0.6,0.3-1,0.8-1.2,1.4c-0.2,0.6-0.2,1.3,0.1,1.9l3.6,7.1
		c0.3,0.6,0.8,1.1,1.5,1.3c0.6,0.2,1.3,0.1,1.9-0.1L-284.3,103.8z M-247.4,104.2c-2.7,0-5.4-0.4-8.1-1.3
		c-6.7-2.2-12.2-6.8-15.4-13.1c-3.2-6.3-3.8-13.4-1.6-20.2c2.2-6.7,6.8-12.2,13.1-15.4s13.4-3.8,20.1-1.6
		c13.9,4.5,21.5,19.4,17,33.2C-225.9,97.1-236.3,104.2-247.4,104.2z M-252.8,94.5c9.2,3,19.1-2.1,22.1-11.3
		c1.4-4.5,1.1-9.2-1.1-13.4c-2.1-4.2-5.8-7.3-10.2-8.7c-4.5-1.4-9.2-1.1-13.4,1.1c-4.2,2.1-7.3,5.8-8.7,10.2
		c-1.4,4.5-1.1,9.2,1.1,13.4C-260.9,90-257.2,93.1-252.8,94.5L-252.8,94.5z"/>
</g>
<g id="XMLID_93_">
	<g id="XMLID_88_">
		<path id="XMLID_77_" class="st3" d="M-337.9,255.4h-46c-0.8,0-1.4-0.6-1.4-1.4V35c0-0.8,0.6-1.4,1.4-1.4h46c0.8,0,1.4,0.6,1.4,1.4
			v219C-336.5,254.8-337.1,255.4-337.9,255.4z"/>
		<path class="st1" d="M-344.8,259.8H-377c-7,0-12.7-5.7-12.7-12.7V41.9c0-7,5.7-12.7,12.7-12.7h32.2c7,0,12.7,5.7,12.7,12.7v205.2
			C-332,254.1-337.8,259.8-344.8,259.8z M-377,38c-2.1,0-3.9,1.7-3.9,3.9v205.2c0,2.1,1.7,3.9,3.9,3.9h32.2c2.1,0,3.9-1.7,3.9-3.9
			V41.9c0-2.1-1.7-3.9-3.9-3.9H-377z"/>
		<rect x="-385.2" y="54.1" class="st1" width="29.8" height="8.8"/>
		<rect x="-385.2" y="75.1" class="st1" width="14.9" height="8.8"/>
		<rect x="-385.2" y="96.1" class="st1" width="14.9" height="8.8"/>
		<rect x="-385.2" y="117" class="st1" width="14.9" height="8.8"/>
		<rect x="-385.2" y="138" class="st1" width="29.8" height="8.8"/>
		<rect x="-385.2" y="159" class="st1" width="14.9" height="8.8"/>
		<rect x="-385.2" y="180" class="st1" width="14.9" height="8.8"/>
		<rect x="-385.2" y="200.9" class="st1" width="14.9" height="8.8"/>
		<rect x="-385.2" y="221.9" class="st1" width="29.8" height="8.8"/>
	</g>
	<g id="XMLID_90_">
		<path id="XMLID_263_" class="st2" d="M-406.4,255.4h-12.8c-1,0-1.7-0.8-1.7-1.8V68.8c0-0.3,0.1-0.5,0.2-0.7l6.4-13.9
			c0.6-1.4,2.6-1.4,3.2,0l6.4,13.9c0.1,0.2,0.2,0.5,0.2,0.7v184.9C-404.7,254.6-405.4,255.4-406.4,255.4z"/>
		<rect id="XMLID_270_" x="-421" y="74.7" class="st0" width="16.3" height="163"/>
		<path class="st1" d="M-400.2,259.8h-25.2V67.5l7.6-16.5c0.9-1.9,2.8-3.2,4.9-3.2c0,0,0,0,0,0c2.1,0,4.1,1.2,5,3.2l7.6,16.5V259.8z
			 M-416.6,251h7.5V69.4l-3.7-8.1l-3.7,8.1V251z M-409.7,54.6L-409.7,54.6C-409.7,54.6-409.7,54.6-409.7,54.6z"/>
		<rect x="-421.5" y="70.3" class="st1" width="16.9" height="8.8"/>
		<rect x="-422.2" y="233.3" class="st1" width="18.8" height="8.8"/>
	</g>
</g>
<path id="XMLID_117_" class="st2" d="M123.5,199.1h-20.9v-29h20.1l7.7,18.8C132.4,193.8,128.8,199.1,123.5,199.1z"/>
<path class="st1" d="M123.5,203.6H98.2v-37.9h27.5l8.8,21.6c1.5,3.6,1.1,7.8-1.1,11.1C131.1,201.6,127.5,203.6,123.5,203.6z
	 M107,194.7h16.5c1.4,0,2.2-0.9,2.5-1.3c0.3-0.4,0.8-1.5,0.3-2.8l-6.5-16.1H107V194.7z"/>
<path id="XMLID_113_" class="st3" d="M120.6,253.7H95.6c-3.2,0-6-2.1-6.8-5.2l-19.2-73.5H109l18.3,70
	C128.5,249.3,125.1,253.7,120.6,253.7z"/>
<path class="st1" d="M120.6,258.1H95.6c-5.2,0-9.7-3.5-11-8.5L64,170.5h48.5l19.1,73.3c0.9,3.4,0.2,7-2,9.9
	C127.4,256.5,124.1,258.1,120.6,258.1z M75.4,179.3l17.7,68c0.3,1.1,1.3,1.9,2.5,1.9h24.9c1.1,0,1.7-0.6,2-1
	c0.3-0.4,0.7-1.2,0.5-2.2l-17.4-66.7H75.4z"/>
<path id="XMLID_111_" class="st2" d="M255.6,207.3l-118.8-30.5V92.6l118.8-30.5c5.4-1.4,10.7,2.7,10.7,8.3V199
	C266.3,204.6,261.1,208.7,255.6,207.3z"/>
<circle id="XMLID_110_" class="st2" cx="48.7" cy="134.7" r="26.9"/>
<path class="st1" d="M48.7,166c-17.3,0-31.3-14-31.3-31.3s14-31.3,31.3-31.3s31.3,14,31.3,31.3S66,166,48.7,166z M48.7,112.3
	c-12.4,0-22.5,10.1-22.5,22.5s10.1,22.5,22.5,22.5s22.5-10.1,22.5-22.5S61.1,112.3,48.7,112.3z"/>
<path class="st1" d="M259.2,212.4c-1,0-1.9-0.1-2.9-0.4l-123.9-31.8V89.2l56.2-14.4l2.2,8.6L141.3,96v77.3l117.2,30.1
	c1.1,0.3,2-0.2,2.3-0.5c0.4-0.3,1.1-1,1.1-2.1V68.5c0-1.2-0.7-1.8-1.1-2.1c-0.4-0.3-1.2-0.8-2.3-0.5l-23.9,6.2l-2.2-8.6l23.9-6.2
	c3.5-0.9,7.1-0.1,10,2.1c2.9,2.2,4.5,5.5,4.5,9.1v132.3c0,3.6-1.6,6.9-4.5,9.1C264.2,211.6,261.8,212.4,259.2,212.4z"/>
<rect x="201.3" y="69.4" transform="matrix(0.9686 -0.2487 0.2487 0.9686 -11.7664 54.5154)" class="st1" width="17.1" height="8.8"/>
<rect id="XMLID_107_" x="47.9" y="92.6" class="st5" width="92.2" height="84.2"/>
<rect id="XMLID_108_" x="47.9" y="142.2" class="st0" width="92.2" height="34.6"/>
<path class="st1" d="M144.5,181.2h-86c-8.3,0-15-6.7-15-15v-63c0-8.3,6.7-15,15-15h86V181.2z M58.5,97c-3.4,0-6.2,2.8-6.2,6.2v63
	c0,3.4,2.8,6.2,6.2,6.2h77.1V97H58.5z"/>
</svg>
