<?xml version="1.0" encoding="iso-8859-1"?>
<!-- Generator: Adobe Illustrator 21.0.0, SVG Export Plug-In . SVG Version: 6.00 Build 0)  -->
<svg version="1.1" xmlns="http://www.w3.org/2000/svg" xmlns:xlink="http://www.w3.org/1999/xlink" x="0px" y="0px"
	 viewBox="0 0 44 44" style="enable-background:new 0 0 44 44;" xml:space="preserve">
<g id="home">
</g>
<g id="buy">
</g>
<g id="search">
</g>
<g id="home_x5F_sale">
</g>
<g id="mortgage">
	<g>
		<circle cx="26" cy="8" r="1"/>
		<path d="M43.707,28.293c-2.08-2.081-5.33-2.537-7.839-1.138l-4.198,1.961c-1.147,0.536-2.414,0.827-3.682,0.868
			C28.615,29.148,29,28.122,29,27c0-1.103-0.897-2-2-2H16.63c-2.595,0-5.063,1.12-6.773,3.073l-3.539,4.045
			C5.767,31.442,4.938,31,4,31H1c-0.553,0-1,0.448-1,1s0.447,1,1,1h3c0.552,0,1,0.449,1,1v6c0,0.551-0.448,1-1,1H1
			c-0.553,0-1,0.448-1,1s0.447,1,1,1h3c1.654,0,3-1.346,3-3v-5.624l4.362-4.986C12.692,27.871,14.612,27,16.63,27H27
			c0,1.654-1.346,3-3,3h-1h-5c-0.553,0-1,0.448-1,1s0.447,1,1,1h5h1h3.689c1.657,0,3.326-0.371,4.827-1.073l4.26-1.993
			c1.444-0.803,3.194-0.755,4.577,0.05l-8.333,6.25c-1.572,1.179-3.435,1.916-5.386,2.133L13.55,38.933
			C13.149,38.978,12.74,39,12.335,39H10c-0.553,0-1,0.448-1,1s0.447,1,1,1h2.335c0.479,0,0.962-0.027,1.436-0.08l14.085-1.565
			c2.306-0.256,4.507-1.127,6.364-2.521L43.6,29.8c0.232-0.174,0.377-0.44,0.397-0.729S43.912,28.498,43.707,28.293z"/>
		<path d="M12,13h2v9c0,0.552,0.447,1,1,1s1-0.448,1-1V12c0-0.552-0.447-1-1-1h-1.993c0.035-0.303,0.205-0.572,0.47-0.734
			l11.195-6.89c0.801-0.492,1.856-0.492,2.655,0l11.196,6.89c0.265,0.163,0.435,0.432,0.47,0.734H37c-0.553,0-1,0.448-1,1v12
			c0,0.552,0.447,1,1,1s1-0.448,1-1V13h2c0.553,0,1-0.448,1-1v-0.882c0-1.05-0.534-2.005-1.428-2.555L38,7.595V2
			c0-0.552-0.447-1-1-1h-4c-0.553,0-1,0.448-1,1v1.903l-3.625-2.231c-1.43-0.879-3.319-0.879-4.751,0l-11.196,6.89
			C11.534,9.113,11,10.068,11,11.118V12C11,12.552,11.447,13,12,13z M34,5V3h2v3.364l-2.024-1.245C33.981,5.078,34,5.042,34,5z"/>
		<path d="M25,23c0.553,0,1-0.448,1-1v-8c0-0.552-0.447-1-1-1h-6c-0.553,0-1,0.448-1,1v8c0,0.552,0.447,1,1,1s1-0.448,1-1v-7h4v4
			c-0.553,0-1,0.448-1,1s0.447,1,1,1v1C24,22.552,24.447,23,25,23z"/>
		<path d="M28,21h5c0.553,0,1-0.448,1-1v-6c0-0.552-0.447-1-1-1h-5c-0.553,0-1,0.448-1,1v6C27,20.552,27.447,21,28,21z M29,15h3v4
			h-3V15z"/>
	</g>
</g>
<g id="building">
</g>
<g id="contract">
</g>
<g id="home_x5F_key">
</g>
<g id="ruler">
</g>
<g id="trowel">
</g>
<g id="truck">
</g>
<g id="wheelbarrow">
</g>
<g id="cone">
</g>
<g id="barrier">
</g>
<g id="bulldozer">
</g>
<g id="floor_x5F_plan">
</g>
<g id="crane">
</g>
<g id="demolition_x5F_crane">
</g>
<g id="crane_x5F_hook">
</g>
<g id="roller">
</g>
</svg>
