<?xml version="1.0" encoding="iso-8859-1"?>
<!-- Generator: Adobe Illustrator 21.0.0, SVG Export Plug-In . SVG Version: 6.00 Build 0)  -->
<svg version="1.1" xmlns="http://www.w3.org/2000/svg" xmlns:xlink="http://www.w3.org/1999/xlink" x="0px" y="0px"
	 viewBox="0 0 44 44" style="enable-background:new 0 0 44 44;" xml:space="preserve">
<g id="home">
</g>
<g id="buy">
</g>
<g id="search">
</g>
<g id="home_x5F_sale">
</g>
<g id="mortgage">
</g>
<g id="building">
</g>
<g id="contract">
</g>
<g id="home_x5F_key">
</g>
<g id="ruler">
</g>
<g id="trowel">
</g>
<g id="truck">
</g>
<g id="wheelbarrow">
</g>
<g id="cone">
</g>
<g id="barrier">
</g>
<g id="bulldozer">
</g>
<g id="floor_x5F_plan">
</g>
<g id="crane">
</g>
<g id="demolition_x5F_crane">
</g>
<g id="crane_x5F_hook">
</g>
<g id="roller">
	<g>
		<circle cx="9" cy="29" r="1"/>
		<path d="M43,28h-0.684c-1.126-2.361-3.531-4-6.316-4s-5.19,1.639-6.316,4H29c-0.553,0-1,0.447-1,1v4c0,0.553,0.447,1,1,1h0.684
			c1.126,2.361,3.531,4,6.316,4s5.19-1.639,6.316-4H43c0.553,0,1-0.447,1-1v-4C44,28.447,43.553,28,43,28z M42,32H30v-2h12V32z
			 M36,26c1.628,0,3.064,0.791,3.976,2h-7.953C32.936,26.791,34.372,26,36,26z M36,36c-1.628,0-3.064-0.791-3.976-2h7.953
			C39.064,35.209,37.628,36,36,36z"/>
		<path d="M31.031,22H37c1.654,0,3-1.346,3-3s-1.346-3-3-3H22c0-3.438-1.137-6.849-3.2-9.6C18.611,6.148,18.315,6,18,6H3
			C2.448,6,2,6.447,2,7v6c0,0.553,0.448,1,1,1s1-0.447,1-1V8h6v8H3c-0.334,0-0.646,0.167-0.832,0.445l-2,3
			c-0.306,0.46-0.182,1.08,0.277,1.387c0.459,0.306,1.08,0.183,1.387-0.277L3.535,18h10.93l1.703,2.555
			C16.361,20.844,16.678,21,17.001,21c0.19,0,0.383-0.055,0.554-0.168c0.459-0.307,0.583-0.927,0.277-1.387l-2-3
			C15.646,16.167,15.334,16,15,16h-3V8h5.489C19.111,10.334,20,13.155,20,16h-1c-0.552,0-1,0.447-1,1s0.448,1,1,1h2h1h15
			c0.552,0,1,0.448,1,1s-0.448,1-1,1h-5.969c-1.646,0-3.104,0.987-3.714,2.515l-2.492,6.229C24.521,29.507,23.791,30,22.969,30
			h-5.028C17.978,29.671,18,29.338,18,29c0-4.963-4.038-9-9-9s-9,4.037-9,9s4.038,9,9,9c3.909,0,7.235-2.51,8.475-6h5.494
			c1.646,0,3.104-0.987,3.714-2.515l2.492-6.229C29.479,22.493,30.209,22,31.031,22z M9,36c-3.86,0-7-3.141-7-7s3.14-7,7-7
			s7,3.141,7,7S12.86,36,9,36z"/>
		<path d="M23,28c0.553,0,1-0.447,1-1s-0.447-1-1-1h-3c-0.553,0-1,0.447-1,1s0.447,1,1,1H23z"/>
	</g>
</g>
</svg>
