<?xml version="1.0" encoding="iso-8859-1"?>
<!-- Generator: Adobe Illustrator 21.0.0, SVG Export Plug-In . SVG Version: 6.00 Build 0)  -->
<svg version="1.1" xmlns="http://www.w3.org/2000/svg" xmlns:xlink="http://www.w3.org/1999/xlink" x="0px" y="0px"
	 viewBox="0 0 44 44" style="enable-background:new 0 0 44 44;" xml:space="preserve">
<g id="home">
</g>
<g id="buy">
</g>
<g id="search">
</g>
<g id="home_x5F_sale">
</g>
<g id="mortgage">
</g>
<g id="building">
</g>
<g id="contract">
</g>
<g id="home_x5F_key">
</g>
<g id="ruler">
	<path d="M33,0h-6c-1.654,0-3,1.346-3,3v30c0,0.266,0.105,0.52,0.293,0.707L32.586,42H11c-0.551,0-1-0.448-1-1v-6
		c0-0.552,0.449-1,1-1h10c0.552,0,1-0.447,1-1s-0.448-1-1-1H11c-1.654,0-3,1.346-3,3v6c0,1.654,1.346,3,3,3h24
		c0.404,0,0.769-0.243,0.924-0.617s0.069-0.804-0.217-1.09L26,32.586V3c0-0.551,0.449-1,1-1h6c0.551,0,1,0.449,1,1v1h-3
		c-0.552,0-1,0.448-1,1s0.448,1,1,1h3v2h-1c-0.552,0-1,0.447-1,1s0.448,1,1,1h1v2h-3c-0.552,0-1,0.447-1,1s0.448,1,1,1h3v2h-1
		c-0.552,0-1,0.447-1,1s0.448,1,1,1h1v2h-3c-0.552,0-1,0.447-1,1s0.448,1,1,1h3v2h-1c-0.552,0-1,0.447-1,1s0.448,1,1,1h1v2h-3
		c-0.552,0-1,0.447-1,1s0.448,1,1,1h3v8c0,0.553,0.448,1,1,1s1-0.447,1-1V3C36,1.346,34.654,0,33,0z"/>
</g>
<g id="trowel">
</g>
<g id="truck">
</g>
<g id="wheelbarrow">
</g>
<g id="cone">
</g>
<g id="barrier">
</g>
<g id="bulldozer">
</g>
<g id="floor_x5F_plan">
</g>
<g id="crane">
</g>
<g id="demolition_x5F_crane">
</g>
<g id="crane_x5F_hook">
</g>
<g id="roller">
</g>
</svg>
