<?xml version="1.0" encoding="iso-8859-1"?>
<!-- Generator: Adobe Illustrator 21.0.0, SVG Export Plug-In . SVG Version: 6.00 Build 0)  -->
<svg version="1.1" xmlns="http://www.w3.org/2000/svg" xmlns:xlink="http://www.w3.org/1999/xlink" x="0px" y="0px"
	 viewBox="0 0 44 44" style="enable-background:new 0 0 44 44;" xml:space="preserve">
<g id="home">
</g>
<g id="buy">
</g>
<g id="search">
	<g>
		<path d="M16,2.993c-7.168,0-13,5.833-13,13.002s5.832,13.002,13,13.002s13-5.833,13-13.002S23.168,2.993,16,2.993z M16,26.997
			c-6.065,0-11-4.935-11-11.002S9.935,4.993,16,4.993s11,4.935,11,11.002S22.065,26.997,16,26.997z"/>
		<path d="M42.878,37.463L32.707,27.29c-0.391-0.391-1.023-0.391-1.414,0L30,28.583l-2.687-2.687c-0.391-0.391-1.023-0.391-1.414,0
			c-2.645,2.645-6.16,4.101-9.899,4.101s-7.255-1.457-9.899-4.101C3.457,23.251,2,19.735,2,15.995s1.457-7.256,4.101-9.901
			C8.745,3.449,12.261,1.993,16,1.993s7.255,1.457,9.899,4.101c4.587,4.587,5.406,11.892,1.947,17.368
			c-0.295,0.467-0.155,1.085,0.312,1.38c0.467,0.294,1.084,0.155,1.38-0.312c4.017-6.361,3.102-14.525-2.225-19.851
			c-6.238-6.239-16.389-6.239-22.627,0C1.665,7.702,0,11.721,0,15.995s1.665,8.293,4.687,11.315c3.119,3.12,7.216,4.68,11.313,4.68
			c3.785,0,7.571-1.332,10.584-3.994l2.001,2.001l-1.293,1.293c-0.391,0.391-0.391,1.024,0,1.414l10.171,10.173
			C38.188,43.601,39.149,44,40.171,44C42.283,44,44,42.282,44,40.171C44,39.148,43.602,38.186,42.878,37.463z M40.171,42
			c-0.488,0-0.947-0.19-1.293-0.536l-9.464-9.466L32,29.411l8.086,8.087l-0.793,0.793c-0.391,0.391-0.391,1.024,0,1.414
			c0.195,0.195,0.451,0.293,0.707,0.293s0.512-0.098,0.707-0.293l0.789-0.79C41.819,39.258,42,39.699,42,40.171
			C42,41.179,41.18,42,40.171,42z"/>
		<path d="M16.64,9.226c-0.371-0.31-0.909-0.31-1.28,0l-6,5.001c-0.323,0.27-0.443,0.713-0.3,1.109c0.144,0.396,0.52,0.66,0.94,0.66
			v6.001c0,0.552,0.448,1,1,1h3h4h3c0.552,0,1-0.448,1-1v-6.001c0.421,0,0.797-0.264,0.94-0.66c0.143-0.396,0.023-0.839-0.3-1.109
			L16.64,9.226z M15,20.996v-3.001h2v3.001H15z M20,14.995v6.001h-1v-4.001c0-0.552-0.448-1-1-1h-4c-0.552,0-1,0.448-1,1v4.001h-1
			v-6.001c0-0.112-0.019-0.22-0.053-0.321L16,11.296l4.053,3.378C20.019,14.775,20,14.883,20,14.995z"/>
	</g>
</g>
<g id="home_x5F_sale">
</g>
<g id="mortgage">
</g>
<g id="building">
</g>
<g id="contract">
</g>
<g id="home_x5F_key">
</g>
<g id="ruler">
</g>
<g id="trowel">
</g>
<g id="truck">
</g>
<g id="wheelbarrow">
</g>
<g id="cone">
</g>
<g id="barrier">
</g>
<g id="bulldozer">
</g>
<g id="floor_x5F_plan">
</g>
<g id="crane">
</g>
<g id="demolition_x5F_crane">
</g>
<g id="crane_x5F_hook">
</g>
<g id="roller">
</g>
</svg>
