<?xml version="1.0" encoding="iso-8859-1"?>
<!-- Generator: Adobe Illustrator 19.0.0, SVG Export Plug-In . SVG Version: 6.00 Build 0)  -->
<svg version="1.1" id="Capa_1" xmlns="http://www.w3.org/2000/svg" xmlns:xlink="http://www.w3.org/1999/xlink" x="0px" y="0px"
	 viewBox="0 0 412.118 412.118" style="enable-background:new 0 0 412.118 412.118;" xml:space="preserve">
<g>
	<g>
		<path d="M133.901,76.819c-5.12-27.136-31.744-45.568-58.88-40.448c-27.648,5.12-45.568,31.744-40.448,58.88
			c2.56,13.312,9.728,24.576,20.992,32.256c8.704,5.632,18.432,8.704,28.672,8.704c3.072,0,6.144-0.512,9.216-1.024
			c13.312-1.536,24.576-9.216,32.256-20.48C133.389,103.443,135.949,90.131,133.901,76.819z M117.517,109.587
			c-6.144,8.192-15.36,14.336-26.112,16.384c-10.752,2.048-21.504-0.512-30.208-6.144c-8.704-6.144-14.848-15.36-16.896-25.6
			c-4.096-22.016,10.24-43.008,32.256-47.104c22.016-4.096,43.008,10.24,47.104,32.256
			C125.709,90.131,123.149,100.883,117.517,109.587z"/>
	</g>
</g>
<g>
	<g>
		<path d="M78.605,26.131l-4.096-20.48c-0.512-2.56-3.072-4.608-6.144-4.096c-2.56,0.512-4.608,3.072-4.096,6.144l4.096,20.48
			c0.512,2.048,2.56,4.096,5.12,4.096c0.512,0,0.512,0,1.024,0C77.069,31.763,79.117,29.203,78.605,26.131z"/>
	</g>
</g>
<g>
	<g>
		<path d="M104.717,165.907l-4.096-20.48c-0.512-2.56-3.072-4.608-6.144-4.096c-2.56,0.512-4.608,3.072-4.096,6.144l4.096,20.48
			c0.512,2.56,2.56,4.096,5.12,4.096c0,0,0.512,0,1.024,0C103.181,171.539,105.229,168.979,104.717,165.907z"/>
	</g>
</g>
<g>
	<g>
		<path d="M117.005,235.539l-9.216-49.664c-0.512-2.56-3.072-4.608-6.144-4.096c-2.56,0.512-4.608,3.072-4.096,6.144l9.216,49.664
			c0.512,2.56,2.56,4.096,5.12,4.096c0.512,0,0.512,0,1.024,0C115.469,241.171,117.517,238.611,117.005,235.539z"/>
	</g>
</g>
<g>
	<g>
		<path d="M111.885,4.115c-2.56-1.024-5.632,0.512-6.656,3.072l-6.656,19.968c-1.024,2.56,0.512,5.632,3.072,6.656
			c1.024,0.512,1.536,0.512,2.048,0.512c2.048,0,4.096-1.536,4.608-3.584l6.656-19.968C115.981,8.211,114.445,5.139,111.885,4.115z"
			/>
	</g>
</g>
<g>
	<g>
		<path d="M149.261,29.203c-2.048-2.048-5.12-2.56-7.168-0.512l-15.872,13.824c-2.048,2.048-2.56,5.12-0.512,7.168
			c1.024,1.024,2.56,1.536,4.096,1.536c1.024,0.512,2.048,0,3.072-1.024l15.872-13.824
			C150.797,34.323,151.309,31.251,149.261,29.203z"/>
	</g>
</g>
<g>
	<g>
		<path d="M168.717,69.139c-0.512-2.56-3.072-4.608-6.144-4.096l-20.48,4.096c-2.56,0.512-4.608,3.072-4.096,6.144
			c0.512,2.56,2.56,4.096,5.12,4.096c0.512,0,0.512,0,1.024,0l20.48-4.096C167.693,74.259,169.741,71.699,168.717,69.139z"/>
	</g>
</g>
<g>
	<g>
		<path d="M163.597,106.515l-19.968-6.656c-2.56-1.024-5.632,0.512-6.656,3.072c-1.024,2.56,0.512,5.632,3.072,6.656l19.968,6.656
			c0.512,0.512,1.024,0.512,1.536,0.512c2.048,0,4.096-1.536,5.12-3.584C167.693,110.611,166.157,107.539,163.597,106.515z"/>
	</g>
</g>
<g>
	<g>
		<path d="M142.605,142.867l-14.336-15.36c-2.048-2.048-5.12-2.048-7.168-0.512c-2.048,2.048-2.048,5.12-0.512,7.168l14.336,15.872
			c1.024,1.024,2.56,1.536,3.584,1.536c1.024,0,2.56-0.512,3.584-1.536C144.141,147.987,144.141,144.915,142.605,142.867z"/>
	</g>
</g>
<g>
	<g>
		<path d="M67.853,138.771c-2.56-0.512-5.632,1.024-6.656,3.584l-6.144,19.968c-1.024,2.56,0.512,5.632,3.584,6.656
			c0.512,0,1.024,0,1.536,0c2.048,0,4.096-1.536,5.12-3.584l6.144-19.968C72.461,142.867,70.925,139.795,67.853,138.771z"/>
	</g>
</g>
<g>
	<g>
		<path d="M43.789,123.923c-2.048-2.048-5.12-2.048-7.168,0l-15.36,14.336c-2.048,2.048-2.048,5.12,0,7.168
			c1.024,1.024,2.56,1.536,3.584,1.536c1.024,0,2.56-0.512,3.584-1.536l15.36-14.336C45.837,129.555,45.837,125.971,43.789,123.923z
			"/>
	</g>
</g>
<g>
	<g>
		<path d="M30.477,99.347c-0.512-2.56-3.584-4.608-6.144-3.584l-20.48,5.12c-2.56,0-4.608,2.56-3.584,5.632
			c0.512,2.56,2.56,4.096,5.12,4.096c0.512,0,1.024,0,1.024,0l20.48-5.12C29.453,104.467,30.989,101.907,30.477,99.347z"/>
	</g>
</g>
<g>
	<g>
		<path d="M27.405,64.531L7.437,58.899c-2.56-1.024-5.632,0.512-6.144,3.584c-1.024,2.56,0.512,5.12,3.072,6.144l19.968,5.632
			c0.512,0,1.024,0,1.536,0c2.048,0,4.096-1.536,5.12-3.584C32.013,68.115,30.477,65.043,27.405,64.531z"/>
	</g>
</g>
<g>
	<g>
		<path d="M45.837,39.443l-14.848-15.36c-2.048-2.048-5.12-2.048-7.168,0c-2.048,2.048-2.048,5.12,0,7.168l14.848,15.36
			c1.024,1.024,2.56,1.536,3.584,1.536c1.536,0,2.56-0.512,3.584-1.536C47.885,44.563,47.885,41.491,45.837,39.443z"/>
	</g>
</g>
<g>
	<g>
		<path d="M411.917,356.37l-16.384-151.552c-0.512-2.56-2.56-4.608-5.12-4.608H138.509c-2.56,0-4.608,2.048-5.12,4.608
			l-16.896,151.04c0,1.536,0.512,3.072,1.024,4.096c1.024,1.024,2.56,1.536,3.584,1.536h96.768l-4.608,38.912h-53.76
			c-3.072,0-5.12,2.048-5.12,5.12c0,3.072,2.048,5.12,5.12,5.12h210.432c3.072,0,5.12-2.048,5.12-5.12c0-3.072-2.048-5.12-5.12-5.12
			h-54.272l-5.12-38.4h96.768c1.536,0,3.072-0.512,3.584-1.536C411.917,359.443,412.429,357.906,411.917,356.37z M386.317,210.963
			l2.56,25.088h-40.96l-2.56-25.088H386.317z M344.333,311.827h-43.52l-1.536-27.648h42.496L344.333,311.827z M341.261,273.939
			h-41.984l-1.536-27.648h40.96L341.261,273.939z M335.117,210.963l2.56,25.088h-40.448l-1.024-25.088H335.117z M246.541,210.963
			h39.424l1.024,25.088h-41.984L246.541,210.963z M244.493,246.291h43.008l1.536,27.648h-46.08L244.493,246.291z M242.445,284.179
			h47.104l1.536,27.648h-50.176L242.445,284.179z M239.885,322.067h51.2l1.536,29.696h-54.272L239.885,322.067z M197.389,210.963
			h38.912l-1.536,25.088h-39.936L197.389,210.963z M193.293,246.291h40.448l-1.536,27.648h-41.472L193.293,246.291z
			 M189.709,284.179h41.984l-1.536,27.648h-43.008L189.709,284.179z M143.117,210.451h43.52l-2.56,25.088h-44.032L143.117,210.451z
			 M173.325,351.763h-45.568l3.072-29.696h45.056L173.325,351.763z M176.909,311.827h-45.056l3.072-27.648h44.544L176.909,311.827z
			 M135.949,273.939l3.072-27.648h44.032l-2.56,27.648H135.949z M183.053,351.763l3.072-29.696h43.52l-1.536,29.696H183.053z
			 M224.013,400.914l4.608-38.4h71.68l4.608,38.4H224.013z M302.861,351.763l-1.536-29.696h44.544l3.072,29.696H302.861z
			 M348.941,246.291h41.472l2.56,27.648h-41.472L348.941,246.291z M352.525,284.179h41.984l3.072,27.648h-41.984L352.525,284.179z
			 M359.181,351.763l-3.072-29.696h41.984l3.584,29.696H359.181z"/>
	</g>
</g>
<g>
	<g>
		<path d="M360.717,173.075l-177.664-60.928c-2.56-1.024-5.632,0.512-6.656,3.072c-1.024,2.56,0.512,5.632,3.072,6.656
			l178.176,60.928c0.512,0,1.024,0.512,1.536,0.512c2.048,0,4.096-1.536,4.608-3.584
			C364.813,177.171,363.277,174.099,360.717,173.075z"/>
	</g>
</g>
<g>
</g>
<g>
</g>
<g>
</g>
<g>
</g>
<g>
</g>
<g>
</g>
<g>
</g>
<g>
</g>
<g>
</g>
<g>
</g>
<g>
</g>
<g>
</g>
<g>
</g>
<g>
</g>
<g>
</g>
</svg>
