<?xml version="1.0" encoding="iso-8859-1"?>
<!-- Generator: Adobe Illustrator 21.0.0, SVG Export Plug-In . SVG Version: 6.00 Build 0)  -->
<svg version="1.1" xmlns="http://www.w3.org/2000/svg" xmlns:xlink="http://www.w3.org/1999/xlink" x="0px" y="0px"
	 viewBox="0 0 44 44" style="enable-background:new 0 0 44 44;" xml:space="preserve">
<g id="home">
</g>
<g id="buy">
</g>
<g id="search">
</g>
<g id="home_x5F_sale">
</g>
<g id="mortgage">
</g>
<g id="building">
</g>
<g id="contract">
</g>
<g id="home_x5F_key">
</g>
<g id="ruler">
</g>
<g id="trowel">
</g>
<g id="truck">
	<g>
		<circle cx="9.001" cy="32.001" r="1"/>
		<circle cx="34" cy="32" r="1"/>
		<path d="M25.002,31.001H14.91c-0.478-2.833-2.942-5-5.909-5c-3.308,0-5.999,2.691-5.999,5.999s2.691,5.999,5.999,5.999
			c2.966,0,5.43-2.166,5.909-4.998h10.092c0.552,0,1-0.447,1-1S25.554,31.001,25.002,31.001z M9.001,35.999
			c-2.205,0-3.999-1.794-3.999-3.999s1.794-3.999,3.999-3.999S13,29.795,13,32S11.206,35.999,9.001,35.999z"/>
		<path d="M42.8,21.602l-2.95-2.214l-2.901-8.704C36.812,10.275,36.431,10,36,10h-7c-0.438,0-0.824,0.284-0.955,0.702l-4.507,14.421
			c-0.202,0.647-0.921,1.021-1.568,0.819l-17.603-5.56c-0.329-0.104-0.585-0.376-0.669-0.71l-1.675-6.701
			C2.008,12.908,2,12.845,2,12.781C2,12.351,2.35,12,2.781,12h18.977c1.068,0,2.073-0.416,2.828-1.172l2.242-2.242
			C27.207,8.208,27.709,8,28.243,8H30c0.552,0,1-0.447,1-1s-0.448-1-1-1h-1.757c-1.068,0-2.072,0.416-2.829,1.172l-2.242,2.242
			C22.799,9.786,22.284,10,21.758,10H2.781C1.248,10,0,11.248,0,12.781c0,0.226,0.028,0.451,0.083,0.674l1.675,6.703
			c0.252,1.005,1.021,1.821,2.007,2.132l17.602,5.559C21.685,27.949,22.014,28,22.347,28c1.428,0,2.674-0.916,3.101-2.28L29.735,12
			h5.544l2.333,7.001l-1.995,0l0.277-0.553c0.247-0.494,0.047-1.095-0.447-1.342c-0.495-0.246-1.095-0.047-1.342,0.447L33.382,19
			L30,19c-0.552,0-1,0.447-1,1c0,0.552,0.448,1,1,1l8.668,0.001l2.933,2.201C41.851,23.389,42,23.688,42,24.001V30
			c0,0.552-0.449,1-1,1h-1.09c-0.478-2.833-2.942-5-5.91-5c-3.309,0-6,2.691-6,6s2.691,6,6,6c2.967,0,5.431-2.167,5.91-5H41
			c1.654,0,3-1.346,3-3v-5.999C44,23.061,43.551,22.164,42.8,21.602z M34,36c-2.206,0-4-1.794-4-4s1.794-4,4-4s4,1.794,4,4
			S36.206,36,34,36z"/>
		<path d="M7,15v3c0,0.553,0.448,1,1,1s1-0.447,1-1v-3c0-0.553-0.448-1-1-1S7,14.447,7,15z"/>
		<path d="M11,15v4c0,0.553,0.448,1,1,1s1-0.447,1-1v-4c0-0.553-0.448-1-1-1S11,14.447,11,15z"/>
		<path d="M15,15v5c0,0.553,0.448,1,1,1s1-0.447,1-1v-5c0-0.553-0.448-1-1-1S15,14.447,15,15z"/>
		<path d="M19,15v6c0,0.553,0.448,1,1,1s1-0.447,1-1v-6c0-0.553-0.448-1-1-1S19,14.447,19,15z"/>
	</g>
</g>
<g id="wheelbarrow">
</g>
<g id="cone">
</g>
<g id="barrier">
</g>
<g id="bulldozer">
</g>
<g id="floor_x5F_plan">
</g>
<g id="crane">
</g>
<g id="demolition_x5F_crane">
</g>
<g id="crane_x5F_hook">
</g>
<g id="roller">
</g>
</svg>
