<?xml version="1.0" encoding="iso-8859-1"?>
<!-- Generator: Adobe Illustrator 21.0.0, SVG Export Plug-In . SVG Version: 6.00 Build 0)  -->
<svg version="1.1" xmlns="http://www.w3.org/2000/svg" xmlns:xlink="http://www.w3.org/1999/xlink" x="0px" y="0px"
	 viewBox="0 0 44 44" style="enable-background:new 0 0 44 44;" xml:space="preserve">
<g id="home">
</g>
<g id="buy">
</g>
<g id="search">
</g>
<g id="home_x5F_sale">
</g>
<g id="mortgage">
</g>
<g id="building">
</g>
<g id="contract">
</g>
<g id="home_x5F_key">
</g>
<g id="ruler">
</g>
<g id="trowel">
</g>
<g id="truck">
</g>
<g id="wheelbarrow">
	<path d="M43,4h-1.93c-1.005,0-1.938,0.499-2.496,1.336l-2.346,3.52c-0.776,1.164-1.291,2.511-1.488,3.895l-1.625,11.371
		l-18.712,2.808L5.156,16H31c0.552,0,1-0.447,1-1s-0.448-1-1-1H3c-0.551,0-1-0.448-1-1s0.449-1,1-1h29c0.552,0,1-0.447,1-1
		s-0.448-1-1-1H3c-1.654,0-3,1.346-3,3c0,1.484,1.083,2.721,2.501,2.959l10.213,12.068c-0.278,0.181-0.542,0.387-0.781,0.625
		l-0.464,0.464C10.451,28.392,9.258,28,8,28c-3.309,0-6,2.691-6,6s2.691,6,6,6s6-2.691,6-6c0-0.553-0.448-1-1-1s-1,0.447-1,1
		c0,2.206-1.794,4-4,4s-4-1.794-4-4s1.794-4,4-4c0.724,0,1.412,0.199,2.024,0.562l-2.731,2.731c-0.391,0.391-0.391,1.023,0,1.414
		s1.023,0.391,1.414,0l4.64-4.641c0.63-0.63,1.537-0.936,2.415-0.805c3.055,0.437,5.875,1.94,7.939,4.234l4.84,5.378
		C29.186,39.59,30.107,40,31.07,40c1.023,0,1.982-0.454,2.631-1.245c0.648-0.791,0.905-1.82,0.705-2.824l-0.548-2.741
		c-0.522-2.611-0.154-5.36,1.037-7.742c0.048-0.096,0.08-0.199,0.095-0.306l1.73-12.108c0.156-1.091,0.561-2.151,1.172-3.068
		l2.346-3.52C40.424,6.166,40.735,6,41.07,6H43c0.552,0,1-0.447,1-1S43.552,4,43,4z M32.154,37.487
		c-0.52,0.63-1.58,0.657-2.127,0.049l-4.84-5.378c-1.585-1.761-3.56-3.106-5.74-3.964l12.959-1.944
		c-0.807,2.345-0.998,4.889-0.509,7.331l0.548,2.741C32.527,36.736,32.421,37.161,32.154,37.487z"/>
</g>
<g id="cone">
</g>
<g id="barrier">
</g>
<g id="bulldozer">
</g>
<g id="floor_x5F_plan">
</g>
<g id="crane">
</g>
<g id="demolition_x5F_crane">
</g>
<g id="crane_x5F_hook">
</g>
<g id="roller">
</g>
</svg>
