<?xml version="1.0" encoding="utf-8"?>
<!-- Generator: Adobe Illustrator 21.1.0, SVG Export Plug-In . SVG Version: 6.00 Build 0)  -->
<svg version="1.1" id="Layer_1" xmlns="http://www.w3.org/2000/svg" xmlns:xlink="http://www.w3.org/1999/xlink" x="0px" y="0px"
	 viewBox="0 0 283.5 283.5" style="enable-background:new 0 0 283.5 283.5;" xml:space="preserve">
<style type="text/css">
	.st000{fill:#EFEAE7;}
	.st100{fill:#FFFFFF;}
	.st200{fill:#2A140B;}
	.st300{fill:#FAB6A3;}
	.st400{fill:#FCD2C3;}
	.st500{fill:#4091CE;}
	.st600{fill:#EFCB34;}
	.st700{fill:#C1D9F1;}
</style>
<g>
	<g>
		<path class="st000" d="M208.9,237.8c14.1-3.3,27.7-10.5,39.5-19.8c13-10.3,26.1-28.6,26.5-48.1c0.2-9.4-1.6-18.9-4.8-27.6
			c-3.6-9.9-10.9-18.3-19.2-22.7c-6.2-3.2-12.9-0.7-19.1-3.4c-6.4-2.8-8.5-10.5-5-17.1c3.2-6.1,9.1-10.9,9.2-19
			c0.1-9.9-8.8-15.7-15.4-19.4c-7.2-4.1-15.3-5.4-23.2-6.6C186.4,52.5,175,51,164,51c-9.8,0-19.5,0.7-29.2,0.4
			c-5.5-0.2-12.7-0.8-17.7,2.2c-3.1,1.8-4.7,6.4-2.3,9.9c1.6,2.3,5.5,3.5,7.9,4.3c-7.4,2-15.7,0.7-23.3,1.2
			c-8.8,0.6-17.7,1.6-26.5,2.9c-8.3,1.3-17.2,2.7-25.2,6C35,83.2,29.6,97.2,31,112.7c0.6,6.1,0.8,13.2,3.1,18.8
			c1.2,2.8,6.6,8.7,6.1,11.8c-0.4,3-7.9,4.6-10.2,5.8c-5.4,2.7-12.1,4.6-16.1,10c-4.9,6.6-6.6,20.1-5.4,28.5
			c1.6,11.5,8.8,23.4,15.3,31.7c6.5,8.4,13.9,12.2,22.9,15.6c13.1,4.9,27.6,3,41.3,2.8c17-0.3,34.2,1,51.2,0.7
			c10.7-0.2,21.3,0.1,31.9,0.5c7.3,0.3,14.4,1,21.7,0.9C198.3,239.7,203.6,239,208.9,237.8z"/>
	</g>
	<g>
		<rect x="85" y="147.1" class="st100" width="109.4" height="82.8"/>
	</g>
	<g>
		<path class="st100" d="M147.7,224.5v2.6h-17.1v-2.6H74.5v3.8c0,2.2,1.8,4.1,4.1,4.1h121.3c2.2,0,4.1-1.8,4.1-4.1v-3.8H147.7z"/>
	</g>
	<g>
		<path class="st200" d="M194.5,224.6c-0.3,0-0.6-0.3-0.6-0.6v-76.3H85.7V224c0,0.3-0.3,0.6-0.6,0.6c-0.3,0-0.6-0.3-0.6-0.6v-76.9
			c0-0.3,0.3-0.6,0.6-0.6h109.4c0.3,0,0.6,0.3,0.6,0.6V224C195.1,224.3,194.8,224.6,194.5,224.6z"/>
	</g>
	<g>
		<rect x="89.9" y="150.5" class="st300" width="99.7" height="70.1"/>
	</g>
	<g>
		<g>
			<polygon class="st400" points="148.2,220.6 189.6,194.1 189.6,166.9 105.8,220.6 			"/>
		</g>
		<g>
			<polygon class="st400" points="182.6,150.5 162.8,150.5 89.9,197.3 89.9,209.9 			"/>
		</g>
		<g>
			<polygon class="st400" points="89.9,162.8 89.9,189.7 151.1,150.5 109.1,150.5 			"/>
		</g>
	</g>
	<g>
		<path class="st200" d="M189.6,221.2H89.9c-0.3,0-0.6-0.3-0.6-0.6v-70.1c0-0.3,0.3-0.6,0.6-0.6h99.7c0.3,0,0.6,0.3,0.6,0.6v70.1
			C190.2,220.9,189.9,221.2,189.6,221.2z M90.5,220H189v-68.8H90.5V220z"/>
	</g>
	<g>
		<path class="st200" d="M199.8,233H78.5c-2.6,0-4.7-2.1-4.7-4.7v-3.8c0-0.3,0.3-0.6,0.6-0.6h56.1c0.3,0,0.6,0.3,0.6,0.6v2h15.9v-2
			c0-0.3,0.3-0.6,0.6-0.6h56.1c0.3,0,0.6,0.3,0.6,0.6v3.8C204.5,230.9,202.4,233,199.8,233z M75.1,225.1v3.2c0,1.9,1.5,3.4,3.4,3.4
			h121.3c1.9,0,3.4-1.5,3.4-3.4v-3.2h-54.9v2c0,0.3-0.3,0.6-0.6,0.6h-17.1c-0.3,0-0.6-0.3-0.6-0.6v-2H75.1z"/>
	</g>
	<g>
		<rect x="104.9" y="166.2" class="st100" width="60.9" height="37.7"/>
	</g>
	<g>
		<path class="st200" d="M165.8,204.5h-60.9c-0.3,0-0.6-0.3-0.6-0.6v-37.7c0-0.3,0.3-0.6,0.6-0.6h60.9c0.3,0,0.6,0.3,0.6,0.6v37.7
			C166.4,204.2,166.1,204.5,165.8,204.5z M105.6,203.3h59.6v-36.5h-59.6V203.3z"/>
	</g>
	<g>
		<path class="st200" d="M135.4,198.8c-0.2,0-0.3-0.1-0.4-0.2l-30.4-30.4c-0.1-0.1-0.2-0.3-0.2-0.4v-1.6c0-0.3,0.3-0.6,0.6-0.6
			c0.3,0,0.6,0.3,0.6,0.6v1.3l29.8,29.8l29.8-29.8v-1.3c0-0.3,0.3-0.6,0.6-0.6c0.3,0,0.6,0.3,0.6,0.6v1.6c0,0.2-0.1,0.3-0.2,0.4
			l-30.4,30.4C135.7,198.7,135.5,198.8,135.4,198.8z"/>
	</g>
	<g>
		<g>
			<path class="st200" d="M139.5,180.5c-0.3,0-0.6-0.3-0.6-0.6v-4.1c0-0.3,0.3-0.6,0.6-0.6c0.3,0,0.6,0.3,0.6,0.6v4.1
				C140.1,180.2,139.8,180.5,139.5,180.5z"/>
		</g>
		<g>
			<path class="st200" d="M134.7,183.3c-0.1,0-0.2,0-0.3-0.1l-3.5-2c-0.3-0.2-0.4-0.5-0.2-0.8c0.2-0.3,0.5-0.4,0.8-0.2l3.5,2
				c0.3,0.2,0.4,0.5,0.2,0.8C135.1,183.2,134.9,183.3,134.7,183.3z"/>
		</g>
		<g>
			<path class="st200" d="M147.9,190.9c-0.1,0-0.2,0-0.3-0.1l-3.5-2c-0.3-0.2-0.4-0.5-0.2-0.8c0.2-0.3,0.5-0.4,0.8-0.2l3.5,2
				c0.3,0.2,0.4,0.5,0.2,0.8C148.3,190.8,148.1,190.9,147.9,190.9z"/>
		</g>
		<g>
			<path class="st200" d="M131.1,190.9c-0.2,0-0.4-0.1-0.5-0.3c-0.2-0.3-0.1-0.7,0.2-0.8l3.5-2c0.3-0.2,0.7-0.1,0.8,0.2
				c0.2,0.3,0.1,0.7-0.2,0.8l-3.5,2C131.3,190.9,131.2,190.9,131.1,190.9z"/>
		</g>
		<g>
			<path class="st200" d="M144.3,183.3c-0.2,0-0.4-0.1-0.5-0.3c-0.2-0.3-0.1-0.7,0.2-0.8l3.5-2c0.3-0.2,0.7-0.1,0.8,0.2
				c0.2,0.3,0.1,0.7-0.2,0.8l-3.5,2C144.5,183.3,144.4,183.3,144.3,183.3z"/>
		</g>
	</g>
	<g>
		<g>
			<polygon class="st500" points="160.7,192.4 150.7,189.7 140.8,187.1 143.4,197 146.1,207 150.6,202.6 160.5,211 164.7,206.8 
				156.3,196.9 			"/>
		</g>
		<g>
			<path class="st200" d="M160.5,211.6c-0.1,0-0.3,0-0.4-0.1l-9.6-8.1l-4.1,4.1c-0.2,0.2-0.4,0.2-0.6,0.2c-0.2-0.1-0.4-0.2-0.4-0.4
				l-5.4-20c-0.1-0.2,0-0.4,0.2-0.6c0.2-0.2,0.4-0.2,0.6-0.2l20,5.4c0.2,0.1,0.4,0.2,0.4,0.4c0.1,0.2,0,0.4-0.2,0.6l-4.1,4.1
				l8.1,9.6c0.2,0.2,0.2,0.6,0,0.8l-4.1,4.1C160.9,211.5,160.7,211.6,160.5,211.6z M150.6,202c0.1,0,0.3,0,0.4,0.1l9.6,8.1l3.4-3.4
				l-8.1-9.6c-0.2-0.2-0.2-0.6,0-0.8l3.7-3.7l-17.9-4.8l4.8,17.9l3.7-3.7C150.2,202,150.4,202,150.6,202z"/>
		</g>
	</g>
	<g>
		<g>
			
				<rect x="218.7" y="151.1" transform="matrix(0.9715 -0.237 0.237 0.9715 -32.2886 61.2358)" class="st100" width="39.5" height="27.6"/>
		</g>
		<g>
			<path class="st100" d="M256.1,153.4c0,0,2,0,5.6-4c5.4-5.8,7.5-8.4,8.5-6.9c1,1.5-3.4,8.9-3.4,8.9s3.7-3.5,4.7-2.5c1.1,1.1-4,7-4,7
				s4.3-3.1,5.1-1.8c0.8,1.3-3.1,7.2-13.3,10.1L256.1,153.4z"/>
		</g>
		<g>
			<path class="st100" d="M217.3,162.9c0,0-3.6-0.3-6.2-0.6c-3.2-0.3-8.5-0.6-9.3,0.9c-1.1,2.1,8.3,4.4,8.3,4.4s-6.6,0.1-6.6,1.8
				c0,1.7,8.9,2.7,8.9,2.7s-5.4,0.2-5.9,1.4c-0.5,1.3,6,4.4,13.5,0.8L217.3,162.9z"/>
		</g>
		<g>
			<path class="st200" d="M222.6,183.6c-0.3,0-0.5-0.2-0.6-0.5l-6.5-26.8c0-0.2,0-0.3,0.1-0.5c0.1-0.1,0.2-0.2,0.4-0.3l38.4-9.4
				c0.2,0,0.3,0,0.5,0.1c0.1,0.1,0.2,0.2,0.3,0.4l6.5,26.8c0.1,0.3-0.1,0.7-0.4,0.7l-38.4,9.4C222.7,183.6,222.6,183.6,222.6,183.6z
				 M216.8,156.6l6.3,25.6l37.2-9.1l-6.3-25.6L216.8,156.6z"/>
		</g>
		<g>
			
				<rect x="241.8" y="151.8" transform="matrix(0.9715 -0.2371 0.2371 0.9715 -29.5471 63.0374)" class="st600" width="11.1" height="5.1"/>
		</g>
		<g>
			
				<ellipse transform="matrix(0.9715 -0.2372 0.2372 0.9715 -32.6857 59.3864)" class="st200" cx="230.5" cy="165.5" rx="1.3" ry="1.7"/>
		</g>
		<g>
			<ellipse transform="matrix(0.9715 -0.237 0.237 0.9715 -31.4222 62.6326)" class="st200" cx="244.8" cy="162" rx="1.3" ry="1.7"/>
		</g>
		<g>
			<path class="st200" d="M237.7,174.9c-3.2,0-5.8-1.6-6.4-4.1c-0.1-0.3,0.1-0.7,0.4-0.7l13.5-3.3c0.2,0,0.3,0,0.5,0.1
				c0.1,0.1,0.2,0.2,0.3,0.4c0.7,3.1-1.9,6.4-6,7.4C239.2,174.8,238.4,174.9,237.7,174.9z M232.7,171.2c0.7,1.5,2.6,2.5,5,2.5
				c0.7,0,1.4-0.1,2.1-0.3c3.1-0.8,5.3-3,5.2-5.3L232.7,171.2z"/>
		</g>
		<g>
			<path class="st200" d="M259.3,164.8c-0.3,0-0.5-0.2-0.6-0.4c-0.1-0.3,0.1-0.7,0.4-0.8c8-2.3,11.8-6.4,12.7-8.3
				c0.3-0.6,0.3-0.8,0.2-0.9c-0.3-0.2-2.3,0.6-4.3,2c-0.2,0.2-0.6,0.1-0.8-0.1c-0.2-0.2-0.2-0.6,0-0.8c2.3-2.6,4.1-5.5,4-6.2
				c-0.3-0.2-2.1,0.8-3.9,2.5c-0.2,0.2-0.6,0.2-0.8,0c-0.2-0.2-0.3-0.5-0.1-0.8c2.3-3.8,3.9-7.6,3.5-8.2c-0.1-0.2-0.2-0.2-0.2-0.2
				c-0.8-0.1-3,2.4-5.8,5.4c-0.5,0.5-1,1.1-1.6,1.7c-3.7,4-5.9,4.2-6.1,4.2c-0.3,0-0.6-0.3-0.6-0.6c0-0.3,0.3-0.6,0.6-0.6
				c0.1,0,1.9-0.2,5.2-3.8c0.6-0.6,1.1-1.2,1.6-1.7c3.7-4.1,5.4-5.9,6.8-5.8c0.3,0,0.7,0.2,1.1,0.7c0.8,1.2-0.5,4.2-1.8,6.8
				c1.2-0.7,2.4-1.2,3.1-0.4c0.9,0.9-0.3,3-1.9,5.2c0.8-0.4,1.6-0.6,2.2-0.5c0.4,0.1,0.7,0.3,0.9,0.5c0.2,0.3,0.3,0.8,0,1.7
				c-0.9,2.4-5.3,6.9-13.7,9.4C259.4,164.8,259.4,164.8,259.3,164.8z"/>
		</g>
		<g>
			<path class="st200" d="M212.8,176.7c-3.2,0-5.5-1-6.4-1.8c-0.7-0.6-0.7-1.2-0.6-1.5c0.2-0.6,1-1,2-1.3c-2.6-0.5-5-1.4-5-2.6
				c0-0.2,0.1-0.6,0.4-1c0.6-0.6,2-1,3.4-1.2c-2.2-0.7-4.9-1.9-5.4-3.1c-0.2-0.4-0.2-0.8,0-1.2c0.8-1.7,4.6-1.7,9.9-1.2
				c2.6,0.3,6.2,0.6,6.2,0.6c0.3,0,0.6,0.3,0.6,0.7c0,0.3-0.3,0.6-0.7,0.6c0,0-3.6-0.3-6.2-0.6c-6.7-0.6-8.4,0-8.7,0.6
				c0,0,0,0.1,0,0.2c0.5,1.1,4.9,2.7,7.9,3.4c0.3,0.1,0.5,0.4,0.5,0.7c0,0.3-0.3,0.5-0.6,0.5c-2,0-5.2,0.4-5.9,1.1
				c0,0-0.1,0.1-0.1,0.1c0.2,0.7,4.1,1.7,8.3,2.1c0.3,0,0.6,0.3,0.5,0.6s-0.3,0.6-0.6,0.6c-2.5,0.1-4.9,0.5-5.3,1
				c0.1,0.1,0.4,0.5,1.2,0.9c2.3,1.1,6.7,1.5,11.4-0.7c0.3-0.1,0.7,0,0.8,0.3c0.1,0.3,0,0.7-0.3,0.8
				C217.4,176.2,214.9,176.7,212.8,176.7z"/>
		</g>
	</g>
	<g>
		<g>
			<path class="st100" d="M101.2,106.4c0.9-2,2.7-4,3.8-5.9c1.6-2.6,3.7-4.7,5.9-6.8c1.5-1.4,7.2-6.3,7.1-1.5c0,2.4-1.2,5.5-2.3,7.6
				c0.6-1,1.8-2.2,2.9-2.5c1.6-0.5,3.3,0.4,3.3,2.1c0,2.1-2.3,3-3.3,4.5c1.6-0.5,5.3-2.2,5.3,0.9c0,2.1-3.7,4.1-5.2,5
				c-4.7,3-9.6,4.7-15,6.1L101.2,106.4z"/>
		</g>
		<g>
			<path class="st100" d="M45.2,121.5c-5.1-2.2-9.6-5.6-14.8-7.9c-1.6-0.7-5-1.9-6.3-0.1c-1.2,1.6,0.6,3.7,1.7,4.8
				c0.7,0.7,3.2,2.8,4.2,2.4c-1.5,0.7-5.6,0.1-5.4,2.6c0.1,2.6,4.4,2.4,6.1,2.7c-1.1,0.5-4.1,1.3-4.2,2.9c0,2,4,2.5,5.4,2.6
				c1.8,0.2,3.7,0.3,5.5,0.2c3.7-0.4,6.3-0.6,10-1.5L45.2,121.5z"/>
		</g>
		<g>
			<g>
				
					<rect x="46.6" y="102.1" transform="matrix(0.968 -0.2508 0.2508 0.968 -27.7664 22.6689)" class="st100" width="57" height="36.4"/>
			</g>
			<g>
				<path class="st200" d="M52,145.6c-0.3,0-0.5-0.2-0.6-0.5L42.3,110c0-0.2,0-0.3,0.1-0.5c0.1-0.1,0.2-0.2,0.4-0.3l55.1-14.3
					c0.2,0,0.3,0,0.5,0.1c0.1,0.1,0.2,0.2,0.3,0.4l9.1,35.2c0.1,0.3-0.1,0.7-0.4,0.7l-55.1,14.3C52.1,145.6,52.1,145.6,52,145.6z
					 M43.7,110.2l8.8,34l54-14l-8.8-34L43.7,110.2z"/>
			</g>
			<g>
				<path class="st200" d="M76.8,133.5L76.8,133.5c-4.6,0-8.9-3.5-9.1-3.6c-0.2-0.1-0.3-0.4-0.2-0.6c0-0.2,0.2-0.4,0.4-0.5l17.1-4.4
					c0.2-0.1,0.4,0,0.6,0.2c0.2,0.2,0.2,0.4,0.1,0.6C83.6,132,79.7,133.5,76.8,133.5z M69.5,129.6c1.5,1,4.4,2.6,7.3,2.6
					c3.4,0,5.8-2.2,7.4-6.4L69.5,129.6z"/>
			</g>
			<g>
				<g>
					<path class="st200" d="M81.5,115.6c-0.2,0-0.3-0.1-0.5-0.2c-0.2-0.3-0.2-0.6,0.1-0.9c0.1-0.1,3.3-2.9,5.8-1.4
						c0.3,0.2,0.4,0.5,0.2,0.8c-0.2,0.3-0.5,0.4-0.8,0.2c-1.7-1-4.4,1.2-4.4,1.3C81.7,115.5,81.6,115.6,81.5,115.6z"/>
				</g>
				<g>
					<path class="st200" d="M62.7,120.5c-0.1,0-0.2,0-0.3-0.1c-0.3-0.2-0.4-0.5-0.2-0.8c1.5-2.5,5.6-1.6,5.8-1.6
						c0.3,0.1,0.5,0.4,0.5,0.7c-0.1,0.3-0.4,0.5-0.7,0.5c0,0-3.4-0.7-4.5,1C63.1,120.3,62.9,120.5,62.7,120.5z"/>
				</g>
			</g>
			<g>
				<ellipse transform="matrix(0.968 -0.2508 0.2508 0.968 -27.204 25.7942)" class="st500" cx="87.6" cy="119.6" rx="2.8" ry="2.8"/>
			</g>
			<g>
				<ellipse transform="matrix(0.968 -0.2509 0.2509 0.968 -29.572 19.8904)" class="st500" cx="63.2" cy="125.9" rx="2.8" ry="2.8"/>
			</g>
			<g>
				
					<rect x="84.9" y="101.2" transform="matrix(0.968 -0.2508 0.2508 0.968 -23.4069 26.0057)" class="st600" width="10.9" height="7.3"/>
			</g>
			<g>
				<path class="st100" d="M85.1,104.9c-0.3,0-0.5-0.2-0.6-0.5c-0.1-0.3,0.1-0.7,0.4-0.7l9.4-2.4c0.3-0.1,0.7,0.1,0.7,0.4
					c0.1,0.3-0.1,0.7-0.4,0.7l-9.4,2.4C85.2,104.9,85.1,104.9,85.1,104.9z"/>
			</g>
			<g>
				<path class="st100" d="M85.9,108.2c-0.3,0-0.5-0.2-0.6-0.5c-0.1-0.3,0.1-0.7,0.4-0.7l9.4-2.4c0.3-0.1,0.7,0.1,0.7,0.4
					c0.1,0.3-0.1,0.7-0.4,0.7l-9.4,2.4C86,108.2,86,108.2,85.9,108.2z"/>
			</g>
		</g>
		<g>
			<path class="st200" d="M103.8,116.6c-0.3,0-0.5-0.2-0.6-0.5c-0.1-0.3,0.1-0.7,0.4-0.7c6.3-1.6,10.8-3.4,14.8-6
				c0.2-0.1,0.4-0.2,0.6-0.4c1.5-0.9,4.3-2.6,4.3-4.1c0-0.5-0.1-0.9-0.3-1c-0.7-0.5-2.5,0.1-3.5,0.5c-0.2,0.1-0.4,0.2-0.6,0.2
				c-0.2,0.1-0.5,0-0.7-0.2c-0.2-0.2-0.2-0.5,0-0.7c0.4-0.6,1-1.1,1.5-1.6c0.9-0.8,1.7-1.5,1.7-2.6c0-0.7-0.3-1.1-0.6-1.3
				c-0.5-0.4-1.2-0.5-1.9-0.2c-1,0.3-2.1,1.4-2.6,2.3c-0.2,0.3-0.5,0.4-0.8,0.2c-0.3-0.2-0.4-0.5-0.2-0.8c0.5-1,2.2-4.4,2.2-7.4
				c0-0.5,0-1.3-0.5-1.4c-0.8-0.4-3.2,1-5.6,3.3c-2.2,2.1-4.3,4.1-5.8,6.7c-0.5,0.8-1.1,1.6-1.6,2.4c-0.8,1.2-1.7,2.3-2.2,3.5
				c-0.1,0.3-0.5,0.4-0.8,0.3c-0.3-0.1-0.4-0.5-0.3-0.8c0.6-1.3,1.5-2.5,2.3-3.7c0.6-0.8,1.1-1.5,1.6-2.3c1.6-2.7,3.8-4.8,6-7
				c1.8-1.7,5.1-4.4,6.9-3.6c0.8,0.3,1.2,1.2,1.2,2.6c0,1.6-0.5,3.4-1,4.9c0.3-0.2,0.6-0.3,0.9-0.4c1.1-0.3,2.2-0.2,3,0.4
				c0.7,0.5,1.1,1.3,1.1,2.3c0,1.4-0.9,2.4-1.8,3.2c1.1-0.3,2.2-0.4,2.9,0.2c0.6,0.4,0.9,1.1,0.9,2c0,2.2-3.1,4-4.9,5.2
				c-0.2,0.1-0.4,0.3-0.6,0.4c-4.2,2.7-8.7,4.5-15.1,6.2C103.9,116.6,103.9,116.6,103.8,116.6z"/>
		</g>
		<g>
			<path class="st200" d="M35.6,132.4c-1.1,0-2.3-0.1-3.7-0.3c-1.6-0.2-6-0.8-5.9-3.3c0-1.2,1.2-2,2.4-2.6c-1.9-0.3-4.2-0.8-4.3-3
				c-0.1-2.1,2-2.5,3.7-2.8c-1.2-0.7-2.2-1.8-2.3-1.8c-2.8-2.8-2.5-4.6-1.7-5.6c1.5-2.1,5.1-1,7-0.1c2.5,1.1,5.1,2.5,7.6,3.9
				c2.5,1.4,5.2,2.9,7.8,4c0.3,0.1,0.5,0.5,0.3,0.8c-0.1,0.3-0.5,0.5-0.8,0.3c-2.6-1.1-5.3-2.6-7.9-4c-2.5-1.4-5-2.8-7.5-3.9
				c-1-0.4-4.4-1.8-5.5-0.3c-0.9,1.2,0.4,2.8,1.6,4c1.1,1.1,3,2.4,3.5,2.3c0.3-0.1,0.7,0,0.8,0.3c0.1,0.3,0,0.7-0.3,0.8
				c-0.5,0.2-1.3,0.3-2.1,0.4c-2.1,0.3-3,0.6-3,1.6c0.1,1.4,1.9,1.7,4.2,2c0.6,0.1,1,0.1,1.4,0.2c0.3,0.1,0.4,0.3,0.5,0.5
				c0,0.3-0.1,0.5-0.4,0.6c-0.2,0.1-0.5,0.2-0.7,0.3c-1.1,0.4-3,1.2-3.1,2c0,0.6,0.8,1.5,4.9,2c2.1,0.3,3.8,0.3,5.4,0.2
				c1-0.1,1.9-0.2,2.8-0.2c2.6-0.2,5-0.4,7.6-1c0.3-0.1,0.7,0.1,0.7,0.4c0.1,0.3-0.1,0.7-0.4,0.7c-2.7,0.7-5.2,0.9-7.8,1.1
				c-0.9,0.1-1.8,0.1-2.8,0.2C36.9,132.4,36.2,132.4,35.6,132.4z"/>
		</g>
	</g>
	<g>
		<g>
			<path class="st100" d="M215.4,107.2c2.2-3,16.3-14.1,20.1-11.6c5.9,3.7-5.3,11.4-8,12.1c3.1-1.7,7.4-2.2,7.3,1.8
				c-0.1,4.2-6,5.6-9.3,6.1c8-1.1,6,3.4-0.1,5.1c-5.2,1.4-9,1.5-14.2,0L215.4,107.2z"/>
		</g>
		<g>
			<path class="st100" d="M156,88.8c-0.4-3.7-6.7-20.5-11.2-20.4c-7,0.1-1.4,12.5,0.6,14.5c-1.7-3.1-5.2-5.7-7.2-2.3
				c-2.1,3.6,2.3,7.9,4.8,10c-6.3-5.1-6.9-0.2-2.5,4.4c3.7,3.9,6.9,5.9,12.2,7.4L156,88.8z"/>
		</g>
		<g>
			
				<rect x="164" y="73.8" transform="matrix(0.2687 -0.9632 0.9632 0.2687 33.5584 253.55)" class="st100" width="39.5" height="61.8"/>
		</g>
		<g>
			<path class="st200" d="M180.4,117.5c-0.1,0-0.1,0-0.2,0c-0.2,0-0.3-0.1-0.4-0.3l-21.1-37.5c-0.1-0.1-0.1-0.3-0.1-0.5l0.4-1.5
				c0.1-0.3,0.4-0.5,0.7-0.4c0.3,0.1,0.5,0.4,0.4,0.7l-0.4,1.3l20.7,36.7l36.7-20.7l0.4-1.3c0.1-0.3,0.4-0.5,0.7-0.4
				c0.3,0.1,0.5,0.4,0.4,0.7l-0.4,1.5c0,0.2-0.1,0.3-0.3,0.4l-37.5,21.1C180.6,117.5,180.5,117.5,180.4,117.5z"/>
		</g>
		<g>
			<path class="st200" d="M208.2,132.6c-0.1,0-0.1,0-0.2,0L148.5,116c-0.2,0-0.3-0.1-0.4-0.3c-0.1-0.1-0.1-0.3-0.1-0.5l10.6-38
				c0.1-0.3,0.4-0.5,0.7-0.4L219,93.4c0.2,0,0.3,0.1,0.4,0.3c0.1,0.1,0.1,0.3,0.1,0.5l-10.6,38C208.8,132.4,208.5,132.6,208.2,132.6
				z M149.4,115l58.4,16.3l10.3-36.9l-58.4-16.3L149.4,115z"/>
		</g>
		<g>
			
				<ellipse transform="matrix(0.2687 -0.9632 0.9632 0.2687 43.4755 238.2504)" class="st200" cx="178.6" cy="90.5" rx="3.1" ry="1.3"/>
		</g>
		<g>
			<ellipse transform="matrix(0.2688 -0.9632 0.9632 0.2688 50.8843 256.9742)" class="st200" cx="194.7" cy="95" rx="3.1" ry="1.3"/>
		</g>
		<g>
			<path class="st200" d="M186.2,106.8c-6.1,0-9.9-5.9-10-6c-0.2-0.3-0.1-0.7,0.2-0.8c0.3-0.2,0.7-0.1,0.8,0.2c0.2,0.4,5.8,8.9,14,3.9
				c0.3-0.2,0.7-0.1,0.8,0.2c0.2,0.3,0.1,0.7-0.2,0.8C189.9,106.3,188,106.8,186.2,106.8z"/>
		</g>
		<g>
			<ellipse transform="matrix(0.2687 -0.9632 0.9632 0.2687 43.882 263.761)" class="st500" cx="195.6" cy="103" rx="3.1" ry="3.1"/>
		</g>
		<g>
			
				<ellipse transform="matrix(0.2687 -0.9632 0.9632 0.2687 34.1169 239.1096)" class="st500" cx="174.5" cy="97.1" rx="3.1" ry="3.1"/>
		</g>
		<g>
			<path class="st200" d="M218.2,122.2c-2.3,0-4.6-0.4-7.2-1.1c-0.3-0.1-0.5-0.4-0.4-0.7c0.1-0.3,0.4-0.5,0.7-0.4
				c5.1,1.4,8.7,1.4,13.9,0c3.5-0.9,5-2.7,4.9-3.3c-0.1-0.5-1.4-1-4.6-0.6c-0.3,0-0.6-0.2-0.7-0.5c0-0.3,0.2-0.6,0.5-0.7
				c4-0.6,8.7-2.1,8.8-5.5c0-1-0.3-1.7-0.9-2.1c-0.8-0.5-2.2-0.4-3.7,0.1c-0.8,0.4-1.5,0.7-2,0.9c-0.3,0.1-0.6-0.1-0.7-0.4
				c-0.1-0.3,0-0.6,0.3-0.8c0.6-0.3,1.2-0.6,1.9-0.9c2.7-1.5,7-4.9,7.4-7.6c0.2-1.1-0.3-1.9-1.4-2.6c-3.3-2.1-17,8.3-19.3,11.5
				c-0.2,0.3-0.6,0.3-0.9,0.1c-0.3-0.2-0.3-0.6-0.1-0.9c1.8-2.5,16.5-14.6,20.9-11.8c1.9,1.2,2.1,2.7,1.9,3.8
				c-0.4,2.4-3.1,5.1-5.6,6.9c0.6,0,1.3,0.2,1.8,0.5c0.7,0.4,1.5,1.3,1.5,3.1c0,1.8-1.1,4.1-5.4,5.6c1,0.4,1.3,0.9,1.4,1.4
				c0.3,1.7-2.1,3.7-5.8,4.7C222.8,121.9,220.5,122.2,218.2,122.2z"/>
		</g>
		<g>
			<path class="st200" d="M152.6,103c-0.1,0-0.1,0-0.2,0c-5.3-1.5-8.5-3.5-12.4-7.5c-2.6-2.7-3.7-5.8-2.5-7c0.3-0.3,0.9-0.7,1.9-0.5
				c-2.9-3.5-2.7-6-1.7-7.6c0.9-1.6,2.1-1.9,2.9-1.9c0,0,0,0,0,0c0.6,0,1.2,0.2,1.8,0.5c-1.2-2.9-2.2-6.5-1.2-8.8
				c0.4-1,1.4-2.2,3.6-2.3c0,0,0,0,0,0c5.2,0,11.5,17.8,11.7,20.9c0,0.3-0.2,0.6-0.5,0.7c-0.4,0-0.6-0.2-0.7-0.5
				C155,84.9,148.8,69,144.8,69c0,0,0,0,0,0c-1.3,0-2.1,0.5-2.5,1.5c-1,2.5,0.9,7.6,2.4,10.3c0.5,0.6,0.9,1.2,1.2,1.7
				c0.2,0.3,0.1,0.6-0.2,0.8c-0.2,0.2-0.6,0.2-0.8-0.1c-0.3-0.3-0.8-1-1.2-1.8c-1-1.2-2.2-1.9-3.1-1.9c0,0,0,0,0,0
				c-0.7,0-1.3,0.4-1.8,1.3c-1.7,2.9,1.6,6.7,4.7,9.3c0.3,0.2,0.3,0.6,0.1,0.9c-0.2,0.3-0.6,0.3-0.9,0.1c-2.5-2-3.9-2.3-4.2-1.9
				c-0.5,0.5,0,2.8,2.5,5.4c3.7,3.9,6.8,5.8,11.9,7.2c0.3,0.1,0.5,0.4,0.4,0.8C153.1,102.8,152.9,103,152.6,103z"/>
		</g>
	</g>
	<g>
		<g>
			<path class="st100" d="M37.7,173.7c-0.5-1.7-0.4-3.7-0.8-5.4c-0.2-1.1-1.8-5.6-3.6-4.9c-0.7,0.3-0.9,2.4-0.9,3
				c0,1.6,0.8,2.8,1.2,4.3c-1-0.4-2.4-1.5-3.1-0.4c-0.8,1.2,0.5,3.9,1.6,4.4c-2.8-1.7-3.3,0.7-2.1,2.9c1.2,2.1,3.5,3.1,5.1,4.6
				L37.7,173.7z"/>
		</g>
		<g>
			
				<rect x="42.3" y="164.7" transform="matrix(0.2492 -0.9684 0.9684 0.2492 -136.2646 188.4818)" class="st100" width="22.3" height="34.9"/>
		</g>
		<g>
			<path class="st100" d="M71.7,180.6c1-1.6,7.7-7.3,10.2-5.3c1.8,1.5-4.5,5.6-5.8,6.1c1.2-0.4,3.4-0.8,4.1,0.7c0.9,2-2.2,2.6-3.6,3
				c1.4,0.3,2.8,0.6,3,2c0.3,1.7-1.2,2.7-2.7,3.2c-2.4,0.8-5.6,0.2-8-0.4L71.7,180.6z"/>
		</g>
		<g>
			<path class="st200" d="M51.6,189.7c0,0-0.1,0-0.2,0c-0.2,0-0.3-0.1-0.4-0.3l-12.4-20.9c-0.1-0.1-0.1-0.3-0.1-0.5l0.2-0.9
				c0.1-0.3,0.4-0.5,0.7-0.4c0.3,0.1,0.5,0.4,0.4,0.7l-0.2,0.6l11.9,20.2l20.2-11.9l0.2-0.6c0.1-0.3,0.4-0.5,0.7-0.4
				c0.3,0.1,0.5,0.4,0.4,0.7l-0.2,0.9c0,0.2-0.1,0.3-0.3,0.4L52,189.6C51.9,189.6,51.8,189.7,51.6,189.7z"/>
		</g>
		<g>
			<path class="st200" d="M67.6,197.9c0,0-0.1,0-0.2,0l-33.8-8.7c-0.3-0.1-0.5-0.4-0.4-0.7l5.6-21.6c0-0.2,0.1-0.3,0.3-0.4
				c0.1-0.1,0.3-0.1,0.5-0.1l33.8,8.7c0.3,0.1,0.5,0.4,0.4,0.7l-5.6,21.6c0,0.2-0.1,0.3-0.3,0.4C67.8,197.9,67.7,197.9,67.6,197.9z
				 M34.5,188.1l32.7,8.4l5.3-20.4l-32.7-8.4L34.5,188.1z"/>
		</g>
		<g>
			
				<ellipse transform="matrix(0.2491 -0.9685 0.9685 0.2491 -131.0605 178.3387)" class="st200" cx="49.5" cy="173.7" rx="1.5" ry="0.7"/>
		</g>
		<g>
			
				<ellipse transform="matrix(0.2495 -0.9684 0.9684 0.2495 -125.1674 191.9267)" class="st200" cx="61.2" cy="176.7" rx="1.5" ry="0.7"/>
		</g>
		<g>
			<path class="st200" d="M54.6,182.5c-0.2,0-0.4,0-0.6-0.1c-2.4-0.5-3.4-4-3.4-4.2c-0.1-0.3,0.1-0.7,0.4-0.7c0.3-0.1,0.7,0.1,0.7,0.4
				c0.2,0.8,1.1,3,2.5,3.3c1.1,0.2,2.3-0.9,3.2-1.8c0.2-0.3,0.6-0.3,0.9-0.1c0.3,0.2,0.3,0.6,0.1,0.9
				C57,181.8,55.8,182.5,54.6,182.5z"/>
		</g>
		<g>
			
				<ellipse transform="matrix(0.2494 -0.9684 0.9684 0.2494 -129.1876 193.9264)" class="st500" cx="60.5" cy="180.3" rx="1.2" ry="1.2"/>
		</g>
		<g>
			
				<ellipse transform="matrix(0.2494 -0.9684 0.9684 0.2494 -134.9935 180.4757)" class="st500" cx="48.9" cy="177.3" rx="1.2" ry="1.2"/>
		</g>
		<g>
			<path class="st200" d="M74.4,191.3c-1.5,0-2.8-0.4-4.4-0.7l-0.2-0.1c-0.3-0.1-0.5-0.4-0.4-0.7c0.1-0.3,0.4-0.5,0.7-0.4l0.2,0.1
				c2.3,0.6,4.1,1.1,6.3,0.4c0.9-0.3,2.5-1,2.3-2.5c-0.1-0.9-1-1.2-2.3-1.5l-0.3-0.1c-0.3-0.1-0.5-0.3-0.5-0.6
				c0-0.3,0.2-0.5,0.4-0.6l0.4-0.1c0.9-0.3,2.5-0.7,2.9-1.4c0.1-0.1,0.1-0.3,0-0.7c-0.4-1-2.4-0.7-3.3-0.4c-0.3,0.1-0.6-0.1-0.8-0.4
				c-0.1-0.3,0-0.6,0.3-0.8c1.3-0.5,5.6-3.5,5.8-4.8c0-0.1,0-0.2-0.1-0.2c-0.3-0.3-0.8-0.3-1.5-0.2c-2.7,0.5-7,4.1-7.8,5.4
				c-0.2,0.3-0.6,0.4-0.8,0.2c-0.3-0.2,0-1.2,0.2-1.4c1.5-1.7,5.4-4.9,8.2-5.4c1-0.2,1.8,0,2.4,0.5c0.4,0.3,0.6,0.8,0.5,1.4
				c-0.2,1.4-2.3,3.1-4,4.3c0.8,0.1,1.6,0.6,1.9,1.4c0.3,0.8,0.2,1.3,0,1.7c-0.4,0.8-1.2,1.2-2.1,1.6c0.7,0.4,1.4,0.9,1.5,1.9
				c0.3,1.7-0.9,3.1-3.1,3.8C76.1,191.2,75.2,191.3,74.4,191.3z"/>
		</g>
		<g>
			<path class="st200" d="M35.1,182.9c-0.2,0-0.3-0.1-0.4-0.2c-0.5-0.5-1.1-1-1.8-1.5c-1.3-0.9-2.6-1.9-3.4-3.3
				c-0.9-1.5-0.9-3.2-0.1-3.9c0.2-0.2,0.5-0.4,0.9-0.4c-0.2-0.4-0.4-0.8-0.5-1.2c-0.2-0.7-0.3-1.6,0.2-2.4c0.7-1,1.7-0.8,2.6-0.5
				c0,0,0-0.1,0-0.1c-0.3-0.9-0.7-1.8-0.7-2.9c0-0.3,0-3.1,1.3-3.6c0.5-0.2,1-0.2,1.5,0.1c1.7,0.9,2.8,4.6,2.9,5.2
				c0.2,0.8,0.2,1.7,0.3,2.5c0.1,0.7,0.1,1.4,0.2,2.1c0.1,0.3-0.9,1.5-1,1.2c-0.3-1-0.4-2.1-0.5-3.1c-0.1-0.8-0.1-1.6-0.3-2.3
				c-0.2-1-1.3-3.8-2.3-4.4c-0.2-0.1-0.3-0.1-0.4,0c-0.3,0.2-0.5,1.4-0.5,2.5c0,0.9,0.3,1.7,0.6,2.5c0.2,0.5,0.4,1,0.5,1.6
				c0.1,0.2,0,0.5-0.2,0.6c-0.2,0.1-0.4,0.2-0.6,0.1c-0.2-0.1-0.3-0.2-0.5-0.3c-1.2-0.6-1.6-0.7-1.8-0.3c-0.2,0.3-0.2,0.8,0,1.4
				c0.3,0.9,0.8,1.7,1.2,2c0.1,0,0.1,0.1,0.2,0.1c0.3,0.2,0.4,0.5,0.2,0.8c-0.2,0.3-0.5,0.4-0.8,0.3c-0.1,0-0.2-0.1-0.3-0.2
				c-0.6-0.4-1.2-0.4-1.4-0.2c-0.3,0.3-0.3,1.3,0.3,2.5c0.7,1.2,1.9,2.1,3,2.9c0.7,0.5,1.4,1,1.9,1.6c0.2,0.2,0.2,0.6,0,0.9
				C35.4,182.8,35.3,182.9,35.1,182.9z"/>
		</g>
	</g>
	<g>
		<circle class="st500" cx="129.6" cy="134.2" r="1.6"/>
	</g>
	<g>
		<circle class="st500" cx="145.7" cy="137.8" r="3.9"/>
	</g>
	<g>
		<circle class="st500" cx="56.4" cy="153.1" r="2.1"/>
	</g>
	<g>
		<circle class="st500" cx="204.8" cy="194.9" r="3.1"/>
	</g>
	<g>
		<circle class="st700" cx="203" cy="142.4" r="2.6"/>
	</g>
</g>
</svg>
