<?xml version="1.0" encoding="utf-8"?>
<!-- Generator: Adobe Illustrator 21.1.0, SVG Export Plug-In . SVG Version: 6.00 Build 0)  -->
<svg version="1.1" id="Layer_1" xmlns="http://www.w3.org/2000/svg" xmlns:xlink="http://www.w3.org/1999/xlink" x="0px" y="0px"
	 viewBox="0 0 283.5 283.5" style="enable-background:new 0 0 283.5 283.5;" xml:space="preserve">
<style type="text/css">
	.st00{fill:#EFEAE7;}
	.st10{fill:#2A140B;}
	.st20{fill:#FFFFFF;}
	.st30{fill:#C7C6C5;}
	.st40{fill:#FAB6A3;}
	.st50{fill:#C8A091;}
	.st60{fill:#F6F6F6;}
	.st70{fill:#EFCB34;}
	.st80{fill:#4091CE;}
	.st90{fill:#F9D483;}
</style>
<g>
	<g>
		<path class="st00" d="M254.7,84.7c-0.5-1.2-1-2.4-1.5-3.6c-7.4-16.2-20.9-26.7-37.2-32.8c-5.9-3.9-14.1-5-20-5.7
			c-7.6-0.9-14.9-1.4-22.6-1.8c-29.3-1.5-59.6-5.1-88.4,4.2c-10.4,3.4-21.3,7.3-30.4,13.9c-7.6,5.5-16,10.6-21,19.2
			c-5,8.5-8.5,17.6-10.8,27.4c-1,4.2-1.7,8.5-2.2,12.8c-0.9,3.3-1,7.1-1,10.6l0.2-0.1c-0.4,13.2,1.3,26.5,4.1,39.6
			c3.7,17.3,9.6,33.6,21.2,45.9c7.9,8.3,15.3,13.6,25.8,17.4c24.7,8.9,53.1,6.1,78.7,6.1c10.6,0,21.2,0.1,31.7-1.2
			c8.3-1,16-0.2,24.4-2.6c16.6-4.9,31.6-15.6,41.9-30.9c11.5-17.1,14.7-38.4,15.9-59.2c0.5-9.4-0.4-16.8-1.8-25.8
			C259.9,106.5,259.1,95.7,254.7,84.7z"/>
	</g>
	<g>
		<g>
			<g>
				<path class="st10" d="M100.6,132.8c-1.3,0.2-2.5,0.1-3.8-0.4c-3.3-1.1-5.3-4.4-4-8.2c1.3-4.1,5.3-6.7,9.8-5.3
					c3.5,1.1,5,4.3,3.9,7.6c-1,3-3.2,4.2-5.1,3.6c-0.8-0.3-1.4-1-0.9-2.2l-0.1,0c-1.1,0.9-2.2,1.2-3.4,0.8c-1.2-0.4-1.8-1.6-1.3-3.2
					c0.8-2.5,3.5-4.1,6.3-3.2c0.9,0.3,1.6,0.7,2,1.1l-1.9,3.4c-0.8,1.4-0.8,2.2-0.1,2.4c1,0.4,2.6-0.6,3.3-2.9
					c0.9-2.9-0.1-5.5-3.2-6.5c-3.2-1.1-6.8,0.6-8.1,4.7c-1.1,3.3,0.4,6.1,3.4,7c1.1,0.4,2.3,0.5,3.2,0.3L100.6,132.8z M102.4,123.8
					c-0.2-0.1-0.5-0.3-0.9-0.5c-1.8-0.6-3.7,0.6-4.3,2.5c-0.3,0.9-0.1,1.7,0.8,1.9c1.2,0.4,2.7-0.8,3.3-1.9L102.4,123.8z"/>
			</g>
		</g>
	</g>
	<g>
		<g>
			<g>
				<path class="st10" d="M145,75.5c-0.6,0-1.2-0.1-1.7-0.2c-4.2-1-6.8-5.1-5.8-9.3c1-4.2,5.1-6.8,9.3-5.8c0.3,0.1,0.5,0.4,0.4,0.7
					c-0.1,0.3-0.4,0.5-0.7,0.4c-3.5-0.8-7.1,1.4-7.9,5c-0.8,3.5,1.4,7.1,5,7.9c1.7,0.4,3.5,0.1,5-0.8c1.5-0.9,2.5-2.4,2.9-4.1
					c0.2-1,0.2-2.2-0.1-3.2c-0.1-0.3,0.1-0.6,0.4-0.7c0.3-0.1,0.6,0.1,0.7,0.4c0.3,1.2,0.4,2.5,0.1,3.7c-0.5,2-1.7,3.7-3.4,4.8
					C147.9,75.1,146.4,75.5,145,75.5z"/>
			</g>
			<g>
				<path class="st10" d="M144.9,69.4c-0.1,0-0.3-0.1-0.4-0.2l-4.2-3.8c-0.2-0.2-0.3-0.6,0-0.8c0.2-0.2,0.6-0.3,0.8,0l3.8,3.4
					l9.6-10.7c0.2-0.2,0.6-0.3,0.8,0c0.2,0.2,0.3,0.6,0,0.8l-10,11.2C145.2,69.3,145.1,69.4,144.9,69.4
					C144.9,69.4,144.9,69.4,144.9,69.4z"/>
			</g>
		</g>
	</g>
	<g>
		<path class="st20" d="M168.3,148.4c4.7,8.9,11,13.3,11,13.3l-11.4-25.2l3-4c0,0,29.2,45.6,27.1,49.2c-2.1,3.5-22,2.7-22,2.7
			L168.3,148.4z"/>
	</g>
	<g>
		<polygon class="st30" points="153.8,113.6 173.6,130.5 166.5,141 160,135 		"/>
	</g>
	<g>
		<g>
			<path class="st40" d="M115.7,230.1c0,0-19.9-32.6-22-39c-2.1-6.4,12.3-38.1,15.7-42.8c3.4-4.7,20.8-6.8,20.8-6.8
				s11,12.7,20.8,12.7c10.6,0,8-9.3,8-9.3s10.2-3,12.3,12.7c0,0,11.9,44.1,5.5,75.8L115.7,230.1z"/>
		</g>
	</g>
	<g>
		<polygon class="st50" points="120,227.9 110.1,193.3 125.1,175.4 116,195 120.9,228.1 		"/>
	</g>
	<g>
		<g>
			<path class="st30" d="M107.9,215.6c0,0,45.3,17.9,70.9-2.9c0,0-0.3,9.5-2.4,24.4c0,0-47.7,12.5-68.2,0.5L107.9,215.6z"/>
		</g>
	</g>
	<g>
		<path class="st50" d="M119.9,227.9l0.9,0.2l-1.3-8.9c-0.7-0.2-1.5-0.4-2.1-0.6L119.9,227.9z"/>
	</g>
	<g>
		<path class="st20" d="M153.8,113.6c7.7,11.5,5.1,31.3,5.1,31.3s3.9,11.4,0.2,17.3c-3.7,5.9-28.9-12.1-29.6-20.5
			c-0.7-8.4,3.7-31.1,3.7-31.1S150,106.3,153.8,113.6L153.8,113.6z"/>
	</g>
	<g>
		<path class="st20" d="M148.2,132.2l8.9-0.7C157.1,131.5,154.6,142.3,148.2,132.2z"/>
	</g>
	<g>
		<path class="st40" d="M175.1,158.5c0,0,6.7,15.8,6.4,26l-15.7,0l-3.1-37.8C162.7,146.7,167.7,144.6,175.1,158.5z"/>
	</g>
	<g>
		<path class="st20" d="M98.6,172.6c0,0,10.2,9,18,11.5l-6.1,9.5l9.3,34.4l-3.3,3.4c0,0-22.9-35.8-23.2-41.2
			C93.2,184.8,95.7,176.7,98.6,172.6z"/>
	</g>
	<g>
		<path class="st60" d="M155.8,168.2c0.5,0,1,0,1.5-0.1c3.6-0.5,6-2,7.2-4.3c2.7-5.1-1-13.4-3.5-18.5c-0.3,0-0.6,0-0.8,0
			c2.4,5,6.2,13.2,3.6,18.1c-1.1,2.1-3.4,3.4-6.7,4c-12.2,1.9-28-22.5-29.5-24.9c-0.2,0-0.4,0.1-0.6,0.1l-0.2,0.1
			C127.6,143.8,142.8,168.2,155.8,168.2z"/>
	</g>
	<g>
		<g>
			<path class="st10" d="M145.9,228.2c-8.1,0-14.2-1-14.3-1c-0.3-0.1-0.5-0.4-0.5-0.7c0.1-0.3,0.4-0.5,0.7-0.5
				c0.3,0,25.6,4.2,41.3-4.7c0.3-0.2,0.6-0.1,0.8,0.2c0.2,0.3,0.1,0.6-0.2,0.8C165.3,227,154.5,228.2,145.9,228.2z"/>
		</g>
	</g>
	<g>
		<g>
			<path class="st10" d="M157.2,239.9C157.2,239.9,157.2,239.9,157.2,239.9c-0.4,0-0.6-0.3-0.6-0.6l1.1-12.1c0-0.3,0.3-0.6,0.6-0.5
				c0.3,0,0.6,0.3,0.5,0.6l-1.1,12.1C157.8,239.7,157.5,239.9,157.2,239.9z"/>
		</g>
	</g>
	<g>
		<g>
			<path class="st10" d="M108.2,238.1c-0.3,0-0.6-0.3-0.6-0.6c0-10.7-1.4-21.6-1.5-21.7c0-0.3,0.2-0.6,0.5-0.7c0.3,0,0.6,0.2,0.7,0.5
				c0,0.1,1.5,11.1,1.5,21.9C108.8,237.9,108.5,238.1,108.2,238.1z"/>
		</g>
	</g>
	<g>
		<g>
			<path class="st10" d="M176.4,237.6c0,0-0.1,0-0.1,0c-0.3-0.1-0.5-0.4-0.5-0.7c6.3-31.3-5.2-78.2-5.3-78.7c0,0,0,0,0-0.1
				c-0.8-5.6-2.6-9.4-5.4-11.2c-2.8-1.7-5.6-0.9-5.6-0.9c-0.3,0.1-0.6-0.1-0.7-0.4c-0.1-0.3,0.1-0.6,0.4-0.7c0.1,0,3.3-1.1,6.6,1
				c3.1,2,5.1,6,5.9,12c0.4,1.4,11.5,48,5.3,79.2C176.9,237.4,176.7,237.6,176.4,237.6z"/>
		</g>
	</g>
	<g>
		<g>
			<path class="st10" d="M116,231.1c-0.2,0-0.4-0.1-0.5-0.3c-0.8-1.4-20.3-33.2-22.5-39.6c-2.3-6.9,13-39.8,16-43.9
				c3.6-4.9,19.3-6,19.9-6c0.3,0,0.6,0.2,0.6,0.5c0,0.3-0.2,0.6-0.5,0.6c-0.2,0-15.8,1.1-19.1,5.6c-3.5,4.8-17.9,36.7-15.9,42.8
				c2.1,6.3,22.1,39,22.3,39.3c0.2,0.3,0.1,0.6-0.2,0.8C116.2,231.1,116.1,231.1,116,231.1z"/>
		</g>
	</g>
	<g>
		<g>
			<path class="st10" d="M119.9,229c-0.3,0-0.5-0.2-0.6-0.4l-9.7-35.2c-0.1-0.2,0-0.4,0.1-0.5l14.8-18.2c0.2-0.3,0.6-0.3,0.8-0.1
				c0.3,0.2,0.3,0.6,0.1,0.8l-14.6,18l9.7,34.9c0.1,0.3-0.1,0.6-0.4,0.7C120,229,119.9,229,119.9,229z"/>
		</g>
	</g>
	<g>
		<g>
			<path class="st10" d="M159.4,146.2C159.4,146.2,159.4,146.2,159.4,146.2c-0.4,0-0.6-0.3-0.6-0.7c0-0.2,2.4-20.4-7.2-33.5
				c-0.2-0.3-0.1-0.6,0.1-0.8c0.3-0.2,0.6-0.1,0.8,0.1c9.8,13.5,7.4,34.1,7.4,34.3C160,146,159.7,146.2,159.4,146.2z"/>
		</g>
	</g>
	<g>
		<g>
			<path class="st10" d="M146.6,132.7h8.9C155.5,132.7,152.1,143.3,146.6,132.7z"/>
		</g>
	</g>
	<g>
		<g>
			<path class="st10" d="M144.6,223.4c-15.4,0-27.1-4.4-27.3-4.5c-0.3-0.1-0.5-0.5-0.3-0.8c0.1-0.3,0.5-0.5,0.8-0.3
				c0.3,0.1,32.7,12.2,60-4.2c0.3-0.2,0.6-0.1,0.8,0.2c0.2,0.3,0.1,0.6-0.2,0.8C167.1,221.4,155,223.4,144.6,223.4z"/>
		</g>
	</g>
	<g>
		<g>
			<path class="st10" d="M182,185.1c-2.7,0-4.8-0.1-5.4-0.1c-0.3,0-0.6-0.3-0.6-0.6c0-0.3,0.3-0.6,0.6-0.6c7.6,0.3,20.1,0,21.5-2.3
				c1.1-2.3-13.3-26.4-27.4-48c-0.2-0.3-0.1-0.6,0.2-0.8c0.3-0.2,0.6-0.1,0.8,0.2c0.1,0.1,7.5,11.5,14.5,23.1
				c14.4,23.8,13.4,25.5,12.9,26.2C197.6,184.6,188.2,185.1,182,185.1z"/>
		</g>
	</g>
	<g>
		<g>
			<path class="st10" d="M180,163.4c-0.2,0-0.3-0.1-0.5-0.2c-0.1-0.1-5.9-7.5-12.7-14.7c-0.2-0.2-0.2-0.6,0-0.8
				c0.2-0.2,0.6-0.2,0.8,0c3.9,4.1,7.5,8.3,9.9,11.2l-9.6-21.1c-0.1-0.3,0-0.6,0.3-0.8c0.3-0.1,0.6,0,0.8,0.3l11.5,25.2
				c0.1,0.3,0,0.6-0.2,0.7C180.3,163.3,180.1,163.4,180,163.4z"/>
		</g>
	</g>
	<g>
		<g>
			<path class="st10" d="M166.1,141.3c-0.1,0-0.3-0.1-0.4-0.2l-5.9-5.5c-0.2-0.2-0.3-0.6,0-0.8c0.2-0.2,0.6-0.3,0.8,0l5.4,5l6.1-9.2
				l-18.7-16.2c-0.2-0.2-0.3-0.6-0.1-0.8c0.2-0.2,0.6-0.3,0.8-0.1l19.1,16.5c0.2,0.2,0.3,0.5,0.1,0.8l-6.8,10.2
				C166.5,141.2,166.3,141.3,166.1,141.3C166.1,141.3,166.1,141.3,166.1,141.3z"/>
		</g>
	</g>
	<g>
		<path class="st20" d="M170.2,126.1c0,0-2.8,3.5-5.6,2.1c-2.8-1.4-1.4-8.8-1.4-8.8S168.4,119.4,170.2,126.1z"/>
	</g>
	<g>
		<g>
			<path class="st10" d="M166,129.2c-0.6,0-1.1-0.1-1.7-0.4c-3.1-1.6-1.9-8.6-1.7-9.4c0.1-0.3,0.3-0.5,0.6-0.5c0.1,0,5.7,0.1,7.6,7.1
				c0,0.2,0,0.4-0.1,0.5C170.6,126.6,168.5,129.2,166,129.2z M163.7,120.1c-0.3,2.1-0.6,6.7,1.2,7.6c0.4,0.2,0.7,0.3,1.1,0.3
				c1.6,0,3.1-1.4,3.6-2C168.2,121.2,164.9,120.3,163.7,120.1z"/>
		</g>
	</g>
	<g>
		<g>
			<path class="st10" d="M110.2,233.3c-0.3,0-0.6-0.2-0.6-0.5c0-0.3,0.2-0.6,0.5-0.6c9.3-0.8,13.5-9.3,13.5-9.4
				c0.1-0.3,0.5-0.4,0.8-0.3c0.3,0.1,0.4,0.5,0.3,0.8C124.5,223.6,120.2,232.4,110.2,233.3C110.2,233.3,110.2,233.3,110.2,233.3z"/>
		</g>
	</g>
	<g>
		<g>
			<path class="st70" d="M129.6,141.7c0,0-2.7-36.6-0.4-36.7c2.3-0.2,10.9-2,10.9-2s-1.4-6,7.3-7.1c8.7-1,19.5,1.6,15.6,9.9
				c-3.9,8.4-28.6,6.8-28.6,6.8L129.6,141.7z"/>
		</g>
	</g>
	<g>
		<g>
			<path class="st10" d="M129.6,142.5C129.5,142.5,129.5,142.5,129.6,142.5c-0.3,0-0.6-0.2-0.6-0.5c0-0.1-0.7-9.3-1.1-18.4
				c-0.8-19,0.4-19.1,1.2-19.2c1.9-0.1,8.4-1.5,10.3-1.9c-0.1-0.8,0-2.5,1.1-4c1.3-1.8,3.6-2.9,6.8-3.3c1.2-0.1,2.5-0.2,3.7-0.2
				c6,0,10.6,1.7,12.5,4.4c1.2,1.8,1.2,4.1,0,6.6c-3,6.3-16.6,7.3-24.4,7.3c-1.9,0-3.4-0.1-4.2-0.1l-4.8,28.8
				C130.1,142.3,129.8,142.5,129.6,142.5z M129.4,105.5c-1,1.7-0.5,16.5,0.4,31.4l4-24.3c0-0.3,0.3-0.5,0.6-0.5c0,0,1.9,0.1,4.6,0.1
				c6.1,0,20.6-0.6,23.4-6.6c1-2.2,1-4,0.1-5.5c-1.6-2.4-6-3.9-11.5-3.9c-1.2,0-2.4,0.1-3.6,0.2c-2.9,0.3-4.9,1.3-6,2.8
				c-1.3,1.7-0.8,3.6-0.8,3.7c0,0.1,0,0.3-0.1,0.4c-0.1,0.1-0.2,0.2-0.4,0.2C139.9,103.6,131.9,105.3,129.4,105.5z"/>
		</g>
	</g>
	<g>
		<ellipse class="st20" cx="155.5" cy="99.7" rx="1.9" ry="0.9"/>
	</g>
	<g>
		<ellipse class="st20" cx="147.6" cy="101.9" rx="1.9" ry="0.9"/>
	</g>
	<g>
		<ellipse class="st20" cx="153.3" cy="104.6" rx="1.9" ry="0.9"/>
	</g>
	<g>
		<g>
			<circle class="st20" cx="217.9" cy="164.6" r="10"/>
		</g>
		<g>
			<g>
				<path class="st10" d="M217.9,175.2c-5.8,0-10.6-4.7-10.6-10.6c0-5.8,4.7-10.6,10.6-10.6c5.8,0,10.6,4.7,10.6,10.6
					C228.5,170.4,223.7,175.2,217.9,175.2z M217.9,155.2c-5.2,0-9.4,4.2-9.4,9.4c0,5.2,4.2,9.4,9.4,9.4c5.2,0,9.4-4.2,9.4-9.4
					C227.3,159.4,223.1,155.2,217.9,155.2z"/>
			</g>
		</g>
		<g>
			<g>
				<path class="st10" d="M217.9,175.2c-5.8,0-10.6-4.7-10.6-10.6c0-5.8,4.7-10.6,10.6-10.6c5.8,0,10.6,4.7,10.6,10.6
					C228.5,170.4,223.7,175.2,217.9,175.2z M217.9,155.2c-5.2,0-9.4,4.2-9.4,9.4c0,5.2,4.2,9.4,9.4,9.4c5.2,0,9.4-4.2,9.4-9.4
					C227.3,159.4,223.1,155.2,217.9,155.2z"/>
			</g>
		</g>
		<g>
			<g>
				<path class="st10" d="M217.8,171.4c-2.7,0-4.5-1.7-4.6-1.7c-0.2-0.2-0.2-0.6,0-0.8c0.2-0.2,0.6-0.2,0.8,0
					c0.1,0.1,3.6,3.2,7.8-0.2c0.3-0.2,0.6-0.2,0.8,0.1c0.2,0.3,0.2,0.6-0.1,0.8C220.9,170.9,219.2,171.4,217.8,171.4z"/>
			</g>
		</g>
		<g>
			<g>
				<g>
					<ellipse class="st10" cx="213.5" cy="163.7" rx="1.2" ry="2"/>
				</g>
				<g>
					<ellipse class="st10" cx="222.4" cy="163.7" rx="1.2" ry="2"/>
				</g>
			</g>
		</g>
	</g>
	<g>
		<g>
			<g>
				<polygon class="st10" points="75,152.6 73.3,151.8 71.6,152.7 71.9,150.9 70.5,149.6 72.4,149.3 73.1,147.5 74,149.2 75.9,149.4 
					74.6,150.8 				"/>
			</g>
			<g>
				<polygon class="st10" points="81.9,152.6 80.2,151.8 78.6,152.7 78.9,150.9 77.4,149.6 79.3,149.3 80.1,147.5 81,149.2 
					82.9,149.4 81.6,150.8 				"/>
			</g>
			<g>
				<polygon class="st10" points="88.9,152.6 87.2,151.8 85.5,152.7 85.8,150.9 84.4,149.6 86.3,149.3 87.1,147.5 88,149.2 
					89.8,149.4 88.5,150.8 				"/>
			</g>
			<g>
				<polygon class="st10" points="95.9,152.6 94.2,151.8 92.5,152.7 92.8,150.9 91.4,149.6 93.2,149.3 94,147.5 94.9,149.2 
					96.8,149.4 95.5,150.8 				"/>
			</g>
		</g>
	</g>
	<g>
		<g>
			<path class="st20" d="M106,78.4h12c2.4,0,4.3,1.9,4.3,4.3v10.2c0,2.4-1.9,4.3-4.3,4.3h-3.8l5.1,8l-9.5-8H106
				c-2.4,0-4.3-1.9-4.3-4.3V82.7C101.7,80.3,103.6,78.4,106,78.4z"/>
		</g>
		<g>
			<g>
				<path class="st10" d="M119.3,105.8C119.3,105.8,119.3,105.8,119.3,105.8c-0.1,0-0.3,0-0.4-0.1l-9.3-7.8H106
					c-2.7,0-4.9-2.2-4.9-4.9V82.7c0-2.7,2.2-4.9,4.9-4.9h12c2.7,0,4.9,2.2,4.9,4.9v10.2c0,2.7-2.2,4.9-4.9,4.9h-2.8l4.4,7
					c0.1,0.1,0.2,0.2,0.2,0.4C119.9,105.5,119.6,105.8,119.3,105.8z M106,79c-2.1,0-3.7,1.7-3.7,3.7v10.2c0,2.1,1.7,3.7,3.7,3.7h3.8
					c0.1,0,0.3,0,0.4,0.1l6.6,5.6l-3-4.8c-0.1-0.2-0.1-0.4,0-0.6c0.1-0.2,0.3-0.3,0.5-0.3h3.8c2.1,0,3.7-1.7,3.7-3.7V82.7
					c0-2.1-1.7-3.7-3.7-3.7H106z"/>
			</g>
		</g>
		<g>
			<g>
				<g>
					<path class="st10" d="M111.5,91.8l-0.6-9.8h2.1l-0.6,9.8H111.5z M110.9,94.8V93h1.9v1.9H110.9z"/>
				</g>
			</g>
		</g>
	</g>
	<g>
		<g>
			
				<rect x="196.7" y="124.3" transform="matrix(0.2341 -0.9722 0.9722 0.2341 24.9317 300.3301)" class="st20" width="12.8" height="20.1"/>
		</g>
		<g>
			<g>
				<path class="st10" d="M202.1,138.9c0,0-0.1,0-0.1,0c-0.2,0-0.3-0.1-0.4-0.3l-7.3-11.9c-0.1-0.1-0.1-0.3-0.1-0.4l0.1-0.5
					c0.1-0.3,0.4-0.5,0.7-0.4c0.3,0.1,0.5,0.4,0.4,0.7l-0.1,0.3l6.9,11.2l11.2-6.9l0.1-0.3c0.1-0.3,0.4-0.5,0.7-0.4
					c0.3,0.1,0.5,0.4,0.4,0.7l-0.1,0.5c0,0.2-0.1,0.3-0.3,0.4l-11.9,7.3C202.3,138.9,202.2,138.9,202.1,138.9z"/>
			</g>
		</g>
		<g>
			<g>
				<path class="st10" d="M211.4,143.5c0,0-0.1,0-0.1,0l-19.5-4.7c-0.3-0.1-0.5-0.4-0.4-0.7l3-12.5c0-0.2,0.1-0.3,0.3-0.4
					c0.1-0.1,0.3-0.1,0.4-0.1l19.5,4.7c0.3,0.1,0.5,0.4,0.4,0.7l-3,12.5c0,0.2-0.1,0.3-0.3,0.4C211.6,143.5,211.5,143.5,211.4,143.5
					z M192.5,137.8l18.4,4.4l2.7-11.3l-18.4-4.4L192.5,137.8z"/>
			</g>
		</g>
	</g>
	<g>
		<g>
			<path class="st20" d="M196.6,101c0,3-2.4,5.4-5.4,5.4h-8.5c-3,0-5.4-2.4-5.4-5.4V87.7c0-3,2.4-5.4,5.4-5.4h8.5
				c3,0,5.4,2.4,5.4,5.4V101z"/>
		</g>
		<g>
			<g>
				<path class="st10" d="M191.1,107h-8.5c-3.3,0-6-2.7-6-6V87.7c0-3.3,2.7-6,6-6h8.5c3.3,0,6,2.7,6,6V101
					C197.2,104.3,194.5,107,191.1,107z M182.7,82.8c-2.7,0-4.9,2.2-4.9,4.9V101c0,2.7,2.2,4.9,4.9,4.9h8.5c2.7,0,4.9-2.2,4.9-4.9
					V87.7c0-2.7-2.2-4.9-4.9-4.9H182.7z"/>
			</g>
		</g>
		<g>
			<g>
				<path class="st10" d="M186.3,99.9c-0.3,0-0.6-0.3-0.6-0.6v-1.6h-2.4c-0.2,0-0.3-0.1-0.5-0.2c-0.1-0.1-0.2-0.3-0.1-0.5l1.8-7.5
					c0.1-0.3,0.4-0.5,0.7-0.4c0.3,0.1,0.5,0.4,0.4,0.7l-1.6,6.7h2.3c0.3,0,0.6,0.3,0.6,0.6v2.2C186.9,99.7,186.6,99.9,186.3,99.9z"
					/>
			</g>
		</g>
		<g>
			<path class="st80" d="M191.3,87.5c0,0-8.3,5.4-18.3-0.4c0,0,4.4-13.1,16.1-6h5.9c0.6,0,1.2,0.3,1.7,0.7c0.4,0.5,0.7,1.1,0.6,1.7
				l-0.5,11.9C196.8,95.3,191.1,90.3,191.3,87.5z"/>
		</g>
		<g>
			<g>
				<path class="st10" d="M196.8,95.9c-0.1,0-0.3-0.1-0.4-0.1c-0.5-0.5-4.8-4.4-5.5-7.4c-1.4,0.7-4.3,1.9-8.2,1.9h0
					c-3.4,0-6.7-0.9-9.9-2.8c-0.2-0.1-0.3-0.4-0.3-0.7c0.1-0.3,3-8.5,10.2-8.5c2.1,0,4.3,0.7,6.6,2.1h5.7c0.8,0,1.5,0.3,2.1,0.9
					c0.5,0.6,0.8,1.3,0.8,2.1l-0.5,11.9c0,0.2-0.1,0.4-0.4,0.5C196.9,95.9,196.9,95.9,196.8,95.9z M191.3,86.9c0.1,0,0.2,0,0.3,0.1
					c0.2,0.1,0.3,0.3,0.3,0.5c-0.1,1.7,2.6,4.8,4.3,6.5l0.4-10.6c0-0.5-0.2-0.9-0.5-1.3c-0.3-0.3-0.8-0.5-1.2-0.5h-5.9
					c-0.1,0-0.2,0-0.3-0.1c-2.2-1.3-4.3-2-6.2-2c-5.5,0-8.2,5.6-8.9,7.3c2.9,1.6,5.9,2.4,8.9,2.4h0c5,0,8.4-2.2,8.4-2.2
					C191.1,86.9,191.2,86.9,191.3,86.9z"/>
			</g>
		</g>
		<g>
			<g>
				<path class="st10" d="M186.9,103c-0.4,0-0.7,0-0.7-0.1c-0.3-0.1-0.5-0.4-0.5-0.7c0.1-0.3,0.4-0.5,0.7-0.5c0.1,0,2.9,0.5,4.8-2.6
					c0.2-0.3,0.5-0.3,0.8-0.2c0.3,0.2,0.3,0.5,0.2,0.8C190.5,102.6,188.1,103,186.9,103z"/>
			</g>
		</g>
	</g>
	<g>
		<g>
			<circle class="st80" cx="159.3" cy="86.9" r="2.6"/>
		</g>
	</g>
	<g>
		<g>
			<circle class="st80" cx="80.5" cy="110.4" r="4"/>
		</g>
	</g>
	<g>
		<g>
			<circle class="st80" cx="229.5" cy="148.3" r="2.6"/>
		</g>
	</g>
	<g>
		<circle class="st90" cx="202.4" cy="114.7" r="1.4"/>
	</g>
	<g>
		<circle class="st90" cx="103.6" cy="107.4" r="1.8"/>
	</g>
	<g>
		<g>
			<circle class="st70" cx="103" cy="66.9" r="4.8"/>
		</g>
	</g>
	<g>
		<g>
			<circle class="st70" cx="83.5" cy="172.3" r="3.8"/>
		</g>
	</g>
</g>
</svg>
