<?xml version="1.0" encoding="utf-8"?>
<!-- Generator: Adobe Illustrator 21.1.0, SVG Export Plug-In . SVG Version: 6.00 Build 0)  -->
<svg version="1.1" id="Layer_1" xmlns="http://www.w3.org/2000/svg" xmlns:xlink="http://www.w3.org/1999/xlink" x="0px" y="0px"
	 viewBox="0 0 283.5 283.5" style="enable-background:new 0 0 283.5 283.5;" xml:space="preserve">
<style type="text/css">
	.st0{fill:#EFEAE7;}
	.st1{fill:#2A140B;}
	.st2{fill:#FFFFFF;}
	.st3{fill:#EFCB34;}
	.st4{fill:#4091CE;}
	.st5{fill:#FAB6A3;}
	.st6{fill:#C7C6C5;}
</style>
<g>
	<g>
		<path class="st0" d="M207.6,238.1c13.8-3.4,27.1-10.8,38.7-20.5c12.8-10.7,25.5-29.6,25.9-49.7c0.2-9.8-1.6-19.6-4.7-28.6
			c-3.5-10.3-10.6-19-18.8-23.5c-6.1-3.3-12.6-0.8-18.7-3.6c-6.2-2.9-8.3-10.8-4.9-17.7c3.2-6.4,8.9-11.2,9-19.6
			c0.1-10.3-8.6-16.2-15.1-20.1c-7-4.3-15-5.6-22.7-6.8c-10.7-1.8-21.9-3.3-32.7-3.3c-9.5,0-19,0.7-28.6,0.4
			c-5.4-0.2-12.4-0.8-17.4,2.2c-3,1.9-4.6,6.6-2.2,10.2c1.6,2.4,5.4,3.6,7.7,4.5c-7.2,2.1-15.4,0.7-22.8,1.3
			c-8.7,0.6-17.3,1.6-25.9,3c-8.2,1.3-16.8,2.8-24.7,6.2C37.2,77.9,32,92.4,33.4,108.4c0.6,6.3,0.8,13.7,3.1,19.5
			c1.2,2.9,6.4,9,6,12.2c-0.4,3.1-7.7,4.8-9.9,6c-5.3,2.7-11.9,4.8-15.8,10.3c-4.8,6.8-6.4,20.8-5.2,29.5c1.6,11.9,8.7,24.2,15,32.9
			c6.4,8.7,13.6,12.7,22.5,16.2c12.9,5,27,3.2,40.5,3c16.7-0.3,33.5,1,50.1,0.8c10.5-0.2,20.8,0.2,31.2,0.6c7.2,0.3,14.1,1,21.3,0.9
			C197.2,240.1,202.4,239.4,207.6,238.1z"/>
	</g>
	<g>
		<path class="st1" d="M132.2,228.4c-1.1-0.1-2.3-0.2-3.4-0.3c-0.3,0-0.5-0.3-0.5-0.6c0-0.3,0.3-0.6,0.6-0.5
			c2.3,0.3,4.6,0.4,6.8,0.4c0.3,0,0.6,0.3,0.6,0.6c0,0.3-0.3,0.6-0.6,0.6C134.6,228.5,133.4,228.4,132.2,228.4z M122,227
			C122,227,122,227,122,227c-2.4-0.5-4.6-1.1-6.8-1.8c-0.3-0.1-0.5-0.4-0.4-0.7c0.1-0.3,0.4-0.5,0.7-0.4c2.2,0.7,4.4,1.3,6.6,1.7
			c0.3,0.1,0.5,0.4,0.4,0.7C122.6,226.8,122.3,227,122,227z M142.7,228.3c-0.3,0-0.5-0.2-0.5-0.5c0-0.3,0.2-0.6,0.5-0.6
			c2.3-0.2,4.6-0.5,6.8-0.9c0.3-0.1,0.6,0.2,0.7,0.5c0.1,0.3-0.2,0.6-0.5,0.7C147.4,227.8,145.1,228.1,142.7,228.3
			C142.7,228.3,142.7,228.3,142.7,228.3z M108.8,222.9c-0.1,0-0.1,0-0.2,0c-2.1-0.9-4.2-1.9-6.3-3c-0.3-0.2-0.4-0.5-0.2-0.8
			c0.2-0.3,0.5-0.4,0.8-0.2c2,1.1,4.1,2.1,6.2,3c0.3,0.1,0.4,0.5,0.3,0.8C109.3,222.7,109.1,222.9,108.8,222.9z M156.3,225.9
			c-0.2,0-0.5-0.2-0.5-0.4c-0.1-0.3,0.1-0.6,0.4-0.7c2.2-0.6,4.4-1.3,6.5-2.1c0.3-0.1,0.6,0,0.8,0.3c0.1,0.3,0,0.6-0.3,0.8
			c-2.2,0.8-4.4,1.6-6.6,2.2C156.4,225.9,156.3,225.9,156.3,225.9z M96.6,216.3c-0.1,0-0.2,0-0.3-0.1c-1.9-1.3-3.8-2.7-5.6-4.1
			c-0.2-0.2-0.3-0.6-0.1-0.8c0.2-0.2,0.6-0.3,0.8-0.1c1.8,1.4,3.6,2.8,5.5,4.1c0.3,0.2,0.3,0.5,0.2,0.8
			C97,216.2,96.8,216.3,96.6,216.3z M169.2,221c-0.2,0-0.4-0.1-0.5-0.3c-0.1-0.3,0-0.6,0.3-0.8c2-1,4.1-2.1,6-3.3
			c0.3-0.2,0.6-0.1,0.8,0.2c0.2,0.3,0.1,0.6-0.2,0.8c-2,1.2-4,2.4-6.1,3.4C169.4,221,169.3,221,169.2,221z M85.9,207.6
			c-0.1,0-0.3-0.1-0.4-0.2c-1.6-1.6-3.2-3.4-4.7-5.1c-0.2-0.2-0.2-0.6,0.1-0.8c0.2-0.2,0.6-0.2,0.8,0.1c1.5,1.7,3,3.4,4.7,5
			c0.2,0.2,0.2,0.6,0,0.8C86.3,207.5,86.1,207.6,85.9,207.6z M180.9,213.7c-0.2,0-0.3-0.1-0.4-0.2c-0.2-0.3-0.1-0.6,0.1-0.8
			c1.8-1.4,3.6-2.9,5.3-4.4c0.2-0.2,0.6-0.2,0.8,0c0.2,0.2,0.2,0.6,0,0.8c-1.7,1.6-3.5,3.1-5.3,4.5
			C181.2,213.7,181.1,213.8,180.9,213.7z M77.1,197c-0.2,0-0.3-0.1-0.4-0.3c-1.3-1.9-2.5-3.9-3.7-5.9c-0.2-0.3-0.1-0.6,0.2-0.8
			c0.3-0.2,0.6-0.1,0.8,0.2c1.1,2,2.3,4,3.6,5.8c0.2,0.3,0.1,0.6-0.1,0.8C77.3,196.9,77.2,197,77.1,197z M191.1,204.4
			c-0.1,0-0.2-0.1-0.4-0.1c-0.2-0.2-0.3-0.6,0-0.8c1.5-1.7,3-3.5,4.3-5.3c0.2-0.3,0.6-0.3,0.8-0.1c0.3,0.2,0.3,0.6,0.1,0.8
			c-1.4,1.9-2.9,3.7-4.4,5.4C191.5,204.3,191.3,204.4,191.1,204.4z M70.3,184.9c-0.2,0-0.4-0.1-0.5-0.3c-0.9-2.1-1.8-4.3-2.5-6.5
			c-0.1-0.3,0.1-0.6,0.4-0.7c0.3-0.1,0.6,0.1,0.7,0.4c0.7,2.2,1.5,4.3,2.4,6.4c0.1,0.3,0,0.6-0.3,0.8
			C70.5,184.9,70.4,184.9,70.3,184.9z M199.3,193.3c-0.1,0-0.2,0-0.3-0.1c-0.3-0.2-0.4-0.5-0.2-0.8c1.2-2,2.3-4,3.3-6
			c0.1-0.3,0.5-0.4,0.8-0.3c0.3,0.1,0.4,0.5,0.3,0.8c-1,2.1-2.1,4.2-3.3,6.1C199.8,193.2,199.5,193.3,199.3,193.3z M66,171.8
			c-0.3,0-0.5-0.2-0.5-0.5c-0.5-2.3-0.9-4.6-1.2-6.9c0-0.3,0.2-0.6,0.5-0.6c0.3,0,0.6,0.2,0.6,0.5c0.3,2.3,0.7,4.5,1.2,6.8
			c0.1,0.3-0.1,0.6-0.4,0.7C66.2,171.8,66.1,171.8,66,171.8z M205.3,180.8c-0.1,0-0.1,0-0.2,0c-0.3-0.1-0.5-0.4-0.3-0.7
			c0.8-2.1,1.5-4.3,2-6.6c0.1-0.3,0.4-0.5,0.7-0.4c0.3,0.1,0.5,0.4,0.4,0.7c-0.6,2.2-1.3,4.5-2.1,6.7
			C205.8,180.7,205.6,180.8,205.3,180.8z M64.3,158c-0.3,0-0.5-0.3-0.5-0.6c-0.1-2.3,0-4.7,0.1-7c0-0.3,0.3-0.6,0.6-0.5h0
			c0.3,0,0.6,0.3,0.5,0.6c-0.1,2.3-0.2,4.6-0.1,6.9C65,157.8,64.7,158,64.3,158C64.4,158.1,64.3,158.1,64.3,158z M208.8,167.4
			C208.8,167.4,208.7,167.4,208.8,167.4c-0.4-0.1-0.6-0.4-0.5-0.7c0.4-2.2,0.6-4.5,0.8-6.8l0-0.2c0-0.3,0.3-0.6,0.6-0.5
			c0.3,0,0.6,0.3,0.5,0.6l0,0.2c-0.2,2.3-0.4,4.6-0.8,6.9C209.3,167.2,209.1,167.5,208.8,167.4z M65.2,144.3
			C65.2,144.3,65.2,144.3,65.2,144.3c-0.4-0.1-0.6-0.4-0.5-0.7c0.4-2.3,0.8-4.6,1.4-6.8c0.1-0.3,0.4-0.5,0.7-0.4
			c0.3,0.1,0.5,0.4,0.4,0.7c-0.6,2.2-1,4.5-1.4,6.7C65.8,144.1,65.5,144.3,65.2,144.3z M209.7,153.5c-0.3,0-0.5-0.3-0.5-0.6
			c-0.1-2.3-0.3-4.6-0.5-6.8c0-0.3,0.2-0.6,0.5-0.6c0.3,0,0.6,0.2,0.7,0.5c0.3,2.3,0.5,4.6,0.5,7
			C210.3,153.2,210.1,153.5,209.7,153.5C209.7,153.5,209.7,153.5,209.7,153.5z M68.7,130.9c-0.1,0-0.1,0-0.2,0
			c-0.3-0.1-0.5-0.4-0.3-0.7c0.8-2.2,1.7-4.3,2.7-6.4c0.1-0.3,0.5-0.4,0.8-0.3c0.3,0.1,0.4,0.5,0.3,0.8c-1,2.1-1.9,4.2-2.7,6.3
			C69.2,130.7,68.9,130.9,68.7,130.9z M207.9,139.8c-0.3,0-0.5-0.2-0.5-0.5c-0.5-2.2-1.1-4.4-1.8-6.6c-0.1-0.3,0.1-0.6,0.4-0.7
			c0.3-0.1,0.6,0.1,0.7,0.4c0.7,2.2,1.3,4.5,1.9,6.7c0.1,0.3-0.1,0.6-0.4,0.7C208.1,139.8,208,139.8,207.9,139.8z M74.6,118.4
			c-0.1,0-0.2,0-0.3-0.1c-0.3-0.2-0.4-0.5-0.2-0.8c1.2-2,2.5-3.9,3.9-5.8c0.2-0.3,0.6-0.3,0.8-0.1c0.3,0.2,0.3,0.6,0.1,0.8
			c-1.4,1.8-2.6,3.8-3.8,5.7C75.1,118.3,74.8,118.4,74.6,118.4z M203.6,126.6c-0.2,0-0.4-0.1-0.5-0.3c-0.9-2.1-1.9-4.2-3.1-6.1
			c-0.2-0.3-0.1-0.6,0.2-0.8c0.3-0.2,0.6-0.1,0.8,0.2c1.1,2,2.2,4.1,3.1,6.2c0.1,0.3,0,0.6-0.3,0.8
			C203.8,126.6,203.7,126.7,203.6,126.6z M82.8,107.3c-0.1,0-0.2-0.1-0.4-0.1c-0.2-0.2-0.3-0.6,0-0.8c1.5-1.7,3.2-3.4,4.9-5
			c0.2-0.2,0.6-0.2,0.8,0c0.2,0.2,0.2,0.6,0,0.8c-1.7,1.5-3.3,3.2-4.8,4.9C83.2,107.2,83,107.3,82.8,107.3z M196.9,114.6
			c-0.2,0-0.3-0.1-0.4-0.2c-1.3-1.9-2.7-3.7-4.2-5.5c-0.2-0.2-0.2-0.6,0.1-0.8c0.2-0.2,0.6-0.2,0.8,0.1c1.5,1.8,2.9,3.6,4.2,5.5
			c0.2,0.3,0.1,0.6-0.1,0.8C197.2,114.6,197,114.6,196.9,114.6z M93,97.9c-0.2,0-0.3-0.1-0.4-0.2c-0.2-0.3-0.1-0.6,0.1-0.8
			c1.8-1.4,3.8-2.7,5.7-4c0.3-0.2,0.6-0.1,0.8,0.2c0.2,0.3,0.1,0.6-0.2,0.8c-1.9,1.2-3.8,2.5-5.7,3.9C93.3,97.9,93.1,97.9,93,97.9z
			 M188,104c-0.1,0-0.3-0.1-0.4-0.2c-1.6-1.6-3.3-3.1-5.1-4.6c-0.2-0.2-0.3-0.6-0.1-0.8c0.2-0.2,0.6-0.3,0.8-0.1
			c1.8,1.5,3.5,3,5.2,4.7c0.2,0.2,0.2,0.6,0,0.8C188.3,103.9,188.2,104,188,104z M104.7,90.6c-0.2,0-0.4-0.1-0.5-0.3
			c-0.1-0.3,0-0.6,0.3-0.8c2.1-1,4.2-2,6.4-2.8c0.3-0.1,0.6,0,0.8,0.3c0.1,0.3,0,0.6-0.3,0.8c-2.1,0.8-4.2,1.7-6.3,2.8
			C104.9,90.6,104.8,90.6,104.7,90.6z M177.3,95.3c-0.1,0-0.2,0-0.3-0.1c-1.9-1.3-3.9-2.5-5.9-3.5c-0.3-0.2-0.4-0.5-0.2-0.8
			c0.2-0.3,0.5-0.4,0.8-0.2c2,1.1,4.1,2.3,6,3.6c0.3,0.2,0.3,0.5,0.2,0.8C177.7,95.2,177.5,95.3,177.3,95.3z M117.7,85.7
			c-0.2,0-0.5-0.2-0.5-0.4c-0.1-0.3,0.1-0.6,0.4-0.7c2.2-0.6,4.5-1.1,6.8-1.5c0.3-0.1,0.6,0.2,0.7,0.5c0.1,0.3-0.2,0.6-0.5,0.7
			c-2.2,0.4-4.5,0.9-6.7,1.5C117.8,85.7,117.7,85.7,117.7,85.7z M165.1,88.7c-0.1,0-0.1,0-0.2,0c-2.1-0.9-4.3-1.7-6.4-2.3
			c-0.3-0.1-0.5-0.4-0.4-0.7c0.1-0.3,0.4-0.5,0.7-0.4c2.2,0.7,4.4,1.5,6.6,2.4c0.3,0.1,0.4,0.5,0.3,0.8
			C165.6,88.6,165.4,88.7,165.1,88.7z M131.3,83.3c-0.3,0-0.5-0.2-0.5-0.5c0-0.3,0.2-0.6,0.5-0.6c2.3-0.2,4.6-0.2,7-0.2
			c0.3,0,0.6,0.3,0.6,0.6c0,0.3-0.3,0.6-0.6,0.6C135.9,83.1,133.6,83.1,131.3,83.3C131.3,83.3,131.3,83.3,131.3,83.3z M151.9,84.6
			C151.9,84.6,151.9,84.6,151.9,84.6c-2.3-0.5-4.6-0.8-6.9-1.1c-0.3,0-0.5-0.3-0.5-0.6c0-0.3,0.3-0.6,0.6-0.5
			c2.3,0.3,4.6,0.6,6.9,1.1c0.3,0.1,0.5,0.4,0.5,0.7C152.5,84.5,152.2,84.7,151.9,84.6z"/>
	</g>
	<g>
		<g>
			<circle class="st2" cx="113.4" cy="83" r="18.4"/>
		</g>
		<g>
			<path class="st1" d="M113.4,102c-3.1,0-6-0.7-8.7-2.1c-0.1-0.1-0.3-0.2-0.3-0.4c0-0.2,0-0.3,0.1-0.5c1.4-2.2,3.3-3.8,5.4-4.6
				v-4.3c0-0.3,0.3-0.6,0.6-0.6h4.4c0.3,0,0.6,0.3,0.6,0.6v4.3c2.3,0.8,4.4,2.6,5.8,5.2c0.1,0.1,0.1,0.3,0,0.5
				c-0.1,0.2-0.2,0.3-0.3,0.3C118.5,101.5,116,102,113.4,102z M105.7,99.1c2.4,1.1,5,1.7,7.6,1.7c2.2,0,4.4-0.4,6.4-1.2
				c-1.3-2.1-3.2-3.6-5.2-4.2c-0.2-0.1-0.4-0.3-0.4-0.6v-4.1H111v4.1c0,0.3-0.2,0.5-0.4,0.6C108.7,96,107,97.3,105.7,99.1z"/>
		</g>
		<g>
			<circle class="st3" cx="117.9" cy="73.5" r="3.5"/>
		</g>
		<g>
			<path class="st1" d="M117.9,77.6c-2.2,0-4.1-1.8-4.1-4.1c0-2.2,1.8-4.1,4.1-4.1c2.2,0,4.1,1.8,4.1,4.1
				C122,75.8,120.2,77.6,117.9,77.6z M117.9,70.7c-1.6,0-2.9,1.3-2.9,2.9c0,1.6,1.3,2.9,2.9,2.9c1.6,0,2.9-1.3,2.9-2.9
				C120.8,72,119.5,70.7,117.9,70.7z"/>
		</g>
		<g>
			<ellipse class="st2" cx="112.6" cy="84" rx="6.8" ry="9"/>
		</g>
		<g>
			<path class="st1" d="M112.6,93.5c-4.1,0-7.4-4.3-7.4-9.6c0-5.3,3.3-9.6,7.4-9.6c4.1,0,7.4,4.3,7.4,9.6
				C120,89.2,116.6,93.5,112.6,93.5z M112.6,75.6c-3.5,0-6.3,3.8-6.3,8.4c0,4.6,2.8,8.4,6.3,8.4c3.5,0,6.3-3.8,6.3-8.4
				C118.8,79.4,116,75.6,112.6,75.6z"/>
		</g>
		<g>
			<path class="st3" d="M115.4,80.8c0,0-11.1,4.6-14-5.9c0,0,3.7,1.6,6.8,0.3c3.1-1.3,7.2-1.6,9.2,0.4c2,2,4,4.7,2.7,9
				C120.1,84.7,115.1,82.2,115.4,80.8z"/>
		</g>
		<g>
			<path class="st1" d="M120.1,85.2c-0.1,0-0.2,0-0.3-0.1c-1.3-0.7-4.1-2.2-4.8-3.6c-0.9,0.3-2.8,0.8-4.9,0.8
				c-3.3,0-7.6-1.3-9.2-7.3c-0.1-0.2,0-0.4,0.2-0.6c0.2-0.1,0.4-0.2,0.6-0.1c0,0,1.8,0.8,3.8,0.8c0.9,0,1.8-0.2,2.5-0.5
				c1.6-0.7,3.4-1.1,5.1-1.1c2,0,3.7,0.6,4.8,1.7c2.2,2.2,4.3,5.1,2.8,9.6c-0.1,0.2-0.2,0.3-0.3,0.4
				C120.2,85.2,120.1,85.2,120.1,85.2z M115.4,80.3c0.1,0,0.3,0,0.4,0.1c0.2,0.1,0.2,0.3,0.2,0.6c0,0.5,1.7,1.8,3.8,2.9
				c0.8-3.5-0.8-5.8-2.7-7.7c-1.1-1.1-2.7-1.3-3.9-1.3c-1.5,0-3.1,0.4-4.6,1c-0.9,0.4-1.9,0.6-3,0.6c-1.2,0-2.3-0.2-3.1-0.5
				c1.3,3.6,3.9,5.4,7.8,5.4c2.7,0,5-0.9,5.1-1C115.2,80.3,115.3,80.3,115.4,80.3z"/>
		</g>
		<g>
			<path class="st1" d="M112.7,90.2c-1.9,0-3.4-1.3-3.7-3.1c0-0.2,0-0.3,0.1-0.5c0.1-0.1,0.3-0.2,0.4-0.2h6.2c0.2,0,0.3,0.1,0.4,0.2
				c0.1,0.1,0.2,0.3,0.1,0.5C116.1,88.8,114.5,90.2,112.7,90.2z M110.3,87.6c0.4,0.8,1.3,1.4,2.3,1.4s1.9-0.6,2.3-1.4H110.3z"/>
		</g>
		<g>
			<path class="st1" d="M113.4,102c-10.5,0-19-8.5-19-19s8.5-19,19-19c10.5,0,19,8.5,19,19S123.8,102,113.4,102z M113.4,65.2
				c-9.8,0-17.8,8-17.8,17.8s8,17.8,17.8,17.8c9.8,0,17.8-8,17.8-17.8S123.2,65.2,113.4,65.2z"/>
		</g>
	</g>
	<g>
		<g>
			<circle class="st2" cx="88.1" cy="207" r="18.4"/>
		</g>
		<g>
			<path class="st4" d="M88.1,225.4c2.6,0,5-0.5,7.3-1.5c-1.4-2.5-3.5-4.3-5.9-5v-4.7h-4.4v4.7c-2.2,0.6-4.1,2.2-5.5,4.5
				C82.1,224.7,85,225.4,88.1,225.4z"/>
		</g>
		<g>
			<path class="st1" d="M88.1,226c-3.1,0-6-0.7-8.8-2.1c-0.1-0.1-0.3-0.2-0.3-0.4c0-0.2,0-0.3,0.1-0.5c1.4-2.2,3.3-3.8,5.4-4.6v-4.3
				c0-0.3,0.3-0.6,0.6-0.6h4.4c0.3,0,0.6,0.3,0.6,0.6v4.3c2.3,0.8,4.4,2.6,5.8,5.2c0.1,0.1,0.1,0.3,0,0.5c-0.1,0.2-0.2,0.3-0.3,0.3
				C93.2,225.5,90.7,226,88.1,226z M80.4,223.1c2.4,1.1,5,1.7,7.6,1.7c2.2,0,4.4-0.4,6.4-1.2c-1.3-2.1-3.2-3.6-5.2-4.2
				c-0.2-0.1-0.4-0.3-0.4-0.6v-4.1h-3.2v4.1c0,0.3-0.2,0.5-0.4,0.6C83.4,220,81.7,221.3,80.4,223.1z"/>
		</g>
		<g>
			<ellipse class="st2" cx="87.2" cy="208" rx="6.8" ry="9"/>
		</g>
		<g>
			<path class="st1" d="M87.2,217.6c-4.1,0-7.4-4.3-7.4-9.6c0-5.3,3.3-9.6,7.4-9.6c4.1,0,7.4,4.3,7.4,9.6
				C94.7,213.3,91.3,217.6,87.2,217.6z M87.2,199.6c-3.5,0-6.3,3.8-6.3,8.4c0,4.6,2.8,8.4,6.3,8.4c3.5,0,6.3-3.8,6.3-8.4
				C93.5,203.4,90.7,199.6,87.2,199.6z"/>
		</g>
		<g>
			<path class="st1" d="M88.1,226c-10.5,0-19-8.5-19-19c0-10.5,8.5-19,19-19c10.5,0,19,8.5,19,19C107.1,217.5,98.5,226,88.1,226z
				 M88.1,189.2c-9.8,0-17.8,8-17.8,17.8c0,9.8,8,17.8,17.8,17.8c9.8,0,17.8-8,17.8-17.8C105.9,197.2,97.9,189.2,88.1,189.2z"/>
		</g>
		<g>
			<path class="st1" d="M87.3,214.3C87.3,214.3,87.3,214.3,87.3,214.3c-1.6,0-2.5-1.5-2.5-1.5c-0.2-0.3-0.1-0.6,0.2-0.8
				c0.3-0.2,0.6-0.1,0.8,0.2c0,0,0.7,1,1.5,1c0.6,0,1.1-0.4,1.7-1.1c0.2-0.3,0.6-0.3,0.8-0.1c0.3,0.2,0.3,0.6,0.1,0.8
				C89.2,213.8,88.3,214.3,87.3,214.3z"/>
		</g>
	</g>
	<g>
		<g>
			<circle class="st2" cx="192.8" cy="90.8" r="21.3"/>
		</g>
		<g>
			<path class="st1" d="M192.8,112.7c-12.1,0-21.9-9.8-21.9-21.9s9.8-21.9,21.9-21.9c12.1,0,21.9,9.8,21.9,21.9
				S204.9,112.7,192.8,112.7z M192.8,70.1c-11.4,0-20.7,9.3-20.7,20.7c0,11.4,9.3,20.7,20.7,20.7c11.4,0,20.7-9.3,20.7-20.7
				C213.5,79.4,204.2,70.1,192.8,70.1z"/>
		</g>
		<g>
			<path class="st1" d="M192.2,101.5c-5.2,0-9.5-4.3-9.5-9.5v-3.9c0-5.2,4.3-9.5,9.5-9.5c5.2,0,9.5,4.3,9.5,9.5V92
				C201.7,97.2,197.4,101.5,192.2,101.5z M192.2,79.8c-4.6,0-8.3,3.7-8.3,8.3V92c0,4.6,3.7,8.3,8.3,8.3c4.6,0,8.3-3.7,8.3-8.3v-3.9
				C200.5,83.5,196.8,79.8,192.2,79.8z"/>
		</g>
		<g>
			<path class="st1" d="M192.5,97c-2.1,0-3.6-1.3-3.6-1.4c-0.2-0.2-0.3-0.6,0-0.8c0.2-0.2,0.6-0.3,0.8,0l0,0
				c0.1,0.1,2.9,2.6,5.9-0.4c0.2-0.2,0.6-0.2,0.8,0c0.2,0.2,0.2,0.6,0,0.8C195,96.6,193.7,97,192.5,97z"/>
		</g>
		<g>
			<path class="st1" d="M194.3,92.5h-2c-0.3,0-0.6-0.3-0.6-0.6c0-0.3,0.3-0.6,0.6-0.6h1.1l-1.6-3.5c-0.1-0.3,0-0.6,0.3-0.8
				c0.3-0.1,0.6,0,0.8,0.3l2,4.3c0.1,0.2,0.1,0.4,0,0.6C194.7,92.4,194.5,92.5,194.3,92.5z"/>
		</g>
		<g>
			<path class="st5" d="M187.6,83.6c0,0,13.5,6.7,17-5.5h-13.3c0,0-4-1.3-4.7,2.7c0,0-2.9-1.9-4.6,0.7c-1.7,2.6,0.9,8.4,0.9,8.4
				S187,87.6,187.6,83.6z"/>
		</g>
		<g>
			<path class="st1" d="M182.9,90.5c-0.1,0-0.1,0-0.2,0c-0.2-0.1-0.3-0.2-0.3-0.3c-0.1-0.3-2.7-6.2-0.8-9c0.7-1.1,1.7-1.6,2.9-1.6
				c0.7,0,1.3,0.2,1.8,0.4c0.7-2.3,2.6-2.6,3.7-2.6c0.7,0,1.3,0.1,1.5,0.2h13.2c0.2,0,0.4,0.1,0.5,0.2c0.1,0.1,0.1,0.3,0.1,0.5
				c-1.8,6.4-6.3,7.8-9.8,7.8c-3.1,0-6-1-7.3-1.6c-1,3.7-4.7,5.9-4.8,6C183.1,90.5,183,90.5,182.9,90.5z M184.4,80.7
				c-0.8,0-1.4,0.4-1.9,1.1c-1.1,1.7-0.1,5.3,0.6,7.2c1.1-0.8,3.5-2.7,3.9-5.5c0-0.2,0.1-0.3,0.3-0.4c0.2-0.1,0.4-0.1,0.5,0
				c0,0,3.6,1.8,7.5,1.8c4.2,0,7.1-2.1,8.5-6.2h-12.5c-0.1,0-0.1,0-0.2,0c0,0-0.5-0.2-1.2-0.2c-1.5,0-2.4,0.8-2.7,2.4
				c0,0.2-0.2,0.4-0.3,0.4c-0.2,0.1-0.4,0.1-0.5,0C186.2,81.3,185.4,80.7,184.4,80.7z"/>
		</g>
		<g>
			<path class="st1" d="M180.3,108.9c-0.1,0-0.1,0-0.2,0c-0.3-0.1-0.5-0.4-0.4-0.7c1.1-3.6,5.3-4.1,7.6-4.3c0.4,0,0.7-0.1,0.9-0.1
				c0.7-0.1,0.7-1.9,0.5-2.9c-0.1-0.3,0.2-0.6,0.5-0.7c0.3-0.1,0.6,0.2,0.7,0.5c0.1,0.4,0.6,3.9-1.5,4.2c-0.3,0-0.6,0.1-1,0.1
				c-2,0.2-5.8,0.6-6.6,3.5C180.8,108.7,180.5,108.9,180.3,108.9z"/>
		</g>
		<g>
			<path class="st1" d="M204.4,108.9c-0.3,0-0.5-0.2-0.6-0.4c-0.9-2.9-4.6-3.3-6.6-3.5c-0.4,0-0.8-0.1-1-0.1
				c-2.1-0.4-1.5-3.8-1.5-4.2c0.1-0.3,0.4-0.5,0.7-0.5c0.3,0.1,0.5,0.4,0.5,0.7c-0.2,0.9-0.2,2.8,0.5,2.9c0.2,0,0.6,0.1,0.9,0.1
				c2.3,0.2,6.6,0.7,7.6,4.3c0.1,0.3-0.1,0.6-0.4,0.7C204.5,108.9,204.4,108.9,204.4,108.9z"/>
		</g>
	</g>
	<g>
		<circle class="st2" cx="179.8" cy="217.9" r="19.8"/>
	</g>
	<g>
		<path class="st1" d="M179.8,238.3c-11.2,0-20.3-9.1-20.3-20.3c0-11.2,9.1-20.3,20.3-20.3c11.2,0,20.3,9.1,20.3,20.3
			C200.2,229.1,191.1,238.3,179.8,238.3z M179.8,198.8c-10.6,0-19.2,8.6-19.2,19.2c0,10.6,8.6,19.2,19.2,19.2
			c10.6,0,19.2-8.6,19.2-19.2C199,207.4,190.4,198.8,179.8,198.8z"/>
	</g>
	<g>
		<path class="st3" d="M187.5,218.1L187.5,218.1l0.1-2.7c0-4.6-3.7-8.3-8.3-8.3c-4.6,0-8.3,3.7-8.3,8.3v1.8l0.1,0l2.9-3.6
			c4,4,10.5,0,10.5,0L187.5,218.1z"/>
	</g>
	<g>
		<path class="st1" d="M179.3,227.9c-4.9,0-8.8-4-8.8-8.8v-3.6c0-4.9,4-8.8,8.8-8.8s8.8,4,8.8,8.8v3.6
			C188.2,223.9,184.2,227.9,179.3,227.9z M179.3,207.8c-4.2,0-7.7,3.4-7.7,7.7v3.6c0,4.2,3.4,7.7,7.7,7.7c4.2,0,7.7-3.4,7.7-7.7
			v-3.6C187,211.2,183.5,207.8,179.3,207.8z"/>
	</g>
	<g>
		<path class="st1" d="M179.6,223.7c-1.9,0-3.3-1.3-3.4-1.3c-0.2-0.2-0.3-0.6,0-0.8c0.2-0.2,0.6-0.3,0.8,0l0,0
			c0.1,0.1,2.7,2.4,5.4-0.4c0.2-0.2,0.6-0.2,0.8,0c0.2,0.2,0.2,0.6,0,0.8C181.9,223.3,180.7,223.7,179.6,223.7z"/>
	</g>
	<g>
		<path class="st1" d="M168.3,234.7c-0.1,0-0.1,0-0.2,0c-0.3-0.1-0.5-0.4-0.4-0.7c1-3.4,5-3.8,7.1-4c0.4,0,0.6-0.1,0.9-0.1
			c0.6-0.1,0.6-1.8,0.5-2.6c-0.1-0.3,0.2-0.6,0.5-0.7c0.3-0.1,0.6,0.2,0.7,0.5c0.1,0.4,0.6,3.6-1.4,4c-0.2,0-0.6,0.1-1,0.1
			c-2,0.2-5.3,0.5-6.1,3.2C168.8,234.6,168.5,234.7,168.3,234.7z"/>
	</g>
	<g>
		<path class="st1" d="M190.6,234.7c-0.3,0-0.5-0.2-0.6-0.4c-0.8-2.6-4.1-3-6.1-3.2c-0.4,0-0.7-0.1-1-0.1c-2-0.4-1.5-3.6-1.4-4
			c0.1-0.3,0.4-0.5,0.7-0.5c0.3,0.1,0.5,0.4,0.5,0.7c-0.1,0.9-0.2,2.5,0.5,2.6c0.2,0,0.5,0.1,0.9,0.1c2.1,0.2,6.1,0.6,7.1,4
			c0.1,0.3-0.1,0.6-0.4,0.7C190.7,234.7,190.6,234.7,190.6,234.7z"/>
	</g>
	<g>
		<circle class="st2" cx="210.7" cy="153.5" r="18.5"/>
	</g>
	<g>
		<g>
			<circle class="st2" cx="135.8" cy="152.6" r="32.9"/>
		</g>
		<g>
			<path class="st6" d="M144.7,173.1h-1.5c-1.2,4.2-4.6,7.2-8.7,7.2s-7.5-3-8.7-7.2h-3.3c-3.5,0-6.5,2.3-7.5,5.5
				c5.8,4.3,13,6.8,20.8,6.8c6.1,0,11.8-1.5,16.9-4.3C152.7,176.7,149.1,173.1,144.7,173.1z"/>
		</g>
		<g>
			<path class="st1" d="M135.8,186c-0.4,0-0.8,0-1.2,0c-0.1,0-0.3,0-0.4,0c-0.1,0-0.3,0-0.4,0l-0.1,0c-6.9-0.4-13.4-3-18.8-7.3
				c-0.2-0.2-0.3-0.4-0.2-0.7c1.3-3.3,4.4-5.4,7.9-5.4h5.6c3.8-2.9,2.4-10.2,2.4-10.3c0-0.2,0-0.3,0.1-0.5c0.1-0.1,0.3-0.2,0.4-0.2
				h7.2c0.2,0,0.3,0.1,0.4,0.2c0.1,0.1,0.2,0.3,0.1,0.5c0,0.1-1.3,7.4,2.4,10.3h3.5c4.5,0,8.3,3.6,8.5,8.2c0,0.2-0.1,0.4-0.3,0.5
				c-4.6,2.8-9.9,4.4-15.3,4.7l-0.3,0c-0.2,0-0.4,0-0.6,0C136.5,186,136.2,186,135.8,186z M115.9,178c5.1,4,11.3,6.4,17.8,6.8l0.1,0
				c0.1,0,0.3,0,0.4,0c0.1,0,0.3,0,0.4,0c0.7,0,1.4,0,2.1,0c0.2,0,0.4,0,0.6,0l0.3,0c5.1-0.3,10.1-1.8,14.5-4.3
				c-0.4-3.8-3.5-6.8-7.3-6.8h-3.7c-0.1,0-0.2,0-0.3-0.1c-3.8-2.7-3.4-8.8-3.1-10.9h-5.8c0.3,2.1,0.7,8.2-3.1,10.9
				c-0.1,0.1-0.2,0.1-0.3,0.1h-5.7C119.7,173.7,117.1,175.3,115.9,178z"/>
		</g>
		<g>
			<path class="st2" d="M148.4,162.7c0,2-1.6,3.7-3.7,3.7h-18.5c-2,0-3.7-1.6-3.7-3.7v-20.6c0-2,1.6-3.7,3.7-3.7h18.5
				c2,0,3.7,1.6,3.7,3.7V162.7z"/>
		</g>
		<g>
			<path class="st1" d="M140.2,167.4h-10c-4.5,0-8.2-3.7-8.2-8.2v-13.5c0-4.5,3.7-8.2,8.2-8.2h10c4.5,0,8.2,3.7,8.2,8.2v13.5
				C148.5,163.7,144.8,167.4,140.2,167.4z M130.3,138.6c-3.9,0-7.1,3.2-7.1,7.1v13.5c0,3.9,3.2,7.1,7.1,7.1h10
				c3.9,0,7.1-3.2,7.1-7.1v-13.5c0-3.9-3.2-7.1-7.1-7.1H130.3z"/>
		</g>
		<g>
			<path class="st1" d="M139,159c-0.2,0-0.4-0.1-0.5-0.3c-0.1-0.3,0-0.6,0.3-0.8l3.5-1.6l-4.3-6.6c-0.2-0.3-0.1-0.6,0.2-0.8
				c0.3-0.2,0.6-0.1,0.8,0.2l4.7,7.1c0.1,0.1,0.1,0.3,0.1,0.5c0,0.2-0.2,0.3-0.3,0.4l-4.1,1.8C139.2,159,139.1,159,139,159z"/>
		</g>
		<g>
			<path class="st3" d="M136,144.4c0,0,11.8,7.5,22-7.1c0,0-2.9,0.8-8.1-2.9c-5.3-3.7-11.4-4.3-15.9,2.4c0,0-7.5-1-10.2,0.4
				c-2.6,1.4-2.6,11-2.6,11S129.1,150.9,136,144.4z"/>
		</g>
		<g>
			<path class="st1" d="M125.1,149.4c-2.5,0-4.1-0.5-4.2-0.6c-0.2-0.1-0.4-0.3-0.4-0.6c0-1,0.1-10,3-11.5c1-0.6,2.8-0.8,5.2-0.8
				c2.1,0,4.2,0.2,5,0.3c2.4-3.4,5.3-5.1,8.7-5.1c2.5,0,5.1,0.9,7.8,2.8c3.5,2.5,5.9,2.8,7,2.8c0.4,0,0.6-0.1,0.6-0.1
				c0.2-0.1,0.5,0,0.6,0.2c0.1,0.2,0.1,0.5,0,0.7c-5.3,7.7-11.2,9.3-15.1,9.3c-3.6,0-6.3-1.3-7.3-1.8
				C132.2,148.6,128,149.4,125.1,149.4z M121.7,147.8c0.6,0.1,1.8,0.4,3.4,0.4c2.7,0,6.8-0.7,10.5-4.2c0.2-0.2,0.5-0.2,0.7-0.1
				c0,0,3,1.8,7,1.8c5,0,9.5-2.6,13.5-7.8c-1.4-0.1-3.8-0.6-7.3-3c-2.5-1.7-4.9-2.6-7.2-2.6c-3.1,0-5.7,1.6-7.9,4.9
				c-0.1,0.2-0.3,0.3-0.6,0.3c0,0-2.6-0.3-5.2-0.3c-2.8,0-4,0.4-4.6,0.7C122.4,138.7,121.8,144.2,121.7,147.8z"/>
		</g>
		<g>
			<path class="st1" d="M136.1,162.8c-4.1,0-5.6-3-5.7-3.2c-0.1-0.3,0-0.6,0.3-0.8c0.3-0.1,0.6,0,0.8,0.3c0.1,0.1,1.5,2.9,5.5,2.5
				c0.3,0,0.6,0.2,0.6,0.5c0,0.3-0.2,0.6-0.5,0.6C136.7,162.8,136.4,162.8,136.1,162.8z"/>
		</g>
		<g>
			<path class="st1" d="M129.8,160.5c-0.3,0-0.5-0.2-0.6-0.5c-0.1-0.3,0.2-0.6,0.5-0.7c1-0.2,1.4-1.2,1.4-1.2
				c0.1-0.3,0.4-0.5,0.7-0.4c0.3,0.1,0.5,0.4,0.4,0.7C132.2,158.5,131.6,160.2,129.8,160.5C129.9,160.5,129.8,160.5,129.8,160.5z"/>
		</g>
		<g>
			<path class="st1" d="M135.8,186c-18.4,0-33.4-15-33.4-33.4s15-33.4,33.4-33.4c18.4,0,33.4,15,33.4,33.4S154.3,186,135.8,186z
				 M135.8,120.3c-17.8,0-32.3,14.5-32.3,32.3s14.5,32.3,32.3,32.3c17.8,0,32.3-14.5,32.3-32.3S153.6,120.3,135.8,120.3z"/>
		</g>
	</g>
	<g>
		<g>
			<circle class="st2" cx="70.9" cy="134" r="19.2"/>
		</g>
		<g>
			<path class="st1" d="M70.9,153.8c-10.9,0-19.8-8.9-19.8-19.8c0-10.9,8.9-19.8,19.8-19.8c10.9,0,19.8,8.9,19.8,19.8
				C90.8,144.9,81.9,153.8,70.9,153.8z M70.9,115.3c-10.3,0-18.7,8.4-18.7,18.7s8.4,18.7,18.7,18.7c10.3,0,18.7-8.4,18.7-18.7
				S81.2,115.3,70.9,115.3z"/>
		</g>
		<g>
			<path class="st6" d="M70.9,153.2c3.6,0,6.9-1,9.8-2.7c-0.8-1.7-2.5-2.8-4.5-2.8h-2.3c-2.7-1.9-1.8-7-1.8-7h-4.6
				c0,0,0.9,5.1-1.8,7H62c-1.2,0-2.3,0.4-3.2,1.2C62.1,151.6,66.3,153.2,70.9,153.2z"/>
		</g>
		<g>
			<path class="st1" d="M70.9,153.8c-4.5,0-9-1.6-12.5-4.4c-0.1-0.1-0.2-0.3-0.2-0.4c0-0.2,0.1-0.3,0.2-0.5c1-0.8,2.3-1.3,3.6-1.3
				h3.5c2.2-1.8,1.4-6.3,1.4-6.3c0-0.2,0-0.3,0.1-0.5c0.1-0.1,0.3-0.2,0.4-0.2h4.6c0.2,0,0.3,0.1,0.4,0.2c0.1,0.1,0.2,0.3,0.1,0.5
				c0,0-0.8,4.5,1.4,6.3h2.1c2.1,0,4.1,1.2,5,3.1c0.1,0.3,0,0.6-0.2,0.8C78,152.9,74.5,153.8,70.9,153.8z M59.8,148.9
				c3.2,2.4,7.1,3.7,11.1,3.7c3.1,0,6.2-0.8,9-2.3c-0.8-1.3-2.2-2-3.7-2h-2.3c-0.1,0-0.2,0-0.3-0.1c-2.4-1.7-2.3-5.4-2.1-6.9h-3.2
				c0.2,1.5,0.3,5.2-2.1,6.9c-0.1,0.1-0.2,0.1-0.3,0.1H62C61.3,148.3,60.5,148.5,59.8,148.9z"/>
		</g>
		<g>
			<g>
				<path class="st2" d="M63.4,138.2c0,2.3,1.9,4.2,4.2,4.2h6.5c2.3,0,4.2-1.9,4.2-4.2V128c0-2.3-1.9-4.2-4.2-4.2h-6.5
					c-2.3,0-4.2,1.9-4.2,4.2V138.2z"/>
			</g>
			<g>
				<path class="st1" d="M74.1,143h-6.5c-2.6,0-4.8-2.1-4.8-4.8V128c0-2.6,2.1-4.8,4.8-4.8h6.5c2.6,0,4.8,2.1,4.8,4.8v10.2
					C78.9,140.9,76.8,143,74.1,143z M67.6,124.4c-2,0-3.6,1.6-3.6,3.6v10.2c0,2,1.6,3.6,3.6,3.6h6.5c2,0,3.6-1.6,3.6-3.6V128
					c0-2-1.6-3.6-3.6-3.6H67.6z"/>
			</g>
			<g>
				<path class="st1" d="M71.3,137.6c-0.3,0-0.6-0.3-0.6-0.6v-1.7c0-0.3,0.3-0.6,0.6-0.6h1.6l-1.2-5c-0.1-0.3,0.1-0.6,0.4-0.7
					c0.3-0.1,0.6,0.1,0.7,0.4l1.4,5.7c0,0.2,0,0.4-0.1,0.5c-0.1,0.1-0.3,0.2-0.5,0.2h-1.7v1.1C71.9,137.3,71.7,137.6,71.3,137.6z"/>
			</g>
			<g>
				<path class="st5" d="M67.5,127.8c0,0,6.4,4.2,14.1-0.3c0,0-3.4-10.1-12.4-4.7h-4.5c-0.5,0-0.9,0.2-1.3,0.5
					c-0.3,0.4-0.5,0.8-0.5,1.3l0.4,9.2C63.3,133.9,67.6,130,67.5,127.8z"/>
			</g>
			<g>
				<path class="st1" d="M63.3,134.5c-0.1,0-0.2,0-0.2,0c-0.2-0.1-0.3-0.3-0.4-0.5l-0.4-9.2c0-0.6,0.2-1.3,0.7-1.7
					c0.4-0.5,1.1-0.7,1.7-0.7H69c1.8-1.1,3.5-1.6,5.2-1.6c5.7,0,7.9,6.4,8,6.7c0.1,0.3,0,0.6-0.3,0.7c-2.5,1.4-5.1,2.2-7.7,2.2
					c-2.9,0-5.1-0.9-6.3-1.4c-0.7,2.3-3.9,5.2-4.3,5.6C63.5,134.4,63.4,134.5,63.3,134.5z M64.7,123.4c-0.3,0-0.6,0.1-0.9,0.4
					c-0.2,0.2-0.3,0.6-0.3,0.9l0.3,7.9c1.5-1.5,3.2-3.6,3.1-4.7c0-0.2,0.1-0.4,0.3-0.5c0.2-0.1,0.4-0.1,0.6,0c0,0,2.6,1.7,6.4,1.7
					c2.3,0,4.5-0.6,6.7-1.8c-0.6-1.4-2.7-5.4-6.7-5.4c-1.4,0-3,0.5-4.7,1.5c-0.1,0.1-0.2,0.1-0.3,0.1H64.7z"/>
			</g>
			<g>
				<path class="st1" d="M70.9,139.9c-0.9,0-2.8-0.3-4.2-2.5c-0.2-0.3-0.1-0.6,0.2-0.8c0.3-0.2,0.6-0.1,0.8,0.2
					c1.5,2.3,3.6,1.9,3.6,1.9c0.3-0.1,0.6,0.1,0.7,0.5c0.1,0.3-0.1,0.6-0.5,0.7C71.4,139.9,71.2,139.9,70.9,139.9z"/>
			</g>
		</g>
	</g>
	<g>
		<path class="st6" d="M204.4,146.4c0,0-1.5,2.7-1.8,6.9c-0.3,4.2-3.6-1.5-5.7,5.7c-2.1,7.2,9.9,6.9,9.9,6.9s15.7,2.4,17.5-4.8
			c1.8-7.2-3.3-4.5-3.3-8.7c0-4.2-0.6-9-6-8.1C215,144.3,206.8,138.2,204.4,146.4z"/>
	</g>
	<g>
		<path class="st1" d="M212.5,166.9c-2.9,0-5.3-0.3-5.7-0.4l-0.2,0c-1.7,0-7.5-0.2-9.7-3.2c-0.9-1.2-1.1-2.7-0.6-4.5
			c1.1-3.9,2.7-4.4,4.1-4.4c0.2,0,0.3,0,0.5,0c0.1,0,0.2,0,0.4,0c0.4,0,0.7,0,0.8-1.2c0.3-4,1.6-6.7,1.8-7.1
			c1.2-3.8,3.5-4.6,5.3-4.6c2.6,0,5.2,1.6,5.9,2.1c0.4-0.1,0.8-0.1,1.1-0.1c5.4,0,5.4,6.2,5.4,8.8c0,1.4,0.6,1.8,1.5,2.4
			c1.3,0.8,2.9,1.9,1.8,6.5C223.9,165,219.7,166.9,212.5,166.9z M206.8,165.4C206.9,165.4,206.9,165.4,206.8,165.4
			c0.1,0,2.6,0.4,5.6,0.4c4.6,0,10.3-0.8,11.3-4.8c1-3.8-0.1-4.5-1.3-5.2c-0.9-0.6-2.1-1.3-2.1-3.4c0-6-1.6-8.2-5.4-7.6
			c-0.2,0-0.3,0-0.4-0.1c0,0-2.8-2-5.4-2c-2.1,0-3.5,1.3-4.2,3.8c0,0,0,0.1,0,0.1c0,0-1.4,2.7-1.7,6.7c-0.1,1.6-0.7,2.3-1.9,2.3
			c-0.1,0-0.3,0-0.4,0c-0.1,0-0.3,0-0.4,0c-0.7,0-1.9,0-3,3.6c-0.4,1.4-0.3,2.5,0.4,3.4c2,2.7,8.1,2.8,8.8,2.8L206.8,165.4
			C206.8,165.4,206.8,165.4,206.8,165.4z"/>
	</g>
	<g>
		<path class="st1" d="M210.7,172.6c-10.5,0-19.1-8.6-19.1-19.1c0-10.5,8.6-19.1,19.1-19.1s19.1,8.6,19.1,19.1
			C229.8,164,221.2,172.6,210.7,172.6z M210.7,135.6c-9.9,0-17.9,8-17.9,17.9c0,9.9,8,17.9,17.9,17.9c9.9,0,17.9-8,17.9-17.9
			C228.6,143.6,220.6,135.6,210.7,135.6z"/>
	</g>
	<g>
		<path class="st3" d="M215.9,163.2c-0.7,0-1.3-0.1-1.7-0.4l-0.8-3.6c0-0.1-3.7-0.2-3.7-0.2l-0.8,3.8c-0.4,0.2-1,0.4-1.7,0.4
			c-3.7,0-6.5,1.2-8.3,4.4c3.2,2.7,7.4,4.3,11.9,4.3c5,0,9.6-2,12.9-5.2C221.8,164.2,219.2,163.2,215.9,163.2z"/>
	</g>
	<g>
		<path class="st1" d="M210.7,172.6c-4.5,0-8.8-1.6-12.3-4.5c-0.2-0.2-0.3-0.5-0.1-0.7c1.8-3.2,4.6-4.7,8.8-4.7
			c0.5,0,0.9-0.1,1.2-0.2l0.7-3.6c0.1-0.3,0.3-0.5,0.6-0.5c3.9,0.1,4,0.2,4.2,0.4c0.1,0.1,0.1,0.1,0.1,0.2l0,0l0.8,3.4
			c0.3,0.1,0.7,0.2,1.2,0.2c3.7,0,6.4,1.2,8.2,3.8c0.2,0.2,0.1,0.6-0.1,0.8C220.4,170.7,215.7,172.6,210.7,172.6z M199.6,167.5
			c3.2,2.5,7.1,3.9,11.1,3.9c4.5,0,8.8-1.7,12.1-4.7c-1.6-2-3.8-2.9-7-2.9c-0.8,0-1.4-0.2-2-0.5c-0.1-0.1-0.2-0.2-0.3-0.4l-0.7-3.3
			c-0.5,0-1.7-0.1-2.8-0.1l-0.7,3.4c0,0.2-0.1,0.3-0.3,0.4c-0.5,0.3-1.2,0.5-2,0.5C203.6,163.8,201.2,165,199.6,167.5z"/>
	</g>
	<g>
		<ellipse class="st2" cx="211.5" cy="153" rx="6.3" ry="7.6"/>
	</g>
	<g>
		<path class="st1" d="M209.6,155.8h4.3C213.9,155.8,211.6,159.3,209.6,155.8z"/>
	</g>
	<g>
		<path class="st1" d="M211.5,161.1c-3.8,0-6.8-3.7-6.8-8.2c0-4.5,3.1-8.2,6.8-8.2c3.8,0,6.8,3.7,6.8,8.2
			C218.3,157.5,215.2,161.1,211.5,161.1z M211.5,146c-3.1,0-5.7,3.1-5.7,7s2.5,7,5.7,7c3.1,0,5.7-3.1,5.7-7S214.6,146,211.5,146z"/>
	</g>
	<g>
		<path class="st6" d="M211.2,148.9c0,0-1.2,3.1-6.5,1.5c0,0,1.7-6.4,7.3-5.9c0.2,0,0.4,0,0.6,0.1c6.1,1,6.3,7.5,6.3,7.5
			S213.5,151.6,211.2,148.9z"/>
	</g>
	<g>
		<path class="st1" d="M218,152.3c-2.9,0-5.6-1.7-6.6-2.5c-0.8,0.8-3,2.3-6.6,1.2c-0.3-0.1-0.5-0.4-0.4-0.7s0.4-0.5,0.7-0.4
			c3.9,1.2,5.7-1.2,5.7-1.2c0.1-0.1,0.2-0.2,0.4-0.2c0.2,0,0.3,0,0.4,0.1c0,0,3.2,2.8,6.6,2.6c0.3,0,0.6,0.2,0.6,0.5
			c0,0.3-0.2,0.6-0.5,0.6C218.3,152.3,218.2,152.3,218,152.3z"/>
	</g>
	<g>
		<path class="st1" d="M187.5,218.7c-0.2,0-0.4-0.1-0.5-0.3l-2.6-4c-1.6,0.9-6.6,3.1-10.3,0.1l-2.5,3.1c-0.2,0.2-0.6,0.3-0.8,0.1
			c-0.2-0.2-0.3-0.6-0.1-0.8l2.9-3.6c0.1-0.1,0.3-0.2,0.4-0.2c0.2,0,0.3,0.1,0.4,0.2c3.7,3.7,9.7,0,9.8-0.1c0.3-0.2,0.6-0.1,0.8,0.2
			l2.9,4.5c0.2,0.3,0.1,0.6-0.2,0.8C187.7,218.7,187.6,218.7,187.5,218.7z"/>
	</g>
	<g>
		<path class="st6" d="M78.7,211.4c-0.3-4.6-1.1-13.6-0.2-13.7c1.2-0.1,5.9-1.1,5.9-1.1s-0.8-3.4,3.9-4c4.7-0.6,10.5,0.9,8.4,5.6
			c-2.1,4.7-15.4,3.8-15.4,3.8L78.7,211.4z"/>
	</g>
	<g>
		<path class="st1" d="M78.7,212C78.7,212,78.7,212,78.7,212c-0.3,0-0.6-0.3-0.6-0.5c0-0.6-0.1-1.2-0.1-1.9
			c-0.8-10.8-0.6-12.4,0.5-12.4c0.9-0.1,4.1-0.7,5.3-1c0-0.5,0.1-1.4,0.6-2.2c0.7-1,2-1.7,3.8-1.9c0.7-0.1,1.4-0.1,2-0.1
			c3.3,0,5.9,1,6.9,2.6c0.5,0.8,0.9,2.1,0,3.9c-1.6,3.5-8.2,4.2-13.4,4.2c-0.9,0-1.6,0-2.1,0l-2.5,8.9C79.2,211.8,79,212,78.7,212z
			 M78.8,198.3c-0.3,1.1,0,6.3,0.3,9.7l1.7-6.2c0.1-0.3,0.3-0.4,0.6-0.4c0,0,1,0.1,2.5,0.1c6.8,0,11.3-1.3,12.3-3.5
			c0.5-1.1,0.5-2.1,0-2.8c-0.8-1.3-3.1-2-6-2c-0.6,0-1.3,0-1.9,0.1c-1.5,0.2-2.5,0.7-3,1.4c-0.6,0.9-0.4,1.8-0.4,1.8
			c0,0.2,0,0.3-0.1,0.4c-0.1,0.1-0.2,0.2-0.4,0.3C84.4,197.2,80.3,198.1,78.8,198.3z"/>
	</g>
	<g>
		<circle class="st4" cx="149.8" cy="103.3" r="4.3"/>
	</g>
	<g>
		<circle class="st5" cx="54.4" cy="97.3" r="3.6"/>
	</g>
	<g>
		<circle class="st4" cx="124" cy="205" r="4.6"/>
	</g>
	<g>
		<circle class="st3" cx="167.7" cy="71.4" r="2.9"/>
	</g>
	<g>
		<circle class="st4" cx="48.4" cy="167.1" r="1.9"/>
	</g>
	<g>
		<path class="st1" d="M181.1,184.3c-2.1,0-3.8-1.7-3.8-3.8s1.7-3.8,3.8-3.8c2.1,0,3.8,1.7,3.8,3.8S183.2,184.3,181.1,184.3z
			 M181.1,177.8c-1.5,0-2.7,1.2-2.7,2.7c0,1.5,1.2,2.7,2.7,2.7c1.5,0,2.7-1.2,2.7-2.7C183.8,179,182.6,177.8,181.1,177.8z"/>
	</g>
</g>
</svg>
