<?xml version="1.0" encoding="utf-8"?>
<!-- Generator: Adobe Illustrator 21.1.0, SVG Export Plug-In . SVG Version: 6.00 Build 0)  -->
<svg version="1.1" id="Layer_1" xmlns="http://www.w3.org/2000/svg" xmlns:xlink="http://www.w3.org/1999/xlink" x="0px" y="0px"
	 viewBox="0 0 283.5 283.5" style="enable-background:new 0 0 283.5 283.5;" xml:space="preserve">
<style type="text/css">
	.st0{fill:#EFEAE7;}
	.st1{fill:#4091CE;}
	.st2{fill:#2A140B;}
	.st3{fill:#C7C6C5;}
	.st4{fill:#FFFFFF;}
	.st5{fill:#EFCB34;}
	.st6{fill:#FAB6A3;}
</style>
<g>
	<g>
		<path class="st0" d="M188.1,241.8c-26.4,2.1-53.4-0.5-79.7,0.4c-28.3,1-66.2-4.6-78-34.9c-4.4-11.2-6.5-26.5-3.7-38.3
			c2.5-10.3,9.4-19,11.5-29.4c1.9-9.4-0.8-18.8,0.5-28.3c2.2-16,9.2-28,21.6-38.3c22.5-18.5,55.7-30.6,84.8-31.9
			c24.6-1.1,49,7.5,68.3,22.7c12,9.5,23.1,22.9,29,37.1c5.1,12.2,4.7,26,8.6,38.6c4.9,15.8,8,31.6,6.1,48.2
			c-2.4,20.5-7.5,37.9-28.3,45.6C215.6,238.2,202,240.6,188.1,241.8z"/>
	</g>
	<g>
		<g>
			<polygon class="st1" points="198.6,151.7 191.2,154 194.5,147 206.8,136.5 210.8,141.2 			"/>
		</g>
		<g>
			<path class="st2" d="M191.2,154.6c-0.2,0-0.3-0.1-0.4-0.2c-0.2-0.2-0.2-0.4-0.1-0.6l3.3-7c0-0.1,0.1-0.1,0.1-0.2l12.2-10.5
				c0.1-0.1,0.3-0.2,0.4-0.1c0.2,0,0.3,0.1,0.4,0.2l4,4.7c0.2,0.2,0.2,0.6-0.1,0.8l-12.2,10.5c-0.1,0.1-0.1,0.1-0.2,0.1l-7.3,2.3
				C191.3,154.6,191.3,154.6,191.2,154.6z M195,147.4l-2.7,5.7l6-1.9l11.7-10l-3.3-3.8L195,147.4z"/>
		</g>
		<g>
			<path class="st2" d="M194.2,153.4c-0.2,0-0.3-0.1-0.4-0.2l-1.3-1.5c-0.2-0.2-0.2-0.6,0.1-0.8c0.2-0.2,0.6-0.2,0.8,0.1l1.3,1.5
				c0.2,0.2,0.2,0.6-0.1,0.8C194.4,153.3,194.3,153.4,194.2,153.4z"/>
		</g>
		<g>
			<path class="st2" d="M198.8,152c-0.2,0-0.3-0.1-0.4-0.2l-4-4.6c-0.2-0.2-0.2-0.6,0.1-0.8c0.2-0.2,0.6-0.2,0.8,0.1l4,4.6
				c0.2,0.2,0.2,0.6-0.1,0.8C199,151.9,198.9,152,198.8,152z"/>
		</g>
	</g>
	<g>
		<path class="st3" d="M178.3,199.7c0,2.7-2.2,4.9-4.9,4.9h-66.7c-2.7,0-4.9-2.2-4.9-4.9v-94.4c0-2.7,2.2-4.9,4.9-4.9h66.7
			c2.7,0,4.9,2.2,4.9,4.9V199.7z"/>
	</g>
	<g>
		<rect x="101.8" y="110.3" class="st4" width="76.1" height="88.6"/>
	</g>
	<g>
		<path class="st3" d="M162.4,180.9c-0.3-7.9-6.7-7.6-13.1-7.3c-6.4,0.3-6.4-4-6.4-4v-6.7H135v6.7c0,0,0,4.3-6.4,4
			c-6.4-0.3-12.8-0.6-13.1,7.3H162.4z"/>
	</g>
	<g>
		<path class="st2" d="M115.4,181.5C115.4,181.5,115.4,181.5,115.4,181.5c-0.3,0-0.6-0.3-0.6-0.6c0.1-2.6,0.8-4.6,2.3-5.9
			c2.6-2.4,7.1-2.2,11.5-2c2.2,0.1,3.8-0.3,4.8-1.3c1-0.9,1-2.1,1-2.1v-6.7c0-0.3,0.3-0.6,0.6-0.6s0.6,0.3,0.6,0.6v6.7
			c0,0.1,0,1.7-1.4,3c-1.2,1.2-3.1,1.7-5.6,1.6c-4.1-0.2-8.3-0.4-10.6,1.7c-1.2,1.1-1.8,2.8-1.9,5.1
			C116,181.2,115.8,181.5,115.4,181.5z"/>
	</g>
	<g>
		<path class="st2" d="M162.4,181.5c-0.3,0-0.6-0.2-0.6-0.6c-0.1-2.3-0.7-4-1.9-5.1c-2.3-2.1-6.5-1.9-10.6-1.7
			c-2.5,0.1-4.4-0.4-5.6-1.6c-1.4-1.3-1.4-2.9-1.4-3v-6.7c0-0.3,0.3-0.6,0.6-0.6c0.3,0,0.6,0.3,0.6,0.6v6.7c0,0,0,1.2,1,2.1
			c1,0.9,2.6,1.4,4.8,1.3c4.3-0.2,8.8-0.4,11.5,2c1.4,1.3,2.2,3.2,2.3,5.9C163,181.2,162.8,181.5,162.4,181.5
			C162.5,181.5,162.5,181.5,162.4,181.5z"/>
	</g>
	<g>
		<g>
			<path class="st4" d="M151.4,156.6c0,3.9-3.2,7.1-7.1,7.1h-11.1c-3.9,0-7.1-3.2-7.1-7.1v-17.4c0-3.9,3.2-7.1,7.1-7.1h11.1
				c3.9,0,7.1,3.2,7.1,7.1V156.6z"/>
		</g>
		<g>
			<path class="st4" d="M151.4,156.6c0,3.9-3.2,7.1-7.1,7.1h-11.1c-3.9,0-7.1-3.2-7.1-7.1v-17.4c0-3.9,3.2-7.1,7.1-7.1h11.1
				c3.9,0,7.1,3.2,7.1,7.1V156.6z"/>
		</g>
		<g>
			<path class="st2" d="M144.3,164.3h-11.1c-4.2,0-7.7-3.5-7.7-7.7v-17.4c0-4.2,3.5-7.7,7.7-7.7h11.1c4.2,0,7.7,3.5,7.7,7.7v17.4
				C152,160.8,148.5,164.3,144.3,164.3z M133.2,132.7c-3.6,0-6.5,2.9-6.5,6.5v17.4c0,3.6,2.9,6.5,6.5,6.5h11.1
				c3.6,0,6.5-2.9,6.5-6.5v-17.4c0-3.6-2.9-6.5-6.5-6.5H133.2z"/>
		</g>
		<g>
			<path class="st2" d="M137.9,155.1c-0.3,0-0.6-0.3-0.6-0.6v-2.3H134c-0.2,0-0.4-0.1-0.5-0.2c-0.1-0.1-0.2-0.3-0.1-0.5l2.4-9.8
				c0.1-0.3,0.4-0.5,0.7-0.4c0.3,0.1,0.5,0.4,0.4,0.7l-2.2,9h3.2c0.3,0,0.6,0.3,0.6,0.6v2.9C138.5,154.8,138.3,155.1,137.9,155.1z"
				/>
		</g>
		<g>
			<path class="st5" d="M144.5,138.9c0,0-10.8,7.1-24-0.5c0,0,5.8-17.1,21.1-7.9h7.7c0.8,0,1.6,0.3,2.2,0.9c0.6,0.6,0.9,1.4,0.8,2.2
				l-0.7,15.6C151.7,149.2,144.3,142.6,144.5,138.9z"/>
		</g>
		<g>
			<path class="st2" d="M151.7,149.8c-0.1,0-0.3-0.1-0.4-0.1c-0.7-0.6-6.5-5.9-7.2-9.7c-1.6,0.9-5.6,2.6-10.9,2.6h0
				c-4.4,0-8.7-1.2-12.9-3.6c-0.2-0.1-0.4-0.4-0.3-0.7c0-0.1,3.8-11,13.2-11c2.7,0,5.6,0.9,8.6,2.7h7.5c1,0,1.9,0.4,2.6,1.1
				c0.7,0.7,1,1.7,1,2.7l-0.7,15.6c0,0.2-0.1,0.4-0.4,0.5C151.8,149.8,151.7,149.8,151.7,149.8z M144.5,138.4c0.1,0,0.2,0,0.3,0.1
				c0.2,0.1,0.3,0.3,0.3,0.5c-0.2,2.4,3.7,6.7,6,8.9l0.6-14.3c0-0.7-0.2-1.3-0.7-1.8c-0.5-0.5-1.1-0.8-1.8-0.8h-7.7
				c-0.1,0-0.2,0-0.3-0.1c-2.9-1.8-5.7-2.6-8.2-2.6c-7.4,0-11.1,7.8-11.9,9.8c3.8,2.1,7.8,3.2,11.9,3.2h0c6.6,0,11-2.9,11.1-2.9
				C144.3,138.4,144.4,138.4,144.5,138.4z"/>
		</g>
		<g>
			<path class="st2" d="M138.7,159.1c-0.5,0-0.8-0.1-0.9-0.1c-0.3-0.1-0.5-0.4-0.5-0.7c0.1-0.3,0.4-0.5,0.7-0.5
				c0.2,0,3.9,0.6,6.5-3.4c0.2-0.3,0.5-0.4,0.8-0.2c0.3,0.2,0.4,0.5,0.2,0.8C143.3,158.6,140.2,159.1,138.7,159.1z"/>
		</g>
	</g>
	<g>
		<path class="st2" d="M173.4,205.2h-66.7c-3,0-5.5-2.5-5.5-5.5v-94.4c0-3,2.5-5.5,5.5-5.5h66.7c3,0,5.5,2.5,5.5,5.5v94.4
			C178.9,202.7,176.5,205.2,173.4,205.2z M106.7,101c-2.4,0-4.3,1.9-4.3,4.3v94.4c0,2.4,1.9,4.3,4.3,4.3h66.7c2.4,0,4.3-1.9,4.3-4.3
			v-94.4c0-2.4-1.9-4.3-4.3-4.3H106.7z"/>
	</g>
	<g>
		<path class="st2" d="M178.3,110.8h-76.5c-0.3,0-0.6-0.3-0.6-0.6c0-0.3,0.3-0.6,0.6-0.6h76.5c0.3,0,0.6,0.3,0.6,0.6
			C178.9,110.6,178.6,110.8,178.3,110.8z"/>
	</g>
	<g>
		<path class="st2" d="M179.2,198.9H106c-0.3,0-0.6-0.3-0.6-0.6c0-0.3,0.3-0.6,0.6-0.6h73.2c0.3,0,0.6,0.3,0.6,0.6
			C179.8,198.6,179.5,198.9,179.2,198.9z"/>
	</g>
	<g>
		<path class="st4" d="M191.8,181.3L191.8,181.3l-0.7-1.7c-0.7-1.9-2.8-2.9-4.6-2.2c-1.7,0.6-2.5,2.5-2.1,4.3
			c-0.9-1.6-2.7-2.4-4.4-1.8c-1.7,0.6-2.5,2.5-2.1,4.3c-0.9-1.6-2.8-2.4-4.4-1.8c-1.6,0.6-2.4,2.3-2.1,4l-7.7-20
			c-0.7-1.9-2.8-2.9-4.6-2.2c-1.8,0.7-2.7,2.8-1.9,4.8l12.7,33c0.1,0.2,0.2,0.4,0.3,0.5c0.1,0.3,0.1,0.5,0,0.6
			c-2.2,0.8-4-4.1-8.1-8.5c-4.8-5.6-7-0.8-7-0.8c8.7,17,10.5,18.7,16.5,21.2c2,0.8,6.6,1.6,8.7,4.9c2.4,3.8,19.8-4.3,19.9-5.2
			C201,203.6,195.4,189,191.8,181.3z"/>
	</g>
	<g>
		<path class="st2" d="M182.9,221.3L182.9,221.3c-1.6,0-2.7-0.4-3.2-1.3c-1.5-2.4-4.6-3.4-6.8-4.1c-0.6-0.2-1.2-0.4-1.7-0.6
			c-6.2-2.6-8.2-4.6-16.8-21.5c-0.1-0.2-0.1-0.4,0-0.5c0-0.1,1.1-2.2,3.3-2.2c1.5,0,3.1,1,4.7,2.9c1.5,1.6,2.7,3.3,3.7,4.8
			c1.3,1.8,2.4,3.4,3.3,3.5c-0.1-0.1-0.1-0.2-0.2-0.4l-12.7-33c-0.9-2.2,0.2-4.7,2.3-5.5c0.4-0.2,0.9-0.3,1.4-0.3
			c1.7,0,3.3,1.1,4,2.8l6.9,17.8c0.4-1,1.2-1.8,2.2-2.2c1.3-0.5,2.9-0.2,4,0.7c0.2-1.4,1.2-2.6,2.5-3.2c1.3-0.5,2.9-0.2,4,0.7
			c0.2-1.4,1.2-2.6,2.5-3.2c0.4-0.2,0.9-0.3,1.4-0.3c1.7,0,3.3,1.1,4,2.8l0.6,1.5c0,0,0.1,0.1,0.1,0.1c2.2,4.7,9.4,21,8.4,33.5
			C200.6,216.2,187.8,221.3,182.9,221.3z M155.7,193.7c8.7,17,10.4,18.2,16,20.6c0.4,0.2,0.9,0.3,1.6,0.5c2.3,0.7,5.7,1.8,7.4,4.6
			c0.4,0.6,1.4,0.7,2.2,0.7c5.2,0,15.5-4.8,16.6-5.8c0.9-12.1-5.9-27.8-8.2-32.6c-0.1-0.1-0.1-0.1-0.1-0.2l-0.6-1.7
			c-0.5-1.2-1.6-2.1-2.9-2.1c-0.3,0-0.7,0.1-1,0.2c-1.4,0.5-2.1,2.1-1.7,3.6c0.1,0.3-0.1,0.6-0.4,0.7c-0.3,0.1-0.6,0-0.7-0.3
			c-0.6-1-1.6-1.7-2.7-1.7c-0.3,0-0.7,0.1-1,0.2c-1.4,0.5-2.1,2.1-1.7,3.6c0.1,0.3-0.1,0.6-0.4,0.7c-0.3,0.1-0.6,0-0.7-0.3
			c-0.6-1-1.6-1.7-2.7-1.7c-0.3,0-0.7,0.1-1,0.2c-1.3,0.5-2,1.9-1.8,3.4c0.1,0.3-0.1,0.6-0.4,0.7c-0.3,0.1-0.6-0.1-0.7-0.4l-7.7-20
			c-0.5-1.2-1.6-2.1-2.9-2.1c-0.3,0-0.7,0.1-1,0.2c-1.5,0.6-2.2,2.4-1.6,4l12.7,33c0.1,0.1,0.1,0.3,0.2,0.5c0,0.1,0.1,0.1,0.1,0.2
			c0,0.2,0.2,1-0.4,1.2c-0.2,0.1-0.4,0.1-0.7,0.1c-1.5,0-2.7-1.7-4.4-4c-1-1.4-2.2-3.1-3.7-4.7c-1.4-1.7-2.7-2.5-3.8-2.5
			C156.6,192.4,156,193.3,155.7,193.7z"/>
	</g>
	<g>
		
			<rect x="180.1" y="217.2" transform="matrix(0.8798 -0.4753 0.4753 0.8798 -82.0096 118.4032)" class="st4" width="26.1" height="8.4"/>
	</g>
	<g>
		
			<rect x="180.1" y="217.2" transform="matrix(0.8798 -0.4753 0.4753 0.8798 -82.0096 118.4032)" class="st4" width="26.1" height="8.4"/>
	</g>
	<g>
		
			<rect x="180.1" y="217.2" transform="matrix(0.8798 -0.4753 0.4753 0.8798 -82.0096 118.4032)" class="st4" width="26.1" height="8.4"/>
	</g>
	<g>
		<path class="st2" d="M183.7,231.9c-0.1,0-0.1,0-0.2,0c-0.1,0-0.3-0.1-0.3-0.3l-4-7.4c-0.2-0.3,0-0.6,0.2-0.8l22.9-12.4
			c0.1-0.1,0.3-0.1,0.4,0c0.1,0,0.3,0.1,0.3,0.3l4,7.4c0.2,0.3,0,0.6-0.2,0.8L184,231.8C183.9,231.9,183.8,231.9,183.7,231.9z
			 M180.5,224.1l3.5,6.4l21.9-11.8l-3.5-6.4L180.5,224.1z"/>
	</g>
	<g>
		<polygon class="st1" points="221.6,235.5 186,241.4 179.9,230.1 209.4,214.2 		"/>
	</g>
	<g>
		<path class="st2" d="M186,242c-0.2,0-0.4-0.1-0.5-0.3l-6.1-11.2c-0.1-0.1-0.1-0.3,0-0.4c0-0.1,0.1-0.3,0.3-0.4l29.5-15.9
			c0.3-0.2,0.6-0.1,0.8,0.2l12.2,21.3c0.2,0.3,0.1,0.6-0.2,0.8c-0.3,0.2-0.6,0.1-0.8-0.2L209.2,215l-28.5,15.4l5.9,10.7
			c0.2,0.3,0.1,0.6-0.2,0.8C186.2,241.9,186.1,242,186,242z"/>
	</g>
	<g>
		<path class="st4" d="M86.8,195.3l4.1-8.4v-15.5c0,0,5.2-18.2,6.2-25.8c0,0,4.2,1.2,4.2,6.5c0,5.2,0,16.3,0,16.3s7.5,10.7,3.1,20.4
			c-0.6,1.3-2.5,3.3-3.5,4.6l0.3,3.2L86.8,195.3z"/>
	</g>
	<g>
		<path class="st2" d="M86.8,195.9c-0.1,0-0.2,0-0.3-0.1c-0.3-0.1-0.4-0.5-0.3-0.8l4.1-8.3v-15.4c0-0.1,0-0.1,0-0.2
			c0.1-0.2,5.2-18.2,6.2-25.7c0-0.2,0.1-0.3,0.3-0.4c0.1-0.1,0.3-0.1,0.5-0.1c0,0,4.7,1.4,4.7,7v16.2c0.9,1.4,7.3,11.4,3.1,20.8
			c-0.6,1.4-1.8,3.2-2.9,4.5c-0.2,0.2-0.6,0.3-0.8,0.1c-0.2-0.2-0.3-0.6-0.1-0.8c1-1.2,2.2-3,2.7-4.3c4.1-9.3-3-19.7-3.1-19.9
			c-0.1-0.1-0.1-0.2-0.1-0.3V152c0-3.5-2.1-5.1-3.2-5.6c-1.2,7.7-5.8,23.8-6.1,25.1v15.5c0,0.1,0,0.2-0.1,0.3l-4.1,8.4
			C87.2,195.8,87,195.9,86.8,195.9z"/>
	</g>
	<g>
		
			<rect x="91.3" y="186.5" transform="matrix(0.3352 -0.9422 0.9422 0.3352 -124.4538 223.5907)" class="st4" width="9.7" height="27"/>
	</g>
	<g>
		<path class="st2" d="M107.3,209.7c-0.1,0-0.1,0-0.2,0l-25.4-9.1c-0.1-0.1-0.3-0.2-0.3-0.3c-0.1-0.1-0.1-0.3,0-0.4l3.3-9.2
			c0.1-0.3,0.4-0.5,0.8-0.4l25.4,9.1c0.3,0.1,0.5,0.4,0.4,0.8l-3.3,9.2C107.8,209.5,107.5,209.7,107.3,209.7z M82.6,199.7l24.3,8.7
			l2.9-8.1l-24.3-8.7L82.6,199.7z"/>
	</g>
	<g>
		<polygon class="st1" points="65.8,236.3 81.1,196.9 111.2,207.6 97.9,242 		"/>
	</g>
	<g>
		<path class="st2" d="M97.9,242.5c-0.1,0-0.1,0-0.2,0c-0.3-0.1-0.5-0.5-0.3-0.8l13.1-33.8l-29-10.3l-15,38.9
			c-0.1,0.3-0.5,0.5-0.8,0.3c-0.3-0.1-0.5-0.5-0.3-0.8l15.2-39.4c0.1-0.3,0.4-0.4,0.7-0.3l30.2,10.7c0.1,0.1,0.3,0.2,0.3,0.3
			c0.1,0.1,0.1,0.3,0,0.5l-13.3,34.4C98.4,242.4,98.2,242.5,97.9,242.5z"/>
	</g>
	<g>
		<path class="st4" d="M217.2,111.1c0-5.8-5.8-10.5-13-10.5c-7.2,0-13,4.7-13,10.5c0,4.5,3.6,8.4,8.5,9.9c-0.5,0.9-1,1.7-1.7,2.5
			c-0.6,0.7-1.2,1.3-1.9,1.9c3.3,0.8,6.9-0.2,9.3-2.9c0.2-0.3,0.5-0.6,0.7-0.9C212.4,120.8,217.2,116.4,217.2,111.1z"/>
	</g>
	<g>
		<path class="st2" d="M198.5,126.2L198.5,126.2c-0.8,0-1.7-0.1-2.4-0.3c-0.2-0.1-0.4-0.2-0.4-0.4c0-0.2,0-0.4,0.2-0.6
			c0.7-0.5,1.3-1.1,1.8-1.8c0.5-0.6,0.9-1.1,1.2-1.7c-5-1.7-8.2-5.8-8.2-10.2c0-6.1,6.1-11.1,13.6-11.1c7.5,0,13.6,5,13.6,11.1
			c0,5.4-4.8,10.1-11.3,10.9c-0.2,0.3-0.4,0.5-0.6,0.7C204.1,125,201.4,126.2,198.5,126.2z M197.5,125c0.3,0,0.7,0.1,1,0.1h0
			c2.5,0,4.9-1.1,6.5-3c0.2-0.2,0.4-0.5,0.6-0.8c0.1-0.1,0.2-0.2,0.4-0.3c6-0.7,10.6-4.9,10.6-9.8c0-5.5-5.6-9.9-12.4-9.9
			c-6.8,0-12.4,4.4-12.4,9.9c0,4.1,3.3,7.9,8.1,9.3c0.2,0,0.3,0.2,0.4,0.3c0.1,0.2,0.1,0.3,0,0.5c-0.5,0.9-1.1,1.8-1.7,2.6
			C198.2,124.2,197.9,124.6,197.5,125z"/>
	</g>
	<g>
		<circle class="st4" cx="92.5" cy="81.9" r="10.5"/>
	</g>
	<g>
		<path class="st2" d="M92.5,93c-6.1,0-11.1-5-11.1-11.1c0-6.1,5-11.1,11.1-11.1c6.1,0,11.1,5,11.1,11.1C103.6,88,98.6,93,92.5,93z
			 M92.5,72c-5.5,0-9.9,4.4-9.9,9.9c0,5.5,4.4,9.9,9.9,9.9c5.5,0,9.9-4.4,9.9-9.9C102.4,76.5,98,72,92.5,72z"/>
	</g>
	<g>
		<polygon class="st6" points="90.7,74.1 97.5,81.8 90.7,89.4 		"/>
	</g>
	<g>
		<path class="st2" d="M90.7,90c-0.1,0-0.1,0-0.2,0c-0.2-0.1-0.4-0.3-0.4-0.5V74.1c0-0.2,0.2-0.5,0.4-0.5c0.2-0.1,0.5,0,0.6,0.2
			l6.8,7.6c0.2,0.2,0.2,0.6,0,0.8l-6.8,7.6C91,89.9,90.8,90,90.7,90z M91.3,75.7v12.2l5.4-6.1L91.3,75.7z"/>
	</g>
	<g>
		<g>
			<polygon class="st4" points="88,132.4 88,140 74.4,140 74.4,122.6 83,122.6 			"/>
		</g>
		<g>
			<path class="st2" d="M88,140.6H74.4c-0.3,0-0.6-0.3-0.6-0.6v-17.4c0-0.3,0.3-0.6,0.6-0.6H83c0.3,0,0.6,0.3,0.6,0.6
				c0,0.3-0.3,0.6-0.6,0.6h-8.1v16.2h12.5v-7c0-0.3,0.3-0.6,0.6-0.6c0.3,0,0.6,0.3,0.6,0.6v7.6C88.6,140.3,88.4,140.6,88,140.6z"/>
		</g>
		<g>
			<polygon class="st4" points="85.3,132.3 80.8,134.7 81.4,129.5 87.1,121.4 91,124.1 			"/>
		</g>
		<g>
			<path class="st2" d="M80.8,135.2c-0.1,0-0.2,0-0.3-0.1c-0.2-0.1-0.3-0.3-0.2-0.6l0.6-5.1c0-0.1,0-0.2,0.1-0.3l5.7-8.2
				c0.1-0.1,0.2-0.2,0.4-0.2c0.2,0,0.3,0,0.4,0.1l3.9,2.7c0.3,0.2,0.3,0.6,0.1,0.8l-5.7,8.2c-0.1,0.1-0.1,0.1-0.2,0.2l-4.6,2.4
				C81,135.2,80.9,135.2,80.8,135.2z M82,129.8l-0.5,3.9l3.4-1.8l5.2-7.6l-3-2L82,129.8z"/>
		</g>
	</g>
	<g>
		<g>
			<polygon class="st2" points="161.9,92.5 160.2,91.7 158.5,92.6 158.8,90.7 157.4,89.4 159.3,89.1 160,87.4 161,89 162.9,89.3 
				161.5,90.6 			"/>
		</g>
		<g>
			<polygon class="st2" points="168.9,92.5 167.2,91.7 165.5,92.6 165.8,90.7 164.4,89.4 166.3,89.1 167.1,87.4 168,89 169.9,89.3 
				168.5,90.6 			"/>
		</g>
		<g>
			<polygon class="st2" points="176,92.5 174.2,91.7 172.6,92.6 172.8,90.7 171.4,89.4 173.3,89.1 174.1,87.4 175,89 176.9,89.3 
				175.6,90.6 			"/>
		</g>
		<g>
			<polygon class="st2" points="183,92.5 181.3,91.7 179.6,92.6 179.8,90.7 178.4,89.4 180.3,89.1 181.1,87.4 182,89 183.9,89.3 
				182.6,90.6 			"/>
		</g>
	</g>
	<g>
		<g>
			<path class="st2" d="M120.8,87.2c-0.2,0-0.3-0.1-0.4-0.2c-0.2-0.2-0.2-0.6,0.1-0.8l6.9-6.1c0.1-0.1,0.3-0.2,0.5-0.1
				c0.2,0,0.3,0.1,0.4,0.3l2.5,3.9l12.1-11.3c0.2-0.2,0.6-0.2,0.8,0c0.2,0.2,0.2,0.6,0,0.8L131,85.5c-0.1,0.1-0.3,0.2-0.5,0.2
				c-0.2,0-0.3-0.1-0.4-0.3l-2.5-3.9l-6.4,5.7C121.1,87.2,121,87.2,120.8,87.2z"/>
		</g>
		<g>
			<path class="st2" d="M142,78.5c0,0-0.1,0-0.1,0c-0.3-0.1-0.5-0.4-0.4-0.7l1-3.7l-4.3,1c-0.3,0.1-0.6-0.1-0.7-0.4
				c-0.1-0.3,0.1-0.6,0.4-0.7l5.3-1.2c0.2,0,0.4,0,0.6,0.2c0.1,0.1,0.2,0.4,0.1,0.6l-1.2,4.7C142.5,78.3,142.3,78.5,142,78.5z"/>
		</g>
		<g>
			<path class="st2" d="M120.8,90.1c-0.3,0-0.6-0.3-0.6-0.6V77.1c0-0.3,0.3-0.6,0.6-0.6s0.6,0.3,0.6,0.6v12.4
				C121.4,89.8,121.2,90.1,120.8,90.1z"/>
		</g>
	</g>
	<g>
		<g>
			<path class="st2" d="M174.3,77.6l-0.7-9.8h2.1l-0.6,9.8H174.3z M173.8,80.7v-1.9h1.9v1.9H173.8z"/>
		</g>
	</g>
	<g>
		<circle class="st5" cx="83.2" cy="112.7" r="5"/>
	</g>
	<g>
		<circle class="st5" cx="204.9" cy="171.7" r="3.1"/>
	</g>
	<g>
		<path class="st2" d="M79.1,178.8c-2.8,0-5-2.2-5-5s2.2-5,5-5c2.8,0,5,2.2,5,5S81.9,178.8,79.1,178.8z M79.1,170
			c-2.1,0-3.8,1.7-3.8,3.8s1.7,3.8,3.8,3.8c2.1,0,3.8-1.7,3.8-3.8S81.2,170,79.1,170z"/>
	</g>
	<g>
		<path class="st2" d="M196.6,96.6c-1.5,0-2.7-1.2-2.7-2.7c0-1.5,1.2-2.7,2.7-2.7c1.5,0,2.7,1.2,2.7,2.7
			C199.4,95.4,198.1,96.6,196.6,96.6z M196.6,92.3c-0.9,0-1.5,0.7-1.5,1.5s0.7,1.5,1.5,1.5s1.5-0.7,1.5-1.5S197.5,92.3,196.6,92.3z"
			/>
	</g>
</g>
</svg>
