<?xml version="1.0" encoding="utf-8"?>
<!-- Generator: Adobe Illustrator 21.1.0, SVG Export Plug-In . SVG Version: 6.00 Build 0)  -->
<svg version="1.1" id="Layer_1" xmlns="http://www.w3.org/2000/svg" xmlns:xlink="http://www.w3.org/1999/xlink" x="0px" y="0px"
	 viewBox="0 0 500 500" style="enable-background:new 0 0 500 500;" xml:space="preserve">
<g>
	<path d="M119.2,352.3c-12.1-10.5-21.2-24.8-27.3-43c-6.1-18.2-9.2-38.8-9.2-61.8c0-23.2,3-43.9,9-62c6-18.1,15.1-32.4,27.3-42.9
		c12.2-10.5,27.1-15.7,44.7-15.7c17.6,0,32.5,5.2,44.7,15.6c12.2,10.4,21.3,24.7,27.5,42.9c6.1,18.2,9.2,38.9,9.2,62.1
		c0,23-3.1,43.6-9.2,61.8c-6.1,18.2-15.3,32.6-27.5,43c-12.2,10.5-27.1,15.7-44.7,15.7C146.1,368,131.2,362.8,119.2,352.3z
		 M208.1,320.3c10.4-18,15.6-42.3,15.6-72.9c0-30.8-5.2-55.2-15.6-73.2c-10.4-18-25.2-27-44.4-27c-19,0-33.7,9-44.1,27
		c-10.4,18-15.6,42.4-15.6,73.2c0,30.6,5.2,54.9,15.6,72.9c10.4,18,25.1,27,44.1,27C182.9,347.3,197.7,338.3,208.1,320.3z"/>
	<path d="M341.5,133.4c1.7,1.9,2.5,4.2,2.5,6.9v214.4c0,2.9-1.1,5.3-3.2,7.2c-2.1,1.9-4.7,2.8-7.9,2.8c-2.9,0-5.4-0.9-7.4-2.8
		c-2-1.9-3-4.3-3-7.2v-196l-41.9,24.8c-1.6,0.9-3.1,1.3-4.7,1.3c-2.9,0-5.4-1.1-7.5-3.4c-2.1-2.2-3.2-4.7-3.2-7.4
		c0-1.6,0.5-3.1,1.5-4.7c1-1.6,2.3-2.8,3.9-3.7l56.6-34.2c2.2-1.3,4.9-1.8,8-1.3C337.7,130.4,339.8,131.5,341.5,133.4z"/>
	<path d="M395.6,361.2c-2-2.3-3-5.5-3-9.5v-7c0-4,1-7.1,3-9.4c2-2.2,4.9-3.4,8.7-3.4h2.3c3.8,0,6.7,1.1,8.7,3.4c2,2.2,3,5.4,3,9.4v7
		c0,4-1,7.2-3,9.5c-2,2.3-4.9,3.5-8.7,3.5h-2.3C400.5,364.7,397.6,363.5,395.6,361.2z"/>
</g>
</svg>
