<?xml version="1.0" encoding="utf-8"?>
<!-- Generator: Adobe Illustrator 21.1.0, SVG Export Plug-In . SVG Version: 6.00 Build 0)  -->
<svg version="1.1" id="Layer_1" xmlns="http://www.w3.org/2000/svg" xmlns:xlink="http://www.w3.org/1999/xlink" x="0px" y="0px"
	 viewBox="0 0 500 500" style="enable-background:new 0 0 500 500;" xml:space="preserve">
<g>
	<path d="M80,352.3c-12.1-10.5-21.2-24.8-27.3-43c-6.1-18.2-9.2-38.8-9.2-61.8c0-23.2,3-43.9,9-62c6-18.1,15.1-32.4,27.3-42.9
		c12.2-10.5,27.1-15.7,44.7-15.7c17.6,0,32.5,5.2,44.7,15.6c12.2,10.4,21.3,24.7,27.5,42.9c6.1,18.2,9.2,38.9,9.2,62.1
		c0,23-3.1,43.6-9.2,61.8c-6.1,18.2-15.3,32.6-27.5,43c-12.2,10.5-27.1,15.7-44.7,15.7C106.9,368,92.1,362.8,80,352.3z M168.9,320.3
		c10.4-18,15.6-42.3,15.6-72.9c0-30.8-5.2-55.2-15.6-73.2c-10.4-18-25.2-27-44.4-27c-19,0-33.7,9-44.1,27
		c-10.4,18-15.6,42.4-15.6,73.2c0,30.6,5.2,54.9,15.6,72.9c10.4,18,25.1,27,44.1,27C143.8,347.3,158.5,338.3,168.9,320.3z"/>
	<path d="M396.4,348.1c1.9,1.9,2.8,4.2,2.8,6.9c0,2.9-1,5.3-2.8,7c-1.9,1.8-4.2,2.7-6.9,2.7H263.9c-3.1,0-5.7-0.9-7.7-2.7
		c-2-1.8-3-4.2-3-7.4c0-2.5,0.9-4.8,2.7-7l77.4-85.4c12.5-13.4,21.8-25.4,27.8-36c6-10.6,9-21,9-31.3c0-15.2-4.6-27.1-13.7-35.8
		c-9.2-8.7-21.9-13.1-38.2-13.1c-10.9,0-20.7,2.6-29.3,7.9c-8.6,5.3-15,13.2-19.3,24c-2.5,4-5.4,6-8.7,6c-2.5,0-4.8-0.9-7-2.7
		c-2.2-1.8-3.4-3.8-3.4-6c0-1.3,0.4-2.9,1.3-4.7c0.9-1.8,2-3.6,3.3-5.4c5.8-12.1,14.5-21.4,26.1-28.1c11.6-6.7,24.3-10.1,38.2-10.1
		c22.6,0,40.2,6.1,52.9,18.4c12.7,12.3,19.1,28.4,19.1,48.2c0,12.3-3.3,24.8-10,37.7c-6.7,12.8-17.8,27.8-33.2,44.7l-61.6,69.3
		h102.8C392.2,345.3,394.5,346.2,396.4,348.1z"/>
	<path d="M434.7,361.2c-2-2.3-3-5.5-3-9.5v-7c0-4,1-7.1,3-9.4c2-2.2,4.9-3.4,8.7-3.4h2.3c3.8,0,6.7,1.1,8.7,3.4c2,2.2,3,5.4,3,9.4v7
		c0,4-1,7.2-3,9.5c-2,2.3-4.9,3.5-8.7,3.5h-2.3C439.7,364.7,436.8,363.5,434.7,361.2z"/>
</g>
</svg>
