<?xml version="1.0" encoding="utf-8"?>
<!-- Generator: Adobe Illustrator 21.1.0, SVG Export Plug-In . SVG Version: 6.00 Build 0)  -->
<svg version="1.1" id="Layer_1" xmlns="http://www.w3.org/2000/svg" xmlns:xlink="http://www.w3.org/1999/xlink" x="0px" y="0px"
	 viewBox="0 0 500 500" style="enable-background:new 0 0 500 500;" xml:space="preserve">
<g>
	<path d="M87.9,352.3c-12.1-10.5-21.2-24.8-27.3-43c-6.1-18.2-9.2-38.8-9.2-61.8c0-23.2,3-43.9,9-62c6-18.1,15.1-32.4,27.3-42.9
		c12.2-10.5,27.1-15.7,44.7-15.7c17.6,0,32.5,5.2,44.7,15.6c12.2,10.4,21.3,24.7,27.5,42.9c6.1,18.2,9.2,38.9,9.2,62.1
		c0,23-3.1,43.6-9.2,61.8c-6.1,18.2-15.3,32.6-27.5,43C165,362.8,150.1,368,132.4,368C114.8,368,99.9,362.8,87.9,352.3z
		 M176.8,320.3c10.4-18,15.6-42.3,15.6-72.9c0-30.8-5.2-55.2-15.6-73.2c-10.4-18-25.2-27-44.4-27c-19,0-33.7,9-44.1,27
		c-10.4,18-15.6,42.4-15.6,73.2c0,30.6,5.2,54.9,15.6,72.9c10.4,18,25.1,27,44.1,27C151.6,347.3,166.4,338.3,176.8,320.3z"/>
	<path d="M352.3,225c10.8,5.8,19.5,14.3,26.1,25.5c6.6,11.2,9.9,24.3,9.9,39.5c0,15.2-3.6,28.7-10.9,40.5
		c-7.3,11.8-17.1,21.1-29.6,27.6c-12.5,6.6-26.4,9.9-41.5,9.9c-9.6,0-18.9-1.6-27.8-4.7c-8.9-3.1-16.5-7.8-22.8-14.1
		c-3.1-2.2-4.7-4.9-4.7-8c0-2.7,1-5.2,3-7.5c2-2.3,4.4-3.5,7-3.5c2.7,0,5.5,1.2,8.4,3.7c9.4,10,22.3,15.1,38.9,15.1
		c10.7,0,20.7-2.5,29.8-7.4c9.2-4.9,16.4-11.8,21.8-20.8c5.4-8.9,8-19,8-30.2c0-12.3-2.7-22.6-8.2-30.8
		c-5.5-8.3-12.6-14.3-21.4-18.3c-8.8-3.9-18.1-5.9-28-5.9c-2.7,0-6.1,0.4-10.4,1.2c-4.2,0.8-6.9,1.2-8,1.2c-2.7,0-4.9-0.9-6.5-2.8
		c-1.7-1.9-2.5-4.3-2.5-7.2c0-2.9,1.1-5.5,3.3-7.7l64-71H257c-2.7,0-5-0.9-6.9-2.7c-1.9-1.8-2.8-4.1-2.8-7c0-2.7,0.9-4.9,2.8-6.7
		c1.9-1.8,4.2-2.7,6.9-2.7h112.6c3.6,0,6.2,1.1,7.9,3.2c1.7,2.1,2.5,4.5,2.5,7.2c0,2.7-1.1,5.1-3.4,7.4l-61.3,68.3h2
		C329.8,216.3,341.5,219.2,352.3,225z"/>
	<path d="M426.9,361.2c-2-2.3-3-5.5-3-9.5v-7c0-4,1-7.1,3-9.4c2-2.2,4.9-3.4,8.7-3.4h2.3c3.8,0,6.7,1.1,8.7,3.4c2,2.2,3,5.4,3,9.4v7
		c0,4-1,7.2-3,9.5c-2,2.3-4.9,3.5-8.7,3.5h-2.3C431.8,364.7,428.9,363.5,426.9,361.2z"/>
</g>
</svg>
